G04 #@! TF.GenerationSoftware,KiCad,Pcbnew,(6.0.5)*
G04 #@! TF.CreationDate,2022-05-22T00:57:22-06:00*
G04 #@! TF.ProjectId,base,62617365-2e6b-4696-9361-645f70636258,rev?*
G04 #@! TF.SameCoordinates,Original*
G04 #@! TF.FileFunction,Soldermask,Bot*
G04 #@! TF.FilePolarity,Negative*
%FSLAX46Y46*%
G04 Gerber Fmt 4.6, Leading zero omitted, Abs format (unit mm)*
G04 Created by KiCad (PCBNEW (6.0.5)) date 2022-05-22 00:57:22*
%MOMM*%
%LPD*%
G01*
G04 APERTURE LIST*
G04 Aperture macros list*
%AMRoundRect*
0 Rectangle with rounded corners*
0 $1 Rounding radius*
0 $2 $3 $4 $5 $6 $7 $8 $9 X,Y pos of 4 corners*
0 Add a 4 corners polygon primitive as box body*
4,1,4,$2,$3,$4,$5,$6,$7,$8,$9,$2,$3,0*
0 Add four circle primitives for the rounded corners*
1,1,$1+$1,$2,$3*
1,1,$1+$1,$4,$5*
1,1,$1+$1,$6,$7*
1,1,$1+$1,$8,$9*
0 Add four rect primitives between the rounded corners*
20,1,$1+$1,$2,$3,$4,$5,0*
20,1,$1+$1,$4,$5,$6,$7,0*
20,1,$1+$1,$6,$7,$8,$9,0*
20,1,$1+$1,$8,$9,$2,$3,0*%
%AMHorizOval*
0 Thick line with rounded ends*
0 $1 width*
0 $2 $3 position (X,Y) of the first rounded end (center of the circle)*
0 $4 $5 position (X,Y) of the second rounded end (center of the circle)*
0 Add line between two ends*
20,1,$1,$2,$3,$4,$5,0*
0 Add two circle primitives to create the rounded ends*
1,1,$1,$2,$3*
1,1,$1,$4,$5*%
G04 Aperture macros list end*
%ADD10RoundRect,0.051000X-0.850000X-0.850000X0.850000X-0.850000X0.850000X0.850000X-0.850000X0.850000X0*%
%ADD11O,1.802000X1.802000*%
%ADD12RoundRect,0.051000X1.131371X0.000000X0.000000X1.131371X-1.131371X0.000000X0.000000X-1.131371X0*%
%ADD13HorizOval,1.702000X0.000000X0.000000X0.000000X0.000000X0*%
%ADD14C,1.702000*%
%ADD15C,1.852000*%
%ADD16C,4.089800*%
%ADD17R,2.550000X2.500000*%
%ADD18C,1.132000*%
%ADD19RoundRect,1.351000X0.300000X0.000000X0.300000X0.000000X-0.300000X0.000000X-0.300000X0.000000X0*%
%ADD20C,2.102000*%
%ADD21C,3.150000*%
%ADD22C,3.102000*%
%ADD23RoundRect,0.051000X1.250000X-1.275000X1.250000X1.275000X-1.250000X1.275000X-1.250000X-1.275000X0*%
%ADD24RoundRect,0.051000X0.800000X0.800000X-0.800000X0.800000X-0.800000X-0.800000X0.800000X-0.800000X0*%
%ADD25O,1.702000X1.702000*%
%ADD26C,1.502000*%
%ADD27O,1.502000X1.502000*%
%ADD28C,0.752000*%
%ADD29O,1.102000X1.702000*%
%ADD30O,1.102000X2.202000*%
%ADD31RoundRect,0.051000X0.800000X-0.800000X0.800000X0.800000X-0.800000X0.800000X-0.800000X-0.800000X0*%
%ADD32RoundRect,0.051000X-1.275000X-1.250000X1.275000X-1.250000X1.275000X1.250000X-1.275000X1.250000X0*%
%ADD33HorizOval,1.502000X0.000000X0.000000X0.000000X0.000000X0*%
%ADD34RoundRect,0.051000X0.850000X-0.850000X0.850000X0.850000X-0.850000X0.850000X-0.850000X-0.850000X0*%
%ADD35RoundRect,0.051000X-0.850000X-0.410000X0.850000X-0.410000X0.850000X0.410000X-0.850000X0.410000X0*%
%ADD36RoundRect,0.256000X-0.645000X-0.205000X0.645000X-0.205000X0.645000X0.205000X-0.645000X0.205000X0*%
%ADD37RoundRect,0.051000X0.850000X0.410000X-0.850000X0.410000X-0.850000X-0.410000X0.850000X-0.410000X0*%
%ADD38RoundRect,0.256000X0.645000X0.205000X-0.645000X0.205000X-0.645000X-0.205000X0.645000X-0.205000X0*%
%ADD39RoundRect,0.051000X0.410000X-0.850000X0.410000X0.850000X-0.410000X0.850000X-0.410000X-0.850000X0*%
%ADD40RoundRect,0.256000X0.205000X-0.645000X0.205000X0.645000X-0.205000X0.645000X-0.205000X-0.645000X0*%
G04 APERTURE END LIST*
D10*
X214324000Y-115715000D03*
D11*
X216864000Y-115715000D03*
X214324000Y-118255000D03*
X216864000Y-118255000D03*
X214324000Y-120795000D03*
X216864000Y-120795000D03*
D12*
X189706250Y-95531077D03*
D13*
X184318096Y-90142923D03*
D14*
X218139000Y-96924000D03*
X218139000Y-99424000D03*
D12*
X189706250Y-105056077D03*
D13*
X184318096Y-99667923D03*
D12*
X189706250Y-90768577D03*
D13*
X184318096Y-85380423D03*
D12*
X189706250Y-76596875D03*
D13*
X184318096Y-71208721D03*
D14*
X218139000Y-92312000D03*
X218139000Y-89812000D03*
D15*
X104457500Y-121443750D03*
D16*
X109537500Y-121443750D03*
D17*
X102452500Y-118903750D03*
D15*
X114617500Y-121443750D03*
D17*
X115352500Y-116363750D03*
D12*
X189706250Y-71834375D03*
D13*
X184318096Y-66446221D03*
D12*
X189706250Y-67071875D03*
D13*
X184318096Y-61683721D03*
D12*
X189706250Y-124106077D03*
D13*
X184318096Y-118717923D03*
D12*
X189706250Y-100293577D03*
D13*
X184318096Y-94905423D03*
D12*
X189706250Y-86006077D03*
D13*
X184318096Y-80617923D03*
D12*
X189706250Y-62309375D03*
D13*
X184318096Y-56921221D03*
D12*
X189706250Y-119343577D03*
D13*
X184318096Y-113955423D03*
D12*
X189706250Y-114581077D03*
D13*
X184318096Y-109192923D03*
D12*
X189706250Y-109818577D03*
D13*
X184318096Y-104430423D03*
D12*
X189706250Y-147929779D03*
D13*
X184318096Y-142541625D03*
D12*
X189706250Y-143156077D03*
D13*
X184318096Y-137767923D03*
D16*
X147637500Y-64293750D03*
D17*
X140552500Y-61753750D03*
D15*
X142557500Y-64293750D03*
X152717500Y-64293750D03*
D17*
X153452500Y-59213750D03*
D18*
X213821000Y-92178000D03*
X213821000Y-97058000D03*
D19*
X202406250Y-132512500D03*
X202406250Y-143712500D03*
D20*
X195406250Y-140612500D03*
X195406250Y-135612500D03*
X209906250Y-140612500D03*
X209906250Y-138112500D03*
X209906250Y-135612500D03*
D17*
X140552500Y-118903750D03*
D15*
X142557500Y-121443750D03*
D17*
X153452500Y-116363750D03*
D16*
X147637500Y-121443750D03*
D15*
X152717500Y-121443750D03*
D17*
X121502500Y-61753750D03*
X134402500Y-59213750D03*
D16*
X128587500Y-64293750D03*
D15*
X133667500Y-64293750D03*
X123507500Y-64293750D03*
D21*
X159702500Y-104806750D03*
D16*
X174942500Y-80930750D03*
X174942500Y-104806750D03*
D15*
X166687500Y-87788750D03*
D21*
X159702500Y-80930750D03*
D22*
X164147500Y-96678750D03*
X161607500Y-90328750D03*
D15*
X166687500Y-97948750D03*
D16*
X166687500Y-92868750D03*
D23*
X164147500Y-99953750D03*
X161607500Y-87026750D03*
D17*
X115352500Y-78263750D03*
D16*
X109537500Y-83343750D03*
D15*
X114617500Y-83343750D03*
X104457500Y-83343750D03*
D17*
X102452500Y-80803750D03*
D15*
X142557500Y-140493750D03*
D17*
X153452500Y-135413750D03*
D15*
X152717500Y-140493750D03*
D17*
X140552500Y-137953750D03*
D16*
X147637500Y-140493750D03*
D17*
X172502500Y-59213750D03*
D16*
X166687500Y-64293750D03*
D17*
X159602500Y-61753750D03*
D15*
X161607500Y-64293750D03*
X171767500Y-64293750D03*
X166687500Y-136048750D03*
D22*
X164147500Y-134778750D03*
X161607500Y-128428750D03*
D16*
X166687500Y-130968750D03*
X174942500Y-142906750D03*
D21*
X159702500Y-119030750D03*
D15*
X166687500Y-125888750D03*
D21*
X159702500Y-142906750D03*
D16*
X174942500Y-119030750D03*
D23*
X164147500Y-138053750D03*
X161607500Y-125126750D03*
D17*
X140552500Y-80803750D03*
X153452500Y-78263750D03*
D15*
X152717500Y-83343750D03*
D16*
X147637500Y-83343750D03*
D15*
X142557500Y-83343750D03*
D17*
X102452500Y-99853750D03*
X115352500Y-97313750D03*
D16*
X109537500Y-102393750D03*
D15*
X104457500Y-102393750D03*
X114617500Y-102393750D03*
D16*
X128587500Y-102393750D03*
D15*
X133667500Y-102393750D03*
D17*
X134402500Y-97313750D03*
D15*
X123507500Y-102393750D03*
D17*
X121502500Y-99853750D03*
D12*
X189706250Y-133631077D03*
D13*
X184318096Y-128242923D03*
D12*
X189706250Y-128868577D03*
D13*
X184318096Y-123480423D03*
D12*
X189706250Y-138393577D03*
D13*
X184318096Y-133005423D03*
D17*
X115352500Y-59213750D03*
D15*
X104457500Y-64293750D03*
X114617500Y-64293750D03*
D16*
X109537500Y-64293750D03*
D17*
X102452500Y-61753750D03*
D15*
X133667500Y-83343750D03*
D17*
X121502500Y-80803750D03*
D15*
X123507500Y-83343750D03*
D17*
X134402500Y-78263750D03*
D16*
X128587500Y-83343750D03*
D15*
X123507500Y-121443750D03*
D17*
X121502500Y-118903750D03*
X134402500Y-116363750D03*
D16*
X128587500Y-121443750D03*
D15*
X133667500Y-121443750D03*
D12*
X189706250Y-81359375D03*
D13*
X184318096Y-75971221D03*
D24*
X209946875Y-127396875D03*
D25*
X209946875Y-124856875D03*
X209946875Y-122316875D03*
X209946875Y-119776875D03*
X209946875Y-117236875D03*
X209946875Y-114696875D03*
X209946875Y-112156875D03*
X209946875Y-109616875D03*
X209946875Y-107076875D03*
X209946875Y-104536875D03*
X209946875Y-101996875D03*
X209946875Y-99456875D03*
X209946875Y-96916875D03*
X209946875Y-94376875D03*
X209946875Y-91836875D03*
X209946875Y-89296875D03*
X209946875Y-86756875D03*
X209946875Y-84216875D03*
X209946875Y-81676875D03*
X209946875Y-79136875D03*
X194706875Y-79136875D03*
X194706875Y-81676875D03*
X194706875Y-84216875D03*
X194706875Y-86756875D03*
X194706875Y-89296875D03*
X194706875Y-91836875D03*
X194706875Y-94376875D03*
X194706875Y-96916875D03*
X194706875Y-99456875D03*
X194706875Y-101996875D03*
X194706875Y-104536875D03*
X194706875Y-107076875D03*
X194706875Y-109616875D03*
X194706875Y-112156875D03*
X194706875Y-114696875D03*
X194706875Y-117236875D03*
X194706875Y-119776875D03*
X194706875Y-122316875D03*
X194706875Y-124856875D03*
X194706875Y-127396875D03*
D26*
X216900000Y-65200000D03*
D27*
X216900000Y-72820000D03*
D26*
X210725000Y-55143750D03*
D27*
X210725000Y-62763750D03*
D28*
X199510000Y-54750000D03*
X205290000Y-54750000D03*
D29*
X198080000Y-51100000D03*
D30*
X198080000Y-55280000D03*
X206720000Y-55280000D03*
D29*
X206720000Y-51100000D03*
D26*
X214312500Y-65196875D03*
D27*
X214312500Y-72816875D03*
D19*
X202406250Y-63456250D03*
X202406250Y-74656250D03*
D20*
X195406250Y-71556250D03*
X195406250Y-66556250D03*
X209906250Y-71556250D03*
X209906250Y-69056250D03*
X209906250Y-66556250D03*
D14*
X212551000Y-102004000D03*
X212551000Y-104504000D03*
X215599000Y-102004000D03*
X215599000Y-104504000D03*
D31*
X216900000Y-62800000D03*
D25*
X216900000Y-55180000D03*
D26*
X194056250Y-55143750D03*
D27*
X194056250Y-62763750D03*
D26*
X219500000Y-65200000D03*
D27*
X219500000Y-72820000D03*
D31*
X214300000Y-62800000D03*
D25*
X214300000Y-55180000D03*
D17*
X153452500Y-97313750D03*
D16*
X147637500Y-102393750D03*
D15*
X152717500Y-102393750D03*
X142557500Y-102393750D03*
D17*
X140552500Y-99853750D03*
D21*
X107124500Y-133508750D03*
D22*
X121602500Y-135413750D03*
D16*
X119062500Y-140493750D03*
D15*
X124142500Y-140493750D03*
D21*
X131000500Y-133508750D03*
D22*
X115252500Y-137953750D03*
D15*
X113982500Y-140493750D03*
D16*
X107124500Y-148748750D03*
X131000500Y-148748750D03*
D32*
X111977500Y-137953750D03*
X124904500Y-135413750D03*
D26*
X177400000Y-68950000D03*
D33*
X182788154Y-74338154D03*
D14*
X101045000Y-70468000D03*
X101045000Y-67968000D03*
X101045000Y-127618000D03*
X101045000Y-125118000D03*
X101045000Y-146668000D03*
X101045000Y-144168000D03*
D34*
X215606000Y-84172000D03*
D11*
X218146000Y-84172000D03*
D14*
X101045000Y-108568000D03*
X101045000Y-106068000D03*
X101045000Y-89518000D03*
X101045000Y-87018000D03*
D35*
X164137500Y-68306250D03*
X164137500Y-69806250D03*
D36*
X169237500Y-69806250D03*
D35*
X169237500Y-68306250D03*
X116512500Y-144506250D03*
X116512500Y-146006250D03*
D36*
X121612500Y-146006250D03*
D35*
X121612500Y-144506250D03*
X126037500Y-68306250D03*
X126037500Y-69806250D03*
D36*
X131137500Y-69806250D03*
D35*
X131137500Y-68306250D03*
D37*
X150187500Y-88856250D03*
X150187500Y-87356250D03*
D38*
X145087500Y-87356250D03*
D37*
X145087500Y-88856250D03*
X112087500Y-88856250D03*
X112087500Y-87356250D03*
D38*
X106987500Y-87356250D03*
D37*
X106987500Y-88856250D03*
X131137500Y-88856250D03*
X131137500Y-87356250D03*
D38*
X126037500Y-87356250D03*
D37*
X126037500Y-88856250D03*
D35*
X126037500Y-106406250D03*
X126037500Y-107906250D03*
D36*
X131137500Y-107906250D03*
D35*
X131137500Y-106406250D03*
D37*
X112087500Y-126956250D03*
X112087500Y-125456250D03*
D38*
X106987500Y-125456250D03*
D37*
X106987500Y-126956250D03*
X150187500Y-126956250D03*
X150187500Y-125456250D03*
D38*
X145087500Y-125456250D03*
D37*
X145087500Y-126956250D03*
D35*
X145087500Y-106406250D03*
X145087500Y-107906250D03*
D36*
X150187500Y-107906250D03*
D35*
X150187500Y-106406250D03*
D37*
X131137500Y-126956250D03*
X131137500Y-125456250D03*
D38*
X126037500Y-125456250D03*
D37*
X126037500Y-126956250D03*
D35*
X106987500Y-106406250D03*
X106987500Y-107906250D03*
D36*
X112087500Y-107906250D03*
D35*
X112087500Y-106406250D03*
D39*
X170700000Y-133518750D03*
X172200000Y-133518750D03*
D40*
X172200000Y-128418750D03*
D39*
X170700000Y-128418750D03*
X170700000Y-95418750D03*
X172200000Y-95418750D03*
D40*
X172200000Y-90318750D03*
D39*
X170700000Y-90318750D03*
D35*
X145087500Y-144506250D03*
X145087500Y-146006250D03*
D36*
X150187500Y-146006250D03*
D35*
X150187500Y-144506250D03*
X145087500Y-68306250D03*
X145087500Y-69806250D03*
D36*
X150187500Y-69806250D03*
D35*
X150187500Y-68306250D03*
X106987500Y-68306250D03*
X106987500Y-69806250D03*
D36*
X112087500Y-69806250D03*
D35*
X112087500Y-68306250D03*
M02*
