M48
; DRILL file {KiCad (6.0.5)} date Sun May 22 00:57:25 2022
; FORMAT={-:-/ absolute / inch / decimal}
; #@! TF.CreationDate,2022-05-22T00:57:25-06:00
; #@! TF.GenerationSoftware,Kicad,Pcbnew,(6.0.5)
; #@! TF.FileFunction,Plated,1,2,PTH
FMAT,2
INCH
; #@! TA.AperFunction,Plated,PTH,ViaDrill
T1C0.0118
; #@! TA.AperFunction,Plated,PTH,ComponentDrill
T2C0.0157
; #@! TA.AperFunction,Plated,PTH,ComponentDrill
T3C0.0236
; #@! TA.AperFunction,Plated,PTH,ComponentDrill
T4C0.0248
; #@! TA.AperFunction,Plated,PTH,ComponentDrill
T5C0.0276
; #@! TA.AperFunction,Plated,PTH,ComponentDrill
T6C0.0315
; #@! TA.AperFunction,Plated,PTH,ComponentDrill
T7C0.0394
; #@! TA.AperFunction,Plated,PTH,ComponentDrill
T8C0.0433
; #@! TA.AperFunction,Plated,PTH,ComponentDrill
T9C0.1181
%
G90
G05
T1
X4.0683Y-4.3217
X4.0683Y-4.928
X4.0841Y-2.8178
X4.0841Y-3.495
X4.19Y-4.07
X4.37Y-5.47
X4.37Y-5.3924
X4.59Y-3.51
X4.59Y-5.01
X4.7125Y-2.8114
X4.79Y-2.68
X4.79Y-4.18
X4.96Y-5.29
X4.96Y-5.37
X5.34Y-3.51
X5.34Y-5.01
X5.462Y-2.8099
X5.5369Y-2.68
X5.54Y-4.18
X5.55Y-5.69
X6.09Y-4.18
X6.2125Y-2.8075
X6.2849Y-2.68
X6.325Y-4.8898
X6.4Y-4.89
X6.4306Y-3.9753
X6.4306Y-5.4713
X6.466Y-4.1564
X6.4924Y-4.1804
X6.4935Y-3.9753
X6.4935Y-5.4713
X6.5369Y-4.0855
X6.5644Y-4.1091
X6.64Y-3.78
X6.7061Y-4.8572
X6.714Y-4.9989
X6.72Y-3.3611
X6.72Y-3.49
X6.77Y-5.69
X6.78Y-5.32
X6.87Y-5.35
X7.04Y-5.52
X7.21Y-3.825
X7.36Y-2.34
X7.4Y-2.7548
X7.48Y-5.35
X7.53Y-2.7548
X7.5562Y-2.8897
X7.5802Y-2.91
X7.605Y-2.93
X7.7219Y-2.3139
X7.8981Y-2.3051
X8.02Y-4.02
X8.0236Y-2.3898
X8.1077Y-3.0304
X8.1471Y-4.8729
X8.1786Y-4.7942
X8.2416Y-2.2981
X8.32Y-3.05
X8.44Y-4.41
T2
X3.9625Y-2.4013
X3.9625Y-2.4613
X3.9625Y-3.1513
X3.9625Y-3.2112
X3.9625Y-3.9013
X3.9625Y-3.9612
X3.9625Y-4.6513
X3.9625Y-4.7112
X4.6125Y-2.3013
X4.6125Y-2.3613
X4.6125Y-3.0513
X4.6125Y-3.1113
X4.6125Y-3.8013
X4.6125Y-3.8613
X4.6125Y-4.5512
X4.6125Y-4.6113
X4.7125Y-2.4013
X4.7125Y-2.4613
X4.7125Y-3.1513
X4.7125Y-3.2112
X4.7125Y-3.9013
X4.7125Y-3.9612
X4.7125Y-4.6513
X4.7125Y-4.7112
X5.3625Y-2.3013
X5.3625Y-2.3613
X5.3625Y-3.0513
X5.3625Y-3.1113
X5.3625Y-3.8013
X5.3625Y-3.8613
X5.3625Y-4.5512
X5.3625Y-4.6113
X5.4625Y-2.4013
X5.4625Y-2.4613
X5.4625Y-3.1513
X5.4625Y-3.2112
X5.4625Y-3.9013
X5.4625Y-3.9612
X5.4625Y-4.6513
X5.4625Y-4.7112
X5.4625Y-5.4013
X5.4625Y-5.4612
X6.1125Y-2.3013
X6.1125Y-2.3613
X6.1125Y-3.0513
X6.1125Y-3.1113
X6.1125Y-3.8013
X6.1125Y-3.8613
X6.1125Y-4.5512
X6.1125Y-4.6113
X6.1125Y-5.3012
X6.1125Y-5.3613
X6.2125Y-2.4013
X6.2125Y-2.4613
X6.8625Y-2.3013
X6.8625Y-2.3613
T4
X8.4181Y-3.6291
X8.4181Y-3.8212
T5
X6.9843Y-2.7146
X7.1964Y-2.9267
X7.64Y-2.171
X7.64Y-2.471
X8.2963Y-2.171
X8.2963Y-2.471
X8.4375Y-2.5668
X8.4375Y-2.8668
X8.5394Y-2.5669
X8.5394Y-2.8669
X8.6417Y-2.5669
X8.6417Y-2.8669
T6
X3.9781Y-2.6759
X3.9781Y-2.7743
X3.9781Y-3.4259
X3.9781Y-3.5243
X3.9781Y-4.1759
X3.9781Y-4.2743
X3.9781Y-4.9259
X3.9781Y-5.0243
X3.9781Y-5.6759
X3.9781Y-5.7743
X7.2566Y-2.241
X7.2566Y-2.4285
X7.2566Y-2.616
X7.2566Y-2.8035
X7.2566Y-2.991
X7.2566Y-3.1739
X7.2566Y-3.3614
X7.2566Y-3.5489
X7.2566Y-3.7364
X7.2566Y-3.9239
X7.2566Y-4.1114
X7.2566Y-4.2989
X7.2566Y-4.4864
X7.2566Y-4.6739
X7.2566Y-4.8614
X7.2566Y-5.0489
X7.2566Y-5.2364
X7.2566Y-5.4239
X7.2566Y-5.6119
X7.4688Y-2.4531
X7.4688Y-2.6406
X7.4688Y-2.8281
X7.4688Y-3.0156
X7.4688Y-3.2031
X7.4688Y-3.3861
X7.4688Y-3.5736
X7.4688Y-3.7611
X7.4688Y-3.9486
X7.4688Y-4.1361
X7.4688Y-4.3236
X7.4688Y-4.5111
X7.4688Y-4.6986
X7.4688Y-4.8861
X7.4688Y-5.0736
X7.4688Y-5.2611
X7.4688Y-5.4486
X7.4688Y-5.6361
X7.4688Y-5.824
X7.6656Y-3.1156
X7.6656Y-3.2156
X7.6656Y-3.3156
X7.6656Y-3.4156
X7.6656Y-3.5156
X7.6656Y-3.6156
X7.6656Y-3.7156
X7.6656Y-3.8156
X7.6656Y-3.9156
X7.6656Y-4.0156
X7.6656Y-4.1156
X7.6656Y-4.2156
X7.6656Y-4.3156
X7.6656Y-4.4156
X7.6656Y-4.5156
X7.6656Y-4.6156
X7.6656Y-4.7156
X7.6656Y-4.8156
X7.6656Y-4.9156
X7.6656Y-5.0156
X8.2656Y-3.1156
X8.2656Y-3.2156
X8.2656Y-3.3156
X8.2656Y-3.4156
X8.2656Y-3.5156
X8.2656Y-3.6156
X8.2656Y-3.7156
X8.2656Y-3.8156
X8.2656Y-3.9156
X8.2656Y-4.0156
X8.2656Y-4.1156
X8.2656Y-4.2156
X8.2656Y-4.3156
X8.2656Y-4.4156
X8.2656Y-4.5156
X8.2656Y-4.6156
X8.2656Y-4.7156
X8.2656Y-4.8156
X8.2656Y-4.9156
X8.2656Y-5.0156
X8.3681Y-4.0159
X8.3681Y-4.1143
X8.437Y-2.1724
X8.437Y-2.4724
X8.4881Y-4.0159
X8.4881Y-4.1143
X8.5394Y-2.1724
X8.5394Y-2.4724
X8.5881Y-3.5359
X8.5881Y-3.6343
X8.5881Y-3.8159
X8.5881Y-3.9143
T7
X8.438Y-4.5557
X8.438Y-4.6557
X8.438Y-4.7557
X8.4884Y-3.3139
X8.538Y-4.5557
X8.538Y-4.6557
X8.538Y-4.7557
X8.5884Y-3.3139
T8
X7.6932Y-2.6203
X7.6932Y-2.8172
X7.6932Y-5.3391
X7.6932Y-5.5359
X8.264Y-2.6203
X8.264Y-2.7188
X8.264Y-2.8172
X8.264Y-5.3391
X8.264Y-5.4375
X8.264Y-5.5359
T9
X4.1625Y-2.4312
X4.1625Y-3.1812
X4.1625Y-3.9312
X4.1625Y-4.6812
X4.4125Y-2.3312
X4.4125Y-3.0812
X4.4125Y-3.8312
X4.4125Y-4.5812
X4.9125Y-2.4312
X4.9125Y-3.1812
X4.9125Y-3.9312
X4.9125Y-4.6812
X5.1625Y-2.3312
X5.1625Y-3.0812
X5.1625Y-3.8312
X5.1625Y-4.5812
X5.6625Y-2.4312
X5.6625Y-3.1812
X5.6625Y-3.9312
X5.6625Y-4.6812
X5.6625Y-5.4312
X5.9125Y-2.3312
X5.9125Y-3.0812
X5.9125Y-3.8312
X5.9125Y-4.5812
X5.9125Y-5.3312
X6.4125Y-2.4312
X6.6625Y-2.3312
T3
G00X7.7984Y-2.0236
M15
G01X7.7984Y-2.0
M16
G05
G00X7.7984Y-2.198
M15
G01X7.7984Y-2.1547
M16
G05
G00X8.1386Y-2.0236
M15
G01X8.1386Y-2.0
M16
G05
G00X8.1386Y-2.198
M15
G01X8.1386Y-2.1547
M16
G05
T0
M30
