0
SECTION
2
HEADER
9
$INSUNITS
70
4
9
$ACADVER
1
AC1014
9
$HANDSEED
5
FFFF
0
ENDSEC
0
SECTION
2
TABLES
0
TABLE
2
VPORT
5
8
100
AcDbSymbolTable
0
ENDTAB
0
TABLE
2
LTYPE
5
5
100
AcDbSymbolTable
0
LTYPE
5
14
100
AcDbSymbolTableRecord
100
AcDbLinetypeTableRecord
2
BYBLOCK
70
0
0
LTYPE
5
15
100
AcDbSymbolTableRecord
100
AcDbLinetypeTableRecord
2
BYLAYER
70
0
0
ENDTAB
0
TABLE
2
LAYER
5
2
100
AcDbSymbolTable
70
2
0
LAYER
5
50
100
AcDbSymbolTableRecord
100
AcDbLayerTableRecord
2
0
70
0
6
CONTINUOUS
0
ENDTAB
0
TABLE
2
STYLE
5
3
100
AcDbSymbolTable
70
1
0
STYLE
5
11
100
AcDbSymbolTableRecord
100
AcDbTextStyleTableRecord
2
STANDARD
70
0
0
ENDTAB
0
TABLE
2
VIEW
5
6
100
AcDbSymbolTable
70
0
0
ENDTAB
0
TABLE
2
UCS
5
7
100
AcDbSymbolTable
70
0
0
ENDTAB
0
TABLE
2
APPID
5
9
100
AcDbSymbolTable
70
2
0
APPID
5
12
100
AcDbSymbolTableRecord
100
AcDbRegAppTableRecord
2
ACAD
70
0
0
ENDTAB
0
TABLE
2
DIMSTYLE
5
A
100
AcDbSymbolTable
70
1
0
ENDTAB
0
TABLE
2
BLOCK_RECORD
5
1
100
AcDbSymbolTable
70
1
0
BLOCK_RECORD
5
1F
100
AcDbSymbolTableRecord
100
AcDbBlockTableRecord
2
*MODEL_SPACE
0
BLOCK_RECORD
5
1B
100
AcDbSymbolTableRecord
100
AcDbBlockTableRecord
2
*PAPER_SPACE
0
ENDTAB
0
ENDSEC
0
SECTION
2
BLOCKS
0
BLOCK
5
20
100
AcDbEntity
100
AcDbBlockBegin
2
*MODEL_SPACE
0
ENDBLK
5
21
100
AcDbEntity
100
AcDbBlockEnd
0
BLOCK
5
1C
100
AcDbEntity
100
AcDbBlockBegin
2
*PAPER_SPACE
0
ENDBLK
5
1D
100
AcDbEntity
100
AcDbBlockEnd
0
ENDSEC
0
SECTION
2
ENTITIES
0
LINE
5
100
100
AcDbEntity
8
0
100
AcDbLine
10
89.544419365448263
20
-153.29444696657308
30
50.000000000000028
11
89.544458793161596
21
-52.704998089244967
31
50.000000000000007
0
LINE
5
101
100
AcDbEntity
8
0
100
AcDbLine
10
173.69446334838852
20
-57.726330970764259
30
50
11
173.69446334838864
21
-70.726330970764252
31
50
0
ARC
5
102
100
AcDbEntity
8
0
100
AcDbCircle
10
141.14446334838863
20
-76.776330970764306
30
50
40
0.50000000000002487
210
0
220
0
230
1
100
AcDbArc
50
90.000000000006523
51
180
0
ARC
5
103
100
AcDbEntity
8
0
100
AcDbCircle
10
-160.19446334838864
20
-70.726330970764252
30
-50
40
0.50000000000002487
210
-0
220
0
230
-1
100
AcDbArc
50
-89.999999999993491
51
0
0
LINE
5
104
100
AcDbEntity
8
0
100
AcDbLine
10
116.04446334838869
20
-128.37633097076434
30
50
11
103.04446334838865
21
-128.37633097076434
31
50
0
LINE
5
105
100
AcDbEntity
8
0
100
AcDbLine
10
116.54446334838865
20
-114.87633097076433
30
50
11
116.54446334838865
21
-127.87633097076437
31
50
0
ARC
5
106
100
AcDbEntity
8
0
100
AcDbCircle
10
-160.19446334838861
20
-86.301330970764269
30
-50
40
0.49999999999997158
210
0
220
0
230
-1
100
AcDbArc
50
0
51
90
0
LINE
5
107
100
AcDbEntity
8
0
100
AcDbLine
10
159.69446334838861
20
-70.726330970764252
30
50
11
159.69446334838858
21
-57.726330970764259
31
50
0
LINE
5
108
100
AcDbEntity
8
0
100
AcDbLine
10
154.1444633483886
20
-76.276330970764292
30
50
11
141.14446334838857
21
-76.276330970764278
31
50
0
LINE
5
109
100
AcDbEntity
8
0
100
AcDbLine
10
173.19446334838855
20
-71.226330970764238
30
50
11
160.19446334838858
21
-71.22633097076428
31
50
0
LINE
5
110
100
AcDbEntity
8
0
100
AcDbLine
10
135.09446334838859
20
-57.226330970764295
30
50
11
122.09446334838857
21
-57.226330970764323
31
50
0
ARC
5
111
100
AcDbEntity
8
0
100
AcDbCircle
10
154.14446334838854
20
-70.726330970764252
30
50
40
0.50000000000002487
210
0
220
0
230
1
100
AcDbArc
50
-89.999999999993491
51
0
0
ARC
5
112
100
AcDbEntity
8
0
100
AcDbCircle
10
154.14446334838863
20
-76.776330970764263
30
50
40
0.49999999999997158
210
0
220
0
230
1
100
AcDbArc
50
0
51
90.000000000003254
0
LINE
5
113
100
AcDbEntity
8
0
100
AcDbLine
10
122.09446334838857
20
-71.226330970764309
30
50
11
135.09446334838859
21
-71.226330970764309
31
50
0
ARC
5
114
100
AcDbEntity
8
0
100
AcDbCircle
10
141.14446334838863
20
-57.72633097076433
30
50
40
0.50000000000004263
210
0
220
0
230
1
100
AcDbArc
50
90.000000000006523
51
180
0
LINE
5
115
100
AcDbEntity
8
0
100
AcDbLine
10
122.09446334838857
20
-76.276330970764306
30
50
11
135.09446334838859
21
-76.276330970764292
31
50
0
ARC
5
116
100
AcDbEntity
8
0
100
AcDbCircle
10
-135.09446334838864
20
-76.776330970764292
30
-50
40
0.50000000000000711
210
0
220
0
230
-1
100
AcDbArc
50
89.999999999993491
51
180
0
ARC
5
117
100
AcDbEntity
8
0
100
AcDbCircle
10
-122.09446334838857
20
-76.776330970764292
30
-50
40
0.49999999999997158
210
0
220
0
230
-1
100
AcDbArc
50
0
51
90
0
ARC
5
118
100
AcDbEntity
8
0
100
AcDbCircle
10
141.14446334838857
20
-70.726330970764309
30
50
40
0.49999999999997158
210
0
220
0
230
1
100
AcDbArc
50
180
51
270
0
LINE
5
119
100
AcDbEntity
8
0
100
AcDbLine
10
173.69446334838867
20
-86.301330970764241
30
50
11
173.69446334838867
21
-99.301330970764212
31
50
0
LINE
5
120
100
AcDbEntity
8
0
100
AcDbLine
10
154.64446334838863
20
-89.776330970764292
30
50
11
154.64446334838863
21
-76.776330970764263
31
50
0
LINE
5
121
100
AcDbEntity
8
0
100
AcDbLine
10
135.59446334838862
20
-70.72633097076428
30
50
11
135.59446334838862
21
-57.726330970764295
31
50
0
ARC
5
122
100
AcDbEntity
8
0
100
AcDbCircle
10
-116.04446334838863
20
-89.776330970764363
30
-50
40
0.49999999999993605
210
0
220
0
230
-1
100
AcDbArc
50
180
51
270.00000000000324
0
LINE
5
123
100
AcDbEntity
8
0
100
AcDbLine
10
135.09446334838864
20
-90.276330970764306
30
50
11
122.09446334838857
21
-90.276330970764306
31
50
0
ARC
5
124
100
AcDbEntity
8
0
100
AcDbCircle
10
122.0944633483886
20
-108.82633097076433
30
50
40
0.50000000000000711
210
0
220
0
230
1
100
AcDbArc
50
180
51
270.00000000000489
0
ARC
5
125
100
AcDbEntity
8
0
100
AcDbCircle
10
-174.19446334838864
20
-77.863330970764267
30
-50
40
0.50000000000000711
210
0
220
0
230
-1
100
AcDbArc
50
89.999999999990237
51
180
0
ARC
5
126
100
AcDbEntity
8
0
100
AcDbCircle
10
-160.19446334838861
20
-99.301330970764283
30
-50
40
0.49999999999997158
210
0
220
0
230
-1
100
AcDbArc
50
-90
51
0
0
ARC
5
127
100
AcDbEntity
8
0
100
AcDbCircle
10
122.0944633483886
20
-57.72633097076433
30
50
40
0.50000000000000711
210
0
220
0
230
1
100
AcDbArc
50
90.000000000003254
51
180
0
ARC
5
128
100
AcDbEntity
8
0
100
AcDbCircle
10
-173.19446334838855
20
-57.726330970764259
30
-50
40
0.49999999999997158
210
0
220
0
230
-1
100
AcDbArc
50
90
51
180
0
ARC
5
129
100
AcDbEntity
8
0
100
AcDbCircle
10
154.1444633483886
20
-57.726330970764295
30
50
40
0.50000000000000711
210
0
220
0
230
1
100
AcDbArc
50
0
51
90
0
LINE
5
130
100
AcDbEntity
8
0
100
AcDbLine
10
103.04446334838858
20
-76.276330970764334
30
50
11
116.0444633483886
21
-76.276330970764306
31
50
0
LINE
5
131
100
AcDbEntity
8
0
100
AcDbLine
10
140.6444633483886
20
-57.72633097076433
30
50
11
140.6444633483886
21
-70.726330970764309
31
50
0
LINE
5
132
100
AcDbEntity
8
0
100
AcDbLine
10
154.64446334838863
20
-95.826330970764275
30
50
11
154.64446334838863
21
-108.82633097076429
31
50
0
LINE
5
133
100
AcDbEntity
8
0
100
AcDbLine
10
135.59446334838864
20
-76.776330970764292
30
50
11
135.59446334838862
21
-89.77633097076432
31
50
0
LINE
5
134
100
AcDbEntity
8
0
100
AcDbLine
10
121.5944633483886
20
-57.72633097076433
30
50
11
121.59446334838862
21
-70.726330970764309
31
50
0
ARC
5
135
100
AcDbEntity
8
0
100
AcDbCircle
10
-116.04446334838863
20
-127.87633097076437
30
-50
40
0.50000000000000711
210
0
220
0
230
-1
100
AcDbArc
50
180
51
269.99999999999346
0
LINE
5
136
100
AcDbEntity
8
0
100
AcDbLine
10
160.19446334838861
20
-57.226330970764252
30
50
11
173.19446334838855
21
-57.226330970764288
31
50
0
ARC
5
137
100
AcDbEntity
8
0
100
AcDbCircle
10
116.04446334838853
20
-108.82633097076429
30
50
40
0.50000000000004263
210
0
220
0
230
1
100
AcDbArc
50
-89.999999999991857
51
0
0
ARC
5
138
100
AcDbEntity
8
0
100
AcDbCircle
10
-116.0444633483886
20
-114.87633097076433
30
-50
40
0.50000000000000711
210
0
220
0
230
-1
100
AcDbArc
50
90
51
180
0
ARC
5
139
100
AcDbEntity
8
0
100
AcDbCircle
10
135.09446334838859
20
-57.726330970764295
30
50
40
0.50000000000000711
210
0
220
0
230
1
100
AcDbArc
50
0
51
90
0
ARC
5
140
100
AcDbEntity
8
0
100
AcDbCircle
10
135.09446334838864
20
-70.72633097076428
30
50
40
0.50000000000002487
210
0
220
0
230
1
100
AcDbArc
50
-90.000000000006523
51
0
0
LINE
5
141
100
AcDbEntity
8
0
100
AcDbLine
10
230.15239926910084
20
-52.705000789761264
30
50.000000000000007
11
230.15239926908242
21
-153.30000535887336
31
49.999999999999822
0
ARC
5
142
100
AcDbEntity
8
0
100
AcDbCircle
10
-135.09446334838864
20
-89.776330970764349
30
-50
40
0.49999999999993605
210
0
220
0
230
-1
100
AcDbArc
50
180
51
270
0
LINE
5
143
100
AcDbEntity
8
0
100
AcDbLine
10
174.19446334838855
20
-84.363330970764267
30
50
11
160.19446334838861
21
-84.363330970764295
31
50
0
LINE
5
144
100
AcDbEntity
8
0
100
AcDbLine
10
159.69446334838864
20
-99.301330970764283
30
50
11
159.69446334838864
21
-86.301330970764269
31
50
0
ARC
5
145
100
AcDbEntity
8
0
100
AcDbCircle
10
-173.19446334838861
20
-99.301330970764241
30
-50
40
0.50000000000004263
210
0
220
0
230
-1
100
AcDbArc
50
180
51
270
0
ARC
5
146
100
AcDbEntity
8
0
100
AcDbCircle
10
135.09446334838864
20
-108.82633097076429
30
50
40
0.50000000000004263
210
0
220
0
230
1
100
AcDbArc
50
-90
51
0
0
LINE
5
147
100
AcDbEntity
8
0
100
AcDbLine
10
160.19446334838861
20
-85.801330970764297
30
50
11
173.19446334838861
21
-85.801330970764212
31
50
0
LINE
5
148
100
AcDbEntity
8
0
100
AcDbLine
10
102.5444633483886
20
-95.82633097076436
30
50
11
102.5444633483886
21
-108.82633097076436
31
50
0
LINE
5
149
100
AcDbEntity
8
0
100
AcDbLine
10
154.64446334838857
20
-70.726330970764252
30
50
11
154.64446334838863
21
-57.726330970764295
31
50
0
ARC
5
150
100
AcDbEntity
8
0
100
AcDbCircle
10
-160.1944633483885
20
-57.726330970764224
30
-50
40
0.49999999999997158
210
-0
220
0
230
-1
100
AcDbArc
50
0
51
90.000000000013031
0
LINE
5
151
100
AcDbEntity
8
0
100
AcDbLine
10
223.1520921017125
20
-160.30000535214555
30
50
11
96.544112198059366
21
-160.29444966035012
31
50.000000000000028
0
LINE
5
152
100
AcDbEntity
8
0
100
AcDbLine
10
159.69446334838861
20
-83.863330970764224
30
50
11
159.69446334838861
21
-77.863330970764224
31
50
0
LINE
5
153
100
AcDbEntity
8
0
100
AcDbLine
10
103.04446334838865
20
-114.37633097076436
30
50
11
116.0444633483886
21
-114.37633097076431
31
50
0
LINE
5
154
100
AcDbEntity
8
0
100
AcDbLine
10
122.09446334838864
20
-109.32633097076433
30
50
11
135.09446334838864
21
-109.32633097076433
31
50
0
ARC
5
155
100
AcDbEntity
8
0
100
AcDbCircle
10
-141.14446334838846
20
-95.826330970764218
30
-50
40
0.499999999999865
210
0
220
0
230
-1
100
AcDbArc
50
0
51
90.000000000009777
0
LINE
5
156
100
AcDbEntity
8
0
100
AcDbLine
10
141.14446334838854
20
-95.326330970764346
30
50
11
154.1444633483886
21
-95.326330970764275
31
50
0
LINE
5
157
100
AcDbEntity
8
0
100
AcDbLine
10
154.1444633483886
20
-109.32633097076427
30
50
11
141.14446334838857
21
-109.32633097076433
31
50
0
LINE
5
158
100
AcDbEntity
8
0
100
AcDbLine
10
112.06946334838869
20
-133.92633097076435
30
50
11
112.06946334838869
21
-146.92633097076438
31
50
0
ARC
5
159
100
AcDbEntity
8
0
100
AcDbCircle
10
-173.19446334838855
20
-86.301330970764312
30
-50
40
0.50000000000011369
210
0
220
0
230
-1
100
AcDbArc
50
90.000000000006523
51
180
0
LINE
5
160
100
AcDbEntity
8
0
100
AcDbLine
10
135.0944633483887
20
-128.37633097076431
30
50
11
122.09446334838864
21
-128.37633097076434
31
50
0
LINE
5
161
100
AcDbEntity
8
0
100
AcDbLine
10
104.13146334838864
20
-133.42633097076433
30
50
11
110.13146334838865
21
-133.42633097076435
31
50
0
LINE
5
162
100
AcDbEntity
8
0
100
AcDbLine
10
122.09446334838864
20
-114.37633097076431
30
50
11
135.0944633483887
21
-114.37633097076431
31
50
0
LINE
5
163
100
AcDbEntity
8
0
100
AcDbLine
10
134.50746334838863
20
-147.92633097076433
30
50
11
134.50746334838863
21
-133.9263309707643
31
50
0
ARC
5
164
100
AcDbEntity
8
0
100
AcDbCircle
10
-173.19446334838861
20
-70.726330970764266
30
-50
40
0.49999999999997158
210
0
220
0
230
-1
100
AcDbArc
50
180
51
270.00000000000648
0
ARC
5
165
100
AcDbEntity
8
0
100
AcDbCircle
10
141.14446334838863
20
-146.92633097076433
30
50
40
0.50000000000000711
210
0
220
0
230
1
100
AcDbArc
50
180
51
270
0
LINE
5
166
100
AcDbEntity
8
0
100
AcDbLine
10
135.59446334838864
20
-114.87633097076433
30
50
11
135.59446334838864
21
-127.87633097076429
31
50
0
LINE
5
167
100
AcDbEntity
8
0
100
AcDbLine
10
110.13146334838865
20
-148.42633097076433
30
50
11
104.13146334838864
21
-148.42633097076438
31
50
0
ARC
5
168
100
AcDbEntity
8
0
100
AcDbCircle
10
-103.04446334838859
20
-114.87633097076437
30
-50
40
0.50000000000000711
210
0
220
0
230
-1
100
AcDbArc
50
0
51
90.000000000006523
0
ARC
5
169
100
AcDbEntity
8
0
100
AcDbCircle
10
125.56946334838864
20
-133.9263309707643
30
50
40
0.50000000000000711
210
0
220
0
230
1
100
AcDbArc
50
0
51
89.999999999995111
0
LINE
5
170
100
AcDbEntity
8
0
100
AcDbLine
10
174.69446334838861
20
-107.73933097076424
30
50
11
174.69446334838861
21
-101.73933097076426
31
50
0
LINE
5
171
100
AcDbEntity
8
0
100
AcDbLine
10
116.54446334838858
20
-108.82633097076429
30
50
11
116.54446334838859
21
-95.826330970764317
31
50
0
LINE
5
172
100
AcDbEntity
8
0
100
AcDbLine
10
121.59446334838862
20
-95.826330970764317
30
50
11
121.5944633483886
21
-108.82633097076433
31
50
0
LINE
5
173
100
AcDbEntity
8
0
100
AcDbLine
10
174.69446334838864
20
-77.863330970764267
30
50
11
174.69446334838861
21
-83.863330970764224
31
50
0
ARC
5
174
100
AcDbEntity
8
0
100
AcDbCircle
10
154.14446334838863
20
-127.87633097076424
30
50
40
0.49999999999997158
210
0
220
0
230
1
100
AcDbArc
50
-90.000000000003254
51
0
0
LINE
5
175
100
AcDbEntity
8
0
100
AcDbLine
10
159.69446334838869
20
-137.40133097076426
30
50
11
159.69446334838869
21
-124.40133097076428
31
50
0
ARC
5
176
100
AcDbEntity
8
0
100
AcDbCircle
10
112.56946334838871
20
-146.92633097076438
30
50
40
0.50000000000000711
210
0
220
0
230
1
100
AcDbArc
50
180
51
269.99999999999511
0
LINE
5
177
100
AcDbEntity
8
0
100
AcDbLine
10
141.14446334838863
20
-147.42633097076433
30
50
11
154.14446334838863
21
-147.4263309707643
31
50
0
LINE
5
178
100
AcDbEntity
8
0
100
AcDbLine
10
159.69446334838869
20
-139.83933097076425
30
50
11
159.69446334838869
21
-145.83933097076425
31
50
0
LINE
5
179
100
AcDbEntity
8
0
100
AcDbLine
10
121.59446334838869
20
-127.87633097076437
30
50
11
121.59446334838862
21
-114.87633097076433
31
50
0
LINE
5
180
100
AcDbEntity
8
0
100
AcDbLine
10
154.1444633483886
20
-57.226330970764288
30
50
11
141.14446334838857
21
-57.226330970764288
31
50
0
LINE
5
181
100
AcDbEntity
8
0
100
AcDbLine
10
135.09446334838864
20
-95.326330970764289
30
50
11
122.09446334838857
21
-95.326330970764289
31
50
0
LINE
5
182
100
AcDbEntity
8
0
100
AcDbLine
10
140.64446334838863
20
-133.9263309707643
30
50
11
140.64446334838863
21
-146.92633097076433
31
50
0
ARC
5
183
100
AcDbEntity
8
0
100
AcDbCircle
10
-122.09446334838864
20
-114.87633097076433
30
-50
40
0.50000000000004263
210
0
220
0
230
-1
100
AcDbArc
50
0
51
90
0
LINE
5
184
100
AcDbEntity
8
0
100
AcDbLine
10
159.69446334838861
20
-101.73933097076429
30
50
11
159.69446334838861
21
-107.73933097076429
31
50
0
LINE
5
185
100
AcDbEntity
8
0
100
AcDbLine
10
102.54446334838866
20
-127.87633097076437
30
50
11
102.54446334838859
21
-114.87633097076437
31
50
0
ARC
5
186
100
AcDbEntity
8
0
100
AcDbCircle
10
141.14446334838857
20
-114.87633097076426
30
50
40
0.49999999999993605
210
0
220
-0
230
1
100
AcDbArc
50
90
51
180
0
LINE
5
187
100
AcDbEntity
8
0
100
AcDbLine
10
116.0444633483886
20
-90.276330970764306
30
50
11
103.04446334838859
21
-90.276330970764349
31
50
0
LINE
5
188
100
AcDbEntity
8
0
100
AcDbLine
10
116.54446334838859
20
-76.776330970764306
30
50
11
116.54446334838858
21
-89.776330970764363
31
50
0
ARC
5
189
100
AcDbEntity
8
0
100
AcDbCircle
10
134.00746334838863
20
-133.92633097076435
30
50
40
0.50000000000004263
210
0
220
-0
230
1
100
AcDbArc
50
0
51
90
0
LINE
5
190
100
AcDbEntity
8
0
100
AcDbLine
10
141.14446334838857
20
-71.22633097076428
30
50
11
154.1444633483886
21
-71.22633097076428
31
50
0
LINE
5
191
100
AcDbEntity
8
0
100
AcDbLine
10
141.14446334838857
20
-90.276330970764292
30
50
11
154.1444633483886
21
-90.276330970764292
31
50
0
LINE
5
192
100
AcDbEntity
8
0
100
AcDbLine
10
173.19446334838861
20
-99.801330970764297
30
50
11
160.19446334838861
21
-99.801330970764255
31
50
0
ARC
5
193
100
AcDbEntity
8
0
100
AcDbCircle
10
-135.09446334838864
20
-127.8763309707643
30
-50
40
0.50000000000000711
210
0
220
0
230
-1
100
AcDbArc
50
180
51
269.99999999999346
0
ARC
5
194
100
AcDbEntity
8
0
100
AcDbCircle
10
-103.04446334838865
20
-127.87633097076443
30
-50
40
0.49999999999993605
210
0
220
0
230
-1
100
AcDbArc
50
-90
51
0
0
ARC
5
195
100
AcDbEntity
8
0
100
AcDbCircle
10
160.19446334838861
20
-101.73933097076421
30
50
40
0.49999999999995381
210
0
220
-0
230
1
100
AcDbArc
50
90
51
180
0
ARC
5
196
100
AcDbEntity
8
0
100
AcDbCircle
10
-104.13146334838864
20
-147.92633097076441
30
-50
40
0.50000000000000711
210
0
220
0
230
-1
100
AcDbArc
50
-90
51
0
0
ARC
5
197
100
AcDbEntity
8
0
100
AcDbCircle
10
103.04446334838865
20
-95.82633097076436
30
50
40
0.50000000000004263
210
0
220
0
230
1
100
AcDbArc
50
90.000000000004889
51
180
0
LINE
5
198
100
AcDbEntity
8
0
100
AcDbLine
10
174.19446334838864
20
-101.23933097076424
30
50
11
160.19446334838861
21
-101.23933097076426
31
50
0
LINE
5
199
100
AcDbEntity
8
0
100
AcDbLine
10
140.6444633483886
20
-76.776330970764306
30
50
11
140.6444633483886
21
-89.77633097076432
31
50
0
ARC
5
200
100
AcDbEntity
8
0
100
AcDbCircle
10
116.04446334838863
20
-95.826330970764275
30
50
40
0.49999999999993605
210
0
220
0
230
1
100
AcDbArc
50
0
51
90.000000000003254
0
ARC
5
201
100
AcDbEntity
8
0
100
AcDbCircle
10
-154.14446334838863
20
-108.82633097076423
30
-50
40
0.50000000000004263
210
0
220
0
230
-1
100
AcDbArc
50
180
51
270.00000000000324
0
ARC
5
202
100
AcDbEntity
8
0
100
AcDbCircle
10
103.04446334838858
20
-108.82633097076436
30
50
40
0.49999999999997158
210
0
220
0
230
1
100
AcDbArc
50
180
51
270.00000000000324
0
LINE
5
203
100
AcDbEntity
8
0
100
AcDbLine
10
110.63146334838869
20
-133.92633097076435
30
50
11
110.63146334838869
21
-147.92633097076433
31
50
0
LINE
5
204
100
AcDbEntity
8
0
100
AcDbLine
10
135.5944633483887
20
-108.82633097076429
30
50
11
135.59446334838862
21
-95.826330970764317
31
50
0
ARC
5
205
100
AcDbEntity
8
0
100
AcDbCircle
10
-160.19446334838861
20
-77.863330970764224
30
-50
40
0.49999999999997158
210
0
220
0
230
-1
100
AcDbArc
50
0
51
90
0
ARC
5
206
100
AcDbEntity
8
0
100
AcDbCircle
10
154.14446334838863
20
-146.92633097076427
30
50
40
0.50000000000002487
210
0
220
0
230
1
100
AcDbArc
50
-90
51
0
0
ARC
5
207
100
AcDbEntity
8
0
100
AcDbCircle
10
-173.19446334838864
20
-137.40133097076432
30
-50
40
0.50000000000000711
210
0
220
0
230
-1
100
AcDbArc
50
180
51
270
0
ARC
5
208
100
AcDbEntity
8
0
100
AcDbCircle
10
174.19446334838867
20
-139.83933097076425
30
50
40
0.50000000000000711
210
0
220
0
230
1
100
AcDbArc
50
0
51
90
0
ARC
5
209
100
AcDbEntity
8
0
100
AcDbCircle
10
-174.19446334838855
20
-83.863330970764224
30
-50
40
0.50000000000004263
210
0
220
0
230
-1
100
AcDbArc
50
180
51
270
0
LINE
5
210
100
AcDbEntity
8
0
100
AcDbLine
10
160.19446334838864
20
-122.46333097076429
30
50
11
174.19446334838864
21
-122.46333097076429
31
50
0
LINE
5
211
100
AcDbEntity
8
0
100
AcDbLine
10
174.69446334838867
20
-145.83933097076425
30
50
11
174.69446334838867
21
-139.83933097076425
31
50
0
ARC
5
212
100
AcDbEntity
8
0
100
AcDbCircle
10
125.56946334838869
20
-146.92633097076433
30
50
40
0.49999999999998934
210
0
220
0
230
1
100
AcDbArc
50
-90
51
0
0
LINE
5
213
100
AcDbEntity
8
0
100
AcDbLine
10
160.19446334838864
20
-123.90133097076429
30
50
11
173.19446334838861
21
-123.90133097076423
31
50
0
ARC
5
214
100
AcDbEntity
8
0
100
AcDbCircle
10
-160.19446334838875
20
-137.40133097076426
30
-50
40
0.5000000000000604
210
-0
220
0
230
-1
100
AcDbArc
50
-89.999999999996746
51
0
0
ARC
5
215
100
AcDbEntity
8
0
100
AcDbCircle
10
160.19446334838861
20
-107.73933097076424
30
50
40
0.49999999999997158
210
0
220
0
230
1
100
AcDbArc
50
180
51
270
0
ARC
5
216
100
AcDbEntity
8
0
100
AcDbCircle
10
-103.04446334838859
20
-89.776330970764349
30
-50
40
0.50000000000000711
210
0
220
0
230
-1
100
AcDbArc
50
-90
51
0
0
ARC
5
217
100
AcDbEntity
8
0
100
AcDbCircle
10
154.14446334838863
20
-114.87633097076427
30
50
40
0.50000000000004263
210
0
220
0
230
1
100
AcDbArc
50
0
51
90.000000000003254
0
ARC
5
218
100
AcDbEntity
8
0
100
AcDbCircle
10
-154.14446334838863
20
-95.826330970764232
30
-50
40
0.49999999999997158
210
0
220
0
230
-1
100
AcDbArc
50
89.999999999996746
51
180
0
LINE
5
219
100
AcDbEntity
8
0
100
AcDbLine
10
140.6444633483886
20
-108.82633097076429
30
50
11
140.6444633483886
21
-95.826330970764218
31
50
0
ARC
5
220
100
AcDbEntity
8
0
100
AcDbCircle
10
141.14446334838863
20
-133.92633097076427
30
50
40
0.49999999999997158
210
0
220
-0
230
1
100
AcDbArc
50
89.999999999993491
51
180
0
LINE
5
221
100
AcDbEntity
8
0
100
AcDbLine
10
126.06946334838868
20
-146.92633097076433
30
50
11
126.06946334838865
21
-133.9263309707643
31
50
0
ARC
5
222
100
AcDbEntity
8
0
100
AcDbCircle
10
141.14446334838857
20
-89.776330970764292
30
50
40
0.49999999999997158
210
0
220
0
230
1
100
AcDbArc
50
180
51
270
0
ARC
5
223
100
AcDbEntity
8
0
100
AcDbCircle
10
122.09446334838857
20
-70.726330970764337
30
50
40
0.49999999999997158
210
0
220
0
230
1
100
AcDbArc
50
180
51
270
0
LINE
5
224
100
AcDbEntity
8
0
100
AcDbLine
10
160.19446334838872
20
-146.33933097076425
30
50
11
174.19446334838867
21
-146.33933097076425
31
50
0
ARC
5
225
100
AcDbEntity
8
0
100
AcDbCircle
10
-104.13146334838864
20
-133.92633097076435
30
-50
40
0.50000000000000711
210
0
220
0
230
-1
100
AcDbArc
50
0
51
90
0
ARC
5
226
100
AcDbEntity
8
0
100
AcDbCircle
10
154.14446334838863
20
-133.9263309707643
30
50
40
0.50000000000004263
210
0
220
0
230
1
100
AcDbArc
50
0
51
90
0
LINE
5
227
100
AcDbEntity
8
0
100
AcDbLine
10
154.1444633483886
20
-114.37633097076423
30
50
11
141.14446334838857
21
-114.37633097076431
31
50
0
LINE
5
228
100
AcDbEntity
8
0
100
AcDbLine
10
154.64446334838863
20
-127.87633097076424
30
50
11
154.64446334838868
21
-114.87633097076427
31
50
0
ARC
5
229
100
AcDbEntity
8
0
100
AcDbCircle
10
134.00746334838863
20
-147.92633097076433
30
50
40
0.50000000000000711
210
0
220
0
230
1
100
AcDbArc
50
-90
51
0
0
ARC
5
230
100
AcDbEntity
8
0
100
AcDbCircle
10
122.0944633483886
20
-95.826330970764317
30
50
40
0.50000000000000711
210
0
220
0
230
1
100
AcDbArc
50
90.000000000003254
51
180
0
ARC
5
231
100
AcDbEntity
8
0
100
AcDbCircle
10
-122.09446334838857
20
-89.776330970764349
30
-50
40
0.49999999999995381
210
0
220
0
230
-1
100
AcDbArc
50
-90
51
0
0
ARC
5
232
100
AcDbEntity
8
0
100
AcDbCircle
10
160.19446334838872
20
-139.83933097076425
30
50
40
0.49999999999998934
210
0
220
-0
230
1
100
AcDbArc
50
89.999999999996746
51
180
0
ARC
5
233
100
AcDbEntity
8
0
100
AcDbCircle
10
-160.19446334838864
20
-124.40133097076428
30
-50
40
0.49999999999997158
210
0
220
0
230
-1
100
AcDbArc
50
0
51
90
0
ARC
5
234
100
AcDbEntity
8
0
100
AcDbCircle
10
-103.04446334838865
20
-76.776330970764349
30
-50
40
0.50000000000004263
210
0
220
0
230
-1
100
AcDbArc
50
0
51
89.999999999991857
0
LINE
5
235
100
AcDbEntity
8
0
100
AcDbLine
10
103.0444633483886
20
-109.32633097076433
30
50
11
116.0444633483886
21
-109.32633097076433
31
50
0
LINE
5
236
100
AcDbEntity
8
0
100
AcDbLine
10
141.14446334838863
20
-128.37633097076429
30
50
11
154.1444633483886
21
-128.37633097076423
31
50
0
LINE
5
237
100
AcDbEntity
8
0
100
AcDbLine
10
160.19446334838861
20
-108.23933097076421
30
50
11
174.19446334838864
21
-108.23933097076426
31
50
0
ARC
5
238
100
AcDbEntity
8
0
100
AcDbCircle
10
141.14446334838868
20
-127.87633097076424
30
50
40
0.50000000000004263
210
0
220
0
230
1
100
AcDbArc
50
180
51
269.99999999999346
0
ARC
5
239
100
AcDbEntity
8
0
100
AcDbCircle
10
-160.19446334838864
20
-83.863330970764281
30
-50
40
0.50000000000002487
210
-0
220
0
230
-1
100
AcDbArc
50
-89.999999999996746
51
0
0
LINE
5
240
100
AcDbEntity
8
0
100
AcDbLine
10
154.14446334838863
20
-133.42633097076427
30
50
11
141.14446334838868
21
-133.4263309707643
31
50
0
ARC
5
241
100
AcDbEntity
8
0
100
AcDbCircle
10
154.14446334838863
20
-89.776330970764292
30
50
40
0.49999999999998934
210
0
220
0
230
1
100
AcDbArc
50
-90.000000000003254
51
0
0
ARC
5
242
100
AcDbEntity
8
0
100
AcDbCircle
10
112.56946334838865
20
-133.9263309707643
30
50
40
0.49999999999997158
210
0
220
-0
230
1
100
AcDbArc
50
90
51
180
0
LINE
5
243
100
AcDbEntity
8
0
100
AcDbLine
10
128.00746334838863
20
-148.42633097076433
30
50
11
134.00746334838863
21
-148.42633097076433
31
50
0
LINE
5
244
100
AcDbEntity
8
0
100
AcDbLine
10
116.0444633483886
20
-95.326330970764346
30
50
11
103.0444633483886
21
-95.326330970764303
31
50
0
LINE
5
245
100
AcDbEntity
8
0
100
AcDbLine
10
160.19446334838861
20
-77.363330970764252
30
50
11
174.19446334838855
21
-77.363330970764267
31
50
0
ARC
5
246
100
AcDbEntity
8
0
100
AcDbCircle
10
-110.13146334838865
20
-133.92633097076438
30
-50
40
0.50000000000000711
210
0
220
0
230
-1
100
AcDbArc
50
90
51
180
0
LINE
5
247
100
AcDbEntity
8
0
100
AcDbLine
10
121.59446334838862
20
-89.776330970764349
30
50
11
121.5944633483886
21
-76.776330970764292
31
50
0
ARC
5
248
100
AcDbEntity
8
0
100
AcDbCircle
10
-116.0444633483886
20
-76.776330970764292
30
-50
40
0.49999999999998934
210
0
220
0
230
-1
100
AcDbArc
50
90
51
180
0
LINE
5
249
100
AcDbEntity
8
0
100
AcDbLine
10
140.64446334838865
20
-114.87633097076426
30
50
11
140.64446334838865
21
-127.87633097076424
31
50
0
ARC
5
250
100
AcDbEntity
8
0
100
AcDbCircle
10
174.19446334838864
20
-107.73933097076429
30
50
40
0.49999999999995381
210
0
220
0
230
1
100
AcDbArc
50
-90
51
0
0
LINE
5
251
100
AcDbEntity
8
0
100
AcDbLine
10
102.54446334838859
20
-89.776330970764349
30
50
11
102.5444633483886
21
-76.776330970764349
31
50
0
LINE
5
252
100
AcDbEntity
8
0
100
AcDbLine
10
125.56946334838868
20
-133.4263309707643
30
50
11
112.56946334838865
21
-133.42633097076433
31
50
0
ARC
5
253
100
AcDbEntity
8
0
100
AcDbCircle
10
-141.14446334838857
20
-108.82633097076436
30
-50
40
0.49999999999997158
210
0
220
0
230
-1
100
AcDbArc
50
-90
51
0
0
ARC
5
254
100
AcDbEntity
8
0
100
AcDbCircle
10
174.19446334838855
20
-101.73933097076429
30
50
40
0.50000000000004263
210
0
220
-0
230
1
100
AcDbArc
50
0
51
89.999999999990237
0
LINE
5
255
100
AcDbEntity
8
0
100
AcDbLine
10
127.50746334838865
20
-133.9263309707643
30
50
11
127.50746334838865
21
-147.92633097076433
31
50
0
LINE
5
256
100
AcDbEntity
8
0
100
AcDbLine
10
173.19446334838864
20
-137.90133097076432
30
50
11
160.19446334838872
21
-137.90133097076432
31
50
0
LINE
5
257
100
AcDbEntity
8
0
100
AcDbLine
10
222.85739926910082
20
-60.000000789761543
30
50
11
222.85739926910082
21
-146.00000078976151
31
50
0
ARC
5
258
100
AcDbEntity
8
0
100
AcDbCircle
10
160.19446334838861
20
-115.96333097076425
30
50
40
0.49999999999997158
210
0
220
-0
230
1
100
AcDbArc
50
89.999999999990237
51
180
0
CIRCLE
5
259
100
AcDbEntity
8
0
100
AcDbCircle
10
224.4990306045506
20
-154.63966805220491
30
50
40
1.7500000000000004
210
0
220
0
230
1
0
ARC
5
260
100
AcDbEntity
8
0
100
AcDbCircle
10
-122.09446334838873
20
-127.8763309707643
30
-50
40
0.50000000000004263
210
-0
220
0
230
-1
100
AcDbArc
50
270.00000000000978
51
360
0
CIRCLE
5
261
100
AcDbEntity
8
0
100
AcDbCircle
10
224.49554501960847
20
-51.361855039253655
30
50.000000000000007
40
1.7500000000000004
210
0
220
0
230
1
0
ARC
5
262
100
AcDbEntity
8
0
100
AcDbCircle
10
223.15239926910084
20
-52.705000789761264
30
50.000000000000007
40
6.9999999999999929
210
0
220
0
230
1
100
AcDbArc
50
0
51
90
0
ARC
5
263
100
AcDbEntity
8
0
100
AcDbCircle
10
116.04446334838856
20
-70.726330970764309
30
50
40
0.50000000000002487
210
0
220
0
230
1
100
AcDbArc
50
-89.99999999999838
51
0
0
ARC
5
264
100
AcDbEntity
8
0
100
AcDbCircle
10
-135.0944633483887
20
-114.87633097076427
30
-50
40
0.49999999999997158
210
0
220
0
230
-1
100
AcDbArc
50
90
51
180
0
ARC
5
265
100
AcDbEntity
8
0
100
AcDbCircle
10
-110.13146334838872
20
-147.92633097076433
30
-50
40
0.49999999999997158
210
0
220
0
230
-1
100
AcDbArc
50
180
51
270.00000000000813
0
ARC
5
266
100
AcDbEntity
8
0
100
AcDbCircle
10
160.19446334838861
20
-121.9633309707643
30
50
40
0.49999999999997158
210
0
220
0
230
1
100
AcDbArc
50
180
51
270.00000000000324
0
ARC
5
267
100
AcDbEntity
8
0
100
AcDbCircle
10
128.0074633483886
20
-133.92633097076427
30
50
40
0.49999999999997158
210
0
220
-0
230
1
100
AcDbArc
50
89.999999999993491
51
180
0
ARC
5
268
100
AcDbEntity
8
0
100
AcDbCircle
10
215.8573992691008
20
-60.000000789761536
30
50
40
6.9999999999999929
210
0
220
0
230
1
100
AcDbArc
50
0
51
90.000000000000242
0
LINE
5
269
100
AcDbEntity
8
0
100
AcDbLine
10
194.9943720396127
20
-53.000000789761543
30
50
11
187.96446334838868
21
-53.000000789761529
31
50
0
ARC
5
270
100
AcDbEntity
8
0
100
AcDbCircle
10
209.99437203961264
20
-52.500000789761572
30
50
40
0.49999999999997158
210
0
220
0
230
1
100
AcDbArc
50
180
51
270.00000000000324
0
LINE
5
271
100
AcDbEntity
8
0
100
AcDbLine
10
116.04446334838858
20
-71.226330970764337
30
50
11
103.04446334838859
21
-71.226330970764309
31
50
0
ARC
5
272
100
AcDbEntity
8
0
100
AcDbCircle
10
116.04446334838856
20
-57.72633097076433
30
50
40
0.50000000000002487
210
0
220
0
230
1
100
AcDbArc
50
0
51
89.99999999999838
0
ARC
5
273
100
AcDbEntity
8
0
100
AcDbCircle
10
103.04446334838859
20
-70.726330970764309
30
50
40
0.50000000000002487
210
0
220
0
230
1
100
AcDbArc
50
180
51
270
0
LINE
5
274
100
AcDbEntity
8
0
100
AcDbLine
10
159.69446334838864
20
-115.96333097076425
30
50
11
159.69446334838864
21
-121.9633309707643
31
50
0
ARC
5
275
100
AcDbEntity
8
0
100
AcDbCircle
10
174.19446334838855
20
-121.96333097076428
30
50
40
0.50000000000000711
210
0
220
0
230
1
100
AcDbArc
50
-89.999999999990237
51
0
0
LINE
5
276
100
AcDbEntity
8
0
100
AcDbLine
10
154.64446334838865
20
-146.92633097076427
30
50
11
154.64446334838868
21
-133.9263309707643
31
50
0
LINE
5
277
100
AcDbEntity
8
0
100
AcDbLine
10
112.56946334838867
20
-147.42633097076438
30
50
11
125.56946334838869
21
-147.42633097076433
31
50
0
ARC
5
278
100
AcDbEntity
8
0
100
AcDbCircle
10
128.00746334838857
20
-147.92633097076441
30
50
40
0.49999999999993605
210
0
220
0
230
1
100
AcDbArc
50
180
51
270.00000000000648
0
ARC
5
279
100
AcDbEntity
8
0
100
AcDbCircle
10
187.96446334838862
20
-60.000000789761543
30
50
40
7.0000000000000284
210
0
220
-0
230
1
100
AcDbArc
50
89.999999999999545
51
180
0
ARC
5
280
100
AcDbEntity
8
0
100
AcDbCircle
10
-173.19446334838861
20
-124.40133097076428
30
-50
40
0.50000000000004263
210
0
220
0
230
-1
100
AcDbArc
50
90
51
180
0
ARC
5
281
100
AcDbEntity
8
0
100
AcDbCircle
10
174.19446334838855
20
-115.96333097076432
30
50
40
0.50000000000004263
210
0
220
0
230
1
100
AcDbArc
50
0
51
89.999999999990237
0
LINE
5
282
100
AcDbEntity
8
0
100
AcDbLine
10
195.49437203961273
20
-52.500000789761543
30
50
11
195.49437203961273
21
-45.70500078976184
31
50
0
CIRCLE
5
283
100
AcDbEntity
8
0
100
AcDbCircle
10
95.201317597880703
20
-51.361855039253932
30
50.000000000000007
40
1.7500000000000004
210
0
220
0
230
1
0
LINE
5
284
100
AcDbEntity
8
0
100
AcDbLine
10
116.54446334838859
20
-70.726330970764309
30
50
11
116.54446334838859
21
-57.72633097076433
31
50
0
LINE
5
285
100
AcDbEntity
8
0
100
AcDbLine
10
116.04446334838858
20
-57.226330970764309
30
50
11
103.04446334838858
21
-57.226330970764323
31
50
0
LINE
5
286
100
AcDbEntity
8
0
100
AcDbLine
10
134.00746334838863
20
-133.42633097076433
30
50
11
128.00746334838865
21
-133.4263309707643
31
50
0
ARC
5
287
100
AcDbEntity
8
0
100
AcDbCircle
10
174.19446334838864
20
-145.83933097076419
30
50
40
0.50000000000004263
210
0
220
0
230
1
100
AcDbArc
50
270.00000000000324
51
360
0
ARC
5
288
100
AcDbEntity
8
0
100
AcDbCircle
10
135.09446334838864
20
-95.826330970764275
30
50
40
0.49999999999993605
210
0
220
0
230
1
100
AcDbArc
50
0
51
90
0
LINE
5
289
100
AcDbEntity
8
0
100
AcDbLine
10
187.96446334838862
20
-153.00000078976157
30
50
11
215.8573992691008
21
-153.00000078976151
31
50
0
LINE
5
290
100
AcDbEntity
8
0
100
AcDbLine
10
174.69446334838858
20
-121.96333097076428
30
50
11
174.69446334838861
21
-115.96333097076432
31
50
0
LINE
5
291
100
AcDbEntity
8
0
100
AcDbLine
10
209.99437203961267
20
-53.000000789761543
30
50
11
215.85739926910077
21
-53.000000789761543
31
50
0
LINE
5
292
100
AcDbEntity
8
0
100
AcDbLine
10
209.49437203961267
20
-52.500000789761572
30
50
11
209.4943720396127
21
-45.70500078976189
31
50
0
ARC
5
293
100
AcDbEntity
8
0
100
AcDbCircle
10
96.544458793160999
20
-52.705000789761414
30
50.000000000000007
40
6.9999999999999485
210
0
220
-0
230
1
100
AcDbArc
50
90
51
179.9999779006171
0
LINE
5
294
100
AcDbEntity
8
0
100
AcDbLine
10
173.69446334838867
20
-124.40133097076428
30
50
11
173.69446334838867
21
-137.40133097076432
31
50
0
ARC
5
295
100
AcDbEntity
8
0
100
AcDbCircle
10
96.544419365447709
20
-153.29444966708945
30
50.000000000000028
40
6.999999999999944
210
0
220
0
230
1
100
AcDbArc
50
179.99997791711536
51
269.99748580071974
0
ARC
5
296
100
AcDbEntity
8
0
100
AcDbCircle
10
160.19446334838872
20
-145.83933097076419
30
50
40
0.50000000000004263
210
0
220
0
230
1
100
AcDbArc
50
180
51
270
0
LINE
5
297
100
AcDbEntity
8
0
100
AcDbLine
10
103.63146334838862
20
-147.92633097076441
30
50
11
103.63146334838862
21
-133.92633097076435
31
50
0
ARC
5
298
100
AcDbEntity
8
0
100
AcDbCircle
10
223.15239926910084
20
-153.30000535888499
30
50
40
6.9999999999999627
210
0
220
0
230
1
100
AcDbArc
50
-90.002514199280228
51
0
0
CIRCLE
5
299
100
AcDbEntity
8
0
100
AcDbCircle
10
95.20101044397137
20
-154.63716954714454
30
50
40
1.7500000000000004
210
0
220
0
230
1
0
LINE
5
300
100
AcDbEntity
8
0
100
AcDbLine
10
174.19446334838867
20
-139.33933097076422
30
50
11
160.19446334838875
21
-139.33933097076425
31
50
0
ARC
5
301
100
AcDbEntity
8
0
100
AcDbCircle
10
103.04446334838859
20
-57.72633097076433
30
50
40
0.50000000000002487
210
0
220
0
230
1
100
AcDbArc
50
90.000000000001634
51
180
0
LINE
5
302
100
AcDbEntity
8
0
100
AcDbLine
10
102.54446334838858
20
-70.726330970764309
30
50
11
102.54446334838858
21
-57.72633097076433
31
50
0
ARC
5
303
100
AcDbEntity
8
0
100
AcDbCircle
10
215.8573992691008
20
-146.0000007897616
30
50
40
6.9999999999999574
210
0
220
0
230
1
100
AcDbArc
50
-90
51
0
0
LINE
5
304
100
AcDbEntity
8
0
100
AcDbLine
10
174.19446334838864
20
-115.46333097076428
30
50
11
160.19446334838869
21
-115.46333097076428
31
50
0
ARC
5
305
100
AcDbEntity
8
0
100
AcDbCircle
10
194.9943720396127
20
-52.500000789761572
30
50
40
0.49999999999997158
210
0
220
0
230
1
100
AcDbArc
50
-90
51
0
0
LINE
5
306
100
AcDbEntity
8
0
100
AcDbLine
10
180.96446334838859
20
-60.000000789761543
30
50
11
180.96446334838862
21
-146.00000078976151
31
50
0
ARC
5
307
100
AcDbEntity
8
0
100
AcDbCircle
10
187.96446334838862
20
-146.0000007897616
30
50
40
6.9999999999999929
210
0
220
0
230
1
100
AcDbArc
50
180
51
270
0
LINE
5
308
100
AcDbEntity
8
0
100
AcDbLine
10
96.544458793160999
20
-45.705000789761456
30
50.000000000000007
11
195.49437203961273
21
-45.70500078976184
31
50
0
LINE
5
309
100
AcDbEntity
8
0
100
AcDbLine
10
209.4943720396127
20
-45.70500078976189
30
50
11
223.15239926910084
21
-45.705000789761279
31
50.000000000000007
0
ENDSEC
0
SECTION
2
OBJECTS
0
DICTIONARY
5
C
100
AcDbDictionary
3
ACAD_GROUP
350
D
3
ACAD_MLINESTYLE
350
17
0
DICTIONARY
5
D
100
AcDbDictionary
0
DICTIONARY
5
1A
330
C
100
AcDbDictionary
0
DICTIONARY
5
17
100
AcDbDictionary
0
ENDSEC
0
EOF
