0
SECTION
2
HEADER
9
$INSUNITS
70
4
9
$ACADVER
1
AC1014
9
$HANDSEED
5
FFFF
0
ENDSEC
0
SECTION
2
TABLES
0
TABLE
2
VPORT
5
8
100
AcDbSymbolTable
0
ENDTAB
0
TABLE
2
LTYPE
5
5
100
AcDbSymbolTable
0
LTYPE
5
14
100
AcDbSymbolTableRecord
100
AcDbLinetypeTableRecord
2
BYBLOCK
70
0
0
LTYPE
5
15
100
AcDbSymbolTableRecord
100
AcDbLinetypeTableRecord
2
BYLAYER
70
0
0
ENDTAB
0
TABLE
2
LAYER
5
2
100
AcDbSymbolTable
70
2
0
LAYER
5
50
100
AcDbSymbolTableRecord
100
AcDbLayerTableRecord
2
0
70
0
6
CONTINUOUS
0
ENDTAB
0
TABLE
2
STYLE
5
3
100
AcDbSymbolTable
70
1
0
STYLE
5
11
100
AcDbSymbolTableRecord
100
AcDbTextStyleTableRecord
2
STANDARD
70
0
0
ENDTAB
0
TABLE
2
VIEW
5
6
100
AcDbSymbolTable
70
0
0
ENDTAB
0
TABLE
2
UCS
5
7
100
AcDbSymbolTable
70
0
0
ENDTAB
0
TABLE
2
APPID
5
9
100
AcDbSymbolTable
70
2
0
APPID
5
12
100
AcDbSymbolTableRecord
100
AcDbRegAppTableRecord
2
ACAD
70
0
0
ENDTAB
0
TABLE
2
DIMSTYLE
5
A
100
AcDbSymbolTable
70
1
0
ENDTAB
0
TABLE
2
BLOCK_RECORD
5
1
100
AcDbSymbolTable
70
1
0
BLOCK_RECORD
5
1F
100
AcDbSymbolTableRecord
100
AcDbBlockTableRecord
2
*MODEL_SPACE
0
BLOCK_RECORD
5
1B
100
AcDbSymbolTableRecord
100
AcDbBlockTableRecord
2
*PAPER_SPACE
0
ENDTAB
0
ENDSEC
0
SECTION
2
BLOCKS
0
BLOCK
5
20
100
AcDbEntity
100
AcDbBlockBegin
2
*MODEL_SPACE
0
ENDBLK
5
21
100
AcDbEntity
100
AcDbBlockEnd
0
BLOCK
5
1C
100
AcDbEntity
100
AcDbBlockBegin
2
*PAPER_SPACE
0
ENDBLK
5
1D
100
AcDbEntity
100
AcDbBlockEnd
0
ENDSEC
0
SECTION
2
ENTITIES
0
LINE
5
100
100
AcDbEntity
8
0
100
AcDbLine
10
119.06946334838864
20
-151.38333097076435
30
50
11
175.79446334838866
21
-151.38333097076435
31
50
0
CIRCLE
5
101
100
AcDbEntity
8
0
100
AcDbCircle
10
224.4990306045506
20
-154.63966805220491
30
50
40
1.7500000000000004
210
0
220
0
230
1
0
LINE
5
102
100
AcDbEntity
8
0
100
AcDbLine
10
230.15239926910084
20
-52.705000789761264
30
50.000000000000007
11
230.15239926908242
21
-153.30000535887336
31
49.999999999999822
0
ARC
5
103
100
AcDbEntity
8
0
100
AcDbCircle
10
-173.19446334838864
20
-137.40133097076432
30
-50
40
0.50000000000000711
210
0
220
0
230
-1
100
AcDbArc
50
180
51
270
0
ARC
5
104
100
AcDbEntity
8
0
100
AcDbCircle
10
175.79446334838875
20
-55.126330970764286
30
50
40
0.49999999999997158
210
0
220
0
230
1
100
AcDbArc
50
0
51
90.000000000009777
0
LINE
5
105
100
AcDbEntity
8
0
100
AcDbLine
10
99.944463348388581
20
-63.793427906279803
30
50
11
99.944463348388581
21
-55.126330970764315
31
50
0
LINE
5
106
100
AcDbEntity
8
0
100
AcDbLine
10
176.29446334838866
20
-131.99339141136034
30
50
11
176.29446334838866
21
-150.88333097076432
31
50
0
ARC
5
107
100
AcDbEntity
8
0
100
AcDbCircle
10
100.44446334838854
20
-150.88333097076438
30
50
40
0.49999999999993605
210
0
220
0
230
1
100
AcDbArc
50
180
51
270
0
LINE
5
108
100
AcDbEntity
8
0
100
AcDbLine
10
176.29446334838866
20
-131.99339141136034
30
50
11
176.29446334838872
21
-55.126330970764286
31
50
0
LINE
5
109
100
AcDbEntity
8
0
100
AcDbLine
10
119.06946334838864
20
-151.38333097076435
30
50
11
100.44446334838854
21
-151.38333097076432
31
50
0
CIRCLE
5
110
100
AcDbEntity
8
0
100
AcDbCircle
10
224.49554501960847
20
-51.361855039253655
30
50.000000000000007
40
1.7500000000000004
210
0
220
0
230
1
0
LINE
5
111
100
AcDbEntity
8
0
100
AcDbLine
10
196.14090696952186
20
-131.80295382987163
30
50
11
208.66978723834001
21
-131.80295382987163
31
50
0
LINE
5
112
100
AcDbEntity
8
0
100
AcDbLine
10
196.14090696952186
20
-144.42103936379647
30
50
11
208.66978723834001
21
-144.42103936379641
31
50
0
ARC
5
113
100
AcDbEntity
8
0
100
AcDbCircle
10
96.544458793160999
20
-52.705000789761414
30
50.000000000000007
40
6.9999999999999485
210
0
220
-0
230
1
100
AcDbArc
50
89.999999999999901
51
179.99997791711536
0
ARC
5
114
100
AcDbEntity
8
0
100
AcDbCircle
10
208.66978723834001
20
-132.3029538298716
30
50
40
0.49999999999997158
210
0
220
0
230
1
100
AcDbArc
50
0
51
90
0
ARC
5
115
100
AcDbEntity
8
0
100
AcDbCircle
10
208.66978723834001
20
-74.871039363796427
30
50
40
0.49999999999998934
210
0
220
0
230
1
100
AcDbArc
50
-90
51
0
0
ARC
5
116
100
AcDbEntity
8
0
100
AcDbCircle
10
100.4444633483886
20
-55.126330970764322
30
50
40
0.50000000000000711
210
0
220
-0
230
1
100
AcDbArc
50
90
51
180
0
LINE
5
117
100
AcDbEntity
8
0
100
AcDbLine
10
196.14090696952186
20
-75.371039363796427
30
50
11
208.66978723834001
21
-75.371039363796427
31
50
0
ARC
5
118
100
AcDbEntity
8
0
100
AcDbCircle
10
-160.19446334838861
20
-86.301330970764269
30
-50
40
0.49999999999997158
210
0
220
0
230
-1
100
AcDbArc
50
0
51
90
0
LINE
5
119
100
AcDbEntity
8
0
100
AcDbLine
10
99.944463348388581
20
-63.793427906279803
30
50
11
99.944463348388609
21
-150.88333097076438
31
50
0
LINE
5
120
100
AcDbEntity
8
0
100
AcDbLine
10
209.16978723834001
20
-74.871039363796427
30
50
11
209.16978723834004
21
-63.252953829871615
31
50
0
LINE
5
121
100
AcDbEntity
8
0
100
AcDbLine
10
196.14090696952186
20
-62.752953829871601
30
50
11
208.66978723834001
21
-62.752953829871608
31
50
0
LINE
5
122
100
AcDbEntity
8
0
100
AcDbLine
10
89.544419365448263
20
-153.29444696657308
30
50.000000000000028
11
89.544458793161567
21
-52.704998089812456
31
50.000000000000007
0
ARC
5
123
100
AcDbEntity
8
0
100
AcDbCircle
10
196.14090696952186
20
-74.871039363796427
30
50
40
0.50000000000000711
210
0
220
0
230
1
100
AcDbArc
50
180
51
270
0
LINE
5
124
100
AcDbEntity
8
0
100
AcDbLine
10
195.64090696952184
20
-132.30295382987163
30
50
11
195.64090696952184
21
-143.92103936379641
31
50
0
LINE
5
125
100
AcDbEntity
8
0
100
AcDbLine
10
110.83284642069782
20
-54.626330970764315
30
50
11
175.79446334838866
21
-54.626330970764315
31
50
0
LINE
5
126
100
AcDbEntity
8
0
100
AcDbLine
10
223.1520921017125
20
-160.30000535214555
30
50
11
96.544112198059366
21
-160.29444966035012
31
50.000000000000028
0
CIRCLE
5
127
100
AcDbEntity
8
0
100
AcDbCircle
10
95.20101044397137
20
-154.63716954714454
30
50
40
1.7500000000000004
210
0
220
0
230
1
0
ARC
5
128
100
AcDbEntity
8
0
100
AcDbCircle
10
208.66978723834001
20
-63.252953829871608
30
50
40
0.49999999999997158
210
0
220
0
230
1
100
AcDbArc
50
0
51
90
0
LINE
5
129
100
AcDbEntity
8
0
100
AcDbLine
10
96.544458793161013
20
-45.705000789761463
30
50.000000000000007
11
223.15239926910084
21
-45.705000789761279
31
50.000000000000007
0
ARC
5
130
100
AcDbEntity
8
0
100
AcDbCircle
10
223.15239926910084
20
-153.30000535888499
30
50
40
6.9999999999999627
210
0
220
0
230
1
100
AcDbArc
50
-90.002514199280228
51
0
0
ARC
5
131
100
AcDbEntity
8
0
100
AcDbCircle
10
96.544419365447709
20
-153.29444966708945
30
50.000000000000028
40
6.999999999999944
210
0
220
0
230
1
100
AcDbArc
50
179.99997791711536
51
269.99748580071974
0
ARC
5
132
100
AcDbEntity
8
0
100
AcDbCircle
10
175.79446334838866
20
-150.88333097076432
30
50
40
0.50000000000000711
210
0
220
0
230
1
100
AcDbArc
50
-90
51
0
0
LINE
5
133
100
AcDbEntity
8
0
100
AcDbLine
10
209.16978723834004
20
-143.92103936379641
30
50
11
209.16978723834001
21
-132.3029538298716
31
50
0
ARC
5
134
100
AcDbEntity
8
0
100
AcDbCircle
10
196.14090696952186
20
-132.3029538298716
30
50
40
0.50000000000000711
210
0
220
-0
230
1
100
AcDbArc
50
90
51
180
0
ARC
5
135
100
AcDbEntity
8
0
100
AcDbCircle
10
196.14090696952186
20
-143.92103936379644
30
50
40
0.50000000000000711
210
0
220
0
230
1
100
AcDbArc
50
180
51
270
0
ARC
5
136
100
AcDbEntity
8
0
100
AcDbCircle
10
196.14090696952186
20
-63.252953829871608
30
50
40
0.50000000000000711
210
0
220
-0
230
1
100
AcDbArc
50
90
51
180
0
ARC
5
137
100
AcDbEntity
8
0
100
AcDbCircle
10
223.15239926910084
20
-52.705000789761264
30
50.000000000000007
40
6.9999999999999929
210
0
220
0
230
1
100
AcDbArc
50
0
51
90
0
LINE
5
138
100
AcDbEntity
8
0
100
AcDbLine
10
110.83284642069782
20
-54.626330970764315
30
50
11
100.4444633483886
21
-54.626330970764315
31
50
0
ARC
5
139
100
AcDbEntity
8
0
100
AcDbCircle
10
208.66978723834001
20
-143.92103936379644
30
50
40
0.49999999999998934
210
0
220
0
230
1
100
AcDbArc
50
-90
51
0
0
LINE
5
140
100
AcDbEntity
8
0
100
AcDbLine
10
195.64090696952184
20
-63.252953829871608
30
50
11
195.64090696952184
21
-74.871039363796427
31
50
0
CIRCLE
5
141
100
AcDbEntity
8
0
100
AcDbCircle
10
95.201317597880703
20
-51.361855039253932
30
50.000000000000007
40
1.7500000000000004
210
0
220
0
230
1
0
ENDSEC
0
SECTION
2
OBJECTS
0
DICTIONARY
5
C
100
AcDbDictionary
3
ACAD_GROUP
350
D
3
ACAD_MLINESTYLE
350
17
0
DICTIONARY
5
D
100
AcDbDictionary
0
DICTIONARY
5
1A
330
C
100
AcDbDictionary
0
DICTIONARY
5
17
100
AcDbDictionary
0
ENDSEC
0
EOF
