G04 #@! TF.GenerationSoftware,KiCad,Pcbnew,(5.1.5)-3*
G04 #@! TF.CreationDate,2022-04-23T19:07:22-06:00*
G04 #@! TF.ProjectId,base,62617365-2e6b-4696-9361-645f70636258,rev?*
G04 #@! TF.SameCoordinates,Original*
G04 #@! TF.FileFunction,Legend,Bot*
G04 #@! TF.FilePolarity,Positive*
%FSLAX46Y46*%
G04 Gerber Fmt 4.6, Leading zero omitted, Abs format (unit mm)*
G04 Created by KiCad (PCBNEW (5.1.5)-3) date 2022-04-23 19:07:22*
%MOMM*%
%LPD*%
G04 APERTURE LIST*
%ADD10C,0.010000*%
%ADD11C,0.100000*%
%ADD12C,0.150000*%
G04 APERTURE END LIST*
D10*
G36*
X204477429Y-150026285D02*
G01*
X204604429Y-150026285D01*
X204604429Y-149790428D01*
X204477429Y-149790428D01*
X204477429Y-150026285D01*
G37*
X204477429Y-150026285D02*
X204604429Y-150026285D01*
X204604429Y-149790428D01*
X204477429Y-149790428D01*
X204477429Y-150026285D01*
G36*
X196585290Y-149820773D02*
G01*
X196540456Y-149834620D01*
X196471816Y-149873013D01*
X196402653Y-149931330D01*
X196344810Y-149998098D01*
X196312333Y-150055629D01*
X196296623Y-150134556D01*
X196299522Y-150225361D01*
X196319877Y-150309489D01*
X196329466Y-150331147D01*
X196351536Y-150361877D01*
X196395917Y-150413580D01*
X196458735Y-150482109D01*
X196536114Y-150563320D01*
X196624180Y-150653065D01*
X196710324Y-150738638D01*
X197056716Y-151078571D01*
X196367571Y-151078571D01*
X196367571Y-151033214D01*
X196358686Y-150997244D01*
X196333227Y-150987857D01*
X196300579Y-150999909D01*
X196282414Y-151038714D01*
X196276857Y-151107269D01*
X196276857Y-151169286D01*
X197147714Y-151169286D01*
X197147504Y-151101250D01*
X197146192Y-151078866D01*
X197140334Y-151057144D01*
X197126828Y-151032532D01*
X197102568Y-151001474D01*
X197064451Y-150960417D01*
X197009373Y-150905808D01*
X196934231Y-150834092D01*
X196835920Y-150741716D01*
X196822577Y-150729223D01*
X196698462Y-150611737D01*
X196599377Y-150514543D01*
X196522736Y-150434392D01*
X196465956Y-150368035D01*
X196426452Y-150312225D01*
X196401639Y-150263712D01*
X196388933Y-150219248D01*
X196385714Y-150180072D01*
X196402538Y-150087947D01*
X196449569Y-150009042D01*
X196521643Y-149948473D01*
X196613597Y-149911357D01*
X196665068Y-149903222D01*
X196776620Y-149908478D01*
X196869901Y-149944937D01*
X196946557Y-150013469D01*
X196987204Y-150073766D01*
X197019727Y-150125120D01*
X197048901Y-150160495D01*
X197065862Y-150171428D01*
X197094493Y-150159044D01*
X197101715Y-150126073D01*
X197090516Y-150078789D01*
X197063885Y-150023465D01*
X197024810Y-149966376D01*
X196976277Y-149913795D01*
X196924059Y-149873687D01*
X196817366Y-149827314D01*
X196700497Y-149809274D01*
X196585290Y-149820773D01*
G37*
X196585290Y-149820773D02*
X196540456Y-149834620D01*
X196471816Y-149873013D01*
X196402653Y-149931330D01*
X196344810Y-149998098D01*
X196312333Y-150055629D01*
X196296623Y-150134556D01*
X196299522Y-150225361D01*
X196319877Y-150309489D01*
X196329466Y-150331147D01*
X196351536Y-150361877D01*
X196395917Y-150413580D01*
X196458735Y-150482109D01*
X196536114Y-150563320D01*
X196624180Y-150653065D01*
X196710324Y-150738638D01*
X197056716Y-151078571D01*
X196367571Y-151078571D01*
X196367571Y-151033214D01*
X196358686Y-150997244D01*
X196333227Y-150987857D01*
X196300579Y-150999909D01*
X196282414Y-151038714D01*
X196276857Y-151107269D01*
X196276857Y-151169286D01*
X197147714Y-151169286D01*
X197147504Y-151101250D01*
X197146192Y-151078866D01*
X197140334Y-151057144D01*
X197126828Y-151032532D01*
X197102568Y-151001474D01*
X197064451Y-150960417D01*
X197009373Y-150905808D01*
X196934231Y-150834092D01*
X196835920Y-150741716D01*
X196822577Y-150729223D01*
X196698462Y-150611737D01*
X196599377Y-150514543D01*
X196522736Y-150434392D01*
X196465956Y-150368035D01*
X196426452Y-150312225D01*
X196401639Y-150263712D01*
X196388933Y-150219248D01*
X196385714Y-150180072D01*
X196402538Y-150087947D01*
X196449569Y-150009042D01*
X196521643Y-149948473D01*
X196613597Y-149911357D01*
X196665068Y-149903222D01*
X196776620Y-149908478D01*
X196869901Y-149944937D01*
X196946557Y-150013469D01*
X196987204Y-150073766D01*
X197019727Y-150125120D01*
X197048901Y-150160495D01*
X197065862Y-150171428D01*
X197094493Y-150159044D01*
X197101715Y-150126073D01*
X197090516Y-150078789D01*
X197063885Y-150023465D01*
X197024810Y-149966376D01*
X196976277Y-149913795D01*
X196924059Y-149873687D01*
X196817366Y-149827314D01*
X196700497Y-149809274D01*
X196585290Y-149820773D01*
G36*
X202191428Y-150374049D02*
G01*
X202121469Y-150318640D01*
X202049692Y-150268660D01*
X201981643Y-150239962D01*
X201902327Y-150227556D01*
X201842591Y-150225857D01*
X201727546Y-150240090D01*
X201634577Y-150282411D01*
X201564697Y-150352256D01*
X201540028Y-150394614D01*
X201525743Y-150427569D01*
X201515521Y-150462539D01*
X201508698Y-150506166D01*
X201504614Y-150565091D01*
X201502605Y-150645958D01*
X201502009Y-150755406D01*
X201502000Y-150775871D01*
X201502000Y-151078571D01*
X201431370Y-151078571D01*
X201375543Y-151086894D01*
X201348422Y-151109943D01*
X201353113Y-151144838D01*
X201355484Y-151148921D01*
X201377226Y-151159599D01*
X201428016Y-151165343D01*
X201510712Y-151166387D01*
X201557912Y-151165418D01*
X201642585Y-151162583D01*
X201697395Y-151158740D01*
X201728767Y-151152480D01*
X201743122Y-151142392D01*
X201746881Y-151127068D01*
X201746928Y-151123928D01*
X201740387Y-151100179D01*
X201714721Y-151087646D01*
X201668665Y-151082007D01*
X201590401Y-151076372D01*
X201596093Y-150758535D01*
X201601786Y-150440698D01*
X201669555Y-150378635D01*
X201710542Y-150344152D01*
X201746844Y-150325512D01*
X201792620Y-150317921D01*
X201852797Y-150316571D01*
X201923378Y-150319248D01*
X201973449Y-150330176D01*
X202018573Y-150353701D01*
X202040711Y-150369047D01*
X202094920Y-150409671D01*
X202134279Y-150445615D01*
X202161163Y-150483648D01*
X202177945Y-150530540D01*
X202187000Y-150593062D01*
X202190703Y-150677982D01*
X202191428Y-150792072D01*
X202191428Y-151076485D01*
X202114321Y-151082064D01*
X202064553Y-151088795D01*
X202041914Y-151102674D01*
X202037214Y-151123928D01*
X202039790Y-151140116D01*
X202051757Y-151150924D01*
X202079477Y-151157718D01*
X202129311Y-151161864D01*
X202207620Y-151164727D01*
X202230082Y-151165342D01*
X202322715Y-151166560D01*
X202384012Y-151164084D01*
X202418773Y-151157481D01*
X202431516Y-151147199D01*
X202433944Y-151107466D01*
X202405075Y-151084828D01*
X202353202Y-151078571D01*
X202282143Y-151078571D01*
X202282143Y-149919416D01*
X202368321Y-149913887D01*
X202425207Y-149906351D01*
X202451339Y-149891924D01*
X202454500Y-149881143D01*
X202446269Y-149866094D01*
X202417390Y-149856410D01*
X202361582Y-149850537D01*
X202322964Y-149848598D01*
X202191428Y-149843267D01*
X202191428Y-150374049D01*
G37*
X202191428Y-150374049D02*
X202121469Y-150318640D01*
X202049692Y-150268660D01*
X201981643Y-150239962D01*
X201902327Y-150227556D01*
X201842591Y-150225857D01*
X201727546Y-150240090D01*
X201634577Y-150282411D01*
X201564697Y-150352256D01*
X201540028Y-150394614D01*
X201525743Y-150427569D01*
X201515521Y-150462539D01*
X201508698Y-150506166D01*
X201504614Y-150565091D01*
X201502605Y-150645958D01*
X201502009Y-150755406D01*
X201502000Y-150775871D01*
X201502000Y-151078571D01*
X201431370Y-151078571D01*
X201375543Y-151086894D01*
X201348422Y-151109943D01*
X201353113Y-151144838D01*
X201355484Y-151148921D01*
X201377226Y-151159599D01*
X201428016Y-151165343D01*
X201510712Y-151166387D01*
X201557912Y-151165418D01*
X201642585Y-151162583D01*
X201697395Y-151158740D01*
X201728767Y-151152480D01*
X201743122Y-151142392D01*
X201746881Y-151127068D01*
X201746928Y-151123928D01*
X201740387Y-151100179D01*
X201714721Y-151087646D01*
X201668665Y-151082007D01*
X201590401Y-151076372D01*
X201596093Y-150758535D01*
X201601786Y-150440698D01*
X201669555Y-150378635D01*
X201710542Y-150344152D01*
X201746844Y-150325512D01*
X201792620Y-150317921D01*
X201852797Y-150316571D01*
X201923378Y-150319248D01*
X201973449Y-150330176D01*
X202018573Y-150353701D01*
X202040711Y-150369047D01*
X202094920Y-150409671D01*
X202134279Y-150445615D01*
X202161163Y-150483648D01*
X202177945Y-150530540D01*
X202187000Y-150593062D01*
X202190703Y-150677982D01*
X202191428Y-150792072D01*
X202191428Y-151076485D01*
X202114321Y-151082064D01*
X202064553Y-151088795D01*
X202041914Y-151102674D01*
X202037214Y-151123928D01*
X202039790Y-151140116D01*
X202051757Y-151150924D01*
X202079477Y-151157718D01*
X202129311Y-151161864D01*
X202207620Y-151164727D01*
X202230082Y-151165342D01*
X202322715Y-151166560D01*
X202384012Y-151164084D01*
X202418773Y-151157481D01*
X202431516Y-151147199D01*
X202433944Y-151107466D01*
X202405075Y-151084828D01*
X202353202Y-151078571D01*
X202282143Y-151078571D01*
X202282143Y-149919416D01*
X202368321Y-149913887D01*
X202425207Y-149906351D01*
X202451339Y-149891924D01*
X202454500Y-149881143D01*
X202446269Y-149866094D01*
X202417390Y-149856410D01*
X202361582Y-149850537D01*
X202322964Y-149848598D01*
X202191428Y-149843267D01*
X202191428Y-150374049D01*
G36*
X204649786Y-150248474D02*
G01*
X204468357Y-150253071D01*
X204463482Y-150665211D01*
X204458608Y-151077350D01*
X204263911Y-151082497D01*
X204177757Y-151085250D01*
X204121554Y-151088951D01*
X204088971Y-151094947D01*
X204073673Y-151104585D01*
X204069330Y-151119213D01*
X204069214Y-151123928D01*
X204070524Y-151135269D01*
X204077284Y-151144030D01*
X204093739Y-151150608D01*
X204124134Y-151155399D01*
X204172713Y-151158801D01*
X204243723Y-151161209D01*
X204341407Y-151163020D01*
X204470011Y-151164632D01*
X204509624Y-151165073D01*
X204649885Y-151166340D01*
X204757981Y-151166527D01*
X204838021Y-151165436D01*
X204894115Y-151162868D01*
X204930372Y-151158624D01*
X204950902Y-151152504D01*
X204959815Y-151144311D01*
X204960267Y-151143264D01*
X204965395Y-151116656D01*
X204953757Y-151098298D01*
X204920737Y-151086781D01*
X204861722Y-151080693D01*
X204772096Y-151078626D01*
X204748501Y-151078571D01*
X204550000Y-151078571D01*
X204550000Y-150334714D01*
X204704784Y-150334714D01*
X204783285Y-150333434D01*
X204832534Y-150328782D01*
X204859497Y-150319538D01*
X204870713Y-150305669D01*
X204872796Y-150279637D01*
X204853130Y-150261937D01*
X204807973Y-150251600D01*
X204733586Y-150247657D01*
X204649786Y-150248474D01*
G37*
X204649786Y-150248474D02*
X204468357Y-150253071D01*
X204463482Y-150665211D01*
X204458608Y-151077350D01*
X204263911Y-151082497D01*
X204177757Y-151085250D01*
X204121554Y-151088951D01*
X204088971Y-151094947D01*
X204073673Y-151104585D01*
X204069330Y-151119213D01*
X204069214Y-151123928D01*
X204070524Y-151135269D01*
X204077284Y-151144030D01*
X204093739Y-151150608D01*
X204124134Y-151155399D01*
X204172713Y-151158801D01*
X204243723Y-151161209D01*
X204341407Y-151163020D01*
X204470011Y-151164632D01*
X204509624Y-151165073D01*
X204649885Y-151166340D01*
X204757981Y-151166527D01*
X204838021Y-151165436D01*
X204894115Y-151162868D01*
X204930372Y-151158624D01*
X204950902Y-151152504D01*
X204959815Y-151144311D01*
X204960267Y-151143264D01*
X204965395Y-151116656D01*
X204953757Y-151098298D01*
X204920737Y-151086781D01*
X204861722Y-151080693D01*
X204772096Y-151078626D01*
X204748501Y-151078571D01*
X204550000Y-151078571D01*
X204550000Y-150334714D01*
X204704784Y-150334714D01*
X204783285Y-150333434D01*
X204832534Y-150328782D01*
X204859497Y-150319538D01*
X204870713Y-150305669D01*
X204872796Y-150279637D01*
X204853130Y-150261937D01*
X204807973Y-150251600D01*
X204733586Y-150247657D01*
X204649786Y-150248474D01*
G36*
X205765571Y-151077344D02*
G01*
X205570536Y-151082493D01*
X205484294Y-151085245D01*
X205428009Y-151088940D01*
X205395353Y-151094922D01*
X205379999Y-151104535D01*
X205375621Y-151119124D01*
X205375500Y-151123928D01*
X205376810Y-151135269D01*
X205383570Y-151144030D01*
X205400025Y-151150608D01*
X205430420Y-151155399D01*
X205478999Y-151158801D01*
X205550008Y-151161209D01*
X205647693Y-151163020D01*
X205776296Y-151164632D01*
X205815909Y-151165073D01*
X205956171Y-151166340D01*
X206064267Y-151166527D01*
X206144307Y-151165436D01*
X206200400Y-151162868D01*
X206236658Y-151158624D01*
X206257188Y-151152504D01*
X206266101Y-151144311D01*
X206266553Y-151143264D01*
X206271683Y-151116669D01*
X206260063Y-151098316D01*
X206227080Y-151086797D01*
X206168118Y-151080703D01*
X206078563Y-151078628D01*
X206054531Y-151078571D01*
X205855776Y-151078571D01*
X205860567Y-150502536D01*
X205865357Y-149926500D01*
X206019392Y-149917428D01*
X206096401Y-149911711D01*
X206144066Y-149904451D01*
X206169329Y-149893878D01*
X206179131Y-149878222D01*
X206179472Y-149876607D01*
X206178968Y-149862964D01*
X206167386Y-149853881D01*
X206138887Y-149848447D01*
X206087636Y-149845754D01*
X206007794Y-149844894D01*
X205975545Y-149844857D01*
X205765571Y-149844857D01*
X205765571Y-151077344D01*
G37*
X205765571Y-151077344D02*
X205570536Y-151082493D01*
X205484294Y-151085245D01*
X205428009Y-151088940D01*
X205395353Y-151094922D01*
X205379999Y-151104535D01*
X205375621Y-151119124D01*
X205375500Y-151123928D01*
X205376810Y-151135269D01*
X205383570Y-151144030D01*
X205400025Y-151150608D01*
X205430420Y-151155399D01*
X205478999Y-151158801D01*
X205550008Y-151161209D01*
X205647693Y-151163020D01*
X205776296Y-151164632D01*
X205815909Y-151165073D01*
X205956171Y-151166340D01*
X206064267Y-151166527D01*
X206144307Y-151165436D01*
X206200400Y-151162868D01*
X206236658Y-151158624D01*
X206257188Y-151152504D01*
X206266101Y-151144311D01*
X206266553Y-151143264D01*
X206271683Y-151116669D01*
X206260063Y-151098316D01*
X206227080Y-151086797D01*
X206168118Y-151080703D01*
X206078563Y-151078628D01*
X206054531Y-151078571D01*
X205855776Y-151078571D01*
X205860567Y-150502536D01*
X205865357Y-149926500D01*
X206019392Y-149917428D01*
X206096401Y-149911711D01*
X206144066Y-149904451D01*
X206169329Y-149893878D01*
X206179131Y-149878222D01*
X206179472Y-149876607D01*
X206178968Y-149862964D01*
X206167386Y-149853881D01*
X206138887Y-149848447D01*
X206087636Y-149845754D01*
X206007794Y-149844894D01*
X205975545Y-149844857D01*
X205765571Y-149844857D01*
X205765571Y-151077344D01*
G36*
X208609811Y-150246790D02*
G01*
X208604929Y-150648723D01*
X208425293Y-150497669D01*
X208352267Y-150435608D01*
X208304118Y-150392404D01*
X208277496Y-150364115D01*
X208269050Y-150346798D01*
X208275430Y-150336509D01*
X208284686Y-150332178D01*
X208316697Y-150308391D01*
X208320976Y-150278712D01*
X208295887Y-150255353D01*
X208295016Y-150255012D01*
X208257310Y-150247888D01*
X208198083Y-150244310D01*
X208127866Y-150243997D01*
X208057190Y-150246664D01*
X207996587Y-150252029D01*
X207956588Y-150259807D01*
X207947761Y-150264353D01*
X207932349Y-150295325D01*
X207948823Y-150319754D01*
X207992847Y-150333307D01*
X208018125Y-150334714D01*
X208052251Y-150337408D01*
X208085787Y-150348103D01*
X208125469Y-150370717D01*
X208178035Y-150409169D01*
X208250220Y-150467377D01*
X208259849Y-150475321D01*
X208325061Y-150530443D01*
X208378166Y-150577712D01*
X208413850Y-150612227D01*
X208426803Y-150629087D01*
X208426772Y-150629330D01*
X208413814Y-150646403D01*
X208380065Y-150685059D01*
X208329758Y-150740606D01*
X208267127Y-150808351D01*
X208219059Y-150859625D01*
X208142421Y-150940393D01*
X208085417Y-150998369D01*
X208043107Y-151037460D01*
X208010554Y-151061573D01*
X207982817Y-151074614D01*
X207954959Y-151080490D01*
X207937845Y-151082080D01*
X207888203Y-151088836D01*
X207865683Y-151102810D01*
X207861071Y-151123928D01*
X207863368Y-151139808D01*
X207874439Y-151150232D01*
X207900558Y-151156340D01*
X207947998Y-151159272D01*
X208023030Y-151160169D01*
X208060643Y-151160214D01*
X208147983Y-151159797D01*
X208205313Y-151157784D01*
X208238906Y-151153035D01*
X208255033Y-151144409D01*
X208259969Y-151130767D01*
X208260214Y-151123928D01*
X208250860Y-151096879D01*
X208217033Y-151083961D01*
X208200551Y-151081905D01*
X208140888Y-151076168D01*
X208316182Y-150886870D01*
X208380560Y-150818926D01*
X208437481Y-150761791D01*
X208481928Y-150720284D01*
X208508885Y-150699222D01*
X208513289Y-150697571D01*
X208540083Y-150709769D01*
X208574159Y-150739145D01*
X208574552Y-150739562D01*
X208592310Y-150761946D01*
X208603806Y-150788978D01*
X208610367Y-150828602D01*
X208613322Y-150888760D01*
X208614000Y-150975419D01*
X208614000Y-151169286D01*
X208741569Y-151169286D01*
X208814993Y-151167037D01*
X208858452Y-151159516D01*
X208878034Y-151145557D01*
X208879248Y-151142940D01*
X208881665Y-151107221D01*
X208854110Y-151086261D01*
X208794530Y-151078654D01*
X208785286Y-151078571D01*
X208704714Y-151078571D01*
X208704714Y-149917428D01*
X208795429Y-149917428D01*
X208849839Y-149915518D01*
X208876976Y-149907409D01*
X208885755Y-149889535D01*
X208886143Y-149881143D01*
X208882921Y-149862571D01*
X208868238Y-149851684D01*
X208834565Y-149846468D01*
X208774374Y-149844911D01*
X208750418Y-149844857D01*
X208614694Y-149844857D01*
X208609811Y-150246790D01*
G37*
X208609811Y-150246790D02*
X208604929Y-150648723D01*
X208425293Y-150497669D01*
X208352267Y-150435608D01*
X208304118Y-150392404D01*
X208277496Y-150364115D01*
X208269050Y-150346798D01*
X208275430Y-150336509D01*
X208284686Y-150332178D01*
X208316697Y-150308391D01*
X208320976Y-150278712D01*
X208295887Y-150255353D01*
X208295016Y-150255012D01*
X208257310Y-150247888D01*
X208198083Y-150244310D01*
X208127866Y-150243997D01*
X208057190Y-150246664D01*
X207996587Y-150252029D01*
X207956588Y-150259807D01*
X207947761Y-150264353D01*
X207932349Y-150295325D01*
X207948823Y-150319754D01*
X207992847Y-150333307D01*
X208018125Y-150334714D01*
X208052251Y-150337408D01*
X208085787Y-150348103D01*
X208125469Y-150370717D01*
X208178035Y-150409169D01*
X208250220Y-150467377D01*
X208259849Y-150475321D01*
X208325061Y-150530443D01*
X208378166Y-150577712D01*
X208413850Y-150612227D01*
X208426803Y-150629087D01*
X208426772Y-150629330D01*
X208413814Y-150646403D01*
X208380065Y-150685059D01*
X208329758Y-150740606D01*
X208267127Y-150808351D01*
X208219059Y-150859625D01*
X208142421Y-150940393D01*
X208085417Y-150998369D01*
X208043107Y-151037460D01*
X208010554Y-151061573D01*
X207982817Y-151074614D01*
X207954959Y-151080490D01*
X207937845Y-151082080D01*
X207888203Y-151088836D01*
X207865683Y-151102810D01*
X207861071Y-151123928D01*
X207863368Y-151139808D01*
X207874439Y-151150232D01*
X207900558Y-151156340D01*
X207947998Y-151159272D01*
X208023030Y-151160169D01*
X208060643Y-151160214D01*
X208147983Y-151159797D01*
X208205313Y-151157784D01*
X208238906Y-151153035D01*
X208255033Y-151144409D01*
X208259969Y-151130767D01*
X208260214Y-151123928D01*
X208250860Y-151096879D01*
X208217033Y-151083961D01*
X208200551Y-151081905D01*
X208140888Y-151076168D01*
X208316182Y-150886870D01*
X208380560Y-150818926D01*
X208437481Y-150761791D01*
X208481928Y-150720284D01*
X208508885Y-150699222D01*
X208513289Y-150697571D01*
X208540083Y-150709769D01*
X208574159Y-150739145D01*
X208574552Y-150739562D01*
X208592310Y-150761946D01*
X208603806Y-150788978D01*
X208610367Y-150828602D01*
X208613322Y-150888760D01*
X208614000Y-150975419D01*
X208614000Y-151169286D01*
X208741569Y-151169286D01*
X208814993Y-151167037D01*
X208858452Y-151159516D01*
X208878034Y-151145557D01*
X208879248Y-151142940D01*
X208881665Y-151107221D01*
X208854110Y-151086261D01*
X208794530Y-151078654D01*
X208785286Y-151078571D01*
X208704714Y-151078571D01*
X208704714Y-149917428D01*
X208795429Y-149917428D01*
X208849839Y-149915518D01*
X208876976Y-149907409D01*
X208885755Y-149889535D01*
X208886143Y-149881143D01*
X208882921Y-149862571D01*
X208868238Y-149851684D01*
X208834565Y-149846468D01*
X208774374Y-149844911D01*
X208750418Y-149844857D01*
X208614694Y-149844857D01*
X208609811Y-150246790D01*
G36*
X197896725Y-149912005D02*
G01*
X197787513Y-149944367D01*
X197753576Y-149961032D01*
X197699851Y-149990725D01*
X197670573Y-150003868D01*
X197658334Y-150001282D01*
X197655722Y-149983785D01*
X197655714Y-149971857D01*
X197642748Y-149943588D01*
X197614179Y-149935491D01*
X197585501Y-149949043D01*
X197576012Y-149964269D01*
X197569278Y-150001799D01*
X197565816Y-150061336D01*
X197565628Y-150128751D01*
X197568713Y-150189915D01*
X197575070Y-150230697D01*
X197576012Y-150233444D01*
X197598249Y-150261187D01*
X197626992Y-150257659D01*
X197656309Y-150225681D01*
X197674416Y-150186698D01*
X197713614Y-150115591D01*
X197770791Y-150055163D01*
X197809296Y-150026548D01*
X197844240Y-150009759D01*
X197887387Y-150001680D01*
X197950502Y-149999196D01*
X197982639Y-149999071D01*
X198061855Y-150001033D01*
X198115458Y-150008282D01*
X198153974Y-150022869D01*
X198174870Y-150036478D01*
X198251155Y-150109838D01*
X198291720Y-150189373D01*
X198298961Y-150243329D01*
X198289875Y-150306693D01*
X198260269Y-150358452D01*
X198206623Y-150401002D01*
X198125413Y-150436738D01*
X198013120Y-150468056D01*
X197948020Y-150482047D01*
X197861508Y-150501928D01*
X197778458Y-150525375D01*
X197712161Y-150548477D01*
X197692000Y-150557387D01*
X197612964Y-150614272D01*
X197560331Y-150689305D01*
X197533705Y-150776165D01*
X197532692Y-150868536D01*
X197556897Y-150960099D01*
X197605924Y-151044535D01*
X197679380Y-151115526D01*
X197728790Y-151145906D01*
X197813817Y-151176474D01*
X197917366Y-151194590D01*
X198023298Y-151198540D01*
X198114411Y-151186877D01*
X198206477Y-151155620D01*
X198278709Y-151114931D01*
X198310178Y-151086003D01*
X198328918Y-151067603D01*
X198338855Y-151077174D01*
X198345321Y-151107485D01*
X198361351Y-151148468D01*
X198390678Y-151160214D01*
X198407463Y-151157571D01*
X198418057Y-151145159D01*
X198423869Y-151116249D01*
X198426308Y-151064114D01*
X198426786Y-150987857D01*
X198426214Y-150907689D01*
X198423574Y-150857086D01*
X198417483Y-150829332D01*
X198406556Y-150817713D01*
X198391244Y-150815500D01*
X198362384Y-150827671D01*
X198344975Y-150868457D01*
X198343343Y-150875928D01*
X198314826Y-150942133D01*
X198261087Y-151008429D01*
X198191484Y-151063906D01*
X198172786Y-151074761D01*
X198108351Y-151094939D01*
X198011938Y-151104121D01*
X197982140Y-151104653D01*
X197904301Y-151102903D01*
X197848381Y-151094671D01*
X197800172Y-151076828D01*
X197762251Y-151056273D01*
X197682626Y-150991526D01*
X197634822Y-150909709D01*
X197619429Y-150815159D01*
X197625723Y-150765805D01*
X197649340Y-150722359D01*
X197687464Y-150680437D01*
X197721396Y-150649451D01*
X197755376Y-150627041D01*
X197798310Y-150609602D01*
X197859106Y-150593529D01*
X197946670Y-150575217D01*
X197948170Y-150574919D01*
X198093753Y-150540766D01*
X198208630Y-150502418D01*
X198290926Y-150460629D01*
X198337074Y-150418635D01*
X198378658Y-150329963D01*
X198391168Y-150230644D01*
X198380635Y-150159522D01*
X198342917Y-150081784D01*
X198279599Y-150008557D01*
X198200987Y-149949616D01*
X198124537Y-149916553D01*
X198014440Y-149902089D01*
X197896725Y-149912005D01*
G37*
X197896725Y-149912005D02*
X197787513Y-149944367D01*
X197753576Y-149961032D01*
X197699851Y-149990725D01*
X197670573Y-150003868D01*
X197658334Y-150001282D01*
X197655722Y-149983785D01*
X197655714Y-149971857D01*
X197642748Y-149943588D01*
X197614179Y-149935491D01*
X197585501Y-149949043D01*
X197576012Y-149964269D01*
X197569278Y-150001799D01*
X197565816Y-150061336D01*
X197565628Y-150128751D01*
X197568713Y-150189915D01*
X197575070Y-150230697D01*
X197576012Y-150233444D01*
X197598249Y-150261187D01*
X197626992Y-150257659D01*
X197656309Y-150225681D01*
X197674416Y-150186698D01*
X197713614Y-150115591D01*
X197770791Y-150055163D01*
X197809296Y-150026548D01*
X197844240Y-150009759D01*
X197887387Y-150001680D01*
X197950502Y-149999196D01*
X197982639Y-149999071D01*
X198061855Y-150001033D01*
X198115458Y-150008282D01*
X198153974Y-150022869D01*
X198174870Y-150036478D01*
X198251155Y-150109838D01*
X198291720Y-150189373D01*
X198298961Y-150243329D01*
X198289875Y-150306693D01*
X198260269Y-150358452D01*
X198206623Y-150401002D01*
X198125413Y-150436738D01*
X198013120Y-150468056D01*
X197948020Y-150482047D01*
X197861508Y-150501928D01*
X197778458Y-150525375D01*
X197712161Y-150548477D01*
X197692000Y-150557387D01*
X197612964Y-150614272D01*
X197560331Y-150689305D01*
X197533705Y-150776165D01*
X197532692Y-150868536D01*
X197556897Y-150960099D01*
X197605924Y-151044535D01*
X197679380Y-151115526D01*
X197728790Y-151145906D01*
X197813817Y-151176474D01*
X197917366Y-151194590D01*
X198023298Y-151198540D01*
X198114411Y-151186877D01*
X198206477Y-151155620D01*
X198278709Y-151114931D01*
X198310178Y-151086003D01*
X198328918Y-151067603D01*
X198338855Y-151077174D01*
X198345321Y-151107485D01*
X198361351Y-151148468D01*
X198390678Y-151160214D01*
X198407463Y-151157571D01*
X198418057Y-151145159D01*
X198423869Y-151116249D01*
X198426308Y-151064114D01*
X198426786Y-150987857D01*
X198426214Y-150907689D01*
X198423574Y-150857086D01*
X198417483Y-150829332D01*
X198406556Y-150817713D01*
X198391244Y-150815500D01*
X198362384Y-150827671D01*
X198344975Y-150868457D01*
X198343343Y-150875928D01*
X198314826Y-150942133D01*
X198261087Y-151008429D01*
X198191484Y-151063906D01*
X198172786Y-151074761D01*
X198108351Y-151094939D01*
X198011938Y-151104121D01*
X197982140Y-151104653D01*
X197904301Y-151102903D01*
X197848381Y-151094671D01*
X197800172Y-151076828D01*
X197762251Y-151056273D01*
X197682626Y-150991526D01*
X197634822Y-150909709D01*
X197619429Y-150815159D01*
X197625723Y-150765805D01*
X197649340Y-150722359D01*
X197687464Y-150680437D01*
X197721396Y-150649451D01*
X197755376Y-150627041D01*
X197798310Y-150609602D01*
X197859106Y-150593529D01*
X197946670Y-150575217D01*
X197948170Y-150574919D01*
X198093753Y-150540766D01*
X198208630Y-150502418D01*
X198290926Y-150460629D01*
X198337074Y-150418635D01*
X198378658Y-150329963D01*
X198391168Y-150230644D01*
X198380635Y-150159522D01*
X198342917Y-150081784D01*
X198279599Y-150008557D01*
X198200987Y-149949616D01*
X198124537Y-149916553D01*
X198014440Y-149902089D01*
X197896725Y-149912005D01*
G36*
X200785314Y-149946161D02*
G01*
X200779031Y-149970774D01*
X200776649Y-150018526D01*
X200776286Y-150088039D01*
X200776286Y-150243030D01*
X200508679Y-150248050D01*
X200405054Y-150250258D01*
X200332284Y-150252906D01*
X200284941Y-150256830D01*
X200257597Y-150262870D01*
X200244823Y-150271862D01*
X200241190Y-150284646D01*
X200241071Y-150289357D01*
X200243017Y-150303444D01*
X200252471Y-150313489D01*
X200274863Y-150320328D01*
X200315622Y-150324801D01*
X200380175Y-150327744D01*
X200473950Y-150329996D01*
X200508679Y-150330663D01*
X200776286Y-150335684D01*
X200776286Y-150990648D01*
X200724807Y-151042127D01*
X200656319Y-151085942D01*
X200564592Y-151107006D01*
X200454622Y-151105365D01*
X200331402Y-151081064D01*
X200207675Y-151037481D01*
X200153502Y-151016709D01*
X200122543Y-151012077D01*
X200106103Y-151022450D01*
X200105032Y-151024091D01*
X200096220Y-151057257D01*
X200116124Y-151087529D01*
X200167795Y-151118597D01*
X200192477Y-151129711D01*
X200323285Y-151173691D01*
X200456599Y-151196940D01*
X200581058Y-151197994D01*
X200644295Y-151187956D01*
X200740464Y-151148052D01*
X200814276Y-151080190D01*
X200831513Y-151054907D01*
X200844239Y-151030717D01*
X200853521Y-151002237D01*
X200859891Y-150963632D01*
X200863880Y-150909070D01*
X200866021Y-150832717D01*
X200866847Y-150728740D01*
X200866932Y-150666727D01*
X200867000Y-150336525D01*
X200971321Y-150331084D01*
X201030829Y-150326349D01*
X201062400Y-150317874D01*
X201074380Y-150302319D01*
X201075643Y-150289357D01*
X201070921Y-150268354D01*
X201051176Y-150256342D01*
X201008038Y-150249952D01*
X200972041Y-150247652D01*
X200868439Y-150242232D01*
X200863184Y-150093437D01*
X200859864Y-150019947D01*
X200854785Y-149975173D01*
X200845692Y-149951548D01*
X200830328Y-149941506D01*
X200817107Y-149938845D01*
X200797379Y-149937810D01*
X200785314Y-149946161D01*
G37*
X200785314Y-149946161D02*
X200779031Y-149970774D01*
X200776649Y-150018526D01*
X200776286Y-150088039D01*
X200776286Y-150243030D01*
X200508679Y-150248050D01*
X200405054Y-150250258D01*
X200332284Y-150252906D01*
X200284941Y-150256830D01*
X200257597Y-150262870D01*
X200244823Y-150271862D01*
X200241190Y-150284646D01*
X200241071Y-150289357D01*
X200243017Y-150303444D01*
X200252471Y-150313489D01*
X200274863Y-150320328D01*
X200315622Y-150324801D01*
X200380175Y-150327744D01*
X200473950Y-150329996D01*
X200508679Y-150330663D01*
X200776286Y-150335684D01*
X200776286Y-150990648D01*
X200724807Y-151042127D01*
X200656319Y-151085942D01*
X200564592Y-151107006D01*
X200454622Y-151105365D01*
X200331402Y-151081064D01*
X200207675Y-151037481D01*
X200153502Y-151016709D01*
X200122543Y-151012077D01*
X200106103Y-151022450D01*
X200105032Y-151024091D01*
X200096220Y-151057257D01*
X200116124Y-151087529D01*
X200167795Y-151118597D01*
X200192477Y-151129711D01*
X200323285Y-151173691D01*
X200456599Y-151196940D01*
X200581058Y-151197994D01*
X200644295Y-151187956D01*
X200740464Y-151148052D01*
X200814276Y-151080190D01*
X200831513Y-151054907D01*
X200844239Y-151030717D01*
X200853521Y-151002237D01*
X200859891Y-150963632D01*
X200863880Y-150909070D01*
X200866021Y-150832717D01*
X200866847Y-150728740D01*
X200866932Y-150666727D01*
X200867000Y-150336525D01*
X200971321Y-150331084D01*
X201030829Y-150326349D01*
X201062400Y-150317874D01*
X201074380Y-150302319D01*
X201075643Y-150289357D01*
X201070921Y-150268354D01*
X201051176Y-150256342D01*
X201008038Y-150249952D01*
X200972041Y-150247652D01*
X200868439Y-150242232D01*
X200863184Y-150093437D01*
X200859864Y-150019947D01*
X200854785Y-149975173D01*
X200845692Y-149951548D01*
X200830328Y-149941506D01*
X200817107Y-149938845D01*
X200797379Y-149937810D01*
X200785314Y-149946161D01*
G36*
X209667924Y-149910216D02*
G01*
X209610483Y-149917733D01*
X209561986Y-149933816D01*
X209514322Y-149958250D01*
X209459214Y-149989035D01*
X209428668Y-150003300D01*
X209415449Y-150002011D01*
X209412323Y-149986131D01*
X209412286Y-149971857D01*
X209399457Y-149941535D01*
X209376000Y-149935571D01*
X209358760Y-149938300D01*
X209348048Y-149951089D01*
X209342328Y-149980845D01*
X209340066Y-150034475D01*
X209339714Y-150098857D01*
X209340344Y-150176494D01*
X209343236Y-150224742D01*
X209349891Y-150250493D01*
X209361811Y-150260635D01*
X209375301Y-150262143D01*
X209403770Y-150250199D01*
X209424436Y-150210136D01*
X209429525Y-150192925D01*
X209468115Y-150113299D01*
X209531512Y-150052345D01*
X209612680Y-150011340D01*
X209704582Y-149991559D01*
X209800182Y-149994279D01*
X209892444Y-150020776D01*
X209974331Y-150072326D01*
X209993662Y-150090616D01*
X210033765Y-150138137D01*
X210052123Y-150182156D01*
X210056357Y-150237330D01*
X210052350Y-150292480D01*
X210035102Y-150332359D01*
X209996771Y-150373916D01*
X209990480Y-150379731D01*
X209926617Y-150425532D01*
X209848835Y-150453757D01*
X209818123Y-150460365D01*
X209673820Y-150489687D01*
X209561021Y-150517635D01*
X209475125Y-150546438D01*
X209411531Y-150578324D01*
X209365638Y-150615521D01*
X209332842Y-150660258D01*
X209311993Y-150705445D01*
X209288256Y-150812367D01*
X209297649Y-150913882D01*
X209337042Y-151005903D01*
X209403303Y-151084346D01*
X209493301Y-151145123D01*
X209603904Y-151184148D01*
X209687967Y-151196091D01*
X209754426Y-151198644D01*
X209810445Y-151197652D01*
X209838643Y-151194319D01*
X209930678Y-151167162D01*
X209997096Y-151137910D01*
X210045529Y-151104479D01*
X210097280Y-151060934D01*
X210108388Y-151116475D01*
X210123145Y-151156649D01*
X210147771Y-151166465D01*
X210151427Y-151165905D01*
X210166432Y-151158434D01*
X210176432Y-151138472D01*
X210182763Y-151099386D01*
X210186764Y-151034545D01*
X210188566Y-150981761D01*
X210190633Y-150900420D01*
X210190185Y-150848890D01*
X210185887Y-150820717D01*
X210176403Y-150809446D01*
X210160398Y-150808621D01*
X210152952Y-150809614D01*
X210117979Y-150828380D01*
X210100992Y-150870308D01*
X210067821Y-150956345D01*
X210005004Y-151025817D01*
X209952198Y-151061040D01*
X209900986Y-151085573D01*
X209847708Y-151098974D01*
X209778471Y-151104066D01*
X209738857Y-151104399D01*
X209639170Y-151098836D01*
X209563030Y-151079824D01*
X209498815Y-151042854D01*
X209439500Y-150988285D01*
X209406036Y-150947178D01*
X209389844Y-150905558D01*
X209385144Y-150847075D01*
X209385071Y-150834356D01*
X209391152Y-150764446D01*
X209412218Y-150709193D01*
X209452504Y-150665390D01*
X209516247Y-150629828D01*
X209607682Y-150599300D01*
X209731045Y-150570597D01*
X209734145Y-150569963D01*
X209861797Y-150540028D01*
X209958638Y-150507469D01*
X210030142Y-150469430D01*
X210081783Y-150423055D01*
X210116488Y-150370509D01*
X210147568Y-150274461D01*
X210144702Y-150178187D01*
X210109767Y-150087260D01*
X210044637Y-150007249D01*
X209977671Y-149958089D01*
X209928084Y-149931962D01*
X209881422Y-149916873D01*
X209824464Y-149909959D01*
X209747929Y-149908357D01*
X209667924Y-149910216D01*
G37*
X209667924Y-149910216D02*
X209610483Y-149917733D01*
X209561986Y-149933816D01*
X209514322Y-149958250D01*
X209459214Y-149989035D01*
X209428668Y-150003300D01*
X209415449Y-150002011D01*
X209412323Y-149986131D01*
X209412286Y-149971857D01*
X209399457Y-149941535D01*
X209376000Y-149935571D01*
X209358760Y-149938300D01*
X209348048Y-149951089D01*
X209342328Y-149980845D01*
X209340066Y-150034475D01*
X209339714Y-150098857D01*
X209340344Y-150176494D01*
X209343236Y-150224742D01*
X209349891Y-150250493D01*
X209361811Y-150260635D01*
X209375301Y-150262143D01*
X209403770Y-150250199D01*
X209424436Y-150210136D01*
X209429525Y-150192925D01*
X209468115Y-150113299D01*
X209531512Y-150052345D01*
X209612680Y-150011340D01*
X209704582Y-149991559D01*
X209800182Y-149994279D01*
X209892444Y-150020776D01*
X209974331Y-150072326D01*
X209993662Y-150090616D01*
X210033765Y-150138137D01*
X210052123Y-150182156D01*
X210056357Y-150237330D01*
X210052350Y-150292480D01*
X210035102Y-150332359D01*
X209996771Y-150373916D01*
X209990480Y-150379731D01*
X209926617Y-150425532D01*
X209848835Y-150453757D01*
X209818123Y-150460365D01*
X209673820Y-150489687D01*
X209561021Y-150517635D01*
X209475125Y-150546438D01*
X209411531Y-150578324D01*
X209365638Y-150615521D01*
X209332842Y-150660258D01*
X209311993Y-150705445D01*
X209288256Y-150812367D01*
X209297649Y-150913882D01*
X209337042Y-151005903D01*
X209403303Y-151084346D01*
X209493301Y-151145123D01*
X209603904Y-151184148D01*
X209687967Y-151196091D01*
X209754426Y-151198644D01*
X209810445Y-151197652D01*
X209838643Y-151194319D01*
X209930678Y-151167162D01*
X209997096Y-151137910D01*
X210045529Y-151104479D01*
X210097280Y-151060934D01*
X210108388Y-151116475D01*
X210123145Y-151156649D01*
X210147771Y-151166465D01*
X210151427Y-151165905D01*
X210166432Y-151158434D01*
X210176432Y-151138472D01*
X210182763Y-151099386D01*
X210186764Y-151034545D01*
X210188566Y-150981761D01*
X210190633Y-150900420D01*
X210190185Y-150848890D01*
X210185887Y-150820717D01*
X210176403Y-150809446D01*
X210160398Y-150808621D01*
X210152952Y-150809614D01*
X210117979Y-150828380D01*
X210100992Y-150870308D01*
X210067821Y-150956345D01*
X210005004Y-151025817D01*
X209952198Y-151061040D01*
X209900986Y-151085573D01*
X209847708Y-151098974D01*
X209778471Y-151104066D01*
X209738857Y-151104399D01*
X209639170Y-151098836D01*
X209563030Y-151079824D01*
X209498815Y-151042854D01*
X209439500Y-150988285D01*
X209406036Y-150947178D01*
X209389844Y-150905558D01*
X209385144Y-150847075D01*
X209385071Y-150834356D01*
X209391152Y-150764446D01*
X209412218Y-150709193D01*
X209452504Y-150665390D01*
X209516247Y-150629828D01*
X209607682Y-150599300D01*
X209731045Y-150570597D01*
X209734145Y-150569963D01*
X209861797Y-150540028D01*
X209958638Y-150507469D01*
X210030142Y-150469430D01*
X210081783Y-150423055D01*
X210116488Y-150370509D01*
X210147568Y-150274461D01*
X210144702Y-150178187D01*
X210109767Y-150087260D01*
X210044637Y-150007249D01*
X209977671Y-149958089D01*
X209928084Y-149931962D01*
X209881422Y-149916873D01*
X209824464Y-149909959D01*
X209747929Y-149908357D01*
X209667924Y-149910216D01*
G36*
X203140145Y-150246595D02*
G01*
X203044754Y-150286202D01*
X202972945Y-150341392D01*
X202933927Y-150378511D01*
X202911110Y-150384050D01*
X202900784Y-150356762D01*
X202899000Y-150316571D01*
X202899000Y-150244000D01*
X202784700Y-150244000D01*
X202701579Y-150249245D01*
X202652270Y-150265270D01*
X202635806Y-150292515D01*
X202639287Y-150309711D01*
X202664669Y-150327524D01*
X202719959Y-150334646D01*
X202727286Y-150334714D01*
X202805689Y-150334714D01*
X202811523Y-150829107D01*
X202813630Y-150988363D01*
X202816510Y-151115782D01*
X202821258Y-151215814D01*
X202828968Y-151292906D01*
X202840733Y-151351507D01*
X202857648Y-151396065D01*
X202880808Y-151431027D01*
X202911305Y-151460844D01*
X202950234Y-151489961D01*
X202978862Y-151509464D01*
X203018140Y-151534989D01*
X203051503Y-151551826D01*
X203087927Y-151561782D01*
X203136389Y-151566663D01*
X203205867Y-151568277D01*
X203271908Y-151568428D01*
X203358767Y-151566894D01*
X203428459Y-151562673D01*
X203474117Y-151556340D01*
X203488643Y-151550285D01*
X203494722Y-151529693D01*
X203480682Y-151514763D01*
X203442317Y-151504242D01*
X203375419Y-151496874D01*
X203294017Y-151492199D01*
X203181580Y-151483953D01*
X203098172Y-151469084D01*
X203036742Y-151444800D01*
X202990236Y-151408311D01*
X202951601Y-151356829D01*
X202951528Y-151356711D01*
X202928919Y-151311755D01*
X202914403Y-151258497D01*
X202905646Y-151186185D01*
X202902200Y-151129485D01*
X202900465Y-151058588D01*
X202902279Y-151003975D01*
X202907225Y-150973762D01*
X202910388Y-150970290D01*
X202931398Y-150982510D01*
X202967250Y-151012995D01*
X202989643Y-151034581D01*
X203078833Y-151100036D01*
X203182323Y-151136586D01*
X203293089Y-151144684D01*
X203404106Y-151124783D01*
X203508352Y-151077338D01*
X203598801Y-151002801D01*
X203606023Y-150994781D01*
X203671065Y-150904772D01*
X203708153Y-150809941D01*
X203719678Y-150715661D01*
X203634708Y-150715661D01*
X203610465Y-150814711D01*
X203556048Y-150908341D01*
X203523742Y-150944641D01*
X203430674Y-151016959D01*
X203332030Y-151053557D01*
X203228227Y-151054325D01*
X203169314Y-151039511D01*
X203068161Y-150987914D01*
X202989728Y-150913096D01*
X202936416Y-150821343D01*
X202910630Y-150718942D01*
X202914769Y-150612178D01*
X202951237Y-150507337D01*
X202959958Y-150491629D01*
X203030647Y-150403073D01*
X203120584Y-150345216D01*
X203228997Y-150318490D01*
X203270928Y-150316571D01*
X203381076Y-150332256D01*
X203474379Y-150375630D01*
X203548615Y-150441176D01*
X203601562Y-150523375D01*
X203631001Y-150616710D01*
X203634708Y-150715661D01*
X203719678Y-150715661D01*
X203721849Y-150697902D01*
X203722165Y-150679265D01*
X203706555Y-150552341D01*
X203660356Y-150438260D01*
X203586971Y-150342371D01*
X203489801Y-150270024D01*
X203449724Y-150250802D01*
X203353655Y-150226800D01*
X203246787Y-150226096D01*
X203140145Y-150246595D01*
G37*
X203140145Y-150246595D02*
X203044754Y-150286202D01*
X202972945Y-150341392D01*
X202933927Y-150378511D01*
X202911110Y-150384050D01*
X202900784Y-150356762D01*
X202899000Y-150316571D01*
X202899000Y-150244000D01*
X202784700Y-150244000D01*
X202701579Y-150249245D01*
X202652270Y-150265270D01*
X202635806Y-150292515D01*
X202639287Y-150309711D01*
X202664669Y-150327524D01*
X202719959Y-150334646D01*
X202727286Y-150334714D01*
X202805689Y-150334714D01*
X202811523Y-150829107D01*
X202813630Y-150988363D01*
X202816510Y-151115782D01*
X202821258Y-151215814D01*
X202828968Y-151292906D01*
X202840733Y-151351507D01*
X202857648Y-151396065D01*
X202880808Y-151431027D01*
X202911305Y-151460844D01*
X202950234Y-151489961D01*
X202978862Y-151509464D01*
X203018140Y-151534989D01*
X203051503Y-151551826D01*
X203087927Y-151561782D01*
X203136389Y-151566663D01*
X203205867Y-151568277D01*
X203271908Y-151568428D01*
X203358767Y-151566894D01*
X203428459Y-151562673D01*
X203474117Y-151556340D01*
X203488643Y-151550285D01*
X203494722Y-151529693D01*
X203480682Y-151514763D01*
X203442317Y-151504242D01*
X203375419Y-151496874D01*
X203294017Y-151492199D01*
X203181580Y-151483953D01*
X203098172Y-151469084D01*
X203036742Y-151444800D01*
X202990236Y-151408311D01*
X202951601Y-151356829D01*
X202951528Y-151356711D01*
X202928919Y-151311755D01*
X202914403Y-151258497D01*
X202905646Y-151186185D01*
X202902200Y-151129485D01*
X202900465Y-151058588D01*
X202902279Y-151003975D01*
X202907225Y-150973762D01*
X202910388Y-150970290D01*
X202931398Y-150982510D01*
X202967250Y-151012995D01*
X202989643Y-151034581D01*
X203078833Y-151100036D01*
X203182323Y-151136586D01*
X203293089Y-151144684D01*
X203404106Y-151124783D01*
X203508352Y-151077338D01*
X203598801Y-151002801D01*
X203606023Y-150994781D01*
X203671065Y-150904772D01*
X203708153Y-150809941D01*
X203719678Y-150715661D01*
X203634708Y-150715661D01*
X203610465Y-150814711D01*
X203556048Y-150908341D01*
X203523742Y-150944641D01*
X203430674Y-151016959D01*
X203332030Y-151053557D01*
X203228227Y-151054325D01*
X203169314Y-151039511D01*
X203068161Y-150987914D01*
X202989728Y-150913096D01*
X202936416Y-150821343D01*
X202910630Y-150718942D01*
X202914769Y-150612178D01*
X202951237Y-150507337D01*
X202959958Y-150491629D01*
X203030647Y-150403073D01*
X203120584Y-150345216D01*
X203228997Y-150318490D01*
X203270928Y-150316571D01*
X203381076Y-150332256D01*
X203474379Y-150375630D01*
X203548615Y-150441176D01*
X203601562Y-150523375D01*
X203631001Y-150616710D01*
X203634708Y-150715661D01*
X203719678Y-150715661D01*
X203721849Y-150697902D01*
X203722165Y-150679265D01*
X203706555Y-150552341D01*
X203660356Y-150438260D01*
X203586971Y-150342371D01*
X203489801Y-150270024D01*
X203449724Y-150250802D01*
X203353655Y-150226800D01*
X203246787Y-150226096D01*
X203140145Y-150246595D01*
G36*
X206592217Y-150251458D02*
G01*
X206553605Y-150257665D01*
X206547606Y-150260218D01*
X206531271Y-150286798D01*
X206540506Y-150316299D01*
X206569229Y-150333905D01*
X206578190Y-150334714D01*
X206591200Y-150341892D01*
X206610315Y-150365153D01*
X206636965Y-150407083D01*
X206672581Y-150470271D01*
X206718594Y-150557304D01*
X206776436Y-150670771D01*
X206847536Y-150813260D01*
X206887188Y-150893521D01*
X206952056Y-151025765D01*
X207011482Y-151148097D01*
X207063617Y-151256616D01*
X207106606Y-151347416D01*
X207138600Y-151416595D01*
X207157747Y-151460248D01*
X207162571Y-151474093D01*
X207145529Y-151488778D01*
X207097580Y-151495549D01*
X207080928Y-151495857D01*
X207029908Y-151498231D01*
X207005782Y-151508089D01*
X206999317Y-151529536D01*
X206999286Y-151532143D01*
X207000902Y-151545363D01*
X207009130Y-151554911D01*
X207029038Y-151561383D01*
X207065691Y-151565374D01*
X207124159Y-151567481D01*
X207209508Y-151568300D01*
X207307714Y-151568428D01*
X207420128Y-151568226D01*
X207501320Y-151567229D01*
X207556350Y-151564853D01*
X207590283Y-151560514D01*
X207608180Y-151553627D01*
X207615103Y-151543608D01*
X207616143Y-151532823D01*
X207613049Y-151515963D01*
X207599252Y-151505030D01*
X207567977Y-151498378D01*
X207512450Y-151494358D01*
X207448321Y-151492002D01*
X207280500Y-151486786D01*
X207201636Y-151323500D01*
X207122773Y-151160214D01*
X207328321Y-150747464D01*
X207392383Y-150619500D01*
X207442887Y-150520614D01*
X207482007Y-150447184D01*
X207511917Y-150395592D01*
X207534792Y-150362217D01*
X207552807Y-150343439D01*
X207568136Y-150335638D01*
X207576268Y-150334714D01*
X207607854Y-150327486D01*
X207613555Y-150299399D01*
X207612869Y-150293893D01*
X207607544Y-150273978D01*
X207593529Y-150261504D01*
X207563394Y-150254362D01*
X207509710Y-150250440D01*
X207452857Y-150248442D01*
X207358336Y-150248297D01*
X207296243Y-150255234D01*
X207263240Y-150270241D01*
X207255984Y-150294305D01*
X207259144Y-150305669D01*
X207280766Y-150325802D01*
X207329290Y-150334195D01*
X207352442Y-150334714D01*
X207434594Y-150334714D01*
X207257977Y-150688500D01*
X207205966Y-150791850D01*
X207159148Y-150883297D01*
X207119980Y-150958170D01*
X207090921Y-151011795D01*
X207074428Y-151039501D01*
X207071845Y-151042286D01*
X207061171Y-151026908D01*
X207037654Y-150984649D01*
X207004196Y-150921318D01*
X206963703Y-150842722D01*
X206919078Y-150754671D01*
X206873224Y-150662974D01*
X206829046Y-150573439D01*
X206789447Y-150491876D01*
X206757331Y-150424093D01*
X206735602Y-150375900D01*
X206727164Y-150353104D01*
X206727143Y-150352730D01*
X206743374Y-150342055D01*
X206784506Y-150335594D01*
X206810047Y-150334714D01*
X206860598Y-150332986D01*
X206883762Y-150324677D01*
X206888392Y-150305102D01*
X206887155Y-150293893D01*
X206881829Y-150273978D01*
X206867814Y-150261504D01*
X206837680Y-150254362D01*
X206783996Y-150250440D01*
X206727143Y-150248442D01*
X206653473Y-150248160D01*
X206592217Y-150251458D01*
G37*
X206592217Y-150251458D02*
X206553605Y-150257665D01*
X206547606Y-150260218D01*
X206531271Y-150286798D01*
X206540506Y-150316299D01*
X206569229Y-150333905D01*
X206578190Y-150334714D01*
X206591200Y-150341892D01*
X206610315Y-150365153D01*
X206636965Y-150407083D01*
X206672581Y-150470271D01*
X206718594Y-150557304D01*
X206776436Y-150670771D01*
X206847536Y-150813260D01*
X206887188Y-150893521D01*
X206952056Y-151025765D01*
X207011482Y-151148097D01*
X207063617Y-151256616D01*
X207106606Y-151347416D01*
X207138600Y-151416595D01*
X207157747Y-151460248D01*
X207162571Y-151474093D01*
X207145529Y-151488778D01*
X207097580Y-151495549D01*
X207080928Y-151495857D01*
X207029908Y-151498231D01*
X207005782Y-151508089D01*
X206999317Y-151529536D01*
X206999286Y-151532143D01*
X207000902Y-151545363D01*
X207009130Y-151554911D01*
X207029038Y-151561383D01*
X207065691Y-151565374D01*
X207124159Y-151567481D01*
X207209508Y-151568300D01*
X207307714Y-151568428D01*
X207420128Y-151568226D01*
X207501320Y-151567229D01*
X207556350Y-151564853D01*
X207590283Y-151560514D01*
X207608180Y-151553627D01*
X207615103Y-151543608D01*
X207616143Y-151532823D01*
X207613049Y-151515963D01*
X207599252Y-151505030D01*
X207567977Y-151498378D01*
X207512450Y-151494358D01*
X207448321Y-151492002D01*
X207280500Y-151486786D01*
X207201636Y-151323500D01*
X207122773Y-151160214D01*
X207328321Y-150747464D01*
X207392383Y-150619500D01*
X207442887Y-150520614D01*
X207482007Y-150447184D01*
X207511917Y-150395592D01*
X207534792Y-150362217D01*
X207552807Y-150343439D01*
X207568136Y-150335638D01*
X207576268Y-150334714D01*
X207607854Y-150327486D01*
X207613555Y-150299399D01*
X207612869Y-150293893D01*
X207607544Y-150273978D01*
X207593529Y-150261504D01*
X207563394Y-150254362D01*
X207509710Y-150250440D01*
X207452857Y-150248442D01*
X207358336Y-150248297D01*
X207296243Y-150255234D01*
X207263240Y-150270241D01*
X207255984Y-150294305D01*
X207259144Y-150305669D01*
X207280766Y-150325802D01*
X207329290Y-150334195D01*
X207352442Y-150334714D01*
X207434594Y-150334714D01*
X207257977Y-150688500D01*
X207205966Y-150791850D01*
X207159148Y-150883297D01*
X207119980Y-150958170D01*
X207090921Y-151011795D01*
X207074428Y-151039501D01*
X207071845Y-151042286D01*
X207061171Y-151026908D01*
X207037654Y-150984649D01*
X207004196Y-150921318D01*
X206963703Y-150842722D01*
X206919078Y-150754671D01*
X206873224Y-150662974D01*
X206829046Y-150573439D01*
X206789447Y-150491876D01*
X206757331Y-150424093D01*
X206735602Y-150375900D01*
X206727164Y-150353104D01*
X206727143Y-150352730D01*
X206743374Y-150342055D01*
X206784506Y-150335594D01*
X206810047Y-150334714D01*
X206860598Y-150332986D01*
X206883762Y-150324677D01*
X206888392Y-150305102D01*
X206887155Y-150293893D01*
X206881829Y-150273978D01*
X206867814Y-150261504D01*
X206837680Y-150254362D01*
X206783996Y-150250440D01*
X206727143Y-150248442D01*
X206653473Y-150248160D01*
X206592217Y-150251458D01*
G36*
X201448319Y-68475523D02*
G01*
X201550468Y-68401124D01*
X201630228Y-68209334D01*
X201639931Y-68179257D01*
X201741597Y-67920063D01*
X201891048Y-67603912D01*
X201992948Y-67412500D01*
X202109835Y-67180476D01*
X202164702Y-67019640D01*
X202150646Y-66968000D01*
X202053633Y-67024473D01*
X201870772Y-67175836D01*
X201633670Y-67394999D01*
X201504044Y-67522153D01*
X201185244Y-67867811D01*
X201007642Y-68129431D01*
X200969558Y-68313858D01*
X201069312Y-68427935D01*
X201270030Y-68475591D01*
X201448319Y-68475523D01*
G37*
X201448319Y-68475523D02*
X201550468Y-68401124D01*
X201630228Y-68209334D01*
X201639931Y-68179257D01*
X201741597Y-67920063D01*
X201891048Y-67603912D01*
X201992948Y-67412500D01*
X202109835Y-67180476D01*
X202164702Y-67019640D01*
X202150646Y-66968000D01*
X202053633Y-67024473D01*
X201870772Y-67175836D01*
X201633670Y-67394999D01*
X201504044Y-67522153D01*
X201185244Y-67867811D01*
X201007642Y-68129431D01*
X200969558Y-68313858D01*
X201069312Y-68427935D01*
X201270030Y-68475591D01*
X201448319Y-68475523D01*
G36*
X203128487Y-69337663D02*
G01*
X203500105Y-69332542D01*
X203754136Y-69320140D01*
X203916451Y-69297293D01*
X204012922Y-69260835D01*
X204069420Y-69207605D01*
X204100015Y-69156848D01*
X204141041Y-68914209D01*
X204067392Y-68594159D01*
X203895441Y-68226526D01*
X203641558Y-67841143D01*
X203322116Y-67467837D01*
X203020452Y-67189792D01*
X202697777Y-66925666D01*
X202890838Y-67222000D01*
X203179320Y-67699632D01*
X203372854Y-68097473D01*
X203464239Y-68398884D01*
X203463331Y-68544564D01*
X203437134Y-68626909D01*
X203388308Y-68683060D01*
X203288372Y-68718029D01*
X203108851Y-68736832D01*
X202821264Y-68744482D01*
X202397135Y-68745993D01*
X202319232Y-68746000D01*
X201883581Y-68752944D01*
X201490063Y-68771889D01*
X201180050Y-68800003D01*
X200994917Y-68834453D01*
X200987345Y-68837166D01*
X200749000Y-68928331D01*
X200986554Y-69133499D01*
X201081298Y-69209528D01*
X201180708Y-69264004D01*
X201313231Y-69300514D01*
X201507318Y-69322647D01*
X201791415Y-69333989D01*
X202193971Y-69338129D01*
X202613409Y-69338666D01*
X203128487Y-69337663D01*
G37*
X203128487Y-69337663D02*
X203500105Y-69332542D01*
X203754136Y-69320140D01*
X203916451Y-69297293D01*
X204012922Y-69260835D01*
X204069420Y-69207605D01*
X204100015Y-69156848D01*
X204141041Y-68914209D01*
X204067392Y-68594159D01*
X203895441Y-68226526D01*
X203641558Y-67841143D01*
X203322116Y-67467837D01*
X203020452Y-67189792D01*
X202697777Y-66925666D01*
X202890838Y-67222000D01*
X203179320Y-67699632D01*
X203372854Y-68097473D01*
X203464239Y-68398884D01*
X203463331Y-68544564D01*
X203437134Y-68626909D01*
X203388308Y-68683060D01*
X203288372Y-68718029D01*
X203108851Y-68736832D01*
X202821264Y-68744482D01*
X202397135Y-68745993D01*
X202319232Y-68746000D01*
X201883581Y-68752944D01*
X201490063Y-68771889D01*
X201180050Y-68800003D01*
X200994917Y-68834453D01*
X200987345Y-68837166D01*
X200749000Y-68928331D01*
X200986554Y-69133499D01*
X201081298Y-69209528D01*
X201180708Y-69264004D01*
X201313231Y-69300514D01*
X201507318Y-69322647D01*
X201791415Y-69333989D01*
X202193971Y-69338129D01*
X202613409Y-69338666D01*
X203128487Y-69337663D01*
G36*
X202643169Y-71096391D02*
G01*
X203057765Y-71068782D01*
X203446295Y-71025427D01*
X203754212Y-70973249D01*
X203881667Y-70939172D01*
X204220333Y-70820254D01*
X204245858Y-70278878D01*
X204256781Y-69904641D01*
X204239517Y-69676324D01*
X204183324Y-69571418D01*
X204077464Y-69567410D01*
X203935781Y-69628908D01*
X203694474Y-69814033D01*
X203593007Y-70067734D01*
X203585333Y-70192258D01*
X203574470Y-70258635D01*
X203523954Y-70303997D01*
X203406892Y-70332310D01*
X203196392Y-70347543D01*
X202865562Y-70353664D01*
X202484667Y-70354666D01*
X202033374Y-70352737D01*
X201724779Y-70344524D01*
X201532267Y-70326387D01*
X201429222Y-70294688D01*
X201389030Y-70245787D01*
X201384000Y-70204172D01*
X201330613Y-69989350D01*
X201196880Y-69788692D01*
X201022440Y-69637439D01*
X200846936Y-69570830D01*
X200719637Y-69613563D01*
X200654175Y-69769307D01*
X200625910Y-70026348D01*
X200635859Y-70320559D01*
X200685042Y-70587813D01*
X200703300Y-70642144D01*
X200867031Y-70838582D01*
X201183428Y-70982505D01*
X201643500Y-71071810D01*
X202238257Y-71104391D01*
X202643169Y-71096391D01*
G37*
X202643169Y-71096391D02*
X203057765Y-71068782D01*
X203446295Y-71025427D01*
X203754212Y-70973249D01*
X203881667Y-70939172D01*
X204220333Y-70820254D01*
X204245858Y-70278878D01*
X204256781Y-69904641D01*
X204239517Y-69676324D01*
X204183324Y-69571418D01*
X204077464Y-69567410D01*
X203935781Y-69628908D01*
X203694474Y-69814033D01*
X203593007Y-70067734D01*
X203585333Y-70192258D01*
X203574470Y-70258635D01*
X203523954Y-70303997D01*
X203406892Y-70332310D01*
X203196392Y-70347543D01*
X202865562Y-70353664D01*
X202484667Y-70354666D01*
X202033374Y-70352737D01*
X201724779Y-70344524D01*
X201532267Y-70326387D01*
X201429222Y-70294688D01*
X201389030Y-70245787D01*
X201384000Y-70204172D01*
X201330613Y-69989350D01*
X201196880Y-69788692D01*
X201022440Y-69637439D01*
X200846936Y-69570830D01*
X200719637Y-69613563D01*
X200654175Y-69769307D01*
X200625910Y-70026348D01*
X200635859Y-70320559D01*
X200685042Y-70587813D01*
X200703300Y-70642144D01*
X200867031Y-70838582D01*
X201183428Y-70982505D01*
X201643500Y-71071810D01*
X202238257Y-71104391D01*
X202643169Y-71096391D01*
G36*
X202156831Y-136003609D02*
G01*
X201742235Y-136031218D01*
X201353705Y-136074573D01*
X201045788Y-136126751D01*
X200918333Y-136160828D01*
X200579667Y-136279746D01*
X200554142Y-136821122D01*
X200543219Y-137195359D01*
X200560483Y-137423676D01*
X200616676Y-137528582D01*
X200722536Y-137532590D01*
X200864219Y-137471092D01*
X201105526Y-137285967D01*
X201206993Y-137032266D01*
X201214667Y-136907742D01*
X201225530Y-136841365D01*
X201276046Y-136796003D01*
X201393108Y-136767690D01*
X201603608Y-136752457D01*
X201934438Y-136746336D01*
X202315333Y-136745334D01*
X202766626Y-136747263D01*
X203075221Y-136755476D01*
X203267733Y-136773613D01*
X203370778Y-136805312D01*
X203410970Y-136854213D01*
X203416000Y-136895828D01*
X203469387Y-137110650D01*
X203603120Y-137311308D01*
X203777560Y-137462561D01*
X203953064Y-137529170D01*
X204080363Y-137486437D01*
X204145825Y-137330693D01*
X204174090Y-137073652D01*
X204164141Y-136779441D01*
X204114958Y-136512187D01*
X204096700Y-136457856D01*
X203932969Y-136261418D01*
X203616572Y-136117495D01*
X203156500Y-136028190D01*
X202561743Y-135995609D01*
X202156831Y-136003609D01*
G37*
X202156831Y-136003609D02*
X201742235Y-136031218D01*
X201353705Y-136074573D01*
X201045788Y-136126751D01*
X200918333Y-136160828D01*
X200579667Y-136279746D01*
X200554142Y-136821122D01*
X200543219Y-137195359D01*
X200560483Y-137423676D01*
X200616676Y-137528582D01*
X200722536Y-137532590D01*
X200864219Y-137471092D01*
X201105526Y-137285967D01*
X201206993Y-137032266D01*
X201214667Y-136907742D01*
X201225530Y-136841365D01*
X201276046Y-136796003D01*
X201393108Y-136767690D01*
X201603608Y-136752457D01*
X201934438Y-136746336D01*
X202315333Y-136745334D01*
X202766626Y-136747263D01*
X203075221Y-136755476D01*
X203267733Y-136773613D01*
X203370778Y-136805312D01*
X203410970Y-136854213D01*
X203416000Y-136895828D01*
X203469387Y-137110650D01*
X203603120Y-137311308D01*
X203777560Y-137462561D01*
X203953064Y-137529170D01*
X204080363Y-137486437D01*
X204145825Y-137330693D01*
X204174090Y-137073652D01*
X204164141Y-136779441D01*
X204114958Y-136512187D01*
X204096700Y-136457856D01*
X203932969Y-136261418D01*
X203616572Y-136117495D01*
X203156500Y-136028190D01*
X202561743Y-135995609D01*
X202156831Y-136003609D01*
G36*
X201671513Y-137762337D02*
G01*
X201299895Y-137767458D01*
X201045864Y-137779860D01*
X200883549Y-137802707D01*
X200787078Y-137839165D01*
X200730580Y-137892395D01*
X200699985Y-137943152D01*
X200658959Y-138185791D01*
X200732608Y-138505841D01*
X200904559Y-138873474D01*
X201158442Y-139258857D01*
X201477884Y-139632163D01*
X201779548Y-139910208D01*
X202102223Y-140174334D01*
X201909162Y-139878000D01*
X201620680Y-139400368D01*
X201427146Y-139002527D01*
X201335761Y-138701116D01*
X201336669Y-138555436D01*
X201362866Y-138473091D01*
X201411692Y-138416940D01*
X201511628Y-138381971D01*
X201691149Y-138363168D01*
X201978736Y-138355518D01*
X202402865Y-138354007D01*
X202480768Y-138354000D01*
X202916419Y-138347056D01*
X203309937Y-138328111D01*
X203619950Y-138299997D01*
X203805083Y-138265547D01*
X203812655Y-138262834D01*
X204051000Y-138171669D01*
X203813446Y-137966501D01*
X203718702Y-137890472D01*
X203619292Y-137835996D01*
X203486769Y-137799486D01*
X203292682Y-137777353D01*
X203008585Y-137766011D01*
X202606029Y-137761871D01*
X202186591Y-137761334D01*
X201671513Y-137762337D01*
G37*
X201671513Y-137762337D02*
X201299895Y-137767458D01*
X201045864Y-137779860D01*
X200883549Y-137802707D01*
X200787078Y-137839165D01*
X200730580Y-137892395D01*
X200699985Y-137943152D01*
X200658959Y-138185791D01*
X200732608Y-138505841D01*
X200904559Y-138873474D01*
X201158442Y-139258857D01*
X201477884Y-139632163D01*
X201779548Y-139910208D01*
X202102223Y-140174334D01*
X201909162Y-139878000D01*
X201620680Y-139400368D01*
X201427146Y-139002527D01*
X201335761Y-138701116D01*
X201336669Y-138555436D01*
X201362866Y-138473091D01*
X201411692Y-138416940D01*
X201511628Y-138381971D01*
X201691149Y-138363168D01*
X201978736Y-138355518D01*
X202402865Y-138354007D01*
X202480768Y-138354000D01*
X202916419Y-138347056D01*
X203309937Y-138328111D01*
X203619950Y-138299997D01*
X203805083Y-138265547D01*
X203812655Y-138262834D01*
X204051000Y-138171669D01*
X203813446Y-137966501D01*
X203718702Y-137890472D01*
X203619292Y-137835996D01*
X203486769Y-137799486D01*
X203292682Y-137777353D01*
X203008585Y-137766011D01*
X202606029Y-137761871D01*
X202186591Y-137761334D01*
X201671513Y-137762337D01*
G36*
X203351681Y-138624477D02*
G01*
X203249532Y-138698876D01*
X203169772Y-138890666D01*
X203160069Y-138920743D01*
X203058403Y-139179937D01*
X202908952Y-139496088D01*
X202807052Y-139687500D01*
X202690165Y-139919524D01*
X202635298Y-140080360D01*
X202649354Y-140132000D01*
X202746367Y-140075527D01*
X202929228Y-139924164D01*
X203166330Y-139705001D01*
X203295956Y-139577847D01*
X203614756Y-139232189D01*
X203792358Y-138970569D01*
X203830442Y-138786142D01*
X203730688Y-138672065D01*
X203529970Y-138624409D01*
X203351681Y-138624477D01*
G37*
X203351681Y-138624477D02*
X203249532Y-138698876D01*
X203169772Y-138890666D01*
X203160069Y-138920743D01*
X203058403Y-139179937D01*
X202908952Y-139496088D01*
X202807052Y-139687500D01*
X202690165Y-139919524D01*
X202635298Y-140080360D01*
X202649354Y-140132000D01*
X202746367Y-140075527D01*
X202929228Y-139924164D01*
X203166330Y-139705001D01*
X203295956Y-139577847D01*
X203614756Y-139232189D01*
X203792358Y-138970569D01*
X203830442Y-138786142D01*
X203730688Y-138672065D01*
X203529970Y-138624409D01*
X203351681Y-138624477D01*
D11*
G36*
X150437500Y-146656250D02*
G01*
X149837500Y-146656250D01*
X149837500Y-147256250D01*
X150437500Y-146656250D01*
G37*
X150437500Y-146656250D02*
X149837500Y-146656250D01*
X149837500Y-147256250D01*
X150437500Y-146656250D01*
G36*
X112337500Y-70456250D02*
G01*
X111737500Y-70456250D01*
X111737500Y-71056250D01*
X112337500Y-70456250D01*
G37*
X112337500Y-70456250D02*
X111737500Y-70456250D01*
X111737500Y-71056250D01*
X112337500Y-70456250D01*
G36*
X172850000Y-90068750D02*
G01*
X172850000Y-90668750D01*
X173450000Y-90668750D01*
X172850000Y-90068750D01*
G37*
X172850000Y-90068750D02*
X172850000Y-90668750D01*
X173450000Y-90668750D01*
X172850000Y-90068750D01*
G36*
X169487500Y-70456250D02*
G01*
X168887500Y-70456250D01*
X168887500Y-71056250D01*
X169487500Y-70456250D01*
G37*
X169487500Y-70456250D02*
X168887500Y-70456250D01*
X168887500Y-71056250D01*
X169487500Y-70456250D01*
G36*
X121862500Y-146656250D02*
G01*
X121262500Y-146656250D01*
X121262500Y-147256250D01*
X121862500Y-146656250D01*
G37*
X121862500Y-146656250D02*
X121262500Y-146656250D01*
X121262500Y-147256250D01*
X121862500Y-146656250D01*
G36*
X172850000Y-128168750D02*
G01*
X172850000Y-128768750D01*
X173450000Y-128768750D01*
X172850000Y-128168750D01*
G37*
X172850000Y-128168750D02*
X172850000Y-128768750D01*
X173450000Y-128768750D01*
X172850000Y-128168750D01*
G36*
X144837500Y-124806250D02*
G01*
X145437500Y-124806250D01*
X145437500Y-124206250D01*
X144837500Y-124806250D01*
G37*
X144837500Y-124806250D02*
X145437500Y-124806250D01*
X145437500Y-124206250D01*
X144837500Y-124806250D01*
G36*
X125787500Y-124806250D02*
G01*
X126387500Y-124806250D01*
X126387500Y-124206250D01*
X125787500Y-124806250D01*
G37*
X125787500Y-124806250D02*
X126387500Y-124806250D01*
X126387500Y-124206250D01*
X125787500Y-124806250D01*
G36*
X106737500Y-124806250D02*
G01*
X107337500Y-124806250D01*
X107337500Y-124206250D01*
X106737500Y-124806250D01*
G37*
X106737500Y-124806250D02*
X107337500Y-124806250D01*
X107337500Y-124206250D01*
X106737500Y-124806250D01*
G36*
X112337500Y-108556250D02*
G01*
X111737500Y-108556250D01*
X111737500Y-109156250D01*
X112337500Y-108556250D01*
G37*
X112337500Y-108556250D02*
X111737500Y-108556250D01*
X111737500Y-109156250D01*
X112337500Y-108556250D01*
G36*
X131387500Y-108556250D02*
G01*
X130787500Y-108556250D01*
X130787500Y-109156250D01*
X131387500Y-108556250D01*
G37*
X131387500Y-108556250D02*
X130787500Y-108556250D01*
X130787500Y-109156250D01*
X131387500Y-108556250D01*
G36*
X150437500Y-108556250D02*
G01*
X149837500Y-108556250D01*
X149837500Y-109156250D01*
X150437500Y-108556250D01*
G37*
X150437500Y-108556250D02*
X149837500Y-108556250D01*
X149837500Y-109156250D01*
X150437500Y-108556250D01*
G36*
X144837500Y-86706250D02*
G01*
X145437500Y-86706250D01*
X145437500Y-86106250D01*
X144837500Y-86706250D01*
G37*
X144837500Y-86706250D02*
X145437500Y-86706250D01*
X145437500Y-86106250D01*
X144837500Y-86706250D01*
G36*
X125787500Y-86706250D02*
G01*
X126387500Y-86706250D01*
X126387500Y-86106250D01*
X125787500Y-86706250D01*
G37*
X125787500Y-86706250D02*
X126387500Y-86706250D01*
X126387500Y-86106250D01*
X125787500Y-86706250D01*
G36*
X106737500Y-86706250D02*
G01*
X107337500Y-86706250D01*
X107337500Y-86106250D01*
X106737500Y-86706250D01*
G37*
X106737500Y-86706250D02*
X107337500Y-86706250D01*
X107337500Y-86106250D01*
X106737500Y-86706250D01*
G36*
X131387500Y-70456250D02*
G01*
X130787500Y-70456250D01*
X130787500Y-71056250D01*
X131387500Y-70456250D01*
G37*
X131387500Y-70456250D02*
X130787500Y-70456250D01*
X130787500Y-71056250D01*
X131387500Y-70456250D01*
G36*
X150437500Y-70456250D02*
G01*
X149837500Y-70456250D01*
X149837500Y-71056250D01*
X150437500Y-70456250D01*
G37*
X150437500Y-70456250D02*
X149837500Y-70456250D01*
X149837500Y-71056250D01*
X150437500Y-70456250D01*
D12*
X167068452Y-64365178D02*
X166306547Y-64365178D01*
X128158928Y-55604761D02*
X129016071Y-56890476D01*
X147970833Y-113152380D02*
X147351785Y-113152380D01*
X147685119Y-113533333D01*
X147542261Y-113533333D01*
X147447023Y-113580952D01*
X147399404Y-113628571D01*
X147351785Y-113723809D01*
X147351785Y-113961904D01*
X147399404Y-114057142D01*
X147447023Y-114104761D01*
X147542261Y-114152380D01*
X147827976Y-114152380D01*
X147923214Y-114104761D01*
X147970833Y-114057142D01*
X109870833Y-75152380D02*
X109204166Y-75152380D01*
X109632738Y-76152380D01*
X168377976Y-127722321D02*
X168044642Y-127722321D01*
X167901785Y-128246130D02*
X168377976Y-128246130D01*
X168377976Y-127246130D01*
X167901785Y-127246130D01*
X167473214Y-127579464D02*
X167473214Y-128246130D01*
X167473214Y-127674702D02*
X167425595Y-127627083D01*
X167330357Y-127579464D01*
X167187500Y-127579464D01*
X167092261Y-127627083D01*
X167044642Y-127722321D01*
X167044642Y-128246130D01*
X166711309Y-127579464D02*
X166330357Y-127579464D01*
X166568452Y-127246130D02*
X166568452Y-128103273D01*
X166520833Y-128198511D01*
X166425595Y-128246130D01*
X166330357Y-128246130D01*
X165616071Y-128198511D02*
X165711309Y-128246130D01*
X165901785Y-128246130D01*
X165997023Y-128198511D01*
X166044642Y-128103273D01*
X166044642Y-127722321D01*
X165997023Y-127627083D01*
X165901785Y-127579464D01*
X165711309Y-127579464D01*
X165616071Y-127627083D01*
X165568452Y-127722321D01*
X165568452Y-127817559D01*
X166044642Y-127912797D01*
X165139880Y-128246130D02*
X165139880Y-127579464D01*
X165139880Y-127769940D02*
X165092261Y-127674702D01*
X165044642Y-127627083D01*
X164949404Y-127579464D01*
X164854166Y-127579464D01*
X167068452Y-89765178D02*
X166306547Y-89765178D01*
X166687500Y-90146130D02*
X166687500Y-89384226D01*
X119110119Y-132152380D02*
X119014880Y-132152380D01*
X118919642Y-132200000D01*
X118872023Y-132247619D01*
X118824404Y-132342857D01*
X118776785Y-132533333D01*
X118776785Y-132771428D01*
X118824404Y-132961904D01*
X118872023Y-133057142D01*
X118919642Y-133104761D01*
X119014880Y-133152380D01*
X119110119Y-133152380D01*
X119205357Y-133104761D01*
X119252976Y-133057142D01*
X119300595Y-132961904D01*
X119348214Y-132771428D01*
X119348214Y-132533333D01*
X119300595Y-132342857D01*
X119252976Y-132247619D01*
X119205357Y-132200000D01*
X119110119Y-132152380D01*
X147637500Y-132557142D02*
X147589880Y-132604761D01*
X147637500Y-132652380D01*
X147685119Y-132604761D01*
X147637500Y-132557142D01*
X147637500Y-132652380D01*
X147447023Y-94152380D02*
X147637500Y-94152380D01*
X147732738Y-94200000D01*
X147780357Y-94247619D01*
X147875595Y-94390476D01*
X147923214Y-94580952D01*
X147923214Y-94961904D01*
X147875595Y-95057142D01*
X147827976Y-95104761D01*
X147732738Y-95152380D01*
X147542261Y-95152380D01*
X147447023Y-95104761D01*
X147399404Y-95057142D01*
X147351785Y-94961904D01*
X147351785Y-94723809D01*
X147399404Y-94628571D01*
X147447023Y-94580952D01*
X147542261Y-94533333D01*
X147732738Y-94533333D01*
X147827976Y-94580952D01*
X147875595Y-94628571D01*
X147923214Y-94723809D01*
X147637500Y-55652380D02*
X147637500Y-55890476D01*
X147875595Y-55795238D02*
X147637500Y-55890476D01*
X147399404Y-55795238D01*
X147780357Y-56080952D02*
X147637500Y-55890476D01*
X147494642Y-56080952D01*
X109251785Y-114152380D02*
X109823214Y-114152380D01*
X109537500Y-114152380D02*
X109537500Y-113152380D01*
X109632738Y-113295238D01*
X109727976Y-113390476D01*
X109823214Y-113438095D01*
X128873214Y-113247619D02*
X128825595Y-113200000D01*
X128730357Y-113152380D01*
X128492261Y-113152380D01*
X128397023Y-113200000D01*
X128349404Y-113247619D01*
X128301785Y-113342857D01*
X128301785Y-113438095D01*
X128349404Y-113580952D01*
X128920833Y-114152380D01*
X128301785Y-114152380D01*
X109347023Y-94485714D02*
X109347023Y-95152380D01*
X109585119Y-94104761D02*
X109823214Y-94819047D01*
X109204166Y-94819047D01*
X128349404Y-94152380D02*
X128825595Y-94152380D01*
X128873214Y-94628571D01*
X128825595Y-94580952D01*
X128730357Y-94533333D01*
X128492261Y-94533333D01*
X128397023Y-94580952D01*
X128349404Y-94628571D01*
X128301785Y-94723809D01*
X128301785Y-94961904D01*
X128349404Y-95057142D01*
X128397023Y-95104761D01*
X128492261Y-95152380D01*
X128730357Y-95152380D01*
X128825595Y-95104761D01*
X128873214Y-95057142D01*
X128682738Y-75580952D02*
X128777976Y-75533333D01*
X128825595Y-75485714D01*
X128873214Y-75390476D01*
X128873214Y-75342857D01*
X128825595Y-75247619D01*
X128777976Y-75200000D01*
X128682738Y-75152380D01*
X128492261Y-75152380D01*
X128397023Y-75200000D01*
X128349404Y-75247619D01*
X128301785Y-75342857D01*
X128301785Y-75390476D01*
X128349404Y-75485714D01*
X128397023Y-75533333D01*
X128492261Y-75580952D01*
X128682738Y-75580952D01*
X128777976Y-75628571D01*
X128825595Y-75676190D01*
X128873214Y-75771428D01*
X128873214Y-75961904D01*
X128825595Y-76057142D01*
X128777976Y-76104761D01*
X128682738Y-76152380D01*
X128492261Y-76152380D01*
X128397023Y-76104761D01*
X128349404Y-76057142D01*
X128301785Y-75961904D01*
X128301785Y-75771428D01*
X128349404Y-75676190D01*
X128397023Y-75628571D01*
X128492261Y-75580952D01*
X147827976Y-76152380D02*
X147637500Y-76152380D01*
X147542261Y-76104761D01*
X147494642Y-76057142D01*
X147399404Y-75914285D01*
X147351785Y-75723809D01*
X147351785Y-75342857D01*
X147399404Y-75247619D01*
X147447023Y-75200000D01*
X147542261Y-75152380D01*
X147732738Y-75152380D01*
X147827976Y-75200000D01*
X147875595Y-75247619D01*
X147923214Y-75342857D01*
X147923214Y-75580952D01*
X147875595Y-75676190D01*
X147827976Y-75723809D01*
X147732738Y-75771428D01*
X147542261Y-75771428D01*
X147447023Y-75723809D01*
X147399404Y-75676190D01*
X147351785Y-75580952D01*
X110942261Y-57152380D02*
X110942261Y-56152380D01*
X110370833Y-57152380D01*
X110370833Y-56152380D01*
X109466071Y-56485714D02*
X109466071Y-57152380D01*
X109894642Y-56485714D02*
X109894642Y-57009523D01*
X109847023Y-57104761D01*
X109751785Y-57152380D01*
X109608928Y-57152380D01*
X109513690Y-57104761D01*
X109466071Y-57057142D01*
X108989880Y-57152380D02*
X108989880Y-56485714D01*
X108989880Y-56580952D02*
X108942261Y-56533333D01*
X108847023Y-56485714D01*
X108704166Y-56485714D01*
X108608928Y-56533333D01*
X108561309Y-56628571D01*
X108561309Y-57152380D01*
X108561309Y-56628571D02*
X108513690Y-56533333D01*
X108418452Y-56485714D01*
X108275595Y-56485714D01*
X108180357Y-56533333D01*
X108132738Y-56628571D01*
X108132738Y-57152380D01*
M02*
