G04 #@! TF.GenerationSoftware,KiCad,Pcbnew,(5.1.5)-3*
G04 #@! TF.CreationDate,2022-04-23T19:07:22-06:00*
G04 #@! TF.ProjectId,base,62617365-2e6b-4696-9361-645f70636258,rev?*
G04 #@! TF.SameCoordinates,Original*
G04 #@! TF.FileFunction,Profile,NP*
%FSLAX46Y46*%
G04 Gerber Fmt 4.6, Leading zero omitted, Abs format (unit mm)*
G04 Created by KiCad (PCBNEW (5.1.5)-3) date 2022-04-23 19:07:22*
%MOMM*%
%LPD*%
G04 APERTURE LIST*
%ADD10C,0.050000*%
%ADD11C,0.120000*%
G04 APERTURE END LIST*
D10*
X196200000Y-53000000D02*
X103900000Y-53000000D01*
X208600000Y-53000000D02*
X215856250Y-53000000D01*
X197700000Y-50000000D02*
X207100000Y-50000000D01*
X207600000Y-50500000D02*
G75*
G03X207100000Y-50000000I-500000J0D01*
G01*
X207600000Y-52000000D02*
X207600000Y-50500000D01*
X197200000Y-50500000D02*
G75*
G02X197700000Y-50000000I500000J0D01*
G01*
X197200000Y-52000000D02*
X197200000Y-50500000D01*
X208600000Y-53000000D02*
G75*
G02X207600000Y-52000000I0J1000000D01*
G01*
X197200000Y-52000000D02*
G75*
G02X196200000Y-53000000I-1000000J0D01*
G01*
X103900000Y-152993750D02*
G75*
G02X96900000Y-145993750I0J7000000D01*
G01*
X96900000Y-60000000D02*
G75*
G02X103900000Y-53000000I7000000J0D01*
G01*
X222856250Y-146000000D02*
G75*
G02X215856250Y-153000000I-7000000J0D01*
G01*
X215856250Y-53000000D02*
G75*
G02X222856250Y-60000000I0J-7000000D01*
G01*
X222856250Y-60000000D02*
X222856250Y-146000000D01*
X103900000Y-152993750D02*
X215856250Y-153000000D01*
X96900000Y-60000000D02*
X96900000Y-145993750D01*
D11*
X145937500Y-146756250D02*
X149337500Y-146756250D01*
X145937500Y-143756250D02*
X145937500Y-146756250D01*
X149337500Y-143756250D02*
X145937500Y-143756250D01*
X149337500Y-146756250D02*
X149337500Y-143756250D01*
X107837500Y-70556250D02*
X111237500Y-70556250D01*
X107837500Y-67556250D02*
X107837500Y-70556250D01*
X111237500Y-67556250D02*
X107837500Y-67556250D01*
X111237500Y-70556250D02*
X111237500Y-67556250D01*
X172950000Y-91168750D02*
X169950000Y-91168750D01*
X169950000Y-91168750D02*
X169950000Y-94568750D01*
X169950000Y-94568750D02*
X172950000Y-94568750D01*
X172950000Y-94568750D02*
X172950000Y-91168750D01*
X164987500Y-70556250D02*
X168387500Y-70556250D01*
X164987500Y-67556250D02*
X164987500Y-70556250D01*
X168387500Y-67556250D02*
X164987500Y-67556250D01*
X168387500Y-70556250D02*
X168387500Y-67556250D01*
X117362500Y-146756250D02*
X120762500Y-146756250D01*
X117362500Y-143756250D02*
X117362500Y-146756250D01*
X120762500Y-143756250D02*
X117362500Y-143756250D01*
X120762500Y-146756250D02*
X120762500Y-143756250D01*
X172950000Y-132668750D02*
X172950000Y-129268750D01*
X169950000Y-132668750D02*
X172950000Y-132668750D01*
X169950000Y-129268750D02*
X169950000Y-132668750D01*
X172950000Y-129268750D02*
X169950000Y-129268750D01*
X149337500Y-124706250D02*
X145937500Y-124706250D01*
X149337500Y-127706250D02*
X149337500Y-124706250D01*
X145937500Y-127706250D02*
X149337500Y-127706250D01*
X145937500Y-124706250D02*
X145937500Y-127706250D01*
X130287500Y-124706250D02*
X126887500Y-124706250D01*
X130287500Y-127706250D02*
X130287500Y-124706250D01*
X126887500Y-127706250D02*
X130287500Y-127706250D01*
X126887500Y-124706250D02*
X126887500Y-127706250D01*
X111237500Y-124706250D02*
X107837500Y-124706250D01*
X111237500Y-127706250D02*
X111237500Y-124706250D01*
X107837500Y-127706250D02*
X111237500Y-127706250D01*
X107837500Y-124706250D02*
X107837500Y-127706250D01*
X107837500Y-108656250D02*
X111237500Y-108656250D01*
X107837500Y-105656250D02*
X107837500Y-108656250D01*
X111237500Y-105656250D02*
X107837500Y-105656250D01*
X111237500Y-108656250D02*
X111237500Y-105656250D01*
X126887500Y-108656250D02*
X130287500Y-108656250D01*
X126887500Y-105656250D02*
X126887500Y-108656250D01*
X130287500Y-105656250D02*
X126887500Y-105656250D01*
X130287500Y-108656250D02*
X130287500Y-105656250D01*
X145937500Y-108656250D02*
X149337500Y-108656250D01*
X145937500Y-105656250D02*
X145937500Y-108656250D01*
X149337500Y-105656250D02*
X145937500Y-105656250D01*
X149337500Y-108656250D02*
X149337500Y-105656250D01*
X149337500Y-86606250D02*
X145937500Y-86606250D01*
X149337500Y-89606250D02*
X149337500Y-86606250D01*
X145937500Y-89606250D02*
X149337500Y-89606250D01*
X145937500Y-86606250D02*
X145937500Y-89606250D01*
X130287500Y-86606250D02*
X126887500Y-86606250D01*
X130287500Y-89606250D02*
X130287500Y-86606250D01*
X126887500Y-89606250D02*
X130287500Y-89606250D01*
X126887500Y-86606250D02*
X126887500Y-89606250D01*
X111237500Y-86606250D02*
X107837500Y-86606250D01*
X111237500Y-89606250D02*
X111237500Y-86606250D01*
X107837500Y-89606250D02*
X111237500Y-89606250D01*
X107837500Y-86606250D02*
X107837500Y-89606250D01*
X126887500Y-70556250D02*
X130287500Y-70556250D01*
X126887500Y-67556250D02*
X126887500Y-70556250D01*
X130287500Y-67556250D02*
X126887500Y-67556250D01*
X130287500Y-70556250D02*
X130287500Y-67556250D01*
X145937500Y-70556250D02*
X149337500Y-70556250D01*
X145937500Y-67556250D02*
X145937500Y-70556250D01*
X149337500Y-67556250D02*
X145937500Y-67556250D01*
X149337500Y-70556250D02*
X149337500Y-67556250D01*
M02*
