G04 #@! TF.GenerationSoftware,KiCad,Pcbnew,(5.1.5)-3*
G04 #@! TF.CreationDate,2022-04-23T19:07:22-06:00*
G04 #@! TF.ProjectId,base,62617365-2e6b-4696-9361-645f70636258,rev?*
G04 #@! TF.SameCoordinates,Original*
G04 #@! TF.FileFunction,Paste,Top*
G04 #@! TF.FilePolarity,Positive*
%FSLAX46Y46*%
G04 Gerber Fmt 4.6, Leading zero omitted, Abs format (unit mm)*
G04 Created by KiCad (PCBNEW (5.1.5)-3) date 2022-04-23 19:07:22*
%MOMM*%
%LPD*%
G04 APERTURE LIST*
%ADD10C,0.100000*%
%ADD11R,0.600000X2.450000*%
%ADD12R,0.300000X2.450000*%
G04 APERTURE END LIST*
D10*
G36*
X201399504Y-59826204D02*
G01*
X201423773Y-59829804D01*
X201447571Y-59835765D01*
X201470671Y-59844030D01*
X201492849Y-59854520D01*
X201513893Y-59867133D01*
X201533598Y-59881747D01*
X201551777Y-59898223D01*
X201568253Y-59916402D01*
X201582867Y-59936107D01*
X201595480Y-59957151D01*
X201605970Y-59979329D01*
X201614235Y-60002429D01*
X201620196Y-60026227D01*
X201623796Y-60050496D01*
X201625000Y-60075000D01*
X201625000Y-61325000D01*
X201623796Y-61349504D01*
X201620196Y-61373773D01*
X201614235Y-61397571D01*
X201605970Y-61420671D01*
X201595480Y-61442849D01*
X201582867Y-61463893D01*
X201568253Y-61483598D01*
X201551777Y-61501777D01*
X201533598Y-61518253D01*
X201513893Y-61532867D01*
X201492849Y-61545480D01*
X201470671Y-61555970D01*
X201447571Y-61564235D01*
X201423773Y-61570196D01*
X201399504Y-61573796D01*
X201375000Y-61575000D01*
X200625000Y-61575000D01*
X200600496Y-61573796D01*
X200576227Y-61570196D01*
X200552429Y-61564235D01*
X200529329Y-61555970D01*
X200507151Y-61545480D01*
X200486107Y-61532867D01*
X200466402Y-61518253D01*
X200448223Y-61501777D01*
X200431747Y-61483598D01*
X200417133Y-61463893D01*
X200404520Y-61442849D01*
X200394030Y-61420671D01*
X200385765Y-61397571D01*
X200379804Y-61373773D01*
X200376204Y-61349504D01*
X200375000Y-61325000D01*
X200375000Y-60075000D01*
X200376204Y-60050496D01*
X200379804Y-60026227D01*
X200385765Y-60002429D01*
X200394030Y-59979329D01*
X200404520Y-59957151D01*
X200417133Y-59936107D01*
X200431747Y-59916402D01*
X200448223Y-59898223D01*
X200466402Y-59881747D01*
X200486107Y-59867133D01*
X200507151Y-59854520D01*
X200529329Y-59844030D01*
X200552429Y-59835765D01*
X200576227Y-59829804D01*
X200600496Y-59826204D01*
X200625000Y-59825000D01*
X201375000Y-59825000D01*
X201399504Y-59826204D01*
G37*
G36*
X204199504Y-59826204D02*
G01*
X204223773Y-59829804D01*
X204247571Y-59835765D01*
X204270671Y-59844030D01*
X204292849Y-59854520D01*
X204313893Y-59867133D01*
X204333598Y-59881747D01*
X204351777Y-59898223D01*
X204368253Y-59916402D01*
X204382867Y-59936107D01*
X204395480Y-59957151D01*
X204405970Y-59979329D01*
X204414235Y-60002429D01*
X204420196Y-60026227D01*
X204423796Y-60050496D01*
X204425000Y-60075000D01*
X204425000Y-61325000D01*
X204423796Y-61349504D01*
X204420196Y-61373773D01*
X204414235Y-61397571D01*
X204405970Y-61420671D01*
X204395480Y-61442849D01*
X204382867Y-61463893D01*
X204368253Y-61483598D01*
X204351777Y-61501777D01*
X204333598Y-61518253D01*
X204313893Y-61532867D01*
X204292849Y-61545480D01*
X204270671Y-61555970D01*
X204247571Y-61564235D01*
X204223773Y-61570196D01*
X204199504Y-61573796D01*
X204175000Y-61575000D01*
X203425000Y-61575000D01*
X203400496Y-61573796D01*
X203376227Y-61570196D01*
X203352429Y-61564235D01*
X203329329Y-61555970D01*
X203307151Y-61545480D01*
X203286107Y-61532867D01*
X203266402Y-61518253D01*
X203248223Y-61501777D01*
X203231747Y-61483598D01*
X203217133Y-61463893D01*
X203204520Y-61442849D01*
X203194030Y-61420671D01*
X203185765Y-61397571D01*
X203179804Y-61373773D01*
X203176204Y-61349504D01*
X203175000Y-61325000D01*
X203175000Y-60075000D01*
X203176204Y-60050496D01*
X203179804Y-60026227D01*
X203185765Y-60002429D01*
X203194030Y-59979329D01*
X203204520Y-59957151D01*
X203217133Y-59936107D01*
X203231747Y-59916402D01*
X203248223Y-59898223D01*
X203266402Y-59881747D01*
X203286107Y-59867133D01*
X203307151Y-59854520D01*
X203329329Y-59844030D01*
X203352429Y-59835765D01*
X203376227Y-59829804D01*
X203400496Y-59826204D01*
X203425000Y-59825000D01*
X204175000Y-59825000D01*
X204199504Y-59826204D01*
G37*
D11*
X199175000Y-56695000D03*
X205625000Y-56695000D03*
X199950000Y-56695000D03*
X204850000Y-56695000D03*
D12*
X204150000Y-56695000D03*
X200650000Y-56695000D03*
X203650000Y-56695000D03*
X201150000Y-56695000D03*
X203150000Y-56695000D03*
X201650000Y-56695000D03*
X202150000Y-56695000D03*
X202650000Y-56695000D03*
M02*
