G04 #@! TF.GenerationSoftware,KiCad,Pcbnew,(5.1.5)-3*
G04 #@! TF.CreationDate,2022-04-23T19:07:22-06:00*
G04 #@! TF.ProjectId,base,62617365-2e6b-4696-9361-645f70636258,rev?*
G04 #@! TF.SameCoordinates,Original*
G04 #@! TF.FileFunction,Paste,Bot*
G04 #@! TF.FilePolarity,Positive*
%FSLAX46Y46*%
G04 Gerber Fmt 4.6, Leading zero omitted, Abs format (unit mm)*
G04 Created by KiCad (PCBNEW (5.1.5)-3) date 2022-04-23 19:07:22*
%MOMM*%
%LPD*%
G04 APERTURE LIST*
%ADD10R,2.550000X2.500000*%
%ADD11R,2.500000X2.550000*%
%ADD12C,0.100000*%
%ADD13R,1.700000X0.820000*%
%ADD14R,0.820000X1.700000*%
G04 APERTURE END LIST*
D10*
X172502500Y-59213750D03*
X159602500Y-61753750D03*
X121502500Y-61753750D03*
X134402500Y-59213750D03*
X140552500Y-118903750D03*
X153452500Y-116363750D03*
X102452500Y-80803750D03*
X115352500Y-78263750D03*
D11*
X164147500Y-138053750D03*
X161607500Y-125126750D03*
D12*
G36*
X150852594Y-145597237D02*
G01*
X150872494Y-145600189D01*
X150892008Y-145605077D01*
X150910950Y-145611855D01*
X150929136Y-145620456D01*
X150946392Y-145630799D01*
X150962551Y-145642783D01*
X150977457Y-145656293D01*
X150990967Y-145671199D01*
X151002951Y-145687358D01*
X151013294Y-145704614D01*
X151021895Y-145722800D01*
X151028673Y-145741742D01*
X151033561Y-145761256D01*
X151036513Y-145781156D01*
X151037500Y-145801250D01*
X151037500Y-146211250D01*
X151036513Y-146231344D01*
X151033561Y-146251244D01*
X151028673Y-146270758D01*
X151021895Y-146289700D01*
X151013294Y-146307886D01*
X151002951Y-146325142D01*
X150990967Y-146341301D01*
X150977457Y-146356207D01*
X150962551Y-146369717D01*
X150946392Y-146381701D01*
X150929136Y-146392044D01*
X150910950Y-146400645D01*
X150892008Y-146407423D01*
X150872494Y-146412311D01*
X150852594Y-146415263D01*
X150832500Y-146416250D01*
X149542500Y-146416250D01*
X149522406Y-146415263D01*
X149502506Y-146412311D01*
X149482992Y-146407423D01*
X149464050Y-146400645D01*
X149445864Y-146392044D01*
X149428608Y-146381701D01*
X149412449Y-146369717D01*
X149397543Y-146356207D01*
X149384033Y-146341301D01*
X149372049Y-146325142D01*
X149361706Y-146307886D01*
X149353105Y-146289700D01*
X149346327Y-146270758D01*
X149341439Y-146251244D01*
X149338487Y-146231344D01*
X149337500Y-146211250D01*
X149337500Y-145801250D01*
X149338487Y-145781156D01*
X149341439Y-145761256D01*
X149346327Y-145741742D01*
X149353105Y-145722800D01*
X149361706Y-145704614D01*
X149372049Y-145687358D01*
X149384033Y-145671199D01*
X149397543Y-145656293D01*
X149412449Y-145642783D01*
X149428608Y-145630799D01*
X149445864Y-145620456D01*
X149464050Y-145611855D01*
X149482992Y-145605077D01*
X149502506Y-145600189D01*
X149522406Y-145597237D01*
X149542500Y-145596250D01*
X150832500Y-145596250D01*
X150852594Y-145597237D01*
G37*
D13*
X150187500Y-144506250D03*
X145087500Y-146006250D03*
X145087500Y-144506250D03*
D11*
X164147500Y-99953750D03*
X161607500Y-87026750D03*
D12*
G36*
X112752594Y-69397237D02*
G01*
X112772494Y-69400189D01*
X112792008Y-69405077D01*
X112810950Y-69411855D01*
X112829136Y-69420456D01*
X112846392Y-69430799D01*
X112862551Y-69442783D01*
X112877457Y-69456293D01*
X112890967Y-69471199D01*
X112902951Y-69487358D01*
X112913294Y-69504614D01*
X112921895Y-69522800D01*
X112928673Y-69541742D01*
X112933561Y-69561256D01*
X112936513Y-69581156D01*
X112937500Y-69601250D01*
X112937500Y-70011250D01*
X112936513Y-70031344D01*
X112933561Y-70051244D01*
X112928673Y-70070758D01*
X112921895Y-70089700D01*
X112913294Y-70107886D01*
X112902951Y-70125142D01*
X112890967Y-70141301D01*
X112877457Y-70156207D01*
X112862551Y-70169717D01*
X112846392Y-70181701D01*
X112829136Y-70192044D01*
X112810950Y-70200645D01*
X112792008Y-70207423D01*
X112772494Y-70212311D01*
X112752594Y-70215263D01*
X112732500Y-70216250D01*
X111442500Y-70216250D01*
X111422406Y-70215263D01*
X111402506Y-70212311D01*
X111382992Y-70207423D01*
X111364050Y-70200645D01*
X111345864Y-70192044D01*
X111328608Y-70181701D01*
X111312449Y-70169717D01*
X111297543Y-70156207D01*
X111284033Y-70141301D01*
X111272049Y-70125142D01*
X111261706Y-70107886D01*
X111253105Y-70089700D01*
X111246327Y-70070758D01*
X111241439Y-70051244D01*
X111238487Y-70031344D01*
X111237500Y-70011250D01*
X111237500Y-69601250D01*
X111238487Y-69581156D01*
X111241439Y-69561256D01*
X111246327Y-69541742D01*
X111253105Y-69522800D01*
X111261706Y-69504614D01*
X111272049Y-69487358D01*
X111284033Y-69471199D01*
X111297543Y-69456293D01*
X111312449Y-69442783D01*
X111328608Y-69430799D01*
X111345864Y-69420456D01*
X111364050Y-69411855D01*
X111382992Y-69405077D01*
X111402506Y-69400189D01*
X111422406Y-69397237D01*
X111442500Y-69396250D01*
X112732500Y-69396250D01*
X112752594Y-69397237D01*
G37*
D13*
X112087500Y-68306250D03*
X106987500Y-69806250D03*
X106987500Y-68306250D03*
D14*
X170700000Y-95418750D03*
X172200000Y-95418750D03*
X170700000Y-90318750D03*
D12*
G36*
X172425094Y-89469737D02*
G01*
X172444994Y-89472689D01*
X172464508Y-89477577D01*
X172483450Y-89484355D01*
X172501636Y-89492956D01*
X172518892Y-89503299D01*
X172535051Y-89515283D01*
X172549957Y-89528793D01*
X172563467Y-89543699D01*
X172575451Y-89559858D01*
X172585794Y-89577114D01*
X172594395Y-89595300D01*
X172601173Y-89614242D01*
X172606061Y-89633756D01*
X172609013Y-89653656D01*
X172610000Y-89673750D01*
X172610000Y-90963750D01*
X172609013Y-90983844D01*
X172606061Y-91003744D01*
X172601173Y-91023258D01*
X172594395Y-91042200D01*
X172585794Y-91060386D01*
X172575451Y-91077642D01*
X172563467Y-91093801D01*
X172549957Y-91108707D01*
X172535051Y-91122217D01*
X172518892Y-91134201D01*
X172501636Y-91144544D01*
X172483450Y-91153145D01*
X172464508Y-91159923D01*
X172444994Y-91164811D01*
X172425094Y-91167763D01*
X172405000Y-91168750D01*
X171995000Y-91168750D01*
X171974906Y-91167763D01*
X171955006Y-91164811D01*
X171935492Y-91159923D01*
X171916550Y-91153145D01*
X171898364Y-91144544D01*
X171881108Y-91134201D01*
X171864949Y-91122217D01*
X171850043Y-91108707D01*
X171836533Y-91093801D01*
X171824549Y-91077642D01*
X171814206Y-91060386D01*
X171805605Y-91042200D01*
X171798827Y-91023258D01*
X171793939Y-91003744D01*
X171790987Y-90983844D01*
X171790000Y-90963750D01*
X171790000Y-89673750D01*
X171790987Y-89653656D01*
X171793939Y-89633756D01*
X171798827Y-89614242D01*
X171805605Y-89595300D01*
X171814206Y-89577114D01*
X171824549Y-89559858D01*
X171836533Y-89543699D01*
X171850043Y-89528793D01*
X171864949Y-89515283D01*
X171881108Y-89503299D01*
X171898364Y-89492956D01*
X171916550Y-89484355D01*
X171935492Y-89477577D01*
X171955006Y-89472689D01*
X171974906Y-89469737D01*
X171995000Y-89468750D01*
X172405000Y-89468750D01*
X172425094Y-89469737D01*
G37*
D10*
X111977500Y-137953750D03*
X124904500Y-135413750D03*
X153452500Y-135413750D03*
X140552500Y-137953750D03*
X140552500Y-99853750D03*
X153452500Y-97313750D03*
X153452500Y-59213750D03*
X140552500Y-61753750D03*
D12*
G36*
X169902594Y-69397237D02*
G01*
X169922494Y-69400189D01*
X169942008Y-69405077D01*
X169960950Y-69411855D01*
X169979136Y-69420456D01*
X169996392Y-69430799D01*
X170012551Y-69442783D01*
X170027457Y-69456293D01*
X170040967Y-69471199D01*
X170052951Y-69487358D01*
X170063294Y-69504614D01*
X170071895Y-69522800D01*
X170078673Y-69541742D01*
X170083561Y-69561256D01*
X170086513Y-69581156D01*
X170087500Y-69601250D01*
X170087500Y-70011250D01*
X170086513Y-70031344D01*
X170083561Y-70051244D01*
X170078673Y-70070758D01*
X170071895Y-70089700D01*
X170063294Y-70107886D01*
X170052951Y-70125142D01*
X170040967Y-70141301D01*
X170027457Y-70156207D01*
X170012551Y-70169717D01*
X169996392Y-70181701D01*
X169979136Y-70192044D01*
X169960950Y-70200645D01*
X169942008Y-70207423D01*
X169922494Y-70212311D01*
X169902594Y-70215263D01*
X169882500Y-70216250D01*
X168592500Y-70216250D01*
X168572406Y-70215263D01*
X168552506Y-70212311D01*
X168532992Y-70207423D01*
X168514050Y-70200645D01*
X168495864Y-70192044D01*
X168478608Y-70181701D01*
X168462449Y-70169717D01*
X168447543Y-70156207D01*
X168434033Y-70141301D01*
X168422049Y-70125142D01*
X168411706Y-70107886D01*
X168403105Y-70089700D01*
X168396327Y-70070758D01*
X168391439Y-70051244D01*
X168388487Y-70031344D01*
X168387500Y-70011250D01*
X168387500Y-69601250D01*
X168388487Y-69581156D01*
X168391439Y-69561256D01*
X168396327Y-69541742D01*
X168403105Y-69522800D01*
X168411706Y-69504614D01*
X168422049Y-69487358D01*
X168434033Y-69471199D01*
X168447543Y-69456293D01*
X168462449Y-69442783D01*
X168478608Y-69430799D01*
X168495864Y-69420456D01*
X168514050Y-69411855D01*
X168532992Y-69405077D01*
X168552506Y-69400189D01*
X168572406Y-69397237D01*
X168592500Y-69396250D01*
X169882500Y-69396250D01*
X169902594Y-69397237D01*
G37*
D13*
X169237500Y-68306250D03*
X164137500Y-69806250D03*
X164137500Y-68306250D03*
D12*
G36*
X122277594Y-145597237D02*
G01*
X122297494Y-145600189D01*
X122317008Y-145605077D01*
X122335950Y-145611855D01*
X122354136Y-145620456D01*
X122371392Y-145630799D01*
X122387551Y-145642783D01*
X122402457Y-145656293D01*
X122415967Y-145671199D01*
X122427951Y-145687358D01*
X122438294Y-145704614D01*
X122446895Y-145722800D01*
X122453673Y-145741742D01*
X122458561Y-145761256D01*
X122461513Y-145781156D01*
X122462500Y-145801250D01*
X122462500Y-146211250D01*
X122461513Y-146231344D01*
X122458561Y-146251244D01*
X122453673Y-146270758D01*
X122446895Y-146289700D01*
X122438294Y-146307886D01*
X122427951Y-146325142D01*
X122415967Y-146341301D01*
X122402457Y-146356207D01*
X122387551Y-146369717D01*
X122371392Y-146381701D01*
X122354136Y-146392044D01*
X122335950Y-146400645D01*
X122317008Y-146407423D01*
X122297494Y-146412311D01*
X122277594Y-146415263D01*
X122257500Y-146416250D01*
X120967500Y-146416250D01*
X120947406Y-146415263D01*
X120927506Y-146412311D01*
X120907992Y-146407423D01*
X120889050Y-146400645D01*
X120870864Y-146392044D01*
X120853608Y-146381701D01*
X120837449Y-146369717D01*
X120822543Y-146356207D01*
X120809033Y-146341301D01*
X120797049Y-146325142D01*
X120786706Y-146307886D01*
X120778105Y-146289700D01*
X120771327Y-146270758D01*
X120766439Y-146251244D01*
X120763487Y-146231344D01*
X120762500Y-146211250D01*
X120762500Y-145801250D01*
X120763487Y-145781156D01*
X120766439Y-145761256D01*
X120771327Y-145741742D01*
X120778105Y-145722800D01*
X120786706Y-145704614D01*
X120797049Y-145687358D01*
X120809033Y-145671199D01*
X120822543Y-145656293D01*
X120837449Y-145642783D01*
X120853608Y-145630799D01*
X120870864Y-145620456D01*
X120889050Y-145611855D01*
X120907992Y-145605077D01*
X120927506Y-145600189D01*
X120947406Y-145597237D01*
X120967500Y-145596250D01*
X122257500Y-145596250D01*
X122277594Y-145597237D01*
G37*
D13*
X121612500Y-144506250D03*
X116512500Y-146006250D03*
X116512500Y-144506250D03*
D12*
G36*
X172425094Y-127569737D02*
G01*
X172444994Y-127572689D01*
X172464508Y-127577577D01*
X172483450Y-127584355D01*
X172501636Y-127592956D01*
X172518892Y-127603299D01*
X172535051Y-127615283D01*
X172549957Y-127628793D01*
X172563467Y-127643699D01*
X172575451Y-127659858D01*
X172585794Y-127677114D01*
X172594395Y-127695300D01*
X172601173Y-127714242D01*
X172606061Y-127733756D01*
X172609013Y-127753656D01*
X172610000Y-127773750D01*
X172610000Y-129063750D01*
X172609013Y-129083844D01*
X172606061Y-129103744D01*
X172601173Y-129123258D01*
X172594395Y-129142200D01*
X172585794Y-129160386D01*
X172575451Y-129177642D01*
X172563467Y-129193801D01*
X172549957Y-129208707D01*
X172535051Y-129222217D01*
X172518892Y-129234201D01*
X172501636Y-129244544D01*
X172483450Y-129253145D01*
X172464508Y-129259923D01*
X172444994Y-129264811D01*
X172425094Y-129267763D01*
X172405000Y-129268750D01*
X171995000Y-129268750D01*
X171974906Y-129267763D01*
X171955006Y-129264811D01*
X171935492Y-129259923D01*
X171916550Y-129253145D01*
X171898364Y-129244544D01*
X171881108Y-129234201D01*
X171864949Y-129222217D01*
X171850043Y-129208707D01*
X171836533Y-129193801D01*
X171824549Y-129177642D01*
X171814206Y-129160386D01*
X171805605Y-129142200D01*
X171798827Y-129123258D01*
X171793939Y-129103744D01*
X171790987Y-129083844D01*
X171790000Y-129063750D01*
X171790000Y-127773750D01*
X171790987Y-127753656D01*
X171793939Y-127733756D01*
X171798827Y-127714242D01*
X171805605Y-127695300D01*
X171814206Y-127677114D01*
X171824549Y-127659858D01*
X171836533Y-127643699D01*
X171850043Y-127628793D01*
X171864949Y-127615283D01*
X171881108Y-127603299D01*
X171898364Y-127592956D01*
X171916550Y-127584355D01*
X171935492Y-127577577D01*
X171955006Y-127572689D01*
X171974906Y-127569737D01*
X171995000Y-127568750D01*
X172405000Y-127568750D01*
X172425094Y-127569737D01*
G37*
D14*
X170700000Y-128418750D03*
X172200000Y-133518750D03*
X170700000Y-133518750D03*
D12*
G36*
X145752594Y-125047237D02*
G01*
X145772494Y-125050189D01*
X145792008Y-125055077D01*
X145810950Y-125061855D01*
X145829136Y-125070456D01*
X145846392Y-125080799D01*
X145862551Y-125092783D01*
X145877457Y-125106293D01*
X145890967Y-125121199D01*
X145902951Y-125137358D01*
X145913294Y-125154614D01*
X145921895Y-125172800D01*
X145928673Y-125191742D01*
X145933561Y-125211256D01*
X145936513Y-125231156D01*
X145937500Y-125251250D01*
X145937500Y-125661250D01*
X145936513Y-125681344D01*
X145933561Y-125701244D01*
X145928673Y-125720758D01*
X145921895Y-125739700D01*
X145913294Y-125757886D01*
X145902951Y-125775142D01*
X145890967Y-125791301D01*
X145877457Y-125806207D01*
X145862551Y-125819717D01*
X145846392Y-125831701D01*
X145829136Y-125842044D01*
X145810950Y-125850645D01*
X145792008Y-125857423D01*
X145772494Y-125862311D01*
X145752594Y-125865263D01*
X145732500Y-125866250D01*
X144442500Y-125866250D01*
X144422406Y-125865263D01*
X144402506Y-125862311D01*
X144382992Y-125857423D01*
X144364050Y-125850645D01*
X144345864Y-125842044D01*
X144328608Y-125831701D01*
X144312449Y-125819717D01*
X144297543Y-125806207D01*
X144284033Y-125791301D01*
X144272049Y-125775142D01*
X144261706Y-125757886D01*
X144253105Y-125739700D01*
X144246327Y-125720758D01*
X144241439Y-125701244D01*
X144238487Y-125681344D01*
X144237500Y-125661250D01*
X144237500Y-125251250D01*
X144238487Y-125231156D01*
X144241439Y-125211256D01*
X144246327Y-125191742D01*
X144253105Y-125172800D01*
X144261706Y-125154614D01*
X144272049Y-125137358D01*
X144284033Y-125121199D01*
X144297543Y-125106293D01*
X144312449Y-125092783D01*
X144328608Y-125080799D01*
X144345864Y-125070456D01*
X144364050Y-125061855D01*
X144382992Y-125055077D01*
X144402506Y-125050189D01*
X144422406Y-125047237D01*
X144442500Y-125046250D01*
X145732500Y-125046250D01*
X145752594Y-125047237D01*
G37*
D13*
X145087500Y-126956250D03*
X150187500Y-125456250D03*
X150187500Y-126956250D03*
D12*
G36*
X126702594Y-125047237D02*
G01*
X126722494Y-125050189D01*
X126742008Y-125055077D01*
X126760950Y-125061855D01*
X126779136Y-125070456D01*
X126796392Y-125080799D01*
X126812551Y-125092783D01*
X126827457Y-125106293D01*
X126840967Y-125121199D01*
X126852951Y-125137358D01*
X126863294Y-125154614D01*
X126871895Y-125172800D01*
X126878673Y-125191742D01*
X126883561Y-125211256D01*
X126886513Y-125231156D01*
X126887500Y-125251250D01*
X126887500Y-125661250D01*
X126886513Y-125681344D01*
X126883561Y-125701244D01*
X126878673Y-125720758D01*
X126871895Y-125739700D01*
X126863294Y-125757886D01*
X126852951Y-125775142D01*
X126840967Y-125791301D01*
X126827457Y-125806207D01*
X126812551Y-125819717D01*
X126796392Y-125831701D01*
X126779136Y-125842044D01*
X126760950Y-125850645D01*
X126742008Y-125857423D01*
X126722494Y-125862311D01*
X126702594Y-125865263D01*
X126682500Y-125866250D01*
X125392500Y-125866250D01*
X125372406Y-125865263D01*
X125352506Y-125862311D01*
X125332992Y-125857423D01*
X125314050Y-125850645D01*
X125295864Y-125842044D01*
X125278608Y-125831701D01*
X125262449Y-125819717D01*
X125247543Y-125806207D01*
X125234033Y-125791301D01*
X125222049Y-125775142D01*
X125211706Y-125757886D01*
X125203105Y-125739700D01*
X125196327Y-125720758D01*
X125191439Y-125701244D01*
X125188487Y-125681344D01*
X125187500Y-125661250D01*
X125187500Y-125251250D01*
X125188487Y-125231156D01*
X125191439Y-125211256D01*
X125196327Y-125191742D01*
X125203105Y-125172800D01*
X125211706Y-125154614D01*
X125222049Y-125137358D01*
X125234033Y-125121199D01*
X125247543Y-125106293D01*
X125262449Y-125092783D01*
X125278608Y-125080799D01*
X125295864Y-125070456D01*
X125314050Y-125061855D01*
X125332992Y-125055077D01*
X125352506Y-125050189D01*
X125372406Y-125047237D01*
X125392500Y-125046250D01*
X126682500Y-125046250D01*
X126702594Y-125047237D01*
G37*
D13*
X126037500Y-126956250D03*
X131137500Y-125456250D03*
X131137500Y-126956250D03*
D12*
G36*
X107652594Y-125047237D02*
G01*
X107672494Y-125050189D01*
X107692008Y-125055077D01*
X107710950Y-125061855D01*
X107729136Y-125070456D01*
X107746392Y-125080799D01*
X107762551Y-125092783D01*
X107777457Y-125106293D01*
X107790967Y-125121199D01*
X107802951Y-125137358D01*
X107813294Y-125154614D01*
X107821895Y-125172800D01*
X107828673Y-125191742D01*
X107833561Y-125211256D01*
X107836513Y-125231156D01*
X107837500Y-125251250D01*
X107837500Y-125661250D01*
X107836513Y-125681344D01*
X107833561Y-125701244D01*
X107828673Y-125720758D01*
X107821895Y-125739700D01*
X107813294Y-125757886D01*
X107802951Y-125775142D01*
X107790967Y-125791301D01*
X107777457Y-125806207D01*
X107762551Y-125819717D01*
X107746392Y-125831701D01*
X107729136Y-125842044D01*
X107710950Y-125850645D01*
X107692008Y-125857423D01*
X107672494Y-125862311D01*
X107652594Y-125865263D01*
X107632500Y-125866250D01*
X106342500Y-125866250D01*
X106322406Y-125865263D01*
X106302506Y-125862311D01*
X106282992Y-125857423D01*
X106264050Y-125850645D01*
X106245864Y-125842044D01*
X106228608Y-125831701D01*
X106212449Y-125819717D01*
X106197543Y-125806207D01*
X106184033Y-125791301D01*
X106172049Y-125775142D01*
X106161706Y-125757886D01*
X106153105Y-125739700D01*
X106146327Y-125720758D01*
X106141439Y-125701244D01*
X106138487Y-125681344D01*
X106137500Y-125661250D01*
X106137500Y-125251250D01*
X106138487Y-125231156D01*
X106141439Y-125211256D01*
X106146327Y-125191742D01*
X106153105Y-125172800D01*
X106161706Y-125154614D01*
X106172049Y-125137358D01*
X106184033Y-125121199D01*
X106197543Y-125106293D01*
X106212449Y-125092783D01*
X106228608Y-125080799D01*
X106245864Y-125070456D01*
X106264050Y-125061855D01*
X106282992Y-125055077D01*
X106302506Y-125050189D01*
X106322406Y-125047237D01*
X106342500Y-125046250D01*
X107632500Y-125046250D01*
X107652594Y-125047237D01*
G37*
D13*
X106987500Y-126956250D03*
X112087500Y-125456250D03*
X112087500Y-126956250D03*
D12*
G36*
X112752594Y-107497237D02*
G01*
X112772494Y-107500189D01*
X112792008Y-107505077D01*
X112810950Y-107511855D01*
X112829136Y-107520456D01*
X112846392Y-107530799D01*
X112862551Y-107542783D01*
X112877457Y-107556293D01*
X112890967Y-107571199D01*
X112902951Y-107587358D01*
X112913294Y-107604614D01*
X112921895Y-107622800D01*
X112928673Y-107641742D01*
X112933561Y-107661256D01*
X112936513Y-107681156D01*
X112937500Y-107701250D01*
X112937500Y-108111250D01*
X112936513Y-108131344D01*
X112933561Y-108151244D01*
X112928673Y-108170758D01*
X112921895Y-108189700D01*
X112913294Y-108207886D01*
X112902951Y-108225142D01*
X112890967Y-108241301D01*
X112877457Y-108256207D01*
X112862551Y-108269717D01*
X112846392Y-108281701D01*
X112829136Y-108292044D01*
X112810950Y-108300645D01*
X112792008Y-108307423D01*
X112772494Y-108312311D01*
X112752594Y-108315263D01*
X112732500Y-108316250D01*
X111442500Y-108316250D01*
X111422406Y-108315263D01*
X111402506Y-108312311D01*
X111382992Y-108307423D01*
X111364050Y-108300645D01*
X111345864Y-108292044D01*
X111328608Y-108281701D01*
X111312449Y-108269717D01*
X111297543Y-108256207D01*
X111284033Y-108241301D01*
X111272049Y-108225142D01*
X111261706Y-108207886D01*
X111253105Y-108189700D01*
X111246327Y-108170758D01*
X111241439Y-108151244D01*
X111238487Y-108131344D01*
X111237500Y-108111250D01*
X111237500Y-107701250D01*
X111238487Y-107681156D01*
X111241439Y-107661256D01*
X111246327Y-107641742D01*
X111253105Y-107622800D01*
X111261706Y-107604614D01*
X111272049Y-107587358D01*
X111284033Y-107571199D01*
X111297543Y-107556293D01*
X111312449Y-107542783D01*
X111328608Y-107530799D01*
X111345864Y-107520456D01*
X111364050Y-107511855D01*
X111382992Y-107505077D01*
X111402506Y-107500189D01*
X111422406Y-107497237D01*
X111442500Y-107496250D01*
X112732500Y-107496250D01*
X112752594Y-107497237D01*
G37*
D13*
X112087500Y-106406250D03*
X106987500Y-107906250D03*
X106987500Y-106406250D03*
D12*
G36*
X131802594Y-107497237D02*
G01*
X131822494Y-107500189D01*
X131842008Y-107505077D01*
X131860950Y-107511855D01*
X131879136Y-107520456D01*
X131896392Y-107530799D01*
X131912551Y-107542783D01*
X131927457Y-107556293D01*
X131940967Y-107571199D01*
X131952951Y-107587358D01*
X131963294Y-107604614D01*
X131971895Y-107622800D01*
X131978673Y-107641742D01*
X131983561Y-107661256D01*
X131986513Y-107681156D01*
X131987500Y-107701250D01*
X131987500Y-108111250D01*
X131986513Y-108131344D01*
X131983561Y-108151244D01*
X131978673Y-108170758D01*
X131971895Y-108189700D01*
X131963294Y-108207886D01*
X131952951Y-108225142D01*
X131940967Y-108241301D01*
X131927457Y-108256207D01*
X131912551Y-108269717D01*
X131896392Y-108281701D01*
X131879136Y-108292044D01*
X131860950Y-108300645D01*
X131842008Y-108307423D01*
X131822494Y-108312311D01*
X131802594Y-108315263D01*
X131782500Y-108316250D01*
X130492500Y-108316250D01*
X130472406Y-108315263D01*
X130452506Y-108312311D01*
X130432992Y-108307423D01*
X130414050Y-108300645D01*
X130395864Y-108292044D01*
X130378608Y-108281701D01*
X130362449Y-108269717D01*
X130347543Y-108256207D01*
X130334033Y-108241301D01*
X130322049Y-108225142D01*
X130311706Y-108207886D01*
X130303105Y-108189700D01*
X130296327Y-108170758D01*
X130291439Y-108151244D01*
X130288487Y-108131344D01*
X130287500Y-108111250D01*
X130287500Y-107701250D01*
X130288487Y-107681156D01*
X130291439Y-107661256D01*
X130296327Y-107641742D01*
X130303105Y-107622800D01*
X130311706Y-107604614D01*
X130322049Y-107587358D01*
X130334033Y-107571199D01*
X130347543Y-107556293D01*
X130362449Y-107542783D01*
X130378608Y-107530799D01*
X130395864Y-107520456D01*
X130414050Y-107511855D01*
X130432992Y-107505077D01*
X130452506Y-107500189D01*
X130472406Y-107497237D01*
X130492500Y-107496250D01*
X131782500Y-107496250D01*
X131802594Y-107497237D01*
G37*
D13*
X131137500Y-106406250D03*
X126037500Y-107906250D03*
X126037500Y-106406250D03*
D12*
G36*
X150852594Y-107497237D02*
G01*
X150872494Y-107500189D01*
X150892008Y-107505077D01*
X150910950Y-107511855D01*
X150929136Y-107520456D01*
X150946392Y-107530799D01*
X150962551Y-107542783D01*
X150977457Y-107556293D01*
X150990967Y-107571199D01*
X151002951Y-107587358D01*
X151013294Y-107604614D01*
X151021895Y-107622800D01*
X151028673Y-107641742D01*
X151033561Y-107661256D01*
X151036513Y-107681156D01*
X151037500Y-107701250D01*
X151037500Y-108111250D01*
X151036513Y-108131344D01*
X151033561Y-108151244D01*
X151028673Y-108170758D01*
X151021895Y-108189700D01*
X151013294Y-108207886D01*
X151002951Y-108225142D01*
X150990967Y-108241301D01*
X150977457Y-108256207D01*
X150962551Y-108269717D01*
X150946392Y-108281701D01*
X150929136Y-108292044D01*
X150910950Y-108300645D01*
X150892008Y-108307423D01*
X150872494Y-108312311D01*
X150852594Y-108315263D01*
X150832500Y-108316250D01*
X149542500Y-108316250D01*
X149522406Y-108315263D01*
X149502506Y-108312311D01*
X149482992Y-108307423D01*
X149464050Y-108300645D01*
X149445864Y-108292044D01*
X149428608Y-108281701D01*
X149412449Y-108269717D01*
X149397543Y-108256207D01*
X149384033Y-108241301D01*
X149372049Y-108225142D01*
X149361706Y-108207886D01*
X149353105Y-108189700D01*
X149346327Y-108170758D01*
X149341439Y-108151244D01*
X149338487Y-108131344D01*
X149337500Y-108111250D01*
X149337500Y-107701250D01*
X149338487Y-107681156D01*
X149341439Y-107661256D01*
X149346327Y-107641742D01*
X149353105Y-107622800D01*
X149361706Y-107604614D01*
X149372049Y-107587358D01*
X149384033Y-107571199D01*
X149397543Y-107556293D01*
X149412449Y-107542783D01*
X149428608Y-107530799D01*
X149445864Y-107520456D01*
X149464050Y-107511855D01*
X149482992Y-107505077D01*
X149502506Y-107500189D01*
X149522406Y-107497237D01*
X149542500Y-107496250D01*
X150832500Y-107496250D01*
X150852594Y-107497237D01*
G37*
D13*
X150187500Y-106406250D03*
X145087500Y-107906250D03*
X145087500Y-106406250D03*
D12*
G36*
X145752594Y-86947237D02*
G01*
X145772494Y-86950189D01*
X145792008Y-86955077D01*
X145810950Y-86961855D01*
X145829136Y-86970456D01*
X145846392Y-86980799D01*
X145862551Y-86992783D01*
X145877457Y-87006293D01*
X145890967Y-87021199D01*
X145902951Y-87037358D01*
X145913294Y-87054614D01*
X145921895Y-87072800D01*
X145928673Y-87091742D01*
X145933561Y-87111256D01*
X145936513Y-87131156D01*
X145937500Y-87151250D01*
X145937500Y-87561250D01*
X145936513Y-87581344D01*
X145933561Y-87601244D01*
X145928673Y-87620758D01*
X145921895Y-87639700D01*
X145913294Y-87657886D01*
X145902951Y-87675142D01*
X145890967Y-87691301D01*
X145877457Y-87706207D01*
X145862551Y-87719717D01*
X145846392Y-87731701D01*
X145829136Y-87742044D01*
X145810950Y-87750645D01*
X145792008Y-87757423D01*
X145772494Y-87762311D01*
X145752594Y-87765263D01*
X145732500Y-87766250D01*
X144442500Y-87766250D01*
X144422406Y-87765263D01*
X144402506Y-87762311D01*
X144382992Y-87757423D01*
X144364050Y-87750645D01*
X144345864Y-87742044D01*
X144328608Y-87731701D01*
X144312449Y-87719717D01*
X144297543Y-87706207D01*
X144284033Y-87691301D01*
X144272049Y-87675142D01*
X144261706Y-87657886D01*
X144253105Y-87639700D01*
X144246327Y-87620758D01*
X144241439Y-87601244D01*
X144238487Y-87581344D01*
X144237500Y-87561250D01*
X144237500Y-87151250D01*
X144238487Y-87131156D01*
X144241439Y-87111256D01*
X144246327Y-87091742D01*
X144253105Y-87072800D01*
X144261706Y-87054614D01*
X144272049Y-87037358D01*
X144284033Y-87021199D01*
X144297543Y-87006293D01*
X144312449Y-86992783D01*
X144328608Y-86980799D01*
X144345864Y-86970456D01*
X144364050Y-86961855D01*
X144382992Y-86955077D01*
X144402506Y-86950189D01*
X144422406Y-86947237D01*
X144442500Y-86946250D01*
X145732500Y-86946250D01*
X145752594Y-86947237D01*
G37*
D13*
X145087500Y-88856250D03*
X150187500Y-87356250D03*
X150187500Y-88856250D03*
D12*
G36*
X126702594Y-86947237D02*
G01*
X126722494Y-86950189D01*
X126742008Y-86955077D01*
X126760950Y-86961855D01*
X126779136Y-86970456D01*
X126796392Y-86980799D01*
X126812551Y-86992783D01*
X126827457Y-87006293D01*
X126840967Y-87021199D01*
X126852951Y-87037358D01*
X126863294Y-87054614D01*
X126871895Y-87072800D01*
X126878673Y-87091742D01*
X126883561Y-87111256D01*
X126886513Y-87131156D01*
X126887500Y-87151250D01*
X126887500Y-87561250D01*
X126886513Y-87581344D01*
X126883561Y-87601244D01*
X126878673Y-87620758D01*
X126871895Y-87639700D01*
X126863294Y-87657886D01*
X126852951Y-87675142D01*
X126840967Y-87691301D01*
X126827457Y-87706207D01*
X126812551Y-87719717D01*
X126796392Y-87731701D01*
X126779136Y-87742044D01*
X126760950Y-87750645D01*
X126742008Y-87757423D01*
X126722494Y-87762311D01*
X126702594Y-87765263D01*
X126682500Y-87766250D01*
X125392500Y-87766250D01*
X125372406Y-87765263D01*
X125352506Y-87762311D01*
X125332992Y-87757423D01*
X125314050Y-87750645D01*
X125295864Y-87742044D01*
X125278608Y-87731701D01*
X125262449Y-87719717D01*
X125247543Y-87706207D01*
X125234033Y-87691301D01*
X125222049Y-87675142D01*
X125211706Y-87657886D01*
X125203105Y-87639700D01*
X125196327Y-87620758D01*
X125191439Y-87601244D01*
X125188487Y-87581344D01*
X125187500Y-87561250D01*
X125187500Y-87151250D01*
X125188487Y-87131156D01*
X125191439Y-87111256D01*
X125196327Y-87091742D01*
X125203105Y-87072800D01*
X125211706Y-87054614D01*
X125222049Y-87037358D01*
X125234033Y-87021199D01*
X125247543Y-87006293D01*
X125262449Y-86992783D01*
X125278608Y-86980799D01*
X125295864Y-86970456D01*
X125314050Y-86961855D01*
X125332992Y-86955077D01*
X125352506Y-86950189D01*
X125372406Y-86947237D01*
X125392500Y-86946250D01*
X126682500Y-86946250D01*
X126702594Y-86947237D01*
G37*
D13*
X126037500Y-88856250D03*
X131137500Y-87356250D03*
X131137500Y-88856250D03*
D12*
G36*
X107652594Y-86947237D02*
G01*
X107672494Y-86950189D01*
X107692008Y-86955077D01*
X107710950Y-86961855D01*
X107729136Y-86970456D01*
X107746392Y-86980799D01*
X107762551Y-86992783D01*
X107777457Y-87006293D01*
X107790967Y-87021199D01*
X107802951Y-87037358D01*
X107813294Y-87054614D01*
X107821895Y-87072800D01*
X107828673Y-87091742D01*
X107833561Y-87111256D01*
X107836513Y-87131156D01*
X107837500Y-87151250D01*
X107837500Y-87561250D01*
X107836513Y-87581344D01*
X107833561Y-87601244D01*
X107828673Y-87620758D01*
X107821895Y-87639700D01*
X107813294Y-87657886D01*
X107802951Y-87675142D01*
X107790967Y-87691301D01*
X107777457Y-87706207D01*
X107762551Y-87719717D01*
X107746392Y-87731701D01*
X107729136Y-87742044D01*
X107710950Y-87750645D01*
X107692008Y-87757423D01*
X107672494Y-87762311D01*
X107652594Y-87765263D01*
X107632500Y-87766250D01*
X106342500Y-87766250D01*
X106322406Y-87765263D01*
X106302506Y-87762311D01*
X106282992Y-87757423D01*
X106264050Y-87750645D01*
X106245864Y-87742044D01*
X106228608Y-87731701D01*
X106212449Y-87719717D01*
X106197543Y-87706207D01*
X106184033Y-87691301D01*
X106172049Y-87675142D01*
X106161706Y-87657886D01*
X106153105Y-87639700D01*
X106146327Y-87620758D01*
X106141439Y-87601244D01*
X106138487Y-87581344D01*
X106137500Y-87561250D01*
X106137500Y-87151250D01*
X106138487Y-87131156D01*
X106141439Y-87111256D01*
X106146327Y-87091742D01*
X106153105Y-87072800D01*
X106161706Y-87054614D01*
X106172049Y-87037358D01*
X106184033Y-87021199D01*
X106197543Y-87006293D01*
X106212449Y-86992783D01*
X106228608Y-86980799D01*
X106245864Y-86970456D01*
X106264050Y-86961855D01*
X106282992Y-86955077D01*
X106302506Y-86950189D01*
X106322406Y-86947237D01*
X106342500Y-86946250D01*
X107632500Y-86946250D01*
X107652594Y-86947237D01*
G37*
D13*
X106987500Y-88856250D03*
X112087500Y-87356250D03*
X112087500Y-88856250D03*
D12*
G36*
X131802594Y-69397237D02*
G01*
X131822494Y-69400189D01*
X131842008Y-69405077D01*
X131860950Y-69411855D01*
X131879136Y-69420456D01*
X131896392Y-69430799D01*
X131912551Y-69442783D01*
X131927457Y-69456293D01*
X131940967Y-69471199D01*
X131952951Y-69487358D01*
X131963294Y-69504614D01*
X131971895Y-69522800D01*
X131978673Y-69541742D01*
X131983561Y-69561256D01*
X131986513Y-69581156D01*
X131987500Y-69601250D01*
X131987500Y-70011250D01*
X131986513Y-70031344D01*
X131983561Y-70051244D01*
X131978673Y-70070758D01*
X131971895Y-70089700D01*
X131963294Y-70107886D01*
X131952951Y-70125142D01*
X131940967Y-70141301D01*
X131927457Y-70156207D01*
X131912551Y-70169717D01*
X131896392Y-70181701D01*
X131879136Y-70192044D01*
X131860950Y-70200645D01*
X131842008Y-70207423D01*
X131822494Y-70212311D01*
X131802594Y-70215263D01*
X131782500Y-70216250D01*
X130492500Y-70216250D01*
X130472406Y-70215263D01*
X130452506Y-70212311D01*
X130432992Y-70207423D01*
X130414050Y-70200645D01*
X130395864Y-70192044D01*
X130378608Y-70181701D01*
X130362449Y-70169717D01*
X130347543Y-70156207D01*
X130334033Y-70141301D01*
X130322049Y-70125142D01*
X130311706Y-70107886D01*
X130303105Y-70089700D01*
X130296327Y-70070758D01*
X130291439Y-70051244D01*
X130288487Y-70031344D01*
X130287500Y-70011250D01*
X130287500Y-69601250D01*
X130288487Y-69581156D01*
X130291439Y-69561256D01*
X130296327Y-69541742D01*
X130303105Y-69522800D01*
X130311706Y-69504614D01*
X130322049Y-69487358D01*
X130334033Y-69471199D01*
X130347543Y-69456293D01*
X130362449Y-69442783D01*
X130378608Y-69430799D01*
X130395864Y-69420456D01*
X130414050Y-69411855D01*
X130432992Y-69405077D01*
X130452506Y-69400189D01*
X130472406Y-69397237D01*
X130492500Y-69396250D01*
X131782500Y-69396250D01*
X131802594Y-69397237D01*
G37*
D13*
X131137500Y-68306250D03*
X126037500Y-69806250D03*
X126037500Y-68306250D03*
D12*
G36*
X150852594Y-69397237D02*
G01*
X150872494Y-69400189D01*
X150892008Y-69405077D01*
X150910950Y-69411855D01*
X150929136Y-69420456D01*
X150946392Y-69430799D01*
X150962551Y-69442783D01*
X150977457Y-69456293D01*
X150990967Y-69471199D01*
X151002951Y-69487358D01*
X151013294Y-69504614D01*
X151021895Y-69522800D01*
X151028673Y-69541742D01*
X151033561Y-69561256D01*
X151036513Y-69581156D01*
X151037500Y-69601250D01*
X151037500Y-70011250D01*
X151036513Y-70031344D01*
X151033561Y-70051244D01*
X151028673Y-70070758D01*
X151021895Y-70089700D01*
X151013294Y-70107886D01*
X151002951Y-70125142D01*
X150990967Y-70141301D01*
X150977457Y-70156207D01*
X150962551Y-70169717D01*
X150946392Y-70181701D01*
X150929136Y-70192044D01*
X150910950Y-70200645D01*
X150892008Y-70207423D01*
X150872494Y-70212311D01*
X150852594Y-70215263D01*
X150832500Y-70216250D01*
X149542500Y-70216250D01*
X149522406Y-70215263D01*
X149502506Y-70212311D01*
X149482992Y-70207423D01*
X149464050Y-70200645D01*
X149445864Y-70192044D01*
X149428608Y-70181701D01*
X149412449Y-70169717D01*
X149397543Y-70156207D01*
X149384033Y-70141301D01*
X149372049Y-70125142D01*
X149361706Y-70107886D01*
X149353105Y-70089700D01*
X149346327Y-70070758D01*
X149341439Y-70051244D01*
X149338487Y-70031344D01*
X149337500Y-70011250D01*
X149337500Y-69601250D01*
X149338487Y-69581156D01*
X149341439Y-69561256D01*
X149346327Y-69541742D01*
X149353105Y-69522800D01*
X149361706Y-69504614D01*
X149372049Y-69487358D01*
X149384033Y-69471199D01*
X149397543Y-69456293D01*
X149412449Y-69442783D01*
X149428608Y-69430799D01*
X149445864Y-69420456D01*
X149464050Y-69411855D01*
X149482992Y-69405077D01*
X149502506Y-69400189D01*
X149522406Y-69397237D01*
X149542500Y-69396250D01*
X150832500Y-69396250D01*
X150852594Y-69397237D01*
G37*
D13*
X150187500Y-68306250D03*
X145087500Y-69806250D03*
X145087500Y-68306250D03*
D10*
X102452500Y-118903750D03*
X115352500Y-116363750D03*
X134402500Y-116363750D03*
X121502500Y-118903750D03*
X115352500Y-97313750D03*
X102452500Y-99853750D03*
X134402500Y-97313750D03*
X121502500Y-99853750D03*
X134402500Y-78263750D03*
X121502500Y-80803750D03*
X140552500Y-80803750D03*
X153452500Y-78263750D03*
X102452500Y-61753750D03*
X115352500Y-59213750D03*
M02*
