M48
; DRILL file {KiCad (6.0.5)} date Wed May 11 10:45:20 2022
; FORMAT={-:-/ absolute / inch / decimal}
; #@! TF.CreationDate,2022-05-11T10:45:20-06:00
; #@! TF.GenerationSoftware,Kicad,Pcbnew,(6.0.5)
; #@! TF.FileFunction,Plated,1,2,PTH
FMAT,2
INCH
; #@! TA.AperFunction,Plated,PTH,ViaDrill
T1C0.0157
; #@! TA.AperFunction,Plated,PTH,ComponentDrill
T2C0.0157
; #@! TA.AperFunction,Plated,PTH,ComponentDrill
T3C0.0236
; #@! TA.AperFunction,Plated,PTH,ComponentDrill
T4C0.0248
; #@! TA.AperFunction,Plated,PTH,ComponentDrill
T5C0.0276
; #@! TA.AperFunction,Plated,PTH,ComponentDrill
T6C0.0315
; #@! TA.AperFunction,Plated,PTH,ComponentDrill
T7C0.0394
; #@! TA.AperFunction,Plated,PTH,ComponentDrill
T8C0.0433
; #@! TA.AperFunction,Plated,PTH,ComponentDrill
T9C0.1181
%
G90
G05
T1
X3.8533Y-4.1693
X3.8533Y-3.5177
X3.8533Y-5.0177
X3.9744Y-5.6102
X3.9931Y-2.7205
X3.9931Y-3.4675
X3.9931Y-4.2201
X3.9931Y-4.9701
X4.0305Y-3.5768
X4.0312Y-2.6094
X4.0312Y-2.8254
X4.0312Y-3.3594
X4.0312Y-4.1094
X4.0312Y-4.3281
X4.4086Y-5.4312
X4.7812Y-4.1094
X4.7812Y-4.3281
X4.7825Y-5.0787
X4.7835Y-3.3583
X4.7835Y-3.5768
X4.7835Y-4.8602
X4.7836Y-2.6094
X4.7836Y-2.8281
X4.9531Y-5.2969
X5.5312Y-2.6094
X5.5312Y-2.8281
X5.5312Y-3.3594
X5.5312Y-3.5768
X5.5312Y-4.1094
X5.5312Y-4.3281
X5.5312Y-4.8594
X5.5312Y-5.0781
X5.9724Y-3.439
X6.1875Y-2.6094
X6.1875Y-2.8281
X6.1875Y-4.8594
X6.1875Y-5.0781
X6.1877Y-4.1104
X6.1877Y-4.3291
X6.3281Y-4.8906
X6.3307Y-5.8346
X6.3543Y-5.7008
X6.3622Y-3.4252
X6.3906Y-4.8906
X6.4961Y-5.4478
X6.6929Y-3.3583
X6.7195Y-5.3287
X7.3125Y-5.3281
X7.3594Y-3.4531
X7.5315Y-3.0512
X7.5591Y-2.3071
X7.5748Y-3.0512
X7.6181Y-3.0512
X7.75Y-5.4062
X7.9016Y-2.315
X7.9331Y-3.1693
X7.9688Y-3.2812
X7.9688Y-4.0156
X7.9688Y-4.1094
X7.9688Y-4.2812
X8.0625Y-4.7656
X8.0781Y-3.5039
X8.0781Y-4.1562
X8.0938Y-4.8906
X8.1024Y-2.3622
X8.1406Y-3.0315
X8.2403Y-2.2823
X8.3533Y-3.2677
T2
X3.9625Y-2.4013
X3.9625Y-2.4613
X3.9625Y-3.1513
X3.9625Y-3.2112
X3.9625Y-3.9013
X3.9625Y-3.9612
X3.9625Y-4.6513
X3.9625Y-4.7112
X4.6125Y-2.3013
X4.6125Y-2.3613
X4.6125Y-3.0513
X4.6125Y-3.1113
X4.6125Y-3.8013
X4.6125Y-3.8613
X4.6125Y-4.5512
X4.6125Y-4.6113
X4.7125Y-2.4013
X4.7125Y-2.4613
X4.7125Y-3.1513
X4.7125Y-3.2112
X4.7125Y-3.9013
X4.7125Y-3.9612
X4.7125Y-4.6513
X4.7125Y-4.7112
X5.3625Y-2.3013
X5.3625Y-2.3613
X5.3625Y-3.0513
X5.3625Y-3.1113
X5.3625Y-3.8013
X5.3625Y-3.8613
X5.3625Y-4.5512
X5.3625Y-4.6113
X5.4625Y-2.4013
X5.4625Y-2.4613
X5.4625Y-3.1513
X5.4625Y-3.2112
X5.4625Y-3.9013
X5.4625Y-3.9612
X5.4625Y-4.6513
X5.4625Y-4.7112
X5.4625Y-5.4013
X5.4625Y-5.4612
X6.1125Y-2.3013
X6.1125Y-2.3613
X6.1125Y-3.0513
X6.1125Y-3.1113
X6.1125Y-3.8013
X6.1125Y-3.8613
X6.1125Y-4.5512
X6.1125Y-4.6113
X6.1125Y-5.3012
X6.1125Y-5.3613
X6.2125Y-2.4013
X6.2125Y-2.4613
X6.8625Y-2.3013
X6.8625Y-2.3613
T4
X8.435Y-3.772
X8.435Y-3.9642
T5
X6.9843Y-2.7146
X7.1964Y-2.9267
X7.64Y-2.171
X7.64Y-2.471
X8.2963Y-2.171
X8.2963Y-2.471
X8.4375Y-2.5668
X8.4375Y-2.8668
X8.5394Y-2.5669
X8.5394Y-2.8669
X8.6417Y-2.5669
X8.6417Y-2.8669
T6
X3.937Y-2.6713
X3.937Y-2.7697
X3.938Y-3.4193
X3.938Y-3.5177
X3.938Y-4.1693
X3.938Y-4.2677
X3.938Y-4.9193
X3.938Y-5.0177
X4.0581Y-5.6693
X4.0581Y-5.7677
X4.687Y-2.6713
X4.687Y-2.7697
X4.687Y-3.4193
X4.687Y-3.5177
X4.687Y-4.1693
X4.687Y-4.2677
X4.688Y-4.9193
X4.688Y-5.0177
X5.437Y-2.6713
X5.437Y-2.7697
X5.437Y-3.4193
X5.437Y-3.5177
X5.438Y-4.1693
X5.438Y-4.2677
X5.438Y-4.9193
X5.438Y-5.0177
X5.438Y-5.6693
X5.438Y-5.7677
X6.251Y-2.6713
X6.251Y-2.7697
X6.689Y-4.0
X6.7874Y-4.0
X6.939Y-5.1053
X6.939Y-5.2037
X7.2566Y-2.241
X7.2566Y-2.4285
X7.2566Y-2.616
X7.2566Y-2.8035
X7.2566Y-2.991
X7.2566Y-3.1785
X7.2566Y-3.366
X7.2566Y-3.5535
X7.2566Y-3.741
X7.2566Y-3.9285
X7.2566Y-4.116
X7.2566Y-4.3035
X7.2566Y-4.491
X7.2566Y-4.6785
X7.2566Y-4.866
X7.2566Y-5.0535
X7.2566Y-5.241
X7.2566Y-5.4285
X7.2566Y-5.616
X7.4688Y-2.4531
X7.4688Y-2.6406
X7.4688Y-2.8281
X7.4688Y-3.0156
X7.4688Y-3.2031
X7.4688Y-3.3906
X7.4688Y-3.5781
X7.4688Y-3.7656
X7.4688Y-3.9531
X7.4688Y-4.1406
X7.4688Y-4.3281
X7.4688Y-4.5156
X7.4688Y-4.7031
X7.4688Y-4.8906
X7.4688Y-5.0781
X7.4688Y-5.2656
X7.4688Y-5.4531
X7.4688Y-5.6406
X7.4688Y-5.8281
X7.6656Y-3.1156
X7.6656Y-3.2156
X7.6656Y-3.3156
X7.6656Y-3.4156
X7.6656Y-3.5156
X7.6656Y-3.6156
X7.6656Y-3.7156
X7.6656Y-3.8156
X7.6656Y-3.9156
X7.6656Y-4.0156
X7.6656Y-4.1156
X7.6656Y-4.2156
X7.6656Y-4.3156
X7.6656Y-4.4156
X7.6656Y-4.5156
X7.6656Y-4.6156
X7.6656Y-4.7156
X7.6656Y-4.8156
X7.6656Y-4.9156
X7.6656Y-5.0156
X8.2656Y-3.1156
X8.2656Y-3.2156
X8.2656Y-3.3156
X8.2656Y-3.4156
X8.2656Y-3.5156
X8.2656Y-3.6156
X8.2656Y-3.7156
X8.2656Y-3.8156
X8.2656Y-3.9156
X8.2656Y-4.0156
X8.2656Y-4.1156
X8.2656Y-4.2156
X8.2656Y-4.3156
X8.2656Y-4.4156
X8.2656Y-4.5156
X8.2656Y-4.6156
X8.2656Y-4.7156
X8.2656Y-4.8156
X8.2656Y-4.9156
X8.2656Y-5.0156
X8.437Y-2.1724
X8.437Y-2.4724
X8.458Y-4.8806
X8.458Y-5.0617
X8.5276Y-4.811
X8.5276Y-4.9921
X8.5394Y-2.1724
X8.5394Y-2.4724
X8.6094Y-3.6828
X8.6094Y-3.7812
X8.6094Y-3.9531
X8.6094Y-4.0516
T7
X8.437Y-3.126
X8.437Y-3.226
X8.437Y-3.326
X8.437Y-3.426
X8.437Y-3.526
X8.4375Y-4.2656
X8.4375Y-4.3656
X8.4375Y-4.4656
X8.537Y-3.126
X8.537Y-3.226
X8.537Y-3.326
X8.537Y-3.426
X8.537Y-3.526
X8.5375Y-4.2656
X8.5375Y-4.3656
X8.5375Y-4.4656
T8
X7.6932Y-2.6203
X7.6932Y-2.8172
X7.6932Y-5.3391
X7.6932Y-5.5359
X8.264Y-2.6203
X8.264Y-2.7188
X8.264Y-2.8172
X8.264Y-5.3391
X8.264Y-5.4375
X8.264Y-5.5359
T9
X4.1625Y-2.4312
X4.1625Y-3.1812
X4.1625Y-3.9312
X4.1625Y-4.6812
X4.4125Y-2.3312
X4.4125Y-3.0812
X4.4125Y-3.8312
X4.4125Y-4.5812
X4.9125Y-2.4312
X4.9125Y-3.1812
X4.9125Y-3.9312
X4.9125Y-4.6812
X5.1625Y-2.3312
X5.1625Y-3.0812
X5.1625Y-3.8312
X5.1625Y-4.5812
X5.6625Y-2.4312
X5.6625Y-3.1812
X5.6625Y-3.9312
X5.6625Y-4.6812
X5.6625Y-5.4312
X5.9125Y-2.3312
X5.9125Y-3.0812
X5.9125Y-3.8312
X5.9125Y-4.5812
X5.9125Y-5.3312
X6.4125Y-2.4312
X6.6625Y-2.3312
T3
G00X7.7984Y-2.0236
M15
G01X7.7984Y-2.0
M16
G05
G00X7.7984Y-2.198
M15
G01X7.7984Y-2.1547
M16
G05
G00X8.1386Y-2.0236
M15
G01X8.1386Y-2.0
M16
G05
G00X8.1386Y-2.198
M15
G01X8.1386Y-2.1547
M16
G05
T0
M30
