G04 #@! TF.GenerationSoftware,KiCad,Pcbnew,(5.1.5)-3*
G04 #@! TF.CreationDate,2022-04-23T19:07:22-06:00*
G04 #@! TF.ProjectId,base,62617365-2e6b-4696-9361-645f70636258,rev?*
G04 #@! TF.SameCoordinates,Original*
G04 #@! TF.FileFunction,Legend,Top*
G04 #@! TF.FilePolarity,Positive*
%FSLAX46Y46*%
G04 Gerber Fmt 4.6, Leading zero omitted, Abs format (unit mm)*
G04 Created by KiCad (PCBNEW (5.1.5)-3) date 2022-04-23 19:07:22*
%MOMM*%
%LPD*%
G04 APERTURE LIST*
%ADD10C,0.010000*%
%ADD11C,0.120000*%
%ADD12C,0.150000*%
%ADD13C,0.127000*%
%ADD14C,0.108000*%
G04 APERTURE END LIST*
D10*
G36*
X220929342Y-123028091D02*
G01*
X220974321Y-123078636D01*
X221014822Y-123130358D01*
X221068882Y-123194082D01*
X221152175Y-123281850D01*
X221254080Y-123382894D01*
X221363980Y-123486443D01*
X221383542Y-123504291D01*
X221578487Y-123686328D01*
X221733022Y-123843078D01*
X221850378Y-123979180D01*
X221933787Y-124099275D01*
X221986481Y-124208001D01*
X222011690Y-124309997D01*
X222012858Y-124407761D01*
X221976159Y-124548805D01*
X221898645Y-124660555D01*
X221784932Y-124736537D01*
X221775832Y-124740310D01*
X221639149Y-124775475D01*
X221513398Y-124772372D01*
X221406130Y-124735710D01*
X221324896Y-124670200D01*
X221277244Y-124580554D01*
X221270726Y-124471483D01*
X221279304Y-124430512D01*
X221320084Y-124335198D01*
X221378139Y-124287959D01*
X221441617Y-124283125D01*
X221495298Y-124309843D01*
X221510935Y-124360147D01*
X221487765Y-124420072D01*
X221451128Y-124457890D01*
X221395709Y-124524025D01*
X221382956Y-124592798D01*
X221412580Y-124651113D01*
X221456027Y-124677827D01*
X221570406Y-124696762D01*
X221677079Y-124671447D01*
X221768138Y-124610547D01*
X221835673Y-124522728D01*
X221871773Y-124416656D01*
X221868530Y-124300997D01*
X221850915Y-124245189D01*
X221783648Y-124142359D01*
X221681515Y-124076606D01*
X221555962Y-124047005D01*
X221381084Y-124050344D01*
X221221778Y-124097104D01*
X221085074Y-124181425D01*
X220978005Y-124297450D01*
X220907602Y-124439318D01*
X220880896Y-124601171D01*
X220880834Y-124609578D01*
X220888039Y-124719306D01*
X220912415Y-124821840D01*
X220958103Y-124922936D01*
X221029243Y-125028348D01*
X221129975Y-125143830D01*
X221264440Y-125275137D01*
X221436779Y-125428024D01*
X221521666Y-125500237D01*
X221688593Y-125646035D01*
X221815410Y-125769571D01*
X221906766Y-125876815D01*
X221967307Y-125973736D01*
X222001682Y-126066302D01*
X222012566Y-126130658D01*
X222005495Y-126266052D01*
X221953361Y-126381524D01*
X221852446Y-126484976D01*
X221842035Y-126493060D01*
X221772156Y-126538334D01*
X221701440Y-126560632D01*
X221605599Y-126567129D01*
X221591162Y-126567188D01*
X221498422Y-126563793D01*
X221437204Y-126548667D01*
X221386289Y-126514397D01*
X221354946Y-126484658D01*
X221295420Y-126409295D01*
X221273375Y-126331129D01*
X221272417Y-126305458D01*
X221288052Y-126200178D01*
X221330556Y-126123561D01*
X221393332Y-126084846D01*
X221431501Y-126082726D01*
X221491939Y-126107870D01*
X221512135Y-126156500D01*
X221490687Y-126216165D01*
X221451128Y-126257057D01*
X221395691Y-126323765D01*
X221390133Y-126391881D01*
X221434557Y-126452988D01*
X221448612Y-126463083D01*
X221538236Y-126493474D01*
X221634946Y-126481264D01*
X221728421Y-126433824D01*
X221808340Y-126358525D01*
X221864384Y-126262737D01*
X221886231Y-126153833D01*
X221886250Y-126150519D01*
X221864626Y-126055758D01*
X221809091Y-125961556D01*
X221733645Y-125890930D01*
X221725255Y-125885886D01*
X221627846Y-125852450D01*
X221502292Y-125838926D01*
X221369406Y-125845148D01*
X221250002Y-125870946D01*
X221203894Y-125890077D01*
X221059567Y-125991389D01*
X220955780Y-126121548D01*
X220895071Y-126272575D01*
X220879978Y-126436492D01*
X220913038Y-126605322D01*
X220949205Y-126690643D01*
X221042002Y-126836664D01*
X221171755Y-126988510D01*
X221326189Y-127132607D01*
X221405178Y-127194813D01*
X221542415Y-127303694D01*
X221675134Y-127421887D01*
X221793980Y-127539998D01*
X221889598Y-127648630D01*
X221952632Y-127738388D01*
X221959784Y-127751791D01*
X222008325Y-127897980D01*
X222009076Y-128035562D01*
X221966521Y-128157148D01*
X221885141Y-128255350D01*
X221769420Y-128322779D01*
X221623839Y-128352047D01*
X221595209Y-128352694D01*
X221464865Y-128337577D01*
X221370781Y-128289971D01*
X221304177Y-128205167D01*
X221298106Y-128193271D01*
X221268727Y-128112954D01*
X221270862Y-128037405D01*
X221279420Y-128001969D01*
X221318372Y-127919461D01*
X221374485Y-127867229D01*
X221436215Y-127850020D01*
X221492020Y-127872580D01*
X221516456Y-127904496D01*
X221529027Y-127945380D01*
X221511740Y-127985021D01*
X221464470Y-128034174D01*
X221401951Y-128113703D01*
X221388342Y-128183073D01*
X221419767Y-128235819D01*
X221492350Y-128265477D01*
X221602214Y-128265582D01*
X221603167Y-128265455D01*
X221720798Y-128225927D01*
X221809648Y-128149307D01*
X221863832Y-128046212D01*
X221877468Y-127927255D01*
X221851240Y-127817842D01*
X221788584Y-127723994D01*
X221691121Y-127663886D01*
X221555037Y-127635630D01*
X221477679Y-127632810D01*
X221342935Y-127640518D01*
X221239431Y-127667124D01*
X221146797Y-127719842D01*
X221080652Y-127773379D01*
X220965983Y-127902981D01*
X220900310Y-128049746D01*
X220880834Y-128207604D01*
X220891864Y-128330329D01*
X220927711Y-128447819D01*
X220992508Y-128566069D01*
X221090386Y-128691075D01*
X221225478Y-128828834D01*
X221401916Y-128985341D01*
X221437412Y-129015155D01*
X221632595Y-129183659D01*
X221785084Y-129329362D01*
X221897532Y-129456735D01*
X221972592Y-129570249D01*
X222012918Y-129674373D01*
X222021163Y-129773580D01*
X221999980Y-129872340D01*
X221977848Y-129925781D01*
X221905350Y-130028942D01*
X221806674Y-130102545D01*
X221692561Y-130145715D01*
X221573751Y-130157579D01*
X221460985Y-130137262D01*
X221365005Y-130083891D01*
X221296551Y-129996591D01*
X221289841Y-129981768D01*
X221268610Y-129885577D01*
X221279837Y-129793810D01*
X221317307Y-129717842D01*
X221374806Y-129669049D01*
X221446118Y-129658806D01*
X221463916Y-129663130D01*
X221507094Y-129697998D01*
X221510101Y-129754343D01*
X221473862Y-129820302D01*
X221449688Y-129845704D01*
X221395997Y-129917356D01*
X221387728Y-129984422D01*
X221424975Y-130037400D01*
X221447663Y-130050350D01*
X221543950Y-130067582D01*
X221649542Y-130045416D01*
X221749789Y-129991637D01*
X221830044Y-129914032D01*
X221874975Y-129823195D01*
X221879329Y-129749537D01*
X221866434Y-129662459D01*
X221862598Y-129648515D01*
X221804234Y-129539112D01*
X221705637Y-129463119D01*
X221568558Y-129421736D01*
X221524188Y-129416569D01*
X221350002Y-129426336D01*
X221193614Y-129481491D01*
X221061789Y-129575833D01*
X220961291Y-129703157D01*
X220898883Y-129857261D01*
X220880833Y-130006597D01*
X220888119Y-130110375D01*
X220912659Y-130208598D01*
X220958475Y-130306634D01*
X221029590Y-130409847D01*
X221130027Y-130523606D01*
X221263810Y-130653276D01*
X221434961Y-130804224D01*
X221553853Y-130904402D01*
X221718325Y-131047058D01*
X221841739Y-131168784D01*
X221928416Y-131275867D01*
X221982680Y-131374591D01*
X222008856Y-131471242D01*
X222011447Y-131569657D01*
X221979110Y-131714289D01*
X221907146Y-131824769D01*
X221798233Y-131898740D01*
X221655043Y-131933844D01*
X221595209Y-131936513D01*
X221453373Y-131919346D01*
X221351216Y-131867841D01*
X221287652Y-131781401D01*
X221280707Y-131763479D01*
X221270002Y-131668531D01*
X221292559Y-131568314D01*
X221341630Y-131485163D01*
X221373127Y-131457536D01*
X221418948Y-131435890D01*
X221459826Y-131448008D01*
X221490951Y-131471164D01*
X221553044Y-131521444D01*
X221468293Y-131606195D01*
X221402504Y-131691158D01*
X221385487Y-131761707D01*
X221415735Y-131813362D01*
X221491740Y-131841643D01*
X221548897Y-131845625D01*
X221681717Y-131824068D01*
X221783782Y-131760157D01*
X221845891Y-131671325D01*
X221879190Y-131545867D01*
X221860881Y-131425156D01*
X221792216Y-131316399D01*
X221782491Y-131306321D01*
X221684910Y-131243483D01*
X221559214Y-131212423D01*
X221418962Y-131212304D01*
X221277712Y-131242291D01*
X221149022Y-131301550D01*
X221085162Y-131349289D01*
X220968316Y-131481199D01*
X220901187Y-131624914D01*
X220880834Y-131778091D01*
X220889554Y-131888485D01*
X220918244Y-131994987D01*
X220970698Y-132102690D01*
X221050709Y-132216687D01*
X221162071Y-132342069D01*
X221308577Y-132483930D01*
X221494021Y-132647362D01*
X221586533Y-132725417D01*
X221692609Y-132818621D01*
X221792108Y-132914192D01*
X221872525Y-132999665D01*
X221914955Y-133052745D01*
X221989049Y-133197120D01*
X222015301Y-133338373D01*
X221995989Y-133469383D01*
X221933389Y-133583029D01*
X221829778Y-133672188D01*
X221699479Y-133726659D01*
X221569819Y-133745588D01*
X221462129Y-133722615D01*
X221362380Y-133654626D01*
X221358276Y-133650851D01*
X221303693Y-133589310D01*
X221278082Y-133523184D01*
X221273857Y-133430806D01*
X221274662Y-133412079D01*
X221297094Y-133343935D01*
X221347081Y-133282802D01*
X221408683Y-133243708D01*
X221458170Y-133239009D01*
X221514841Y-133270669D01*
X221523335Y-133321490D01*
X221483572Y-133388571D01*
X221462881Y-133410773D01*
X221399611Y-133494083D01*
X221385700Y-133563605D01*
X221419310Y-133614415D01*
X221498607Y-133641587D01*
X221550116Y-133644792D01*
X221676499Y-133623434D01*
X221774631Y-133565999D01*
X221842283Y-133482445D01*
X221877223Y-133382732D01*
X221877220Y-133276819D01*
X221840044Y-133174663D01*
X221763464Y-133086223D01*
X221686000Y-133038177D01*
X221572941Y-132996479D01*
X221467008Y-132987002D01*
X221348931Y-133009654D01*
X221270724Y-133036186D01*
X221111398Y-133120585D01*
X220991769Y-133235897D01*
X220914216Y-133375515D01*
X220881120Y-133532836D01*
X220894859Y-133701253D01*
X220957815Y-133874160D01*
X220964336Y-133886655D01*
X221049267Y-134014101D01*
X221173205Y-134155795D01*
X221327546Y-134302890D01*
X221503687Y-134446541D01*
X221522809Y-134460851D01*
X221637734Y-134554648D01*
X221751460Y-134662232D01*
X221853517Y-134772323D01*
X221933432Y-134873645D01*
X221980087Y-134953350D01*
X222014355Y-135089906D01*
X222007534Y-135224673D01*
X221966789Y-135330073D01*
X221896498Y-135417982D01*
X221802331Y-135480686D01*
X221685174Y-135524045D01*
X221567831Y-135535954D01*
X221457218Y-135508192D01*
X221363367Y-135448547D01*
X221296310Y-135364810D01*
X221266079Y-135264770D01*
X221269566Y-135201324D01*
X221301439Y-135117651D01*
X221353674Y-135057655D01*
X221414850Y-135027200D01*
X221473545Y-135032149D01*
X221516405Y-135074610D01*
X221528989Y-135115458D01*
X221511033Y-135154044D01*
X221464420Y-135199565D01*
X221402392Y-135273750D01*
X221385226Y-135343045D01*
X221413531Y-135399357D01*
X221447663Y-135421392D01*
X221546143Y-135439557D01*
X221652679Y-135417454D01*
X221752895Y-135362745D01*
X221832418Y-135283088D01*
X221875136Y-135193598D01*
X221878342Y-135093422D01*
X221848514Y-134987022D01*
X221793778Y-134897468D01*
X221759909Y-134866430D01*
X221632220Y-134806561D01*
X221488444Y-134789121D01*
X221339082Y-134810786D01*
X221194634Y-134868231D01*
X221065601Y-134958133D01*
X220962484Y-135077167D01*
X220932838Y-135128247D01*
X220881755Y-135283571D01*
X220882409Y-135446665D01*
X220934335Y-135616637D01*
X221037067Y-135792592D01*
X221190138Y-135973638D01*
X221393085Y-136158882D01*
X221522809Y-136260018D01*
X221637734Y-136353815D01*
X221751460Y-136461398D01*
X221853517Y-136571490D01*
X221933432Y-136672812D01*
X221980087Y-136752516D01*
X222014355Y-136889073D01*
X222007534Y-137023840D01*
X221966789Y-137129240D01*
X221896498Y-137217148D01*
X221802331Y-137279852D01*
X221685174Y-137323211D01*
X221567831Y-137335121D01*
X221457218Y-137307359D01*
X221363367Y-137247714D01*
X221296310Y-137163976D01*
X221266079Y-137063937D01*
X221269566Y-137000490D01*
X221301439Y-136916817D01*
X221353674Y-136856822D01*
X221414850Y-136826367D01*
X221473545Y-136831315D01*
X221516405Y-136873777D01*
X221528989Y-136914625D01*
X221511033Y-136953211D01*
X221464420Y-136998731D01*
X221402392Y-137072916D01*
X221385226Y-137142212D01*
X221413531Y-137198523D01*
X221447663Y-137220558D01*
X221546143Y-137238724D01*
X221652679Y-137216621D01*
X221752895Y-137161911D01*
X221832418Y-137082254D01*
X221875136Y-136992764D01*
X221878342Y-136892589D01*
X221848514Y-136786189D01*
X221793778Y-136696635D01*
X221759909Y-136665597D01*
X221632220Y-136605728D01*
X221488444Y-136588288D01*
X221339082Y-136609952D01*
X221194634Y-136667398D01*
X221065601Y-136757299D01*
X220962484Y-136876334D01*
X220932838Y-136927414D01*
X220881755Y-137082738D01*
X220882409Y-137245832D01*
X220934335Y-137415803D01*
X221037067Y-137591759D01*
X221190138Y-137772805D01*
X221393085Y-137958049D01*
X221522809Y-138059184D01*
X221637734Y-138152982D01*
X221751460Y-138260565D01*
X221853517Y-138370656D01*
X221933432Y-138471978D01*
X221980087Y-138551683D01*
X222014355Y-138688239D01*
X222007534Y-138823007D01*
X221966789Y-138928406D01*
X221896498Y-139016315D01*
X221802331Y-139079019D01*
X221685174Y-139122378D01*
X221567831Y-139134288D01*
X221457218Y-139106525D01*
X221363367Y-139046880D01*
X221296310Y-138963143D01*
X221266079Y-138863103D01*
X221269566Y-138799657D01*
X221301439Y-138715984D01*
X221353674Y-138655988D01*
X221414850Y-138625533D01*
X221473545Y-138630482D01*
X221516405Y-138672944D01*
X221528989Y-138713792D01*
X221511033Y-138752377D01*
X221464420Y-138797898D01*
X221402392Y-138872083D01*
X221385226Y-138941378D01*
X221413531Y-138997690D01*
X221447663Y-139019725D01*
X221546143Y-139037890D01*
X221652679Y-139015788D01*
X221752895Y-138961078D01*
X221832418Y-138881421D01*
X221875136Y-138791931D01*
X221878342Y-138691756D01*
X221848514Y-138585355D01*
X221793778Y-138495802D01*
X221759909Y-138464764D01*
X221632220Y-138404895D01*
X221488444Y-138387455D01*
X221339082Y-138409119D01*
X221194634Y-138466564D01*
X221065601Y-138556466D01*
X220962484Y-138675500D01*
X220932838Y-138726581D01*
X220881755Y-138881904D01*
X220882409Y-139044999D01*
X220934335Y-139214970D01*
X221037067Y-139390926D01*
X221190138Y-139571972D01*
X221393085Y-139757216D01*
X221522809Y-139858351D01*
X221637734Y-139952148D01*
X221751460Y-140059732D01*
X221853517Y-140169823D01*
X221933432Y-140271145D01*
X221980087Y-140350850D01*
X222014355Y-140487406D01*
X222007534Y-140622173D01*
X221966789Y-140727573D01*
X221896498Y-140815482D01*
X221802331Y-140878186D01*
X221685174Y-140921545D01*
X221567831Y-140933454D01*
X221457218Y-140905692D01*
X221363367Y-140846047D01*
X221296310Y-140762310D01*
X221266079Y-140662270D01*
X221269566Y-140598824D01*
X221301439Y-140515151D01*
X221353674Y-140455155D01*
X221414850Y-140424700D01*
X221473545Y-140429649D01*
X221516405Y-140472110D01*
X221528989Y-140512958D01*
X221511033Y-140551544D01*
X221464420Y-140597065D01*
X221402392Y-140671250D01*
X221385226Y-140740545D01*
X221413531Y-140796857D01*
X221447663Y-140818892D01*
X221546143Y-140837057D01*
X221652679Y-140814954D01*
X221752895Y-140760245D01*
X221832418Y-140680588D01*
X221875136Y-140591098D01*
X221878342Y-140490922D01*
X221848514Y-140384522D01*
X221793778Y-140294968D01*
X221759909Y-140263930D01*
X221632220Y-140204061D01*
X221488444Y-140186621D01*
X221339082Y-140208286D01*
X221194634Y-140265731D01*
X221065601Y-140355633D01*
X220962484Y-140474667D01*
X220932838Y-140525747D01*
X220881755Y-140681071D01*
X220882409Y-140844165D01*
X220934335Y-141014137D01*
X221037067Y-141190092D01*
X221190138Y-141371138D01*
X221393085Y-141556382D01*
X221522809Y-141657518D01*
X221637734Y-141751315D01*
X221751460Y-141858898D01*
X221853517Y-141968990D01*
X221933432Y-142070312D01*
X221980087Y-142150016D01*
X222014355Y-142286573D01*
X222007534Y-142421340D01*
X221966789Y-142526740D01*
X221896498Y-142614648D01*
X221802331Y-142677352D01*
X221685174Y-142720711D01*
X221567831Y-142732621D01*
X221457218Y-142704859D01*
X221363367Y-142645214D01*
X221296310Y-142561476D01*
X221266079Y-142461437D01*
X221269566Y-142397990D01*
X221301439Y-142314317D01*
X221353674Y-142254322D01*
X221414850Y-142223867D01*
X221473545Y-142228815D01*
X221516405Y-142271277D01*
X221528989Y-142312125D01*
X221511033Y-142350711D01*
X221464420Y-142396231D01*
X221402392Y-142470416D01*
X221385226Y-142539712D01*
X221413531Y-142596023D01*
X221447663Y-142618058D01*
X221546143Y-142636224D01*
X221652679Y-142614121D01*
X221752895Y-142559411D01*
X221832418Y-142479754D01*
X221875136Y-142390264D01*
X221878342Y-142290089D01*
X221848514Y-142183689D01*
X221793778Y-142094135D01*
X221759909Y-142063097D01*
X221632220Y-142003228D01*
X221488444Y-141985788D01*
X221339082Y-142007452D01*
X221194634Y-142064898D01*
X221065601Y-142154799D01*
X220962484Y-142273834D01*
X220932838Y-142324914D01*
X220881755Y-142480238D01*
X220882409Y-142643332D01*
X220934335Y-142813303D01*
X221037067Y-142989259D01*
X221190138Y-143170305D01*
X221393085Y-143355549D01*
X221522809Y-143456684D01*
X221637734Y-143550482D01*
X221751460Y-143658065D01*
X221853517Y-143768156D01*
X221933432Y-143869478D01*
X221980087Y-143949183D01*
X222014355Y-144085739D01*
X222007534Y-144220507D01*
X221966789Y-144325906D01*
X221896498Y-144413815D01*
X221802331Y-144476519D01*
X221685174Y-144519878D01*
X221567831Y-144531788D01*
X221457218Y-144504025D01*
X221363367Y-144444380D01*
X221296310Y-144360643D01*
X221266079Y-144260603D01*
X221269566Y-144197157D01*
X221301439Y-144113484D01*
X221353674Y-144053488D01*
X221414850Y-144023033D01*
X221473545Y-144027982D01*
X221516405Y-144070444D01*
X221528989Y-144111292D01*
X221511033Y-144149877D01*
X221464420Y-144195398D01*
X221402392Y-144269583D01*
X221385226Y-144338878D01*
X221413531Y-144395190D01*
X221447663Y-144417225D01*
X221546143Y-144435390D01*
X221652679Y-144413288D01*
X221752895Y-144358578D01*
X221832418Y-144278921D01*
X221875136Y-144189431D01*
X221878342Y-144089256D01*
X221848514Y-143982855D01*
X221793778Y-143893302D01*
X221759909Y-143862264D01*
X221635407Y-143804628D01*
X221490439Y-143786120D01*
X221338609Y-143805383D01*
X221193525Y-143861057D01*
X221093921Y-143928776D01*
X220971849Y-144062953D01*
X220899785Y-144211835D01*
X220877830Y-144372536D01*
X220906083Y-144542174D01*
X220984645Y-144717863D01*
X221062487Y-144833614D01*
X221107144Y-144882715D01*
X221183380Y-144956602D01*
X221281811Y-145046561D01*
X221393052Y-145143880D01*
X221435701Y-145180112D01*
X221615728Y-145334866D01*
X221756666Y-145464208D01*
X221862504Y-145573452D01*
X221937234Y-145667914D01*
X221984846Y-145752910D01*
X222009330Y-145833757D01*
X222014677Y-145915770D01*
X222012508Y-145948492D01*
X221980333Y-146073106D01*
X221915153Y-146183275D01*
X221827423Y-146263981D01*
X221774880Y-146289841D01*
X221636167Y-146318986D01*
X221509391Y-146310562D01*
X221402085Y-146269466D01*
X221321776Y-146200595D01*
X221275997Y-146108844D01*
X221272276Y-145999110D01*
X221279304Y-145967595D01*
X221320084Y-145872282D01*
X221378139Y-145825042D01*
X221441617Y-145820209D01*
X221494647Y-145848189D01*
X221515279Y-145900282D01*
X221502529Y-145958024D01*
X221455419Y-146002947D01*
X221451424Y-146004857D01*
X221396799Y-146049202D01*
X221383542Y-146108083D01*
X221393710Y-146163248D01*
X221430552Y-146195565D01*
X221503571Y-146210133D01*
X221578256Y-146212500D01*
X221699763Y-146189914D01*
X221794703Y-146128776D01*
X221857716Y-146039015D01*
X221883441Y-145930561D01*
X221866518Y-145813342D01*
X221832655Y-145741273D01*
X221749747Y-145652730D01*
X221636604Y-145598439D01*
X221503325Y-145578395D01*
X221360011Y-145592597D01*
X221216761Y-145641042D01*
X221083675Y-145723727D01*
X221062463Y-145741472D01*
X220969669Y-145854079D01*
X220906406Y-145996005D01*
X220880984Y-146148092D01*
X220880833Y-146160168D01*
X220889493Y-146265386D01*
X220917910Y-146368092D01*
X220969745Y-146473041D01*
X221048655Y-146584992D01*
X221158299Y-146708700D01*
X221302336Y-146848923D01*
X221484425Y-147010416D01*
X221628161Y-147131742D01*
X221785951Y-147273266D01*
X221899073Y-147400120D01*
X221971462Y-147518563D01*
X222007052Y-147634853D01*
X222011035Y-147740672D01*
X221986315Y-147863284D01*
X221927252Y-147959066D01*
X221826047Y-148038796D01*
X221774856Y-148067158D01*
X221637789Y-148112029D01*
X221502004Y-148104264D01*
X221419699Y-148074364D01*
X221328950Y-148012196D01*
X221282466Y-147927585D01*
X221272417Y-147839688D01*
X221292387Y-147723681D01*
X221349758Y-147638973D01*
X221387372Y-147612742D01*
X221436263Y-147598126D01*
X221480580Y-147621553D01*
X221496556Y-147636672D01*
X221550207Y-147690322D01*
X221465483Y-147775046D01*
X221403726Y-147856824D01*
X221392771Y-147926920D01*
X221432590Y-147983981D01*
X221470283Y-148006608D01*
X221542241Y-148027916D01*
X221620054Y-148016385D01*
X221633325Y-148012185D01*
X221753112Y-147949522D01*
X221834093Y-147859618D01*
X221874252Y-147752455D01*
X221871572Y-147638016D01*
X221824033Y-147526285D01*
X221748497Y-147442277D01*
X221690569Y-147402744D01*
X221624801Y-147382832D01*
X221530406Y-147376745D01*
X221513107Y-147376667D01*
X221422125Y-147379234D01*
X221361190Y-147393121D01*
X221308046Y-147427602D01*
X221243268Y-147489115D01*
X221173232Y-147571900D01*
X221112634Y-147673969D01*
X221057827Y-147803847D01*
X221005166Y-147970063D01*
X220955585Y-148161963D01*
X220936481Y-148250323D01*
X220921312Y-148343770D01*
X220909350Y-148451133D01*
X220899865Y-148581239D01*
X220892127Y-148742915D01*
X220885406Y-148944991D01*
X220882724Y-149043542D01*
X220865901Y-149691771D01*
X220779853Y-149893078D01*
X220634373Y-150182365D01*
X220462584Y-150427429D01*
X220260548Y-150632000D01*
X220024327Y-150799809D01*
X219749984Y-150934588D01*
X219634956Y-150977907D01*
X219573320Y-150997623D01*
X219509544Y-151013051D01*
X219435212Y-151025027D01*
X219341906Y-151034391D01*
X219221209Y-151041981D01*
X219064703Y-151048635D01*
X218863970Y-151055191D01*
X218856771Y-151055407D01*
X218635748Y-151063018D01*
X218458412Y-151071654D01*
X218315535Y-151082127D01*
X218197888Y-151095248D01*
X218096241Y-151111829D01*
X218014879Y-151129402D01*
X217807426Y-151183211D01*
X217644167Y-151235996D01*
X217516583Y-151291395D01*
X217416157Y-151353046D01*
X217342031Y-151416809D01*
X217278873Y-151483548D01*
X217245263Y-151536590D01*
X217231926Y-151598195D01*
X217229584Y-151686649D01*
X217234146Y-151786920D01*
X217251694Y-151855551D01*
X217288022Y-151913327D01*
X217295194Y-151922038D01*
X217397015Y-152008585D01*
X217509880Y-152048589D01*
X217623806Y-152044069D01*
X217728811Y-151997041D01*
X217814912Y-151909523D01*
X217865102Y-151806867D01*
X217881170Y-151725651D01*
X217864555Y-151654809D01*
X217859525Y-151643825D01*
X217809290Y-151579331D01*
X217745361Y-151565598D01*
X217669094Y-151602654D01*
X217627963Y-151639025D01*
X217543239Y-151723748D01*
X217489589Y-151670098D01*
X217453791Y-151622345D01*
X217457657Y-151577412D01*
X217465659Y-151560913D01*
X217533565Y-151487726D01*
X217636208Y-151450198D01*
X217692604Y-151445959D01*
X217802241Y-151463034D01*
X217880781Y-151518942D01*
X217927281Y-151593240D01*
X217966597Y-151729914D01*
X217953321Y-151865798D01*
X217920075Y-151948398D01*
X217843621Y-152067681D01*
X217755216Y-152141858D01*
X217644082Y-152178724D01*
X217593589Y-152184577D01*
X217474003Y-152178190D01*
X217357785Y-152138476D01*
X217238677Y-152061502D01*
X217110422Y-151943331D01*
X216984658Y-151801703D01*
X216806413Y-151592324D01*
X216652596Y-151423426D01*
X216518452Y-151291351D01*
X216399224Y-151192440D01*
X216290156Y-151123035D01*
X216186491Y-151079475D01*
X216083471Y-151058103D01*
X216013085Y-151054375D01*
X215861012Y-151076399D01*
X215717563Y-151136931D01*
X215601895Y-151227660D01*
X215594389Y-151236005D01*
X215505791Y-151366313D01*
X215451434Y-151508529D01*
X215431318Y-151652554D01*
X215445448Y-151788287D01*
X215493825Y-151905628D01*
X215576453Y-151994479D01*
X215594189Y-152006197D01*
X215712135Y-152050416D01*
X215832802Y-152047966D01*
X215943068Y-152001423D01*
X216024123Y-151921764D01*
X216050658Y-151853831D01*
X216064240Y-151759037D01*
X216062924Y-151662283D01*
X216049357Y-151598935D01*
X216011891Y-151561848D01*
X215953956Y-151556591D01*
X215895207Y-151580491D01*
X215857773Y-151624965D01*
X215814225Y-151674197D01*
X215756736Y-151689008D01*
X215703772Y-151670379D01*
X215673798Y-151619291D01*
X215673125Y-151615158D01*
X215682782Y-151540338D01*
X215738070Y-151485482D01*
X215820512Y-151452846D01*
X215934195Y-151444142D01*
X216031195Y-151479496D01*
X216106614Y-151551376D01*
X216155558Y-151652253D01*
X216173128Y-151774596D01*
X216154428Y-151910876D01*
X216142757Y-151948422D01*
X216083971Y-152043919D01*
X215987690Y-152122459D01*
X215868932Y-152173584D01*
X215801409Y-152186049D01*
X215717550Y-152186954D01*
X215636885Y-152170245D01*
X215554100Y-152131931D01*
X215463878Y-152068022D01*
X215360903Y-151974528D01*
X215239859Y-151847458D01*
X215095432Y-151682821D01*
X215033028Y-151609243D01*
X214902224Y-151457310D01*
X214794565Y-151341097D01*
X214702114Y-151253502D01*
X214616934Y-151187419D01*
X214531087Y-151135745D01*
X214471470Y-151106654D01*
X214316684Y-151062149D01*
X214154685Y-151060104D01*
X213998892Y-151097953D01*
X213862726Y-151173129D01*
X213795222Y-151236005D01*
X213706625Y-151366313D01*
X213652267Y-151508529D01*
X213632152Y-151652554D01*
X213646281Y-151788287D01*
X213694659Y-151905628D01*
X213777286Y-151994479D01*
X213795023Y-152006197D01*
X213912968Y-152050416D01*
X214033635Y-152047966D01*
X214143901Y-152001423D01*
X214224957Y-151921764D01*
X214251491Y-151853831D01*
X214265074Y-151759037D01*
X214263757Y-151662283D01*
X214250190Y-151598935D01*
X214212724Y-151561848D01*
X214154789Y-151556591D01*
X214096040Y-151580491D01*
X214058607Y-151624965D01*
X214015059Y-151674197D01*
X213957570Y-151689008D01*
X213904605Y-151670379D01*
X213874631Y-151619291D01*
X213873959Y-151615158D01*
X213883616Y-151540338D01*
X213938904Y-151485482D01*
X214021345Y-151452846D01*
X214135028Y-151444142D01*
X214232028Y-151479496D01*
X214307448Y-151551376D01*
X214356391Y-151652253D01*
X214373961Y-151774596D01*
X214355262Y-151910876D01*
X214343591Y-151948422D01*
X214284805Y-152043919D01*
X214188523Y-152122459D01*
X214069765Y-152173584D01*
X214002242Y-152186049D01*
X213918383Y-152186954D01*
X213837718Y-152170245D01*
X213754933Y-152131931D01*
X213664711Y-152068022D01*
X213561736Y-151974528D01*
X213440693Y-151847458D01*
X213296265Y-151682821D01*
X213233862Y-151609243D01*
X213103057Y-151457310D01*
X212995398Y-151341097D01*
X212902948Y-151253502D01*
X212817768Y-151187419D01*
X212731920Y-151135745D01*
X212672303Y-151106654D01*
X212517517Y-151062149D01*
X212355518Y-151060104D01*
X212199725Y-151097953D01*
X212063560Y-151173129D01*
X211996056Y-151236005D01*
X211907458Y-151366313D01*
X211853100Y-151508529D01*
X211832985Y-151652554D01*
X211847115Y-151788287D01*
X211895492Y-151905628D01*
X211978119Y-151994479D01*
X211995856Y-152006197D01*
X212113802Y-152050416D01*
X212234469Y-152047966D01*
X212344734Y-152001423D01*
X212425790Y-151921764D01*
X212452325Y-151853831D01*
X212465907Y-151759037D01*
X212464590Y-151662283D01*
X212451024Y-151598935D01*
X212413557Y-151561848D01*
X212355622Y-151556591D01*
X212296874Y-151580491D01*
X212259440Y-151624965D01*
X212215892Y-151674197D01*
X212158403Y-151689008D01*
X212105438Y-151670379D01*
X212075464Y-151619291D01*
X212074792Y-151615158D01*
X212084449Y-151540338D01*
X212139737Y-151485482D01*
X212222178Y-151452846D01*
X212335862Y-151444142D01*
X212432861Y-151479496D01*
X212508281Y-151551376D01*
X212557224Y-151652253D01*
X212574794Y-151774596D01*
X212556095Y-151910876D01*
X212544424Y-151948422D01*
X212485638Y-152043919D01*
X212389356Y-152122459D01*
X212270599Y-152173584D01*
X212203076Y-152186049D01*
X212119216Y-152186954D01*
X212038552Y-152170245D01*
X211955766Y-152131931D01*
X211865544Y-152068022D01*
X211762569Y-151974528D01*
X211641526Y-151847458D01*
X211497098Y-151682821D01*
X211434695Y-151609243D01*
X211303890Y-151457310D01*
X211196232Y-151341097D01*
X211103781Y-151253502D01*
X211018601Y-151187419D01*
X210932754Y-151135745D01*
X210873137Y-151106654D01*
X210718350Y-151062149D01*
X210556351Y-151060104D01*
X210400559Y-151097953D01*
X210264393Y-151173129D01*
X210196889Y-151236005D01*
X210108291Y-151366313D01*
X210053934Y-151508529D01*
X210033818Y-151652554D01*
X210047948Y-151788287D01*
X210096325Y-151905628D01*
X210178953Y-151994479D01*
X210196689Y-152006197D01*
X210314635Y-152050416D01*
X210435302Y-152047966D01*
X210545568Y-152001423D01*
X210626623Y-151921764D01*
X210653158Y-151853831D01*
X210666740Y-151759037D01*
X210665424Y-151662283D01*
X210651857Y-151598935D01*
X210614391Y-151561848D01*
X210556456Y-151556591D01*
X210497707Y-151580491D01*
X210460273Y-151624965D01*
X210416725Y-151674197D01*
X210359236Y-151689008D01*
X210306272Y-151670379D01*
X210276298Y-151619291D01*
X210275625Y-151615158D01*
X210285282Y-151540338D01*
X210340570Y-151485482D01*
X210423012Y-151452846D01*
X210536695Y-151444142D01*
X210633695Y-151479496D01*
X210709114Y-151551376D01*
X210758058Y-151652253D01*
X210775628Y-151774596D01*
X210756928Y-151910876D01*
X210745257Y-151948422D01*
X210686471Y-152043919D01*
X210590190Y-152122459D01*
X210471432Y-152173584D01*
X210403909Y-152186049D01*
X210320050Y-152186954D01*
X210239385Y-152170245D01*
X210156600Y-152131931D01*
X210066378Y-152068022D01*
X209963403Y-151974528D01*
X209842359Y-151847458D01*
X209697932Y-151682821D01*
X209635528Y-151609243D01*
X209504724Y-151457310D01*
X209397065Y-151341097D01*
X209304614Y-151253502D01*
X209219434Y-151187419D01*
X209133587Y-151135745D01*
X209073970Y-151106654D01*
X208919184Y-151062149D01*
X208757185Y-151060104D01*
X208601392Y-151097953D01*
X208465226Y-151173129D01*
X208397722Y-151236005D01*
X208309125Y-151366313D01*
X208254767Y-151508529D01*
X208234652Y-151652554D01*
X208248781Y-151788287D01*
X208297159Y-151905628D01*
X208379786Y-151994479D01*
X208397523Y-152006197D01*
X208515468Y-152050416D01*
X208636135Y-152047966D01*
X208746401Y-152001423D01*
X208827457Y-151921764D01*
X208853991Y-151853831D01*
X208867574Y-151759037D01*
X208866257Y-151662283D01*
X208852690Y-151598935D01*
X208815224Y-151561848D01*
X208757289Y-151556591D01*
X208698540Y-151580491D01*
X208661107Y-151624965D01*
X208617559Y-151674197D01*
X208560070Y-151689008D01*
X208507105Y-151670379D01*
X208477131Y-151619291D01*
X208476459Y-151615158D01*
X208486116Y-151540338D01*
X208541404Y-151485482D01*
X208623845Y-151452846D01*
X208737528Y-151444142D01*
X208834528Y-151479496D01*
X208909948Y-151551376D01*
X208958891Y-151652253D01*
X208976461Y-151774596D01*
X208957762Y-151910876D01*
X208946091Y-151948422D01*
X208887305Y-152043919D01*
X208791023Y-152122459D01*
X208672265Y-152173584D01*
X208604742Y-152186049D01*
X208520883Y-152186954D01*
X208440218Y-152170245D01*
X208357433Y-152131931D01*
X208267211Y-152068022D01*
X208164236Y-151974528D01*
X208043193Y-151847458D01*
X207898765Y-151682821D01*
X207836362Y-151609243D01*
X207705557Y-151457310D01*
X207597898Y-151341097D01*
X207505448Y-151253502D01*
X207420268Y-151187419D01*
X207334420Y-151135745D01*
X207274803Y-151106654D01*
X207120017Y-151062149D01*
X206958018Y-151060104D01*
X206802225Y-151097953D01*
X206666060Y-151173129D01*
X206598556Y-151236005D01*
X206509958Y-151366313D01*
X206455600Y-151508529D01*
X206435485Y-151652554D01*
X206449615Y-151788287D01*
X206497992Y-151905628D01*
X206580619Y-151994479D01*
X206598356Y-152006197D01*
X206716302Y-152050416D01*
X206836969Y-152047966D01*
X206947234Y-152001423D01*
X207028290Y-151921764D01*
X207054825Y-151853831D01*
X207068407Y-151759037D01*
X207067090Y-151662283D01*
X207053524Y-151598935D01*
X207016057Y-151561848D01*
X206958122Y-151556591D01*
X206899374Y-151580491D01*
X206861940Y-151624965D01*
X206818392Y-151674197D01*
X206760903Y-151689008D01*
X206707938Y-151670379D01*
X206677964Y-151619291D01*
X206677292Y-151615158D01*
X206686949Y-151540338D01*
X206742237Y-151485482D01*
X206824678Y-151452846D01*
X206938362Y-151444142D01*
X207035361Y-151479496D01*
X207110781Y-151551376D01*
X207159724Y-151652253D01*
X207177294Y-151774596D01*
X207158595Y-151910876D01*
X207146924Y-151948422D01*
X207088138Y-152043919D01*
X206991856Y-152122459D01*
X206873099Y-152173584D01*
X206805576Y-152186049D01*
X206721716Y-152186954D01*
X206641052Y-152170245D01*
X206558266Y-152131931D01*
X206468044Y-152068022D01*
X206365069Y-151974528D01*
X206244026Y-151847458D01*
X206099598Y-151682821D01*
X206037195Y-151609243D01*
X205879978Y-151429370D01*
X205744021Y-151290352D01*
X205623035Y-151187865D01*
X205510733Y-151117583D01*
X205400829Y-151075179D01*
X205287035Y-151056329D01*
X205230729Y-151054375D01*
X205066596Y-151075493D01*
X204924328Y-151141368D01*
X204796024Y-151255787D01*
X204785860Y-151267463D01*
X204702766Y-151397867D01*
X204655025Y-151545614D01*
X204643996Y-151697099D01*
X204671037Y-151838714D01*
X204719347Y-151933451D01*
X204791992Y-151997523D01*
X204892923Y-152040717D01*
X204999069Y-152054905D01*
X205046514Y-152048678D01*
X205142461Y-152001194D01*
X205220565Y-151919685D01*
X205273165Y-151818526D01*
X205292603Y-151712091D01*
X205274308Y-151621205D01*
X205228296Y-151568257D01*
X205164959Y-151561109D01*
X205092390Y-151599150D01*
X205052481Y-151637961D01*
X205001851Y-151688603D01*
X204963895Y-151702492D01*
X204927527Y-151689947D01*
X204881738Y-151641611D01*
X204881075Y-151577864D01*
X204925469Y-151510821D01*
X204928570Y-151507878D01*
X205023770Y-151450061D01*
X205125602Y-151439522D01*
X205223784Y-151473398D01*
X205308035Y-151548824D01*
X205353881Y-151626312D01*
X205385960Y-151708564D01*
X205394621Y-151770845D01*
X205382459Y-151839269D01*
X205376961Y-151858716D01*
X205327971Y-151987179D01*
X205263142Y-152078170D01*
X205182990Y-152140331D01*
X205064651Y-152183596D01*
X204928922Y-152186324D01*
X204806266Y-152153629D01*
X204724399Y-152105452D01*
X204622746Y-152024905D01*
X204512585Y-151922460D01*
X204405194Y-151808588D01*
X204313768Y-151696350D01*
X204170978Y-151518445D01*
X204023829Y-151361450D01*
X203881166Y-151233967D01*
X203751836Y-151144602D01*
X203739572Y-151137877D01*
X203566595Y-151071273D01*
X203397632Y-151054056D01*
X203239288Y-151083847D01*
X203098169Y-151158266D01*
X202980879Y-151274934D01*
X202894024Y-151431471D01*
X202889103Y-151444266D01*
X202848586Y-151577475D01*
X202840145Y-151687799D01*
X202863874Y-151794509D01*
X202891093Y-151859542D01*
X202967661Y-151970398D01*
X203068191Y-152036653D01*
X203185434Y-152055616D01*
X203312138Y-152024600D01*
X203322893Y-152019677D01*
X203418608Y-151946545D01*
X203478951Y-151839993D01*
X203497709Y-151723657D01*
X203483110Y-151623891D01*
X203442600Y-151568962D01*
X203381104Y-151560709D01*
X203303546Y-151600966D01*
X203263690Y-151636423D01*
X203192415Y-151690271D01*
X203136553Y-151695839D01*
X203099007Y-151653205D01*
X203091926Y-151631711D01*
X203100549Y-151572748D01*
X203143960Y-151511884D01*
X203207127Y-151465057D01*
X203264995Y-151448203D01*
X203363606Y-151449703D01*
X203432485Y-151471369D01*
X203493303Y-151520790D01*
X203503768Y-151531818D01*
X203573660Y-151631541D01*
X203598408Y-151738632D01*
X203581128Y-151867122D01*
X203579576Y-151873021D01*
X203519388Y-152012521D01*
X203428132Y-152113116D01*
X203312927Y-152172528D01*
X203180895Y-152188480D01*
X203039158Y-152158696D01*
X202905662Y-152088497D01*
X202837411Y-152032577D01*
X202749011Y-151947490D01*
X202652925Y-151845742D01*
X202578333Y-151760075D01*
X202404077Y-151556748D01*
X202253578Y-151393989D01*
X202121744Y-151268002D01*
X202003483Y-151174995D01*
X201893702Y-151111175D01*
X201787308Y-151072746D01*
X201679208Y-151055916D01*
X201631007Y-151054375D01*
X201470442Y-151076897D01*
X201327444Y-151146389D01*
X201202205Y-151258703D01*
X201117426Y-151386776D01*
X201073703Y-151539272D01*
X201069164Y-151722732D01*
X201069214Y-151723429D01*
X201081300Y-151821925D01*
X201105592Y-151889270D01*
X201150460Y-151947089D01*
X201159238Y-151956033D01*
X201266381Y-152029734D01*
X201386207Y-152053206D01*
X201511512Y-152025196D01*
X201524241Y-152019433D01*
X201623958Y-151945612D01*
X201682310Y-151839351D01*
X201698542Y-151722439D01*
X201684197Y-151623217D01*
X201644147Y-151568968D01*
X201582873Y-151561198D01*
X201504852Y-151601417D01*
X201459111Y-151641834D01*
X201374360Y-151726585D01*
X201324081Y-151664492D01*
X201291374Y-151614694D01*
X201294162Y-151574907D01*
X201310452Y-151546669D01*
X201377193Y-151487120D01*
X201471884Y-151450799D01*
X201572189Y-151444452D01*
X201616396Y-151454249D01*
X201708741Y-151511460D01*
X201766051Y-151607081D01*
X201788924Y-151742200D01*
X201789430Y-151768750D01*
X201768993Y-151923701D01*
X201708835Y-152045346D01*
X201611313Y-152131009D01*
X201478786Y-152178016D01*
X201422574Y-152184989D01*
X201321881Y-152182074D01*
X201225253Y-152155293D01*
X201126405Y-152100322D01*
X201019052Y-152012837D01*
X200896909Y-151888515D01*
X200757319Y-151727395D01*
X200591455Y-151532550D01*
X200450005Y-151377423D01*
X200327602Y-151257992D01*
X200218879Y-151170234D01*
X200118470Y-151110126D01*
X200021008Y-151073644D01*
X199921127Y-151056767D01*
X199859513Y-151054375D01*
X199687328Y-151078586D01*
X199536584Y-151146707D01*
X199413484Y-151251977D01*
X199324231Y-151387630D01*
X199275028Y-151546903D01*
X199269486Y-151697730D01*
X199301107Y-151845120D01*
X199367669Y-151954512D01*
X199467972Y-152024153D01*
X199501432Y-152036139D01*
X199587195Y-152051789D01*
X199665770Y-152050633D01*
X199676112Y-152048517D01*
X199769408Y-152001717D01*
X199846444Y-151920693D01*
X199899433Y-151820093D01*
X199920590Y-151714563D01*
X199903267Y-151621205D01*
X199857139Y-151568679D01*
X199793737Y-151561701D01*
X199722563Y-151600176D01*
X199698620Y-151623229D01*
X199632122Y-151674307D01*
X199570678Y-151686494D01*
X199526152Y-151658865D01*
X199516047Y-151637458D01*
X199515756Y-151563836D01*
X199556646Y-151502591D01*
X199627341Y-151459937D01*
X199716466Y-151442089D01*
X199812646Y-151455263D01*
X199834685Y-151463382D01*
X199926755Y-151527175D01*
X199984776Y-151619981D01*
X200009621Y-151731062D01*
X200002164Y-151849675D01*
X199963280Y-151965081D01*
X199893842Y-152066537D01*
X199794725Y-152143303D01*
X199778697Y-152151389D01*
X199678372Y-152187028D01*
X199579958Y-152194639D01*
X199478985Y-152171569D01*
X199370982Y-152115164D01*
X199251478Y-152022772D01*
X199116002Y-151891738D01*
X198960084Y-151719410D01*
X198868071Y-151610954D01*
X198707660Y-151426842D01*
X198567048Y-151284801D01*
X198440240Y-151180698D01*
X198321239Y-151110402D01*
X198204050Y-151069779D01*
X198082676Y-151054697D01*
X198060521Y-151054375D01*
X197892407Y-151076708D01*
X197746947Y-151145508D01*
X197626296Y-151254193D01*
X197552042Y-151350942D01*
X197508733Y-151444910D01*
X197489157Y-151556466D01*
X197485727Y-151651221D01*
X197499840Y-151806528D01*
X197544928Y-151921444D01*
X197622879Y-151999783D01*
X197670759Y-152024781D01*
X197794895Y-152051708D01*
X197912513Y-152032908D01*
X198012998Y-151974265D01*
X198085737Y-151881661D01*
X198118372Y-151776708D01*
X198118512Y-151666580D01*
X198089052Y-151593704D01*
X198036454Y-151561956D01*
X197967185Y-151575214D01*
X197887708Y-151637353D01*
X197887091Y-151638012D01*
X197833897Y-151688297D01*
X197794848Y-151702556D01*
X197757413Y-151689998D01*
X197710417Y-151642590D01*
X197705859Y-151582769D01*
X197738991Y-151522078D01*
X197805067Y-151472061D01*
X197854885Y-151452961D01*
X197937978Y-151439544D01*
X198012300Y-151456319D01*
X198046188Y-151471647D01*
X198135406Y-151535745D01*
X198186903Y-151626350D01*
X198205390Y-151752242D01*
X198205611Y-151768750D01*
X198183891Y-151919164D01*
X198122698Y-152040515D01*
X198029420Y-152128319D01*
X197911447Y-152178096D01*
X197776166Y-152185361D01*
X197630965Y-152145632D01*
X197604707Y-152133325D01*
X197519336Y-152077137D01*
X197413402Y-151986683D01*
X197296302Y-151871321D01*
X197177431Y-151740405D01*
X197066185Y-151603290D01*
X197047729Y-151578720D01*
X196882852Y-151382773D01*
X196713351Y-151231370D01*
X196542368Y-151125493D01*
X196373045Y-151066128D01*
X196208523Y-151054257D01*
X196051946Y-151090864D01*
X195906455Y-151176934D01*
X195868671Y-151209531D01*
X195768557Y-151330551D01*
X195711104Y-151472249D01*
X195692503Y-151644074D01*
X195692500Y-151646489D01*
X195706507Y-151801384D01*
X195750136Y-151916014D01*
X195825799Y-151995500D01*
X195868478Y-152020003D01*
X195967624Y-152054406D01*
X196061599Y-152052613D01*
X196134218Y-152032183D01*
X196222623Y-151979077D01*
X196291080Y-151896518D01*
X196333163Y-151798999D01*
X196342447Y-151701015D01*
X196315999Y-151622154D01*
X196257169Y-151568250D01*
X196189734Y-151564347D01*
X196122113Y-151610342D01*
X196109974Y-151624669D01*
X196049943Y-151675518D01*
X195992397Y-151683760D01*
X195949790Y-151650798D01*
X195935642Y-151605042D01*
X195951178Y-151534386D01*
X196009385Y-151480594D01*
X196101024Y-151450266D01*
X196158375Y-151445959D01*
X196241621Y-151459478D01*
X196315355Y-151507390D01*
X196337575Y-151528488D01*
X196385553Y-151582788D01*
X196410305Y-151635707D01*
X196419243Y-151708463D01*
X196420104Y-151764704D01*
X196415030Y-151865223D01*
X196395021Y-151937684D01*
X196352902Y-152006375D01*
X196345976Y-152015577D01*
X196243151Y-152120602D01*
X196128946Y-152176544D01*
X195995457Y-152187122D01*
X195983574Y-152186108D01*
X195890535Y-152167056D01*
X195797253Y-152125040D01*
X195697761Y-152055413D01*
X195586089Y-151953526D01*
X195456269Y-151814731D01*
X195353154Y-151695208D01*
X195189460Y-151505685D01*
X195049769Y-151355779D01*
X194928325Y-151241349D01*
X194819375Y-151158255D01*
X194717164Y-151102356D01*
X194615936Y-151069512D01*
X194509938Y-151055582D01*
X194462494Y-151054375D01*
X194299807Y-151078741D01*
X194156814Y-151147152D01*
X194039376Y-151252575D01*
X193953351Y-151387980D01*
X193904598Y-151546335D01*
X193898978Y-151720609D01*
X193899921Y-151729504D01*
X193934240Y-151866353D01*
X194003408Y-151965018D01*
X194098106Y-152024456D01*
X194215284Y-152049165D01*
X194326992Y-152030771D01*
X194424564Y-151977186D01*
X194499334Y-151896318D01*
X194542637Y-151796077D01*
X194545807Y-151684373D01*
X194530744Y-151629569D01*
X194486775Y-151571697D01*
X194423567Y-151556005D01*
X194354216Y-151582784D01*
X194310807Y-151624669D01*
X194252155Y-151673705D01*
X194193964Y-151683437D01*
X194150200Y-151654625D01*
X194136042Y-151615158D01*
X194145699Y-151540338D01*
X194200987Y-151485482D01*
X194283428Y-151452846D01*
X194398070Y-151443543D01*
X194494898Y-151477958D01*
X194569203Y-151548542D01*
X194616275Y-151647745D01*
X194631401Y-151768016D01*
X194609871Y-151901805D01*
X194593227Y-151949373D01*
X194521076Y-152065778D01*
X194417593Y-152144633D01*
X194290863Y-152183693D01*
X194148974Y-152180708D01*
X194000013Y-152133432D01*
X193975154Y-152121134D01*
X193874609Y-152055133D01*
X193749667Y-151950475D01*
X193606039Y-151812021D01*
X193578279Y-151783508D01*
X193419983Y-151619673D01*
X193293458Y-151489382D01*
X193193926Y-151387907D01*
X193116613Y-151310521D01*
X193056744Y-151252495D01*
X193009542Y-151209104D01*
X192970234Y-151175618D01*
X192940834Y-151152459D01*
X192848229Y-151081813D01*
X193747667Y-150181740D01*
X194647104Y-149281667D01*
X203980722Y-149281667D01*
X203966826Y-149194766D01*
X207002419Y-149194766D01*
X207007238Y-149222136D01*
X207019847Y-149253224D01*
X207045527Y-149271081D01*
X207096639Y-149279297D01*
X207185543Y-149281462D01*
X207211576Y-149281483D01*
X207400313Y-149281299D01*
X207406035Y-149157433D01*
X207426834Y-149043854D01*
X207479764Y-148970359D01*
X207569377Y-148931868D01*
X207614071Y-148925355D01*
X207709980Y-148906078D01*
X207840194Y-148865341D01*
X207993063Y-148807918D01*
X208156935Y-148738581D01*
X208320160Y-148662102D01*
X208345354Y-148648940D01*
X210523574Y-148648940D01*
X210542591Y-148741327D01*
X210561467Y-148828403D01*
X210571159Y-148936291D01*
X210571870Y-149048651D01*
X210563802Y-149149142D01*
X210547160Y-149221424D01*
X210536380Y-149241070D01*
X210533249Y-149249766D01*
X210542022Y-149257140D01*
X210566558Y-149263297D01*
X210610714Y-149268346D01*
X210678350Y-149272393D01*
X210773326Y-149275545D01*
X210899499Y-149277909D01*
X211060728Y-149279592D01*
X211260873Y-149280701D01*
X211503793Y-149281344D01*
X211793346Y-149281626D01*
X212000823Y-149281667D01*
X217669475Y-149281667D01*
X219081667Y-149281667D01*
X219081667Y-146856320D01*
X219081554Y-146503371D01*
X219081228Y-146166087D01*
X219080704Y-145848146D01*
X219079998Y-145553224D01*
X219079126Y-145285000D01*
X219078104Y-145047151D01*
X219076949Y-144843353D01*
X219075676Y-144677285D01*
X219074302Y-144552623D01*
X219072842Y-144473046D01*
X219071313Y-144442230D01*
X219071110Y-144441997D01*
X219060542Y-144470585D01*
X219040089Y-144539470D01*
X219012906Y-144637662D01*
X218988199Y-144730834D01*
X218903674Y-145023165D01*
X218797730Y-145338720D01*
X218676970Y-145660265D01*
X218547996Y-145970564D01*
X218417410Y-146252383D01*
X218367912Y-146350005D01*
X218290340Y-146504680D01*
X218235680Y-146630392D01*
X218198085Y-146742593D01*
X218171703Y-146856738D01*
X218167607Y-146879172D01*
X218140585Y-147010149D01*
X218103192Y-147163235D01*
X218062364Y-147310530D01*
X218051393Y-147346518D01*
X218012198Y-147482488D01*
X217993109Y-147577595D01*
X217992798Y-147639358D01*
X217996979Y-147654752D01*
X218005392Y-147733770D01*
X217990894Y-147810184D01*
X217976563Y-147886347D01*
X217979306Y-147978513D01*
X217996414Y-148088599D01*
X218015539Y-148246783D01*
X218019888Y-148425025D01*
X218016888Y-148499120D01*
X218004495Y-148632801D01*
X217982141Y-148740380D01*
X217942940Y-148848583D01*
X217905536Y-148931117D01*
X217851611Y-149036155D01*
X217795669Y-149131041D01*
X217747995Y-149198633D01*
X217738909Y-149208906D01*
X217669475Y-149281667D01*
X212000823Y-149281667D01*
X212276889Y-149281297D01*
X212536489Y-149280232D01*
X212774915Y-149278541D01*
X212987459Y-149276291D01*
X213169414Y-149273549D01*
X213316073Y-149270384D01*
X213422729Y-149266864D01*
X213484673Y-149263056D01*
X213498959Y-149260081D01*
X213478021Y-149234985D01*
X213425409Y-149197529D01*
X213399740Y-149182238D01*
X213333709Y-149140756D01*
X213241687Y-149077778D01*
X213139485Y-149004253D01*
X213096602Y-148972313D01*
X212896205Y-148822782D01*
X212730933Y-148702992D01*
X212595038Y-148609076D01*
X212482774Y-148537166D01*
X212388394Y-148483392D01*
X212321563Y-148450680D01*
X212231583Y-148408675D01*
X212111871Y-148350732D01*
X211979669Y-148285276D01*
X211879445Y-148234665D01*
X211722574Y-148157908D01*
X211561968Y-148085060D01*
X211407062Y-148019864D01*
X211267293Y-147966063D01*
X211152098Y-147927401D01*
X211070912Y-147907621D01*
X211050538Y-147905834D01*
X210937268Y-147930298D01*
X210844976Y-147997917D01*
X210818280Y-148033765D01*
X210775630Y-148093575D01*
X210713453Y-148170625D01*
X210671388Y-148218958D01*
X210582485Y-148350732D01*
X210532015Y-148498920D01*
X210523574Y-148648940D01*
X208345354Y-148648940D01*
X208471086Y-148583255D01*
X208525806Y-148551884D01*
X208647889Y-148481057D01*
X208772057Y-148411362D01*
X208880058Y-148352942D01*
X208929031Y-148327760D01*
X209019687Y-148280553D01*
X209098802Y-148235690D01*
X209140698Y-148208782D01*
X209176394Y-148181022D01*
X209172879Y-148173181D01*
X209124519Y-148181281D01*
X209106875Y-148184895D01*
X209028327Y-148204970D01*
X208928394Y-148235527D01*
X208868750Y-148255805D01*
X208774639Y-148283785D01*
X208650077Y-148313380D01*
X208517108Y-148339523D01*
X208471875Y-148347043D01*
X208314472Y-148377770D01*
X208121973Y-148424896D01*
X207908120Y-148484450D01*
X207686656Y-148552463D01*
X207471324Y-148624963D01*
X207329257Y-148677154D01*
X207227946Y-148717474D01*
X207164401Y-148749604D01*
X207126509Y-148783028D01*
X207102159Y-148827234D01*
X207087866Y-148866214D01*
X207044395Y-148996413D01*
X207017246Y-149087587D01*
X207004045Y-149150212D01*
X207002419Y-149194766D01*
X203966826Y-149194766D01*
X203963984Y-149176997D01*
X203965953Y-149052672D01*
X203991578Y-148979364D01*
X204015803Y-148939196D01*
X204051043Y-148904924D01*
X204104093Y-148873896D01*
X204181750Y-148843459D01*
X204290808Y-148810959D01*
X204438062Y-148773744D01*
X204630309Y-148729160D01*
X204635417Y-148728004D01*
X204774076Y-148695367D01*
X204937800Y-148654945D01*
X205100692Y-148613196D01*
X205177813Y-148592744D01*
X205310556Y-148557801D01*
X205439235Y-148525319D01*
X205546606Y-148499580D01*
X205601146Y-148487605D01*
X205697587Y-148464770D01*
X205808712Y-148433418D01*
X205922152Y-148397701D01*
X206025534Y-148361774D01*
X206106489Y-148329790D01*
X206152646Y-148305901D01*
X206158057Y-148300627D01*
X206193994Y-148280576D01*
X206227490Y-148276250D01*
X206284806Y-148264243D01*
X206353861Y-148234400D01*
X206418670Y-148195993D01*
X206463245Y-148158292D01*
X206473282Y-148133720D01*
X206491587Y-148111004D01*
X206548686Y-148071648D01*
X206635426Y-148021407D01*
X206730579Y-147971979D01*
X206849134Y-147911893D01*
X206959456Y-147853567D01*
X207047142Y-147804746D01*
X207088930Y-147779328D01*
X207164005Y-147733584D01*
X207261426Y-147679218D01*
X207330812Y-147642943D01*
X207424735Y-147591770D01*
X207540917Y-147523126D01*
X207658119Y-147449670D01*
X207688447Y-147429817D01*
X207823950Y-147347069D01*
X207997391Y-147251706D01*
X208197017Y-147149311D01*
X208411079Y-147045468D01*
X208627824Y-146945762D01*
X208835502Y-146855777D01*
X209022362Y-146781097D01*
X209146563Y-146736912D01*
X209265020Y-146692741D01*
X209400740Y-146634314D01*
X209403094Y-146633172D01*
X212361183Y-146633172D01*
X212402586Y-146653452D01*
X212489968Y-146661669D01*
X212546459Y-146662810D01*
X212646486Y-146668520D01*
X212772059Y-146682280D01*
X212896951Y-146701184D01*
X212903646Y-146702382D01*
X213027681Y-146721408D01*
X213153924Y-146735317D01*
X213256156Y-146741254D01*
X213260834Y-146741294D01*
X213367280Y-146747399D01*
X213471641Y-146762123D01*
X213512188Y-146771378D01*
X213604590Y-146793556D01*
X213707966Y-146813032D01*
X213809502Y-146828134D01*
X213896383Y-146837191D01*
X213955796Y-146838531D01*
X213975190Y-146831787D01*
X213963590Y-146808763D01*
X213931411Y-146746464D01*
X213882607Y-146652501D01*
X213821129Y-146534487D01*
X213763542Y-146424167D01*
X213694439Y-146291256D01*
X213634787Y-146175285D01*
X213588560Y-146084086D01*
X213559736Y-146025491D01*
X213551875Y-146007278D01*
X213539694Y-145980904D01*
X213506620Y-145918185D01*
X213457859Y-145828810D01*
X213404865Y-145733596D01*
X213339334Y-145619071D01*
X213291678Y-145543523D01*
X213255223Y-145499052D01*
X213223294Y-145477757D01*
X213189215Y-145471740D01*
X213183542Y-145471667D01*
X213144632Y-145476225D01*
X213113603Y-145496435D01*
X213082532Y-145542096D01*
X213043492Y-145623010D01*
X213022264Y-145671123D01*
X212886046Y-145944877D01*
X212731307Y-146186949D01*
X212564016Y-146388411D01*
X212502308Y-146448871D01*
X212412099Y-146535991D01*
X212364705Y-146595722D01*
X212361183Y-146633172D01*
X209403094Y-146633172D01*
X209525215Y-146573935D01*
X209530209Y-146571310D01*
X209651850Y-146507453D01*
X209783173Y-146439100D01*
X209896572Y-146380615D01*
X209900625Y-146378540D01*
X210014806Y-146315178D01*
X210135084Y-146240813D01*
X210216030Y-146185384D01*
X210299693Y-146127573D01*
X210365414Y-146095933D01*
X210435874Y-146082728D01*
X210524389Y-146080209D01*
X210689324Y-146080209D01*
X210769005Y-145939021D01*
X210826586Y-145844881D01*
X210901149Y-145733448D01*
X210976617Y-145628743D01*
X210977076Y-145628136D01*
X211038264Y-145543892D01*
X211122684Y-145422825D01*
X211225132Y-145272738D01*
X211340407Y-145101436D01*
X211463306Y-144916722D01*
X211588626Y-144726401D01*
X211711165Y-144538278D01*
X211825720Y-144360157D01*
X211892714Y-144254584D01*
X211976402Y-144127278D01*
X212066943Y-143998368D01*
X212152196Y-143884719D01*
X212207947Y-143816675D01*
X212239332Y-143780343D01*
X214223261Y-143780343D01*
X214235905Y-143808786D01*
X214273257Y-143857189D01*
X214338673Y-143929453D01*
X214435512Y-144029478D01*
X214567132Y-144161164D01*
X214590186Y-144183991D01*
X214742752Y-144337531D01*
X214912013Y-144512248D01*
X215083522Y-144692952D01*
X215242832Y-144864453D01*
X215352076Y-144985141D01*
X215708229Y-145384968D01*
X215728251Y-145276182D01*
X215735264Y-145213680D01*
X215741993Y-145109595D01*
X215747913Y-144975259D01*
X215752500Y-144822005D01*
X215754709Y-144704375D01*
X215756712Y-144536052D01*
X215756618Y-144409859D01*
X215753318Y-144315019D01*
X215745702Y-144240753D01*
X215732663Y-144176285D01*
X215713091Y-144110837D01*
X215685879Y-144033632D01*
X215685646Y-144032990D01*
X215623646Y-143811616D01*
X215606271Y-143654158D01*
X215602728Y-143562383D01*
X215594786Y-143512614D01*
X215578539Y-143493940D01*
X215550080Y-143495453D01*
X215549479Y-143495587D01*
X215509213Y-143504062D01*
X215425097Y-143521354D01*
X215305154Y-143545828D01*
X215157408Y-143575848D01*
X214989883Y-143609781D01*
X214888021Y-143630367D01*
X214713145Y-143665892D01*
X214553817Y-143698659D01*
X214417977Y-143727003D01*
X214313561Y-143749260D01*
X214248507Y-143763764D01*
X214231965Y-143767961D01*
X214223261Y-143780343D01*
X212239332Y-143780343D01*
X212284879Y-143727617D01*
X212357150Y-143642038D01*
X212410291Y-143577092D01*
X212414167Y-143572175D01*
X212463655Y-143518603D01*
X212505260Y-143489353D01*
X212513386Y-143487532D01*
X212544300Y-143474676D01*
X212546639Y-143467448D01*
X212566657Y-143441625D01*
X212616621Y-143400670D01*
X212639243Y-143384663D01*
X212704744Y-143332734D01*
X212730968Y-143294990D01*
X212714913Y-143276602D01*
X212702593Y-143275625D01*
X212661209Y-143265662D01*
X212594972Y-143240949D01*
X212576915Y-143233240D01*
X212499878Y-143200541D01*
X212435308Y-143174919D01*
X212427396Y-143172033D01*
X212377764Y-143151160D01*
X212297936Y-143114313D01*
X212204953Y-143069363D01*
X212202500Y-143068151D01*
X212116444Y-143026675D01*
X212049893Y-142996626D01*
X212016020Y-142983923D01*
X212014903Y-142983837D01*
X212001152Y-143007777D01*
X211981396Y-143069121D01*
X211964185Y-143136719D01*
X211939043Y-143232812D01*
X211911913Y-143317285D01*
X211896266Y-143355559D01*
X211879670Y-143418083D01*
X211869551Y-143515948D01*
X211867609Y-143625413D01*
X211868085Y-143730437D01*
X211862748Y-143793849D01*
X211849407Y-143826827D01*
X211825874Y-143840552D01*
X211825469Y-143840659D01*
X211786892Y-143840777D01*
X211779167Y-143830556D01*
X211757415Y-143805568D01*
X211727604Y-143791992D01*
X211678184Y-143756987D01*
X211647910Y-143685727D01*
X211634659Y-143572005D01*
X211633646Y-143517069D01*
X211623130Y-143409188D01*
X211593207Y-143349112D01*
X211546313Y-143336446D01*
X211484887Y-143370797D01*
X211411365Y-143451772D01*
X211336351Y-143565059D01*
X211291439Y-143655748D01*
X211268579Y-143748984D01*
X211261337Y-143857709D01*
X211258630Y-143970454D01*
X211254580Y-144040464D01*
X211247007Y-144077913D01*
X211233730Y-144092976D01*
X211212569Y-144095828D01*
X211210313Y-144095834D01*
X211179036Y-144119097D01*
X211170625Y-144176522D01*
X211158612Y-144261308D01*
X211128003Y-144338115D01*
X211086947Y-144392094D01*
X211043591Y-144408396D01*
X211043418Y-144408364D01*
X210994415Y-144373790D01*
X210949129Y-144292896D01*
X210910224Y-144172270D01*
X210880366Y-144018499D01*
X210877563Y-143998468D01*
X210866229Y-143907846D01*
X210861727Y-143836620D01*
X210865904Y-143770685D01*
X210880607Y-143695933D01*
X210907684Y-143598258D01*
X210946602Y-143471216D01*
X211012330Y-143280647D01*
X211090925Y-143086835D01*
X211177111Y-142900431D01*
X211265609Y-142732086D01*
X211351143Y-142592452D01*
X211428435Y-142492179D01*
X211435164Y-142485081D01*
X211514746Y-142414000D01*
X211598978Y-142364898D01*
X211695649Y-142337139D01*
X211812551Y-142330088D01*
X211957470Y-142343108D01*
X212138198Y-142375563D01*
X212308334Y-142413795D01*
X212535350Y-142459281D01*
X212778272Y-142490354D01*
X213009479Y-142507259D01*
X213175096Y-142517299D01*
X213303897Y-142528995D01*
X213411972Y-142545095D01*
X213515410Y-142568348D01*
X213630301Y-142601502D01*
X213710625Y-142627032D01*
X213864505Y-142676330D01*
X213978540Y-142710377D01*
X214063091Y-142730632D01*
X214128523Y-142738558D01*
X214185198Y-142735613D01*
X214243479Y-142723259D01*
X214293053Y-142709120D01*
X214389930Y-142684937D01*
X214480516Y-142669740D01*
X214518873Y-142667084D01*
X214584643Y-142657348D01*
X214689732Y-142630329D01*
X214824698Y-142589307D01*
X214980103Y-142537562D01*
X215146507Y-142478377D01*
X215314470Y-142415031D01*
X215474554Y-142350806D01*
X215617317Y-142288982D01*
X215649710Y-142274045D01*
X215772215Y-142215700D01*
X215856070Y-142171695D01*
X215910970Y-142134855D01*
X215946610Y-142098002D01*
X215972684Y-142053959D01*
X215986015Y-142025076D01*
X216034417Y-141945719D01*
X216113108Y-141848105D01*
X216209734Y-141745306D01*
X216311939Y-141650395D01*
X216407369Y-141576445D01*
X216414458Y-141571750D01*
X216462098Y-141523539D01*
X216522125Y-141437002D01*
X216587255Y-141322937D01*
X216603403Y-141291542D01*
X216654083Y-141189397D01*
X216685656Y-141116936D01*
X218965352Y-141116936D01*
X218994648Y-141183313D01*
X219054576Y-141227142D01*
X219073356Y-141228761D01*
X219080739Y-141184146D01*
X219081667Y-141130560D01*
X219077340Y-141060993D01*
X219070000Y-141000000D01*
X219001688Y-140984575D01*
X218953969Y-141059245D01*
X218966032Y-141120755D01*
X216685656Y-141116936D01*
X216687752Y-141112127D01*
X216708060Y-141043654D01*
X216718656Y-140967902D01*
X216723191Y-140868793D01*
X216724983Y-140755987D01*
X216721552Y-140528460D01*
X216705873Y-140326320D01*
X216678988Y-140157052D01*
X216641943Y-140028140D01*
X216615906Y-139974307D01*
X216553991Y-139899112D01*
X216464560Y-139838614D01*
X216336912Y-139786278D01*
X216277331Y-139767518D01*
X216140158Y-139713164D01*
X216053276Y-139645994D01*
X216015359Y-139564850D01*
X216013342Y-139536465D01*
X216026129Y-139459379D01*
X216053029Y-139401037D01*
X216086156Y-139328296D01*
X216087082Y-139254401D01*
X216064295Y-139210504D01*
X216055058Y-139175483D01*
X216077525Y-139149056D01*
X216106244Y-139100136D01*
X216118332Y-139029716D01*
X216118334Y-139029063D01*
X216129869Y-138958931D01*
X216157648Y-138910314D01*
X216158021Y-138910000D01*
X216193907Y-138856315D01*
X216182410Y-138790183D01*
X216144792Y-138732012D01*
X216107644Y-138674664D01*
X216091879Y-138630233D01*
X216091875Y-138629779D01*
X216113928Y-138603034D01*
X216173070Y-138560366D01*
X216258773Y-138508940D01*
X216310156Y-138481212D01*
X216415246Y-138423799D01*
X216492666Y-138370638D01*
X216547172Y-138312181D01*
X216583516Y-138238884D01*
X216606452Y-138141198D01*
X216620734Y-138009578D01*
X216630995Y-137836903D01*
X216641728Y-137667160D01*
X216656485Y-137539657D01*
X216678368Y-137443724D01*
X216710483Y-137368693D01*
X216755933Y-137303894D01*
X216799911Y-137256323D01*
X216872396Y-137183480D01*
X217136979Y-137203300D01*
X217292764Y-137215149D01*
X217407608Y-137224881D01*
X217493343Y-137234272D01*
X217561801Y-137245099D01*
X217624815Y-137259138D01*
X217694216Y-137278164D01*
X217755425Y-137296140D01*
X217885628Y-137327830D01*
X218000917Y-137343307D01*
X218059696Y-137343076D01*
X218123954Y-137342292D01*
X218190320Y-137356448D01*
X218273210Y-137390096D01*
X218380612Y-137444375D01*
X218497944Y-137503770D01*
X218618934Y-137560605D01*
X218721254Y-137604481D01*
X218740056Y-137611743D01*
X218871052Y-137673557D01*
X218961680Y-137750538D01*
X219024371Y-137854340D01*
X219039617Y-137892529D01*
X219043704Y-137899113D01*
X219047498Y-137894505D01*
X219051011Y-137876876D01*
X219054254Y-137844398D01*
X219057238Y-137795242D01*
X219059976Y-137727580D01*
X219062477Y-137639585D01*
X219064753Y-137529427D01*
X219066816Y-137395278D01*
X219068677Y-137235310D01*
X219070347Y-137047696D01*
X219071838Y-136830605D01*
X219073160Y-136582211D01*
X219074326Y-136300684D01*
X219075346Y-135984197D01*
X219076231Y-135630921D01*
X219076994Y-135239028D01*
X219077645Y-134806690D01*
X219078196Y-134332078D01*
X219078657Y-133813364D01*
X219079041Y-133248720D01*
X219079358Y-132636317D01*
X219079621Y-131974327D01*
X219079803Y-131392327D01*
X219081667Y-124787467D01*
X219982801Y-123898004D01*
X220163620Y-123719927D01*
X220333147Y-123553742D01*
X220487644Y-123403060D01*
X220623370Y-123271491D01*
X220736588Y-123162645D01*
X220823558Y-123080134D01*
X220880541Y-123027567D01*
X220903797Y-123008556D01*
X220903925Y-123008542D01*
X220929342Y-123028091D01*
G37*
X220929342Y-123028091D02*
X220974321Y-123078636D01*
X221014822Y-123130358D01*
X221068882Y-123194082D01*
X221152175Y-123281850D01*
X221254080Y-123382894D01*
X221363980Y-123486443D01*
X221383542Y-123504291D01*
X221578487Y-123686328D01*
X221733022Y-123843078D01*
X221850378Y-123979180D01*
X221933787Y-124099275D01*
X221986481Y-124208001D01*
X222011690Y-124309997D01*
X222012858Y-124407761D01*
X221976159Y-124548805D01*
X221898645Y-124660555D01*
X221784932Y-124736537D01*
X221775832Y-124740310D01*
X221639149Y-124775475D01*
X221513398Y-124772372D01*
X221406130Y-124735710D01*
X221324896Y-124670200D01*
X221277244Y-124580554D01*
X221270726Y-124471483D01*
X221279304Y-124430512D01*
X221320084Y-124335198D01*
X221378139Y-124287959D01*
X221441617Y-124283125D01*
X221495298Y-124309843D01*
X221510935Y-124360147D01*
X221487765Y-124420072D01*
X221451128Y-124457890D01*
X221395709Y-124524025D01*
X221382956Y-124592798D01*
X221412580Y-124651113D01*
X221456027Y-124677827D01*
X221570406Y-124696762D01*
X221677079Y-124671447D01*
X221768138Y-124610547D01*
X221835673Y-124522728D01*
X221871773Y-124416656D01*
X221868530Y-124300997D01*
X221850915Y-124245189D01*
X221783648Y-124142359D01*
X221681515Y-124076606D01*
X221555962Y-124047005D01*
X221381084Y-124050344D01*
X221221778Y-124097104D01*
X221085074Y-124181425D01*
X220978005Y-124297450D01*
X220907602Y-124439318D01*
X220880896Y-124601171D01*
X220880834Y-124609578D01*
X220888039Y-124719306D01*
X220912415Y-124821840D01*
X220958103Y-124922936D01*
X221029243Y-125028348D01*
X221129975Y-125143830D01*
X221264440Y-125275137D01*
X221436779Y-125428024D01*
X221521666Y-125500237D01*
X221688593Y-125646035D01*
X221815410Y-125769571D01*
X221906766Y-125876815D01*
X221967307Y-125973736D01*
X222001682Y-126066302D01*
X222012566Y-126130658D01*
X222005495Y-126266052D01*
X221953361Y-126381524D01*
X221852446Y-126484976D01*
X221842035Y-126493060D01*
X221772156Y-126538334D01*
X221701440Y-126560632D01*
X221605599Y-126567129D01*
X221591162Y-126567188D01*
X221498422Y-126563793D01*
X221437204Y-126548667D01*
X221386289Y-126514397D01*
X221354946Y-126484658D01*
X221295420Y-126409295D01*
X221273375Y-126331129D01*
X221272417Y-126305458D01*
X221288052Y-126200178D01*
X221330556Y-126123561D01*
X221393332Y-126084846D01*
X221431501Y-126082726D01*
X221491939Y-126107870D01*
X221512135Y-126156500D01*
X221490687Y-126216165D01*
X221451128Y-126257057D01*
X221395691Y-126323765D01*
X221390133Y-126391881D01*
X221434557Y-126452988D01*
X221448612Y-126463083D01*
X221538236Y-126493474D01*
X221634946Y-126481264D01*
X221728421Y-126433824D01*
X221808340Y-126358525D01*
X221864384Y-126262737D01*
X221886231Y-126153833D01*
X221886250Y-126150519D01*
X221864626Y-126055758D01*
X221809091Y-125961556D01*
X221733645Y-125890930D01*
X221725255Y-125885886D01*
X221627846Y-125852450D01*
X221502292Y-125838926D01*
X221369406Y-125845148D01*
X221250002Y-125870946D01*
X221203894Y-125890077D01*
X221059567Y-125991389D01*
X220955780Y-126121548D01*
X220895071Y-126272575D01*
X220879978Y-126436492D01*
X220913038Y-126605322D01*
X220949205Y-126690643D01*
X221042002Y-126836664D01*
X221171755Y-126988510D01*
X221326189Y-127132607D01*
X221405178Y-127194813D01*
X221542415Y-127303694D01*
X221675134Y-127421887D01*
X221793980Y-127539998D01*
X221889598Y-127648630D01*
X221952632Y-127738388D01*
X221959784Y-127751791D01*
X222008325Y-127897980D01*
X222009076Y-128035562D01*
X221966521Y-128157148D01*
X221885141Y-128255350D01*
X221769420Y-128322779D01*
X221623839Y-128352047D01*
X221595209Y-128352694D01*
X221464865Y-128337577D01*
X221370781Y-128289971D01*
X221304177Y-128205167D01*
X221298106Y-128193271D01*
X221268727Y-128112954D01*
X221270862Y-128037405D01*
X221279420Y-128001969D01*
X221318372Y-127919461D01*
X221374485Y-127867229D01*
X221436215Y-127850020D01*
X221492020Y-127872580D01*
X221516456Y-127904496D01*
X221529027Y-127945380D01*
X221511740Y-127985021D01*
X221464470Y-128034174D01*
X221401951Y-128113703D01*
X221388342Y-128183073D01*
X221419767Y-128235819D01*
X221492350Y-128265477D01*
X221602214Y-128265582D01*
X221603167Y-128265455D01*
X221720798Y-128225927D01*
X221809648Y-128149307D01*
X221863832Y-128046212D01*
X221877468Y-127927255D01*
X221851240Y-127817842D01*
X221788584Y-127723994D01*
X221691121Y-127663886D01*
X221555037Y-127635630D01*
X221477679Y-127632810D01*
X221342935Y-127640518D01*
X221239431Y-127667124D01*
X221146797Y-127719842D01*
X221080652Y-127773379D01*
X220965983Y-127902981D01*
X220900310Y-128049746D01*
X220880834Y-128207604D01*
X220891864Y-128330329D01*
X220927711Y-128447819D01*
X220992508Y-128566069D01*
X221090386Y-128691075D01*
X221225478Y-128828834D01*
X221401916Y-128985341D01*
X221437412Y-129015155D01*
X221632595Y-129183659D01*
X221785084Y-129329362D01*
X221897532Y-129456735D01*
X221972592Y-129570249D01*
X222012918Y-129674373D01*
X222021163Y-129773580D01*
X221999980Y-129872340D01*
X221977848Y-129925781D01*
X221905350Y-130028942D01*
X221806674Y-130102545D01*
X221692561Y-130145715D01*
X221573751Y-130157579D01*
X221460985Y-130137262D01*
X221365005Y-130083891D01*
X221296551Y-129996591D01*
X221289841Y-129981768D01*
X221268610Y-129885577D01*
X221279837Y-129793810D01*
X221317307Y-129717842D01*
X221374806Y-129669049D01*
X221446118Y-129658806D01*
X221463916Y-129663130D01*
X221507094Y-129697998D01*
X221510101Y-129754343D01*
X221473862Y-129820302D01*
X221449688Y-129845704D01*
X221395997Y-129917356D01*
X221387728Y-129984422D01*
X221424975Y-130037400D01*
X221447663Y-130050350D01*
X221543950Y-130067582D01*
X221649542Y-130045416D01*
X221749789Y-129991637D01*
X221830044Y-129914032D01*
X221874975Y-129823195D01*
X221879329Y-129749537D01*
X221866434Y-129662459D01*
X221862598Y-129648515D01*
X221804234Y-129539112D01*
X221705637Y-129463119D01*
X221568558Y-129421736D01*
X221524188Y-129416569D01*
X221350002Y-129426336D01*
X221193614Y-129481491D01*
X221061789Y-129575833D01*
X220961291Y-129703157D01*
X220898883Y-129857261D01*
X220880833Y-130006597D01*
X220888119Y-130110375D01*
X220912659Y-130208598D01*
X220958475Y-130306634D01*
X221029590Y-130409847D01*
X221130027Y-130523606D01*
X221263810Y-130653276D01*
X221434961Y-130804224D01*
X221553853Y-130904402D01*
X221718325Y-131047058D01*
X221841739Y-131168784D01*
X221928416Y-131275867D01*
X221982680Y-131374591D01*
X222008856Y-131471242D01*
X222011447Y-131569657D01*
X221979110Y-131714289D01*
X221907146Y-131824769D01*
X221798233Y-131898740D01*
X221655043Y-131933844D01*
X221595209Y-131936513D01*
X221453373Y-131919346D01*
X221351216Y-131867841D01*
X221287652Y-131781401D01*
X221280707Y-131763479D01*
X221270002Y-131668531D01*
X221292559Y-131568314D01*
X221341630Y-131485163D01*
X221373127Y-131457536D01*
X221418948Y-131435890D01*
X221459826Y-131448008D01*
X221490951Y-131471164D01*
X221553044Y-131521444D01*
X221468293Y-131606195D01*
X221402504Y-131691158D01*
X221385487Y-131761707D01*
X221415735Y-131813362D01*
X221491740Y-131841643D01*
X221548897Y-131845625D01*
X221681717Y-131824068D01*
X221783782Y-131760157D01*
X221845891Y-131671325D01*
X221879190Y-131545867D01*
X221860881Y-131425156D01*
X221792216Y-131316399D01*
X221782491Y-131306321D01*
X221684910Y-131243483D01*
X221559214Y-131212423D01*
X221418962Y-131212304D01*
X221277712Y-131242291D01*
X221149022Y-131301550D01*
X221085162Y-131349289D01*
X220968316Y-131481199D01*
X220901187Y-131624914D01*
X220880834Y-131778091D01*
X220889554Y-131888485D01*
X220918244Y-131994987D01*
X220970698Y-132102690D01*
X221050709Y-132216687D01*
X221162071Y-132342069D01*
X221308577Y-132483930D01*
X221494021Y-132647362D01*
X221586533Y-132725417D01*
X221692609Y-132818621D01*
X221792108Y-132914192D01*
X221872525Y-132999665D01*
X221914955Y-133052745D01*
X221989049Y-133197120D01*
X222015301Y-133338373D01*
X221995989Y-133469383D01*
X221933389Y-133583029D01*
X221829778Y-133672188D01*
X221699479Y-133726659D01*
X221569819Y-133745588D01*
X221462129Y-133722615D01*
X221362380Y-133654626D01*
X221358276Y-133650851D01*
X221303693Y-133589310D01*
X221278082Y-133523184D01*
X221273857Y-133430806D01*
X221274662Y-133412079D01*
X221297094Y-133343935D01*
X221347081Y-133282802D01*
X221408683Y-133243708D01*
X221458170Y-133239009D01*
X221514841Y-133270669D01*
X221523335Y-133321490D01*
X221483572Y-133388571D01*
X221462881Y-133410773D01*
X221399611Y-133494083D01*
X221385700Y-133563605D01*
X221419310Y-133614415D01*
X221498607Y-133641587D01*
X221550116Y-133644792D01*
X221676499Y-133623434D01*
X221774631Y-133565999D01*
X221842283Y-133482445D01*
X221877223Y-133382732D01*
X221877220Y-133276819D01*
X221840044Y-133174663D01*
X221763464Y-133086223D01*
X221686000Y-133038177D01*
X221572941Y-132996479D01*
X221467008Y-132987002D01*
X221348931Y-133009654D01*
X221270724Y-133036186D01*
X221111398Y-133120585D01*
X220991769Y-133235897D01*
X220914216Y-133375515D01*
X220881120Y-133532836D01*
X220894859Y-133701253D01*
X220957815Y-133874160D01*
X220964336Y-133886655D01*
X221049267Y-134014101D01*
X221173205Y-134155795D01*
X221327546Y-134302890D01*
X221503687Y-134446541D01*
X221522809Y-134460851D01*
X221637734Y-134554648D01*
X221751460Y-134662232D01*
X221853517Y-134772323D01*
X221933432Y-134873645D01*
X221980087Y-134953350D01*
X222014355Y-135089906D01*
X222007534Y-135224673D01*
X221966789Y-135330073D01*
X221896498Y-135417982D01*
X221802331Y-135480686D01*
X221685174Y-135524045D01*
X221567831Y-135535954D01*
X221457218Y-135508192D01*
X221363367Y-135448547D01*
X221296310Y-135364810D01*
X221266079Y-135264770D01*
X221269566Y-135201324D01*
X221301439Y-135117651D01*
X221353674Y-135057655D01*
X221414850Y-135027200D01*
X221473545Y-135032149D01*
X221516405Y-135074610D01*
X221528989Y-135115458D01*
X221511033Y-135154044D01*
X221464420Y-135199565D01*
X221402392Y-135273750D01*
X221385226Y-135343045D01*
X221413531Y-135399357D01*
X221447663Y-135421392D01*
X221546143Y-135439557D01*
X221652679Y-135417454D01*
X221752895Y-135362745D01*
X221832418Y-135283088D01*
X221875136Y-135193598D01*
X221878342Y-135093422D01*
X221848514Y-134987022D01*
X221793778Y-134897468D01*
X221759909Y-134866430D01*
X221632220Y-134806561D01*
X221488444Y-134789121D01*
X221339082Y-134810786D01*
X221194634Y-134868231D01*
X221065601Y-134958133D01*
X220962484Y-135077167D01*
X220932838Y-135128247D01*
X220881755Y-135283571D01*
X220882409Y-135446665D01*
X220934335Y-135616637D01*
X221037067Y-135792592D01*
X221190138Y-135973638D01*
X221393085Y-136158882D01*
X221522809Y-136260018D01*
X221637734Y-136353815D01*
X221751460Y-136461398D01*
X221853517Y-136571490D01*
X221933432Y-136672812D01*
X221980087Y-136752516D01*
X222014355Y-136889073D01*
X222007534Y-137023840D01*
X221966789Y-137129240D01*
X221896498Y-137217148D01*
X221802331Y-137279852D01*
X221685174Y-137323211D01*
X221567831Y-137335121D01*
X221457218Y-137307359D01*
X221363367Y-137247714D01*
X221296310Y-137163976D01*
X221266079Y-137063937D01*
X221269566Y-137000490D01*
X221301439Y-136916817D01*
X221353674Y-136856822D01*
X221414850Y-136826367D01*
X221473545Y-136831315D01*
X221516405Y-136873777D01*
X221528989Y-136914625D01*
X221511033Y-136953211D01*
X221464420Y-136998731D01*
X221402392Y-137072916D01*
X221385226Y-137142212D01*
X221413531Y-137198523D01*
X221447663Y-137220558D01*
X221546143Y-137238724D01*
X221652679Y-137216621D01*
X221752895Y-137161911D01*
X221832418Y-137082254D01*
X221875136Y-136992764D01*
X221878342Y-136892589D01*
X221848514Y-136786189D01*
X221793778Y-136696635D01*
X221759909Y-136665597D01*
X221632220Y-136605728D01*
X221488444Y-136588288D01*
X221339082Y-136609952D01*
X221194634Y-136667398D01*
X221065601Y-136757299D01*
X220962484Y-136876334D01*
X220932838Y-136927414D01*
X220881755Y-137082738D01*
X220882409Y-137245832D01*
X220934335Y-137415803D01*
X221037067Y-137591759D01*
X221190138Y-137772805D01*
X221393085Y-137958049D01*
X221522809Y-138059184D01*
X221637734Y-138152982D01*
X221751460Y-138260565D01*
X221853517Y-138370656D01*
X221933432Y-138471978D01*
X221980087Y-138551683D01*
X222014355Y-138688239D01*
X222007534Y-138823007D01*
X221966789Y-138928406D01*
X221896498Y-139016315D01*
X221802331Y-139079019D01*
X221685174Y-139122378D01*
X221567831Y-139134288D01*
X221457218Y-139106525D01*
X221363367Y-139046880D01*
X221296310Y-138963143D01*
X221266079Y-138863103D01*
X221269566Y-138799657D01*
X221301439Y-138715984D01*
X221353674Y-138655988D01*
X221414850Y-138625533D01*
X221473545Y-138630482D01*
X221516405Y-138672944D01*
X221528989Y-138713792D01*
X221511033Y-138752377D01*
X221464420Y-138797898D01*
X221402392Y-138872083D01*
X221385226Y-138941378D01*
X221413531Y-138997690D01*
X221447663Y-139019725D01*
X221546143Y-139037890D01*
X221652679Y-139015788D01*
X221752895Y-138961078D01*
X221832418Y-138881421D01*
X221875136Y-138791931D01*
X221878342Y-138691756D01*
X221848514Y-138585355D01*
X221793778Y-138495802D01*
X221759909Y-138464764D01*
X221632220Y-138404895D01*
X221488444Y-138387455D01*
X221339082Y-138409119D01*
X221194634Y-138466564D01*
X221065601Y-138556466D01*
X220962484Y-138675500D01*
X220932838Y-138726581D01*
X220881755Y-138881904D01*
X220882409Y-139044999D01*
X220934335Y-139214970D01*
X221037067Y-139390926D01*
X221190138Y-139571972D01*
X221393085Y-139757216D01*
X221522809Y-139858351D01*
X221637734Y-139952148D01*
X221751460Y-140059732D01*
X221853517Y-140169823D01*
X221933432Y-140271145D01*
X221980087Y-140350850D01*
X222014355Y-140487406D01*
X222007534Y-140622173D01*
X221966789Y-140727573D01*
X221896498Y-140815482D01*
X221802331Y-140878186D01*
X221685174Y-140921545D01*
X221567831Y-140933454D01*
X221457218Y-140905692D01*
X221363367Y-140846047D01*
X221296310Y-140762310D01*
X221266079Y-140662270D01*
X221269566Y-140598824D01*
X221301439Y-140515151D01*
X221353674Y-140455155D01*
X221414850Y-140424700D01*
X221473545Y-140429649D01*
X221516405Y-140472110D01*
X221528989Y-140512958D01*
X221511033Y-140551544D01*
X221464420Y-140597065D01*
X221402392Y-140671250D01*
X221385226Y-140740545D01*
X221413531Y-140796857D01*
X221447663Y-140818892D01*
X221546143Y-140837057D01*
X221652679Y-140814954D01*
X221752895Y-140760245D01*
X221832418Y-140680588D01*
X221875136Y-140591098D01*
X221878342Y-140490922D01*
X221848514Y-140384522D01*
X221793778Y-140294968D01*
X221759909Y-140263930D01*
X221632220Y-140204061D01*
X221488444Y-140186621D01*
X221339082Y-140208286D01*
X221194634Y-140265731D01*
X221065601Y-140355633D01*
X220962484Y-140474667D01*
X220932838Y-140525747D01*
X220881755Y-140681071D01*
X220882409Y-140844165D01*
X220934335Y-141014137D01*
X221037067Y-141190092D01*
X221190138Y-141371138D01*
X221393085Y-141556382D01*
X221522809Y-141657518D01*
X221637734Y-141751315D01*
X221751460Y-141858898D01*
X221853517Y-141968990D01*
X221933432Y-142070312D01*
X221980087Y-142150016D01*
X222014355Y-142286573D01*
X222007534Y-142421340D01*
X221966789Y-142526740D01*
X221896498Y-142614648D01*
X221802331Y-142677352D01*
X221685174Y-142720711D01*
X221567831Y-142732621D01*
X221457218Y-142704859D01*
X221363367Y-142645214D01*
X221296310Y-142561476D01*
X221266079Y-142461437D01*
X221269566Y-142397990D01*
X221301439Y-142314317D01*
X221353674Y-142254322D01*
X221414850Y-142223867D01*
X221473545Y-142228815D01*
X221516405Y-142271277D01*
X221528989Y-142312125D01*
X221511033Y-142350711D01*
X221464420Y-142396231D01*
X221402392Y-142470416D01*
X221385226Y-142539712D01*
X221413531Y-142596023D01*
X221447663Y-142618058D01*
X221546143Y-142636224D01*
X221652679Y-142614121D01*
X221752895Y-142559411D01*
X221832418Y-142479754D01*
X221875136Y-142390264D01*
X221878342Y-142290089D01*
X221848514Y-142183689D01*
X221793778Y-142094135D01*
X221759909Y-142063097D01*
X221632220Y-142003228D01*
X221488444Y-141985788D01*
X221339082Y-142007452D01*
X221194634Y-142064898D01*
X221065601Y-142154799D01*
X220962484Y-142273834D01*
X220932838Y-142324914D01*
X220881755Y-142480238D01*
X220882409Y-142643332D01*
X220934335Y-142813303D01*
X221037067Y-142989259D01*
X221190138Y-143170305D01*
X221393085Y-143355549D01*
X221522809Y-143456684D01*
X221637734Y-143550482D01*
X221751460Y-143658065D01*
X221853517Y-143768156D01*
X221933432Y-143869478D01*
X221980087Y-143949183D01*
X222014355Y-144085739D01*
X222007534Y-144220507D01*
X221966789Y-144325906D01*
X221896498Y-144413815D01*
X221802331Y-144476519D01*
X221685174Y-144519878D01*
X221567831Y-144531788D01*
X221457218Y-144504025D01*
X221363367Y-144444380D01*
X221296310Y-144360643D01*
X221266079Y-144260603D01*
X221269566Y-144197157D01*
X221301439Y-144113484D01*
X221353674Y-144053488D01*
X221414850Y-144023033D01*
X221473545Y-144027982D01*
X221516405Y-144070444D01*
X221528989Y-144111292D01*
X221511033Y-144149877D01*
X221464420Y-144195398D01*
X221402392Y-144269583D01*
X221385226Y-144338878D01*
X221413531Y-144395190D01*
X221447663Y-144417225D01*
X221546143Y-144435390D01*
X221652679Y-144413288D01*
X221752895Y-144358578D01*
X221832418Y-144278921D01*
X221875136Y-144189431D01*
X221878342Y-144089256D01*
X221848514Y-143982855D01*
X221793778Y-143893302D01*
X221759909Y-143862264D01*
X221635407Y-143804628D01*
X221490439Y-143786120D01*
X221338609Y-143805383D01*
X221193525Y-143861057D01*
X221093921Y-143928776D01*
X220971849Y-144062953D01*
X220899785Y-144211835D01*
X220877830Y-144372536D01*
X220906083Y-144542174D01*
X220984645Y-144717863D01*
X221062487Y-144833614D01*
X221107144Y-144882715D01*
X221183380Y-144956602D01*
X221281811Y-145046561D01*
X221393052Y-145143880D01*
X221435701Y-145180112D01*
X221615728Y-145334866D01*
X221756666Y-145464208D01*
X221862504Y-145573452D01*
X221937234Y-145667914D01*
X221984846Y-145752910D01*
X222009330Y-145833757D01*
X222014677Y-145915770D01*
X222012508Y-145948492D01*
X221980333Y-146073106D01*
X221915153Y-146183275D01*
X221827423Y-146263981D01*
X221774880Y-146289841D01*
X221636167Y-146318986D01*
X221509391Y-146310562D01*
X221402085Y-146269466D01*
X221321776Y-146200595D01*
X221275997Y-146108844D01*
X221272276Y-145999110D01*
X221279304Y-145967595D01*
X221320084Y-145872282D01*
X221378139Y-145825042D01*
X221441617Y-145820209D01*
X221494647Y-145848189D01*
X221515279Y-145900282D01*
X221502529Y-145958024D01*
X221455419Y-146002947D01*
X221451424Y-146004857D01*
X221396799Y-146049202D01*
X221383542Y-146108083D01*
X221393710Y-146163248D01*
X221430552Y-146195565D01*
X221503571Y-146210133D01*
X221578256Y-146212500D01*
X221699763Y-146189914D01*
X221794703Y-146128776D01*
X221857716Y-146039015D01*
X221883441Y-145930561D01*
X221866518Y-145813342D01*
X221832655Y-145741273D01*
X221749747Y-145652730D01*
X221636604Y-145598439D01*
X221503325Y-145578395D01*
X221360011Y-145592597D01*
X221216761Y-145641042D01*
X221083675Y-145723727D01*
X221062463Y-145741472D01*
X220969669Y-145854079D01*
X220906406Y-145996005D01*
X220880984Y-146148092D01*
X220880833Y-146160168D01*
X220889493Y-146265386D01*
X220917910Y-146368092D01*
X220969745Y-146473041D01*
X221048655Y-146584992D01*
X221158299Y-146708700D01*
X221302336Y-146848923D01*
X221484425Y-147010416D01*
X221628161Y-147131742D01*
X221785951Y-147273266D01*
X221899073Y-147400120D01*
X221971462Y-147518563D01*
X222007052Y-147634853D01*
X222011035Y-147740672D01*
X221986315Y-147863284D01*
X221927252Y-147959066D01*
X221826047Y-148038796D01*
X221774856Y-148067158D01*
X221637789Y-148112029D01*
X221502004Y-148104264D01*
X221419699Y-148074364D01*
X221328950Y-148012196D01*
X221282466Y-147927585D01*
X221272417Y-147839688D01*
X221292387Y-147723681D01*
X221349758Y-147638973D01*
X221387372Y-147612742D01*
X221436263Y-147598126D01*
X221480580Y-147621553D01*
X221496556Y-147636672D01*
X221550207Y-147690322D01*
X221465483Y-147775046D01*
X221403726Y-147856824D01*
X221392771Y-147926920D01*
X221432590Y-147983981D01*
X221470283Y-148006608D01*
X221542241Y-148027916D01*
X221620054Y-148016385D01*
X221633325Y-148012185D01*
X221753112Y-147949522D01*
X221834093Y-147859618D01*
X221874252Y-147752455D01*
X221871572Y-147638016D01*
X221824033Y-147526285D01*
X221748497Y-147442277D01*
X221690569Y-147402744D01*
X221624801Y-147382832D01*
X221530406Y-147376745D01*
X221513107Y-147376667D01*
X221422125Y-147379234D01*
X221361190Y-147393121D01*
X221308046Y-147427602D01*
X221243268Y-147489115D01*
X221173232Y-147571900D01*
X221112634Y-147673969D01*
X221057827Y-147803847D01*
X221005166Y-147970063D01*
X220955585Y-148161963D01*
X220936481Y-148250323D01*
X220921312Y-148343770D01*
X220909350Y-148451133D01*
X220899865Y-148581239D01*
X220892127Y-148742915D01*
X220885406Y-148944991D01*
X220882724Y-149043542D01*
X220865901Y-149691771D01*
X220779853Y-149893078D01*
X220634373Y-150182365D01*
X220462584Y-150427429D01*
X220260548Y-150632000D01*
X220024327Y-150799809D01*
X219749984Y-150934588D01*
X219634956Y-150977907D01*
X219573320Y-150997623D01*
X219509544Y-151013051D01*
X219435212Y-151025027D01*
X219341906Y-151034391D01*
X219221209Y-151041981D01*
X219064703Y-151048635D01*
X218863970Y-151055191D01*
X218856771Y-151055407D01*
X218635748Y-151063018D01*
X218458412Y-151071654D01*
X218315535Y-151082127D01*
X218197888Y-151095248D01*
X218096241Y-151111829D01*
X218014879Y-151129402D01*
X217807426Y-151183211D01*
X217644167Y-151235996D01*
X217516583Y-151291395D01*
X217416157Y-151353046D01*
X217342031Y-151416809D01*
X217278873Y-151483548D01*
X217245263Y-151536590D01*
X217231926Y-151598195D01*
X217229584Y-151686649D01*
X217234146Y-151786920D01*
X217251694Y-151855551D01*
X217288022Y-151913327D01*
X217295194Y-151922038D01*
X217397015Y-152008585D01*
X217509880Y-152048589D01*
X217623806Y-152044069D01*
X217728811Y-151997041D01*
X217814912Y-151909523D01*
X217865102Y-151806867D01*
X217881170Y-151725651D01*
X217864555Y-151654809D01*
X217859525Y-151643825D01*
X217809290Y-151579331D01*
X217745361Y-151565598D01*
X217669094Y-151602654D01*
X217627963Y-151639025D01*
X217543239Y-151723748D01*
X217489589Y-151670098D01*
X217453791Y-151622345D01*
X217457657Y-151577412D01*
X217465659Y-151560913D01*
X217533565Y-151487726D01*
X217636208Y-151450198D01*
X217692604Y-151445959D01*
X217802241Y-151463034D01*
X217880781Y-151518942D01*
X217927281Y-151593240D01*
X217966597Y-151729914D01*
X217953321Y-151865798D01*
X217920075Y-151948398D01*
X217843621Y-152067681D01*
X217755216Y-152141858D01*
X217644082Y-152178724D01*
X217593589Y-152184577D01*
X217474003Y-152178190D01*
X217357785Y-152138476D01*
X217238677Y-152061502D01*
X217110422Y-151943331D01*
X216984658Y-151801703D01*
X216806413Y-151592324D01*
X216652596Y-151423426D01*
X216518452Y-151291351D01*
X216399224Y-151192440D01*
X216290156Y-151123035D01*
X216186491Y-151079475D01*
X216083471Y-151058103D01*
X216013085Y-151054375D01*
X215861012Y-151076399D01*
X215717563Y-151136931D01*
X215601895Y-151227660D01*
X215594389Y-151236005D01*
X215505791Y-151366313D01*
X215451434Y-151508529D01*
X215431318Y-151652554D01*
X215445448Y-151788287D01*
X215493825Y-151905628D01*
X215576453Y-151994479D01*
X215594189Y-152006197D01*
X215712135Y-152050416D01*
X215832802Y-152047966D01*
X215943068Y-152001423D01*
X216024123Y-151921764D01*
X216050658Y-151853831D01*
X216064240Y-151759037D01*
X216062924Y-151662283D01*
X216049357Y-151598935D01*
X216011891Y-151561848D01*
X215953956Y-151556591D01*
X215895207Y-151580491D01*
X215857773Y-151624965D01*
X215814225Y-151674197D01*
X215756736Y-151689008D01*
X215703772Y-151670379D01*
X215673798Y-151619291D01*
X215673125Y-151615158D01*
X215682782Y-151540338D01*
X215738070Y-151485482D01*
X215820512Y-151452846D01*
X215934195Y-151444142D01*
X216031195Y-151479496D01*
X216106614Y-151551376D01*
X216155558Y-151652253D01*
X216173128Y-151774596D01*
X216154428Y-151910876D01*
X216142757Y-151948422D01*
X216083971Y-152043919D01*
X215987690Y-152122459D01*
X215868932Y-152173584D01*
X215801409Y-152186049D01*
X215717550Y-152186954D01*
X215636885Y-152170245D01*
X215554100Y-152131931D01*
X215463878Y-152068022D01*
X215360903Y-151974528D01*
X215239859Y-151847458D01*
X215095432Y-151682821D01*
X215033028Y-151609243D01*
X214902224Y-151457310D01*
X214794565Y-151341097D01*
X214702114Y-151253502D01*
X214616934Y-151187419D01*
X214531087Y-151135745D01*
X214471470Y-151106654D01*
X214316684Y-151062149D01*
X214154685Y-151060104D01*
X213998892Y-151097953D01*
X213862726Y-151173129D01*
X213795222Y-151236005D01*
X213706625Y-151366313D01*
X213652267Y-151508529D01*
X213632152Y-151652554D01*
X213646281Y-151788287D01*
X213694659Y-151905628D01*
X213777286Y-151994479D01*
X213795023Y-152006197D01*
X213912968Y-152050416D01*
X214033635Y-152047966D01*
X214143901Y-152001423D01*
X214224957Y-151921764D01*
X214251491Y-151853831D01*
X214265074Y-151759037D01*
X214263757Y-151662283D01*
X214250190Y-151598935D01*
X214212724Y-151561848D01*
X214154789Y-151556591D01*
X214096040Y-151580491D01*
X214058607Y-151624965D01*
X214015059Y-151674197D01*
X213957570Y-151689008D01*
X213904605Y-151670379D01*
X213874631Y-151619291D01*
X213873959Y-151615158D01*
X213883616Y-151540338D01*
X213938904Y-151485482D01*
X214021345Y-151452846D01*
X214135028Y-151444142D01*
X214232028Y-151479496D01*
X214307448Y-151551376D01*
X214356391Y-151652253D01*
X214373961Y-151774596D01*
X214355262Y-151910876D01*
X214343591Y-151948422D01*
X214284805Y-152043919D01*
X214188523Y-152122459D01*
X214069765Y-152173584D01*
X214002242Y-152186049D01*
X213918383Y-152186954D01*
X213837718Y-152170245D01*
X213754933Y-152131931D01*
X213664711Y-152068022D01*
X213561736Y-151974528D01*
X213440693Y-151847458D01*
X213296265Y-151682821D01*
X213233862Y-151609243D01*
X213103057Y-151457310D01*
X212995398Y-151341097D01*
X212902948Y-151253502D01*
X212817768Y-151187419D01*
X212731920Y-151135745D01*
X212672303Y-151106654D01*
X212517517Y-151062149D01*
X212355518Y-151060104D01*
X212199725Y-151097953D01*
X212063560Y-151173129D01*
X211996056Y-151236005D01*
X211907458Y-151366313D01*
X211853100Y-151508529D01*
X211832985Y-151652554D01*
X211847115Y-151788287D01*
X211895492Y-151905628D01*
X211978119Y-151994479D01*
X211995856Y-152006197D01*
X212113802Y-152050416D01*
X212234469Y-152047966D01*
X212344734Y-152001423D01*
X212425790Y-151921764D01*
X212452325Y-151853831D01*
X212465907Y-151759037D01*
X212464590Y-151662283D01*
X212451024Y-151598935D01*
X212413557Y-151561848D01*
X212355622Y-151556591D01*
X212296874Y-151580491D01*
X212259440Y-151624965D01*
X212215892Y-151674197D01*
X212158403Y-151689008D01*
X212105438Y-151670379D01*
X212075464Y-151619291D01*
X212074792Y-151615158D01*
X212084449Y-151540338D01*
X212139737Y-151485482D01*
X212222178Y-151452846D01*
X212335862Y-151444142D01*
X212432861Y-151479496D01*
X212508281Y-151551376D01*
X212557224Y-151652253D01*
X212574794Y-151774596D01*
X212556095Y-151910876D01*
X212544424Y-151948422D01*
X212485638Y-152043919D01*
X212389356Y-152122459D01*
X212270599Y-152173584D01*
X212203076Y-152186049D01*
X212119216Y-152186954D01*
X212038552Y-152170245D01*
X211955766Y-152131931D01*
X211865544Y-152068022D01*
X211762569Y-151974528D01*
X211641526Y-151847458D01*
X211497098Y-151682821D01*
X211434695Y-151609243D01*
X211303890Y-151457310D01*
X211196232Y-151341097D01*
X211103781Y-151253502D01*
X211018601Y-151187419D01*
X210932754Y-151135745D01*
X210873137Y-151106654D01*
X210718350Y-151062149D01*
X210556351Y-151060104D01*
X210400559Y-151097953D01*
X210264393Y-151173129D01*
X210196889Y-151236005D01*
X210108291Y-151366313D01*
X210053934Y-151508529D01*
X210033818Y-151652554D01*
X210047948Y-151788287D01*
X210096325Y-151905628D01*
X210178953Y-151994479D01*
X210196689Y-152006197D01*
X210314635Y-152050416D01*
X210435302Y-152047966D01*
X210545568Y-152001423D01*
X210626623Y-151921764D01*
X210653158Y-151853831D01*
X210666740Y-151759037D01*
X210665424Y-151662283D01*
X210651857Y-151598935D01*
X210614391Y-151561848D01*
X210556456Y-151556591D01*
X210497707Y-151580491D01*
X210460273Y-151624965D01*
X210416725Y-151674197D01*
X210359236Y-151689008D01*
X210306272Y-151670379D01*
X210276298Y-151619291D01*
X210275625Y-151615158D01*
X210285282Y-151540338D01*
X210340570Y-151485482D01*
X210423012Y-151452846D01*
X210536695Y-151444142D01*
X210633695Y-151479496D01*
X210709114Y-151551376D01*
X210758058Y-151652253D01*
X210775628Y-151774596D01*
X210756928Y-151910876D01*
X210745257Y-151948422D01*
X210686471Y-152043919D01*
X210590190Y-152122459D01*
X210471432Y-152173584D01*
X210403909Y-152186049D01*
X210320050Y-152186954D01*
X210239385Y-152170245D01*
X210156600Y-152131931D01*
X210066378Y-152068022D01*
X209963403Y-151974528D01*
X209842359Y-151847458D01*
X209697932Y-151682821D01*
X209635528Y-151609243D01*
X209504724Y-151457310D01*
X209397065Y-151341097D01*
X209304614Y-151253502D01*
X209219434Y-151187419D01*
X209133587Y-151135745D01*
X209073970Y-151106654D01*
X208919184Y-151062149D01*
X208757185Y-151060104D01*
X208601392Y-151097953D01*
X208465226Y-151173129D01*
X208397722Y-151236005D01*
X208309125Y-151366313D01*
X208254767Y-151508529D01*
X208234652Y-151652554D01*
X208248781Y-151788287D01*
X208297159Y-151905628D01*
X208379786Y-151994479D01*
X208397523Y-152006197D01*
X208515468Y-152050416D01*
X208636135Y-152047966D01*
X208746401Y-152001423D01*
X208827457Y-151921764D01*
X208853991Y-151853831D01*
X208867574Y-151759037D01*
X208866257Y-151662283D01*
X208852690Y-151598935D01*
X208815224Y-151561848D01*
X208757289Y-151556591D01*
X208698540Y-151580491D01*
X208661107Y-151624965D01*
X208617559Y-151674197D01*
X208560070Y-151689008D01*
X208507105Y-151670379D01*
X208477131Y-151619291D01*
X208476459Y-151615158D01*
X208486116Y-151540338D01*
X208541404Y-151485482D01*
X208623845Y-151452846D01*
X208737528Y-151444142D01*
X208834528Y-151479496D01*
X208909948Y-151551376D01*
X208958891Y-151652253D01*
X208976461Y-151774596D01*
X208957762Y-151910876D01*
X208946091Y-151948422D01*
X208887305Y-152043919D01*
X208791023Y-152122459D01*
X208672265Y-152173584D01*
X208604742Y-152186049D01*
X208520883Y-152186954D01*
X208440218Y-152170245D01*
X208357433Y-152131931D01*
X208267211Y-152068022D01*
X208164236Y-151974528D01*
X208043193Y-151847458D01*
X207898765Y-151682821D01*
X207836362Y-151609243D01*
X207705557Y-151457310D01*
X207597898Y-151341097D01*
X207505448Y-151253502D01*
X207420268Y-151187419D01*
X207334420Y-151135745D01*
X207274803Y-151106654D01*
X207120017Y-151062149D01*
X206958018Y-151060104D01*
X206802225Y-151097953D01*
X206666060Y-151173129D01*
X206598556Y-151236005D01*
X206509958Y-151366313D01*
X206455600Y-151508529D01*
X206435485Y-151652554D01*
X206449615Y-151788287D01*
X206497992Y-151905628D01*
X206580619Y-151994479D01*
X206598356Y-152006197D01*
X206716302Y-152050416D01*
X206836969Y-152047966D01*
X206947234Y-152001423D01*
X207028290Y-151921764D01*
X207054825Y-151853831D01*
X207068407Y-151759037D01*
X207067090Y-151662283D01*
X207053524Y-151598935D01*
X207016057Y-151561848D01*
X206958122Y-151556591D01*
X206899374Y-151580491D01*
X206861940Y-151624965D01*
X206818392Y-151674197D01*
X206760903Y-151689008D01*
X206707938Y-151670379D01*
X206677964Y-151619291D01*
X206677292Y-151615158D01*
X206686949Y-151540338D01*
X206742237Y-151485482D01*
X206824678Y-151452846D01*
X206938362Y-151444142D01*
X207035361Y-151479496D01*
X207110781Y-151551376D01*
X207159724Y-151652253D01*
X207177294Y-151774596D01*
X207158595Y-151910876D01*
X207146924Y-151948422D01*
X207088138Y-152043919D01*
X206991856Y-152122459D01*
X206873099Y-152173584D01*
X206805576Y-152186049D01*
X206721716Y-152186954D01*
X206641052Y-152170245D01*
X206558266Y-152131931D01*
X206468044Y-152068022D01*
X206365069Y-151974528D01*
X206244026Y-151847458D01*
X206099598Y-151682821D01*
X206037195Y-151609243D01*
X205879978Y-151429370D01*
X205744021Y-151290352D01*
X205623035Y-151187865D01*
X205510733Y-151117583D01*
X205400829Y-151075179D01*
X205287035Y-151056329D01*
X205230729Y-151054375D01*
X205066596Y-151075493D01*
X204924328Y-151141368D01*
X204796024Y-151255787D01*
X204785860Y-151267463D01*
X204702766Y-151397867D01*
X204655025Y-151545614D01*
X204643996Y-151697099D01*
X204671037Y-151838714D01*
X204719347Y-151933451D01*
X204791992Y-151997523D01*
X204892923Y-152040717D01*
X204999069Y-152054905D01*
X205046514Y-152048678D01*
X205142461Y-152001194D01*
X205220565Y-151919685D01*
X205273165Y-151818526D01*
X205292603Y-151712091D01*
X205274308Y-151621205D01*
X205228296Y-151568257D01*
X205164959Y-151561109D01*
X205092390Y-151599150D01*
X205052481Y-151637961D01*
X205001851Y-151688603D01*
X204963895Y-151702492D01*
X204927527Y-151689947D01*
X204881738Y-151641611D01*
X204881075Y-151577864D01*
X204925469Y-151510821D01*
X204928570Y-151507878D01*
X205023770Y-151450061D01*
X205125602Y-151439522D01*
X205223784Y-151473398D01*
X205308035Y-151548824D01*
X205353881Y-151626312D01*
X205385960Y-151708564D01*
X205394621Y-151770845D01*
X205382459Y-151839269D01*
X205376961Y-151858716D01*
X205327971Y-151987179D01*
X205263142Y-152078170D01*
X205182990Y-152140331D01*
X205064651Y-152183596D01*
X204928922Y-152186324D01*
X204806266Y-152153629D01*
X204724399Y-152105452D01*
X204622746Y-152024905D01*
X204512585Y-151922460D01*
X204405194Y-151808588D01*
X204313768Y-151696350D01*
X204170978Y-151518445D01*
X204023829Y-151361450D01*
X203881166Y-151233967D01*
X203751836Y-151144602D01*
X203739572Y-151137877D01*
X203566595Y-151071273D01*
X203397632Y-151054056D01*
X203239288Y-151083847D01*
X203098169Y-151158266D01*
X202980879Y-151274934D01*
X202894024Y-151431471D01*
X202889103Y-151444266D01*
X202848586Y-151577475D01*
X202840145Y-151687799D01*
X202863874Y-151794509D01*
X202891093Y-151859542D01*
X202967661Y-151970398D01*
X203068191Y-152036653D01*
X203185434Y-152055616D01*
X203312138Y-152024600D01*
X203322893Y-152019677D01*
X203418608Y-151946545D01*
X203478951Y-151839993D01*
X203497709Y-151723657D01*
X203483110Y-151623891D01*
X203442600Y-151568962D01*
X203381104Y-151560709D01*
X203303546Y-151600966D01*
X203263690Y-151636423D01*
X203192415Y-151690271D01*
X203136553Y-151695839D01*
X203099007Y-151653205D01*
X203091926Y-151631711D01*
X203100549Y-151572748D01*
X203143960Y-151511884D01*
X203207127Y-151465057D01*
X203264995Y-151448203D01*
X203363606Y-151449703D01*
X203432485Y-151471369D01*
X203493303Y-151520790D01*
X203503768Y-151531818D01*
X203573660Y-151631541D01*
X203598408Y-151738632D01*
X203581128Y-151867122D01*
X203579576Y-151873021D01*
X203519388Y-152012521D01*
X203428132Y-152113116D01*
X203312927Y-152172528D01*
X203180895Y-152188480D01*
X203039158Y-152158696D01*
X202905662Y-152088497D01*
X202837411Y-152032577D01*
X202749011Y-151947490D01*
X202652925Y-151845742D01*
X202578333Y-151760075D01*
X202404077Y-151556748D01*
X202253578Y-151393989D01*
X202121744Y-151268002D01*
X202003483Y-151174995D01*
X201893702Y-151111175D01*
X201787308Y-151072746D01*
X201679208Y-151055916D01*
X201631007Y-151054375D01*
X201470442Y-151076897D01*
X201327444Y-151146389D01*
X201202205Y-151258703D01*
X201117426Y-151386776D01*
X201073703Y-151539272D01*
X201069164Y-151722732D01*
X201069214Y-151723429D01*
X201081300Y-151821925D01*
X201105592Y-151889270D01*
X201150460Y-151947089D01*
X201159238Y-151956033D01*
X201266381Y-152029734D01*
X201386207Y-152053206D01*
X201511512Y-152025196D01*
X201524241Y-152019433D01*
X201623958Y-151945612D01*
X201682310Y-151839351D01*
X201698542Y-151722439D01*
X201684197Y-151623217D01*
X201644147Y-151568968D01*
X201582873Y-151561198D01*
X201504852Y-151601417D01*
X201459111Y-151641834D01*
X201374360Y-151726585D01*
X201324081Y-151664492D01*
X201291374Y-151614694D01*
X201294162Y-151574907D01*
X201310452Y-151546669D01*
X201377193Y-151487120D01*
X201471884Y-151450799D01*
X201572189Y-151444452D01*
X201616396Y-151454249D01*
X201708741Y-151511460D01*
X201766051Y-151607081D01*
X201788924Y-151742200D01*
X201789430Y-151768750D01*
X201768993Y-151923701D01*
X201708835Y-152045346D01*
X201611313Y-152131009D01*
X201478786Y-152178016D01*
X201422574Y-152184989D01*
X201321881Y-152182074D01*
X201225253Y-152155293D01*
X201126405Y-152100322D01*
X201019052Y-152012837D01*
X200896909Y-151888515D01*
X200757319Y-151727395D01*
X200591455Y-151532550D01*
X200450005Y-151377423D01*
X200327602Y-151257992D01*
X200218879Y-151170234D01*
X200118470Y-151110126D01*
X200021008Y-151073644D01*
X199921127Y-151056767D01*
X199859513Y-151054375D01*
X199687328Y-151078586D01*
X199536584Y-151146707D01*
X199413484Y-151251977D01*
X199324231Y-151387630D01*
X199275028Y-151546903D01*
X199269486Y-151697730D01*
X199301107Y-151845120D01*
X199367669Y-151954512D01*
X199467972Y-152024153D01*
X199501432Y-152036139D01*
X199587195Y-152051789D01*
X199665770Y-152050633D01*
X199676112Y-152048517D01*
X199769408Y-152001717D01*
X199846444Y-151920693D01*
X199899433Y-151820093D01*
X199920590Y-151714563D01*
X199903267Y-151621205D01*
X199857139Y-151568679D01*
X199793737Y-151561701D01*
X199722563Y-151600176D01*
X199698620Y-151623229D01*
X199632122Y-151674307D01*
X199570678Y-151686494D01*
X199526152Y-151658865D01*
X199516047Y-151637458D01*
X199515756Y-151563836D01*
X199556646Y-151502591D01*
X199627341Y-151459937D01*
X199716466Y-151442089D01*
X199812646Y-151455263D01*
X199834685Y-151463382D01*
X199926755Y-151527175D01*
X199984776Y-151619981D01*
X200009621Y-151731062D01*
X200002164Y-151849675D01*
X199963280Y-151965081D01*
X199893842Y-152066537D01*
X199794725Y-152143303D01*
X199778697Y-152151389D01*
X199678372Y-152187028D01*
X199579958Y-152194639D01*
X199478985Y-152171569D01*
X199370982Y-152115164D01*
X199251478Y-152022772D01*
X199116002Y-151891738D01*
X198960084Y-151719410D01*
X198868071Y-151610954D01*
X198707660Y-151426842D01*
X198567048Y-151284801D01*
X198440240Y-151180698D01*
X198321239Y-151110402D01*
X198204050Y-151069779D01*
X198082676Y-151054697D01*
X198060521Y-151054375D01*
X197892407Y-151076708D01*
X197746947Y-151145508D01*
X197626296Y-151254193D01*
X197552042Y-151350942D01*
X197508733Y-151444910D01*
X197489157Y-151556466D01*
X197485727Y-151651221D01*
X197499840Y-151806528D01*
X197544928Y-151921444D01*
X197622879Y-151999783D01*
X197670759Y-152024781D01*
X197794895Y-152051708D01*
X197912513Y-152032908D01*
X198012998Y-151974265D01*
X198085737Y-151881661D01*
X198118372Y-151776708D01*
X198118512Y-151666580D01*
X198089052Y-151593704D01*
X198036454Y-151561956D01*
X197967185Y-151575214D01*
X197887708Y-151637353D01*
X197887091Y-151638012D01*
X197833897Y-151688297D01*
X197794848Y-151702556D01*
X197757413Y-151689998D01*
X197710417Y-151642590D01*
X197705859Y-151582769D01*
X197738991Y-151522078D01*
X197805067Y-151472061D01*
X197854885Y-151452961D01*
X197937978Y-151439544D01*
X198012300Y-151456319D01*
X198046188Y-151471647D01*
X198135406Y-151535745D01*
X198186903Y-151626350D01*
X198205390Y-151752242D01*
X198205611Y-151768750D01*
X198183891Y-151919164D01*
X198122698Y-152040515D01*
X198029420Y-152128319D01*
X197911447Y-152178096D01*
X197776166Y-152185361D01*
X197630965Y-152145632D01*
X197604707Y-152133325D01*
X197519336Y-152077137D01*
X197413402Y-151986683D01*
X197296302Y-151871321D01*
X197177431Y-151740405D01*
X197066185Y-151603290D01*
X197047729Y-151578720D01*
X196882852Y-151382773D01*
X196713351Y-151231370D01*
X196542368Y-151125493D01*
X196373045Y-151066128D01*
X196208523Y-151054257D01*
X196051946Y-151090864D01*
X195906455Y-151176934D01*
X195868671Y-151209531D01*
X195768557Y-151330551D01*
X195711104Y-151472249D01*
X195692503Y-151644074D01*
X195692500Y-151646489D01*
X195706507Y-151801384D01*
X195750136Y-151916014D01*
X195825799Y-151995500D01*
X195868478Y-152020003D01*
X195967624Y-152054406D01*
X196061599Y-152052613D01*
X196134218Y-152032183D01*
X196222623Y-151979077D01*
X196291080Y-151896518D01*
X196333163Y-151798999D01*
X196342447Y-151701015D01*
X196315999Y-151622154D01*
X196257169Y-151568250D01*
X196189734Y-151564347D01*
X196122113Y-151610342D01*
X196109974Y-151624669D01*
X196049943Y-151675518D01*
X195992397Y-151683760D01*
X195949790Y-151650798D01*
X195935642Y-151605042D01*
X195951178Y-151534386D01*
X196009385Y-151480594D01*
X196101024Y-151450266D01*
X196158375Y-151445959D01*
X196241621Y-151459478D01*
X196315355Y-151507390D01*
X196337575Y-151528488D01*
X196385553Y-151582788D01*
X196410305Y-151635707D01*
X196419243Y-151708463D01*
X196420104Y-151764704D01*
X196415030Y-151865223D01*
X196395021Y-151937684D01*
X196352902Y-152006375D01*
X196345976Y-152015577D01*
X196243151Y-152120602D01*
X196128946Y-152176544D01*
X195995457Y-152187122D01*
X195983574Y-152186108D01*
X195890535Y-152167056D01*
X195797253Y-152125040D01*
X195697761Y-152055413D01*
X195586089Y-151953526D01*
X195456269Y-151814731D01*
X195353154Y-151695208D01*
X195189460Y-151505685D01*
X195049769Y-151355779D01*
X194928325Y-151241349D01*
X194819375Y-151158255D01*
X194717164Y-151102356D01*
X194615936Y-151069512D01*
X194509938Y-151055582D01*
X194462494Y-151054375D01*
X194299807Y-151078741D01*
X194156814Y-151147152D01*
X194039376Y-151252575D01*
X193953351Y-151387980D01*
X193904598Y-151546335D01*
X193898978Y-151720609D01*
X193899921Y-151729504D01*
X193934240Y-151866353D01*
X194003408Y-151965018D01*
X194098106Y-152024456D01*
X194215284Y-152049165D01*
X194326992Y-152030771D01*
X194424564Y-151977186D01*
X194499334Y-151896318D01*
X194542637Y-151796077D01*
X194545807Y-151684373D01*
X194530744Y-151629569D01*
X194486775Y-151571697D01*
X194423567Y-151556005D01*
X194354216Y-151582784D01*
X194310807Y-151624669D01*
X194252155Y-151673705D01*
X194193964Y-151683437D01*
X194150200Y-151654625D01*
X194136042Y-151615158D01*
X194145699Y-151540338D01*
X194200987Y-151485482D01*
X194283428Y-151452846D01*
X194398070Y-151443543D01*
X194494898Y-151477958D01*
X194569203Y-151548542D01*
X194616275Y-151647745D01*
X194631401Y-151768016D01*
X194609871Y-151901805D01*
X194593227Y-151949373D01*
X194521076Y-152065778D01*
X194417593Y-152144633D01*
X194290863Y-152183693D01*
X194148974Y-152180708D01*
X194000013Y-152133432D01*
X193975154Y-152121134D01*
X193874609Y-152055133D01*
X193749667Y-151950475D01*
X193606039Y-151812021D01*
X193578279Y-151783508D01*
X193419983Y-151619673D01*
X193293458Y-151489382D01*
X193193926Y-151387907D01*
X193116613Y-151310521D01*
X193056744Y-151252495D01*
X193009542Y-151209104D01*
X192970234Y-151175618D01*
X192940834Y-151152459D01*
X192848229Y-151081813D01*
X193747667Y-150181740D01*
X194647104Y-149281667D01*
X203980722Y-149281667D01*
X203966826Y-149194766D01*
X207002419Y-149194766D01*
X207007238Y-149222136D01*
X207019847Y-149253224D01*
X207045527Y-149271081D01*
X207096639Y-149279297D01*
X207185543Y-149281462D01*
X207211576Y-149281483D01*
X207400313Y-149281299D01*
X207406035Y-149157433D01*
X207426834Y-149043854D01*
X207479764Y-148970359D01*
X207569377Y-148931868D01*
X207614071Y-148925355D01*
X207709980Y-148906078D01*
X207840194Y-148865341D01*
X207993063Y-148807918D01*
X208156935Y-148738581D01*
X208320160Y-148662102D01*
X208345354Y-148648940D01*
X210523574Y-148648940D01*
X210542591Y-148741327D01*
X210561467Y-148828403D01*
X210571159Y-148936291D01*
X210571870Y-149048651D01*
X210563802Y-149149142D01*
X210547160Y-149221424D01*
X210536380Y-149241070D01*
X210533249Y-149249766D01*
X210542022Y-149257140D01*
X210566558Y-149263297D01*
X210610714Y-149268346D01*
X210678350Y-149272393D01*
X210773326Y-149275545D01*
X210899499Y-149277909D01*
X211060728Y-149279592D01*
X211260873Y-149280701D01*
X211503793Y-149281344D01*
X211793346Y-149281626D01*
X212000823Y-149281667D01*
X217669475Y-149281667D01*
X219081667Y-149281667D01*
X219081667Y-146856320D01*
X219081554Y-146503371D01*
X219081228Y-146166087D01*
X219080704Y-145848146D01*
X219079998Y-145553224D01*
X219079126Y-145285000D01*
X219078104Y-145047151D01*
X219076949Y-144843353D01*
X219075676Y-144677285D01*
X219074302Y-144552623D01*
X219072842Y-144473046D01*
X219071313Y-144442230D01*
X219071110Y-144441997D01*
X219060542Y-144470585D01*
X219040089Y-144539470D01*
X219012906Y-144637662D01*
X218988199Y-144730834D01*
X218903674Y-145023165D01*
X218797730Y-145338720D01*
X218676970Y-145660265D01*
X218547996Y-145970564D01*
X218417410Y-146252383D01*
X218367912Y-146350005D01*
X218290340Y-146504680D01*
X218235680Y-146630392D01*
X218198085Y-146742593D01*
X218171703Y-146856738D01*
X218167607Y-146879172D01*
X218140585Y-147010149D01*
X218103192Y-147163235D01*
X218062364Y-147310530D01*
X218051393Y-147346518D01*
X218012198Y-147482488D01*
X217993109Y-147577595D01*
X217992798Y-147639358D01*
X217996979Y-147654752D01*
X218005392Y-147733770D01*
X217990894Y-147810184D01*
X217976563Y-147886347D01*
X217979306Y-147978513D01*
X217996414Y-148088599D01*
X218015539Y-148246783D01*
X218019888Y-148425025D01*
X218016888Y-148499120D01*
X218004495Y-148632801D01*
X217982141Y-148740380D01*
X217942940Y-148848583D01*
X217905536Y-148931117D01*
X217851611Y-149036155D01*
X217795669Y-149131041D01*
X217747995Y-149198633D01*
X217738909Y-149208906D01*
X217669475Y-149281667D01*
X212000823Y-149281667D01*
X212276889Y-149281297D01*
X212536489Y-149280232D01*
X212774915Y-149278541D01*
X212987459Y-149276291D01*
X213169414Y-149273549D01*
X213316073Y-149270384D01*
X213422729Y-149266864D01*
X213484673Y-149263056D01*
X213498959Y-149260081D01*
X213478021Y-149234985D01*
X213425409Y-149197529D01*
X213399740Y-149182238D01*
X213333709Y-149140756D01*
X213241687Y-149077778D01*
X213139485Y-149004253D01*
X213096602Y-148972313D01*
X212896205Y-148822782D01*
X212730933Y-148702992D01*
X212595038Y-148609076D01*
X212482774Y-148537166D01*
X212388394Y-148483392D01*
X212321563Y-148450680D01*
X212231583Y-148408675D01*
X212111871Y-148350732D01*
X211979669Y-148285276D01*
X211879445Y-148234665D01*
X211722574Y-148157908D01*
X211561968Y-148085060D01*
X211407062Y-148019864D01*
X211267293Y-147966063D01*
X211152098Y-147927401D01*
X211070912Y-147907621D01*
X211050538Y-147905834D01*
X210937268Y-147930298D01*
X210844976Y-147997917D01*
X210818280Y-148033765D01*
X210775630Y-148093575D01*
X210713453Y-148170625D01*
X210671388Y-148218958D01*
X210582485Y-148350732D01*
X210532015Y-148498920D01*
X210523574Y-148648940D01*
X208345354Y-148648940D01*
X208471086Y-148583255D01*
X208525806Y-148551884D01*
X208647889Y-148481057D01*
X208772057Y-148411362D01*
X208880058Y-148352942D01*
X208929031Y-148327760D01*
X209019687Y-148280553D01*
X209098802Y-148235690D01*
X209140698Y-148208782D01*
X209176394Y-148181022D01*
X209172879Y-148173181D01*
X209124519Y-148181281D01*
X209106875Y-148184895D01*
X209028327Y-148204970D01*
X208928394Y-148235527D01*
X208868750Y-148255805D01*
X208774639Y-148283785D01*
X208650077Y-148313380D01*
X208517108Y-148339523D01*
X208471875Y-148347043D01*
X208314472Y-148377770D01*
X208121973Y-148424896D01*
X207908120Y-148484450D01*
X207686656Y-148552463D01*
X207471324Y-148624963D01*
X207329257Y-148677154D01*
X207227946Y-148717474D01*
X207164401Y-148749604D01*
X207126509Y-148783028D01*
X207102159Y-148827234D01*
X207087866Y-148866214D01*
X207044395Y-148996413D01*
X207017246Y-149087587D01*
X207004045Y-149150212D01*
X207002419Y-149194766D01*
X203966826Y-149194766D01*
X203963984Y-149176997D01*
X203965953Y-149052672D01*
X203991578Y-148979364D01*
X204015803Y-148939196D01*
X204051043Y-148904924D01*
X204104093Y-148873896D01*
X204181750Y-148843459D01*
X204290808Y-148810959D01*
X204438062Y-148773744D01*
X204630309Y-148729160D01*
X204635417Y-148728004D01*
X204774076Y-148695367D01*
X204937800Y-148654945D01*
X205100692Y-148613196D01*
X205177813Y-148592744D01*
X205310556Y-148557801D01*
X205439235Y-148525319D01*
X205546606Y-148499580D01*
X205601146Y-148487605D01*
X205697587Y-148464770D01*
X205808712Y-148433418D01*
X205922152Y-148397701D01*
X206025534Y-148361774D01*
X206106489Y-148329790D01*
X206152646Y-148305901D01*
X206158057Y-148300627D01*
X206193994Y-148280576D01*
X206227490Y-148276250D01*
X206284806Y-148264243D01*
X206353861Y-148234400D01*
X206418670Y-148195993D01*
X206463245Y-148158292D01*
X206473282Y-148133720D01*
X206491587Y-148111004D01*
X206548686Y-148071648D01*
X206635426Y-148021407D01*
X206730579Y-147971979D01*
X206849134Y-147911893D01*
X206959456Y-147853567D01*
X207047142Y-147804746D01*
X207088930Y-147779328D01*
X207164005Y-147733584D01*
X207261426Y-147679218D01*
X207330812Y-147642943D01*
X207424735Y-147591770D01*
X207540917Y-147523126D01*
X207658119Y-147449670D01*
X207688447Y-147429817D01*
X207823950Y-147347069D01*
X207997391Y-147251706D01*
X208197017Y-147149311D01*
X208411079Y-147045468D01*
X208627824Y-146945762D01*
X208835502Y-146855777D01*
X209022362Y-146781097D01*
X209146563Y-146736912D01*
X209265020Y-146692741D01*
X209400740Y-146634314D01*
X209403094Y-146633172D01*
X212361183Y-146633172D01*
X212402586Y-146653452D01*
X212489968Y-146661669D01*
X212546459Y-146662810D01*
X212646486Y-146668520D01*
X212772059Y-146682280D01*
X212896951Y-146701184D01*
X212903646Y-146702382D01*
X213027681Y-146721408D01*
X213153924Y-146735317D01*
X213256156Y-146741254D01*
X213260834Y-146741294D01*
X213367280Y-146747399D01*
X213471641Y-146762123D01*
X213512188Y-146771378D01*
X213604590Y-146793556D01*
X213707966Y-146813032D01*
X213809502Y-146828134D01*
X213896383Y-146837191D01*
X213955796Y-146838531D01*
X213975190Y-146831787D01*
X213963590Y-146808763D01*
X213931411Y-146746464D01*
X213882607Y-146652501D01*
X213821129Y-146534487D01*
X213763542Y-146424167D01*
X213694439Y-146291256D01*
X213634787Y-146175285D01*
X213588560Y-146084086D01*
X213559736Y-146025491D01*
X213551875Y-146007278D01*
X213539694Y-145980904D01*
X213506620Y-145918185D01*
X213457859Y-145828810D01*
X213404865Y-145733596D01*
X213339334Y-145619071D01*
X213291678Y-145543523D01*
X213255223Y-145499052D01*
X213223294Y-145477757D01*
X213189215Y-145471740D01*
X213183542Y-145471667D01*
X213144632Y-145476225D01*
X213113603Y-145496435D01*
X213082532Y-145542096D01*
X213043492Y-145623010D01*
X213022264Y-145671123D01*
X212886046Y-145944877D01*
X212731307Y-146186949D01*
X212564016Y-146388411D01*
X212502308Y-146448871D01*
X212412099Y-146535991D01*
X212364705Y-146595722D01*
X212361183Y-146633172D01*
X209403094Y-146633172D01*
X209525215Y-146573935D01*
X209530209Y-146571310D01*
X209651850Y-146507453D01*
X209783173Y-146439100D01*
X209896572Y-146380615D01*
X209900625Y-146378540D01*
X210014806Y-146315178D01*
X210135084Y-146240813D01*
X210216030Y-146185384D01*
X210299693Y-146127573D01*
X210365414Y-146095933D01*
X210435874Y-146082728D01*
X210524389Y-146080209D01*
X210689324Y-146080209D01*
X210769005Y-145939021D01*
X210826586Y-145844881D01*
X210901149Y-145733448D01*
X210976617Y-145628743D01*
X210977076Y-145628136D01*
X211038264Y-145543892D01*
X211122684Y-145422825D01*
X211225132Y-145272738D01*
X211340407Y-145101436D01*
X211463306Y-144916722D01*
X211588626Y-144726401D01*
X211711165Y-144538278D01*
X211825720Y-144360157D01*
X211892714Y-144254584D01*
X211976402Y-144127278D01*
X212066943Y-143998368D01*
X212152196Y-143884719D01*
X212207947Y-143816675D01*
X212239332Y-143780343D01*
X214223261Y-143780343D01*
X214235905Y-143808786D01*
X214273257Y-143857189D01*
X214338673Y-143929453D01*
X214435512Y-144029478D01*
X214567132Y-144161164D01*
X214590186Y-144183991D01*
X214742752Y-144337531D01*
X214912013Y-144512248D01*
X215083522Y-144692952D01*
X215242832Y-144864453D01*
X215352076Y-144985141D01*
X215708229Y-145384968D01*
X215728251Y-145276182D01*
X215735264Y-145213680D01*
X215741993Y-145109595D01*
X215747913Y-144975259D01*
X215752500Y-144822005D01*
X215754709Y-144704375D01*
X215756712Y-144536052D01*
X215756618Y-144409859D01*
X215753318Y-144315019D01*
X215745702Y-144240753D01*
X215732663Y-144176285D01*
X215713091Y-144110837D01*
X215685879Y-144033632D01*
X215685646Y-144032990D01*
X215623646Y-143811616D01*
X215606271Y-143654158D01*
X215602728Y-143562383D01*
X215594786Y-143512614D01*
X215578539Y-143493940D01*
X215550080Y-143495453D01*
X215549479Y-143495587D01*
X215509213Y-143504062D01*
X215425097Y-143521354D01*
X215305154Y-143545828D01*
X215157408Y-143575848D01*
X214989883Y-143609781D01*
X214888021Y-143630367D01*
X214713145Y-143665892D01*
X214553817Y-143698659D01*
X214417977Y-143727003D01*
X214313561Y-143749260D01*
X214248507Y-143763764D01*
X214231965Y-143767961D01*
X214223261Y-143780343D01*
X212239332Y-143780343D01*
X212284879Y-143727617D01*
X212357150Y-143642038D01*
X212410291Y-143577092D01*
X212414167Y-143572175D01*
X212463655Y-143518603D01*
X212505260Y-143489353D01*
X212513386Y-143487532D01*
X212544300Y-143474676D01*
X212546639Y-143467448D01*
X212566657Y-143441625D01*
X212616621Y-143400670D01*
X212639243Y-143384663D01*
X212704744Y-143332734D01*
X212730968Y-143294990D01*
X212714913Y-143276602D01*
X212702593Y-143275625D01*
X212661209Y-143265662D01*
X212594972Y-143240949D01*
X212576915Y-143233240D01*
X212499878Y-143200541D01*
X212435308Y-143174919D01*
X212427396Y-143172033D01*
X212377764Y-143151160D01*
X212297936Y-143114313D01*
X212204953Y-143069363D01*
X212202500Y-143068151D01*
X212116444Y-143026675D01*
X212049893Y-142996626D01*
X212016020Y-142983923D01*
X212014903Y-142983837D01*
X212001152Y-143007777D01*
X211981396Y-143069121D01*
X211964185Y-143136719D01*
X211939043Y-143232812D01*
X211911913Y-143317285D01*
X211896266Y-143355559D01*
X211879670Y-143418083D01*
X211869551Y-143515948D01*
X211867609Y-143625413D01*
X211868085Y-143730437D01*
X211862748Y-143793849D01*
X211849407Y-143826827D01*
X211825874Y-143840552D01*
X211825469Y-143840659D01*
X211786892Y-143840777D01*
X211779167Y-143830556D01*
X211757415Y-143805568D01*
X211727604Y-143791992D01*
X211678184Y-143756987D01*
X211647910Y-143685727D01*
X211634659Y-143572005D01*
X211633646Y-143517069D01*
X211623130Y-143409188D01*
X211593207Y-143349112D01*
X211546313Y-143336446D01*
X211484887Y-143370797D01*
X211411365Y-143451772D01*
X211336351Y-143565059D01*
X211291439Y-143655748D01*
X211268579Y-143748984D01*
X211261337Y-143857709D01*
X211258630Y-143970454D01*
X211254580Y-144040464D01*
X211247007Y-144077913D01*
X211233730Y-144092976D01*
X211212569Y-144095828D01*
X211210313Y-144095834D01*
X211179036Y-144119097D01*
X211170625Y-144176522D01*
X211158612Y-144261308D01*
X211128003Y-144338115D01*
X211086947Y-144392094D01*
X211043591Y-144408396D01*
X211043418Y-144408364D01*
X210994415Y-144373790D01*
X210949129Y-144292896D01*
X210910224Y-144172270D01*
X210880366Y-144018499D01*
X210877563Y-143998468D01*
X210866229Y-143907846D01*
X210861727Y-143836620D01*
X210865904Y-143770685D01*
X210880607Y-143695933D01*
X210907684Y-143598258D01*
X210946602Y-143471216D01*
X211012330Y-143280647D01*
X211090925Y-143086835D01*
X211177111Y-142900431D01*
X211265609Y-142732086D01*
X211351143Y-142592452D01*
X211428435Y-142492179D01*
X211435164Y-142485081D01*
X211514746Y-142414000D01*
X211598978Y-142364898D01*
X211695649Y-142337139D01*
X211812551Y-142330088D01*
X211957470Y-142343108D01*
X212138198Y-142375563D01*
X212308334Y-142413795D01*
X212535350Y-142459281D01*
X212778272Y-142490354D01*
X213009479Y-142507259D01*
X213175096Y-142517299D01*
X213303897Y-142528995D01*
X213411972Y-142545095D01*
X213515410Y-142568348D01*
X213630301Y-142601502D01*
X213710625Y-142627032D01*
X213864505Y-142676330D01*
X213978540Y-142710377D01*
X214063091Y-142730632D01*
X214128523Y-142738558D01*
X214185198Y-142735613D01*
X214243479Y-142723259D01*
X214293053Y-142709120D01*
X214389930Y-142684937D01*
X214480516Y-142669740D01*
X214518873Y-142667084D01*
X214584643Y-142657348D01*
X214689732Y-142630329D01*
X214824698Y-142589307D01*
X214980103Y-142537562D01*
X215146507Y-142478377D01*
X215314470Y-142415031D01*
X215474554Y-142350806D01*
X215617317Y-142288982D01*
X215649710Y-142274045D01*
X215772215Y-142215700D01*
X215856070Y-142171695D01*
X215910970Y-142134855D01*
X215946610Y-142098002D01*
X215972684Y-142053959D01*
X215986015Y-142025076D01*
X216034417Y-141945719D01*
X216113108Y-141848105D01*
X216209734Y-141745306D01*
X216311939Y-141650395D01*
X216407369Y-141576445D01*
X216414458Y-141571750D01*
X216462098Y-141523539D01*
X216522125Y-141437002D01*
X216587255Y-141322937D01*
X216603403Y-141291542D01*
X216654083Y-141189397D01*
X216685656Y-141116936D01*
X218965352Y-141116936D01*
X218994648Y-141183313D01*
X219054576Y-141227142D01*
X219073356Y-141228761D01*
X219080739Y-141184146D01*
X219081667Y-141130560D01*
X219077340Y-141060993D01*
X219070000Y-141000000D01*
X219001688Y-140984575D01*
X218953969Y-141059245D01*
X218966032Y-141120755D01*
X216685656Y-141116936D01*
X216687752Y-141112127D01*
X216708060Y-141043654D01*
X216718656Y-140967902D01*
X216723191Y-140868793D01*
X216724983Y-140755987D01*
X216721552Y-140528460D01*
X216705873Y-140326320D01*
X216678988Y-140157052D01*
X216641943Y-140028140D01*
X216615906Y-139974307D01*
X216553991Y-139899112D01*
X216464560Y-139838614D01*
X216336912Y-139786278D01*
X216277331Y-139767518D01*
X216140158Y-139713164D01*
X216053276Y-139645994D01*
X216015359Y-139564850D01*
X216013342Y-139536465D01*
X216026129Y-139459379D01*
X216053029Y-139401037D01*
X216086156Y-139328296D01*
X216087082Y-139254401D01*
X216064295Y-139210504D01*
X216055058Y-139175483D01*
X216077525Y-139149056D01*
X216106244Y-139100136D01*
X216118332Y-139029716D01*
X216118334Y-139029063D01*
X216129869Y-138958931D01*
X216157648Y-138910314D01*
X216158021Y-138910000D01*
X216193907Y-138856315D01*
X216182410Y-138790183D01*
X216144792Y-138732012D01*
X216107644Y-138674664D01*
X216091879Y-138630233D01*
X216091875Y-138629779D01*
X216113928Y-138603034D01*
X216173070Y-138560366D01*
X216258773Y-138508940D01*
X216310156Y-138481212D01*
X216415246Y-138423799D01*
X216492666Y-138370638D01*
X216547172Y-138312181D01*
X216583516Y-138238884D01*
X216606452Y-138141198D01*
X216620734Y-138009578D01*
X216630995Y-137836903D01*
X216641728Y-137667160D01*
X216656485Y-137539657D01*
X216678368Y-137443724D01*
X216710483Y-137368693D01*
X216755933Y-137303894D01*
X216799911Y-137256323D01*
X216872396Y-137183480D01*
X217136979Y-137203300D01*
X217292764Y-137215149D01*
X217407608Y-137224881D01*
X217493343Y-137234272D01*
X217561801Y-137245099D01*
X217624815Y-137259138D01*
X217694216Y-137278164D01*
X217755425Y-137296140D01*
X217885628Y-137327830D01*
X218000917Y-137343307D01*
X218059696Y-137343076D01*
X218123954Y-137342292D01*
X218190320Y-137356448D01*
X218273210Y-137390096D01*
X218380612Y-137444375D01*
X218497944Y-137503770D01*
X218618934Y-137560605D01*
X218721254Y-137604481D01*
X218740056Y-137611743D01*
X218871052Y-137673557D01*
X218961680Y-137750538D01*
X219024371Y-137854340D01*
X219039617Y-137892529D01*
X219043704Y-137899113D01*
X219047498Y-137894505D01*
X219051011Y-137876876D01*
X219054254Y-137844398D01*
X219057238Y-137795242D01*
X219059976Y-137727580D01*
X219062477Y-137639585D01*
X219064753Y-137529427D01*
X219066816Y-137395278D01*
X219068677Y-137235310D01*
X219070347Y-137047696D01*
X219071838Y-136830605D01*
X219073160Y-136582211D01*
X219074326Y-136300684D01*
X219075346Y-135984197D01*
X219076231Y-135630921D01*
X219076994Y-135239028D01*
X219077645Y-134806690D01*
X219078196Y-134332078D01*
X219078657Y-133813364D01*
X219079041Y-133248720D01*
X219079358Y-132636317D01*
X219079621Y-131974327D01*
X219079803Y-131392327D01*
X219081667Y-124787467D01*
X219982801Y-123898004D01*
X220163620Y-123719927D01*
X220333147Y-123553742D01*
X220487644Y-123403060D01*
X220623370Y-123271491D01*
X220736588Y-123162645D01*
X220823558Y-123080134D01*
X220880541Y-123027567D01*
X220903797Y-123008556D01*
X220903925Y-123008542D01*
X220929342Y-123028091D01*
D11*
X137305000Y-90120000D02*
X136680000Y-90120000D01*
X139520000Y-90120000D02*
X138895000Y-90120000D01*
X137305000Y-86080000D02*
X136680000Y-86080000D01*
X139520000Y-86080000D02*
X138895000Y-86080000D01*
X136680000Y-86080000D02*
X136680000Y-90120000D01*
X139520000Y-86080000D02*
X139520000Y-90120000D01*
X102280000Y-147270000D02*
X101655000Y-147270000D01*
X104495000Y-147270000D02*
X103870000Y-147270000D01*
X102280000Y-143230000D02*
X101655000Y-143230000D01*
X104495000Y-143230000D02*
X103870000Y-143230000D01*
X101655000Y-143230000D02*
X101655000Y-147270000D01*
X104495000Y-143230000D02*
X104495000Y-147270000D01*
X137330000Y-147270000D02*
X136705000Y-147270000D01*
X139545000Y-147270000D02*
X138920000Y-147270000D01*
X137330000Y-143230000D02*
X136705000Y-143230000D01*
X139545000Y-143230000D02*
X138920000Y-143230000D01*
X136705000Y-143230000D02*
X136705000Y-147270000D01*
X139545000Y-143230000D02*
X139545000Y-147270000D01*
X175455000Y-132945000D02*
X174830000Y-132945000D01*
X177670000Y-132945000D02*
X177045000Y-132945000D01*
X175455000Y-128905000D02*
X174830000Y-128905000D01*
X177670000Y-128905000D02*
X177045000Y-128905000D01*
X174830000Y-128905000D02*
X174830000Y-132945000D01*
X177670000Y-128905000D02*
X177670000Y-132945000D01*
X137330000Y-128220000D02*
X136705000Y-128220000D01*
X139545000Y-128220000D02*
X138920000Y-128220000D01*
X137330000Y-124180000D02*
X136705000Y-124180000D01*
X139545000Y-124180000D02*
X138920000Y-124180000D01*
X136705000Y-124180000D02*
X136705000Y-128220000D01*
X139545000Y-124180000D02*
X139545000Y-128220000D01*
X118280000Y-128220000D02*
X117655000Y-128220000D01*
X120495000Y-128220000D02*
X119870000Y-128220000D01*
X118280000Y-124180000D02*
X117655000Y-124180000D01*
X120495000Y-124180000D02*
X119870000Y-124180000D01*
X117655000Y-124180000D02*
X117655000Y-128220000D01*
X120495000Y-124180000D02*
X120495000Y-128220000D01*
X99230000Y-128220000D02*
X98605000Y-128220000D01*
X101445000Y-128220000D02*
X100820000Y-128220000D01*
X99230000Y-124180000D02*
X98605000Y-124180000D01*
X101445000Y-124180000D02*
X100820000Y-124180000D01*
X98605000Y-124180000D02*
X98605000Y-128220000D01*
X101445000Y-124180000D02*
X101445000Y-128220000D01*
X99230000Y-109170000D02*
X98605000Y-109170000D01*
X101445000Y-109170000D02*
X100820000Y-109170000D01*
X99230000Y-105130000D02*
X98605000Y-105130000D01*
X101445000Y-105130000D02*
X100820000Y-105130000D01*
X98605000Y-105130000D02*
X98605000Y-109170000D01*
X101445000Y-105130000D02*
X101445000Y-109170000D01*
X118255000Y-109170000D02*
X117630000Y-109170000D01*
X120470000Y-109170000D02*
X119845000Y-109170000D01*
X118255000Y-105130000D02*
X117630000Y-105130000D01*
X120470000Y-105130000D02*
X119845000Y-105130000D01*
X117630000Y-105130000D02*
X117630000Y-109170000D01*
X120470000Y-105130000D02*
X120470000Y-109170000D01*
X137330000Y-109170000D02*
X136705000Y-109170000D01*
X139545000Y-109170000D02*
X138920000Y-109170000D01*
X137330000Y-105130000D02*
X136705000Y-105130000D01*
X139545000Y-105130000D02*
X138920000Y-105130000D01*
X136705000Y-105130000D02*
X136705000Y-109170000D01*
X139545000Y-105130000D02*
X139545000Y-109170000D01*
X169130000Y-100805000D02*
X169130000Y-100180000D01*
X169130000Y-103020000D02*
X169130000Y-102395000D01*
X173170000Y-100805000D02*
X173170000Y-100180000D01*
X173170000Y-103020000D02*
X173170000Y-102395000D01*
X173170000Y-100180000D02*
X169130000Y-100180000D01*
X173170000Y-103020000D02*
X169130000Y-103020000D01*
X157980000Y-71120000D02*
X157355000Y-71120000D01*
X160195000Y-71120000D02*
X159570000Y-71120000D01*
X157980000Y-67080000D02*
X157355000Y-67080000D01*
X160195000Y-67080000D02*
X159570000Y-67080000D01*
X157355000Y-67080000D02*
X157355000Y-71120000D01*
X160195000Y-67080000D02*
X160195000Y-71120000D01*
X182123473Y-73673473D02*
X181451722Y-73001722D01*
X178064680Y-69614680D02*
X178736432Y-70286432D01*
X182102260Y-72351184D02*
X179386970Y-69635894D01*
X180801184Y-73652260D02*
X182102260Y-72351184D01*
X178085894Y-70936970D02*
X180801184Y-73652260D01*
X179386970Y-69635894D02*
X178085894Y-70936970D01*
X118255000Y-90120000D02*
X117630000Y-90120000D01*
X120470000Y-90120000D02*
X119845000Y-90120000D01*
X118255000Y-86080000D02*
X117630000Y-86080000D01*
X120470000Y-86080000D02*
X119845000Y-86080000D01*
X117630000Y-86080000D02*
X117630000Y-90120000D01*
X120470000Y-86080000D02*
X120470000Y-90120000D01*
X99230000Y-90120000D02*
X98605000Y-90120000D01*
X101445000Y-90120000D02*
X100820000Y-90120000D01*
X99230000Y-86080000D02*
X98605000Y-86080000D01*
X101445000Y-86080000D02*
X100820000Y-86080000D01*
X98605000Y-86080000D02*
X98605000Y-90120000D01*
X101445000Y-86080000D02*
X101445000Y-90120000D01*
X99205000Y-71120000D02*
X98580000Y-71120000D01*
X101420000Y-71120000D02*
X100795000Y-71120000D01*
X99205000Y-67080000D02*
X98580000Y-67080000D01*
X101420000Y-67080000D02*
X100795000Y-67080000D01*
X98580000Y-67080000D02*
X98580000Y-71120000D01*
X101420000Y-67080000D02*
X101420000Y-71120000D01*
X118255000Y-71120000D02*
X117630000Y-71120000D01*
X120470000Y-71120000D02*
X119845000Y-71120000D01*
X118255000Y-67080000D02*
X117630000Y-67080000D01*
X120470000Y-67080000D02*
X119845000Y-67080000D01*
X117630000Y-67080000D02*
X117630000Y-71120000D01*
X120470000Y-67080000D02*
X120470000Y-71120000D01*
X137305000Y-71120000D02*
X136680000Y-71120000D01*
X139520000Y-71120000D02*
X138895000Y-71120000D01*
X137305000Y-67080000D02*
X136680000Y-67080000D01*
X139520000Y-67080000D02*
X138895000Y-67080000D01*
X136680000Y-67080000D02*
X136680000Y-71120000D01*
X139520000Y-67080000D02*
X139520000Y-71120000D01*
X215780000Y-60510000D02*
X218020000Y-60510000D01*
X215780000Y-60270000D02*
X218020000Y-60270000D01*
X215780000Y-60390000D02*
X218020000Y-60390000D01*
X216900000Y-56220000D02*
X216900000Y-56870000D01*
X216900000Y-61760000D02*
X216900000Y-61110000D01*
X215780000Y-56870000D02*
X215780000Y-61110000D01*
X218020000Y-56870000D02*
X215780000Y-56870000D01*
X218020000Y-61110000D02*
X218020000Y-56870000D01*
X215780000Y-61110000D02*
X218020000Y-61110000D01*
X216900000Y-59180000D02*
X216150000Y-59180000D01*
X216900000Y-58320000D02*
X216150000Y-58320000D01*
X217550000Y-58320000D02*
X216900000Y-59160000D01*
X216900000Y-59160000D02*
X216150000Y-58320000D01*
X216150000Y-59180000D02*
X217550000Y-59180000D01*
X216150000Y-58320000D02*
X217550000Y-58320000D01*
X216900000Y-57680000D02*
X216900000Y-58320000D01*
X213180000Y-60510000D02*
X215420000Y-60510000D01*
X213180000Y-60270000D02*
X215420000Y-60270000D01*
X213180000Y-60390000D02*
X215420000Y-60390000D01*
X214300000Y-56220000D02*
X214300000Y-56870000D01*
X214300000Y-61760000D02*
X214300000Y-61110000D01*
X213180000Y-56870000D02*
X213180000Y-61110000D01*
X215420000Y-56870000D02*
X213180000Y-56870000D01*
X215420000Y-61110000D02*
X215420000Y-56870000D01*
X213180000Y-61110000D02*
X215420000Y-61110000D01*
X214300000Y-57680000D02*
X214300000Y-58320000D01*
X214300000Y-58320000D02*
X213550000Y-58320000D01*
X213550000Y-58320000D02*
X214950000Y-58320000D01*
X214950000Y-58320000D02*
X214300000Y-59160000D01*
X214300000Y-59160000D02*
X213550000Y-58320000D01*
X214300000Y-59180000D02*
X213550000Y-59180000D01*
X213550000Y-59180000D02*
X214950000Y-59180000D01*
X220420000Y-67090000D02*
X218580000Y-67090000D01*
X218580000Y-67090000D02*
X218580000Y-70930000D01*
X218580000Y-70930000D02*
X220420000Y-70930000D01*
X220420000Y-70930000D02*
X220420000Y-67090000D01*
X219500000Y-66140000D02*
X219500000Y-67090000D01*
X219500000Y-71880000D02*
X219500000Y-70930000D01*
X211645000Y-57033750D02*
X209805000Y-57033750D01*
X209805000Y-57033750D02*
X209805000Y-60873750D01*
X209805000Y-60873750D02*
X211645000Y-60873750D01*
X211645000Y-60873750D02*
X211645000Y-57033750D01*
X210725000Y-56083750D02*
X210725000Y-57033750D01*
X210725000Y-61823750D02*
X210725000Y-60873750D01*
X203002064Y-59790000D02*
X201797936Y-59790000D01*
X203002064Y-61610000D02*
X201797936Y-61610000D01*
D12*
X208706250Y-62856250D02*
G75*
G02X209106250Y-63256250I0J-400000D01*
G01*
X195706250Y-63256250D02*
G75*
G02X196106250Y-62856250I400000J0D01*
G01*
X196106250Y-75256250D02*
G75*
G02X195706250Y-74856250I0J400000D01*
G01*
X209106250Y-74856250D02*
G75*
G02X208706250Y-75256250I-400000J0D01*
G01*
X208706250Y-75256250D02*
X204206250Y-75256250D01*
X209106250Y-72556250D02*
X209106250Y-74856250D01*
X209106250Y-63256250D02*
X209106250Y-65556250D01*
X204206250Y-62856250D02*
X208706250Y-62856250D01*
X196106250Y-62856250D02*
X200606250Y-62856250D01*
X195706250Y-65256250D02*
X195706250Y-63256250D01*
X195706250Y-70256250D02*
X195706250Y-67856250D01*
X195706250Y-74856250D02*
X195706250Y-72856250D01*
X200606250Y-75256250D02*
X196106250Y-75256250D01*
D11*
X215232500Y-67086875D02*
X213392500Y-67086875D01*
X213392500Y-67086875D02*
X213392500Y-70926875D01*
X213392500Y-70926875D02*
X215232500Y-70926875D01*
X215232500Y-70926875D02*
X215232500Y-67086875D01*
X214312500Y-66136875D02*
X214312500Y-67086875D01*
X214312500Y-71876875D02*
X214312500Y-70926875D01*
X212970000Y-78070000D02*
X214300000Y-78070000D01*
X212970000Y-79400000D02*
X212970000Y-78070000D01*
X215570000Y-78070000D02*
X218170000Y-78070000D01*
X215570000Y-80670000D02*
X215570000Y-78070000D01*
X212970000Y-80670000D02*
X215570000Y-80670000D01*
X218170000Y-78070000D02*
X218170000Y-90890000D01*
X212970000Y-80670000D02*
X212970000Y-90890000D01*
X212970000Y-90890000D02*
X218170000Y-90890000D01*
X187719280Y-147631324D02*
X189303199Y-146047405D01*
X189303199Y-146047405D02*
X186305066Y-143049272D01*
X186305066Y-143049272D02*
X184721147Y-144633191D01*
X184721147Y-144633191D02*
X187719280Y-147631324D01*
X188970859Y-147298984D02*
X188511240Y-146839365D01*
X185053487Y-143381612D02*
X185513107Y-143841232D01*
X187210163Y-147122207D02*
X188794082Y-145538288D01*
X187125310Y-147037354D02*
X188709229Y-145453435D01*
X187295016Y-147207060D02*
X188878935Y-145623141D01*
X187719280Y-85718824D02*
X189303199Y-84134905D01*
X189303199Y-84134905D02*
X186305066Y-81136772D01*
X186305066Y-81136772D02*
X184721147Y-82720691D01*
X184721147Y-82720691D02*
X187719280Y-85718824D01*
X188970859Y-85386484D02*
X188511240Y-84926865D01*
X185053487Y-81469112D02*
X185513107Y-81928732D01*
X187210163Y-85209707D02*
X188794082Y-83625788D01*
X187125310Y-85124854D02*
X188709229Y-83540935D01*
X187295016Y-85294560D02*
X188878935Y-83710641D01*
X187295016Y-71007060D02*
X188878935Y-69423141D01*
X187125310Y-70837354D02*
X188709229Y-69253435D01*
X187210163Y-70922207D02*
X188794082Y-69338288D01*
X185053487Y-67181612D02*
X185513107Y-67641232D01*
X188970859Y-71098984D02*
X188511240Y-70639365D01*
X184721147Y-68433191D02*
X187719280Y-71431324D01*
X186305066Y-66849272D02*
X184721147Y-68433191D01*
X189303199Y-69847405D02*
X186305066Y-66849272D01*
X187719280Y-71431324D02*
X189303199Y-69847405D01*
X219473125Y-92773750D02*
X220098125Y-92773750D01*
X217258125Y-92773750D02*
X217883125Y-92773750D01*
X219473125Y-96813750D02*
X220098125Y-96813750D01*
X217258125Y-96813750D02*
X217883125Y-96813750D01*
X220098125Y-96813750D02*
X220098125Y-92773750D01*
X217258125Y-96813750D02*
X217258125Y-92773750D01*
X220098125Y-99639375D02*
X220098125Y-103679375D01*
X217258125Y-99639375D02*
X217258125Y-103679375D01*
X220098125Y-99639375D02*
X219473125Y-99639375D01*
X217883125Y-99639375D02*
X217258125Y-99639375D01*
X220098125Y-103679375D02*
X219473125Y-103679375D01*
X217883125Y-103679375D02*
X217258125Y-103679375D01*
X213725611Y-123950089D02*
X213283669Y-123508148D01*
X215291852Y-125516331D02*
X214849911Y-125074389D01*
X216582322Y-121093378D02*
X216140381Y-120651436D01*
X218148564Y-122659619D02*
X217706622Y-122217678D01*
X216140381Y-120651436D02*
X213283669Y-123508148D01*
X218148564Y-122659619D02*
X215291852Y-125516331D01*
X218148564Y-127259619D02*
X215291852Y-130116331D01*
X216140381Y-125251436D02*
X213283669Y-128108148D01*
X218148564Y-127259619D02*
X217706622Y-126817678D01*
X216582322Y-125693378D02*
X216140381Y-125251436D01*
X215291852Y-130116331D02*
X214849911Y-129674389D01*
X213725611Y-128550089D02*
X213283669Y-128108148D01*
X187719280Y-61906324D02*
X189303199Y-60322405D01*
X189303199Y-60322405D02*
X186305066Y-57324272D01*
X186305066Y-57324272D02*
X184721147Y-58908191D01*
X184721147Y-58908191D02*
X187719280Y-61906324D01*
X188970859Y-61573984D02*
X188511240Y-61114365D01*
X185053487Y-57656612D02*
X185513107Y-58116232D01*
X187210163Y-61397207D02*
X188794082Y-59813288D01*
X187125310Y-61312354D02*
X188709229Y-59728435D01*
X187295016Y-61482060D02*
X188878935Y-59898141D01*
X187295016Y-66244560D02*
X188878935Y-64660641D01*
X187125310Y-66074854D02*
X188709229Y-64490935D01*
X187210163Y-66159707D02*
X188794082Y-64575788D01*
X185053487Y-62419112D02*
X185513107Y-62878732D01*
X188970859Y-66336484D02*
X188511240Y-65876865D01*
X184721147Y-63670691D02*
X187719280Y-66668824D01*
X186305066Y-62086772D02*
X184721147Y-63670691D01*
X189303199Y-65084905D02*
X186305066Y-62086772D01*
X187719280Y-66668824D02*
X189303199Y-65084905D01*
X187719280Y-76193824D02*
X189303199Y-74609905D01*
X189303199Y-74609905D02*
X186305066Y-71611772D01*
X186305066Y-71611772D02*
X184721147Y-73195691D01*
X184721147Y-73195691D02*
X187719280Y-76193824D01*
X188970859Y-75861484D02*
X188511240Y-75401865D01*
X185053487Y-71944112D02*
X185513107Y-72403732D01*
X187210163Y-75684707D02*
X188794082Y-74100788D01*
X187125310Y-75599854D02*
X188709229Y-74015935D01*
X187295016Y-75769560D02*
X188878935Y-74185641D01*
X187295016Y-90057060D02*
X188878935Y-88473141D01*
X187125310Y-89887354D02*
X188709229Y-88303435D01*
X187210163Y-89972207D02*
X188794082Y-88388288D01*
X185053487Y-86231612D02*
X185513107Y-86691232D01*
X188970859Y-90148984D02*
X188511240Y-89689365D01*
X184721147Y-87483191D02*
X187719280Y-90481324D01*
X186305066Y-85899272D02*
X184721147Y-87483191D01*
X189303199Y-88897405D02*
X186305066Y-85899272D01*
X187719280Y-90481324D02*
X189303199Y-88897405D01*
X187719280Y-95243824D02*
X189303199Y-93659905D01*
X189303199Y-93659905D02*
X186305066Y-90661772D01*
X186305066Y-90661772D02*
X184721147Y-92245691D01*
X184721147Y-92245691D02*
X187719280Y-95243824D01*
X188970859Y-94911484D02*
X188511240Y-94451865D01*
X185053487Y-90994112D02*
X185513107Y-91453732D01*
X187210163Y-94734707D02*
X188794082Y-93150788D01*
X187125310Y-94649854D02*
X188709229Y-93065935D01*
X187295016Y-94819560D02*
X188878935Y-93235641D01*
X187295016Y-99582060D02*
X188878935Y-97998141D01*
X187125310Y-99412354D02*
X188709229Y-97828435D01*
X187210163Y-99497207D02*
X188794082Y-97913288D01*
X185053487Y-95756612D02*
X185513107Y-96216232D01*
X188970859Y-99673984D02*
X188511240Y-99214365D01*
X184721147Y-97008191D02*
X187719280Y-100006324D01*
X186305066Y-95424272D02*
X184721147Y-97008191D01*
X189303199Y-98422405D02*
X186305066Y-95424272D01*
X187719280Y-100006324D02*
X189303199Y-98422405D01*
X187719280Y-109531324D02*
X189303199Y-107947405D01*
X189303199Y-107947405D02*
X186305066Y-104949272D01*
X186305066Y-104949272D02*
X184721147Y-106533191D01*
X184721147Y-106533191D02*
X187719280Y-109531324D01*
X188970859Y-109198984D02*
X188511240Y-108739365D01*
X185053487Y-105281612D02*
X185513107Y-105741232D01*
X187210163Y-109022207D02*
X188794082Y-107438288D01*
X187125310Y-108937354D02*
X188709229Y-107353435D01*
X187295016Y-109107060D02*
X188878935Y-107523141D01*
X187295016Y-113869560D02*
X188878935Y-112285641D01*
X187125310Y-113699854D02*
X188709229Y-112115935D01*
X187210163Y-113784707D02*
X188794082Y-112200788D01*
X185053487Y-110044112D02*
X185513107Y-110503732D01*
X188970859Y-113961484D02*
X188511240Y-113501865D01*
X184721147Y-111295691D02*
X187719280Y-114293824D01*
X186305066Y-109711772D02*
X184721147Y-111295691D01*
X189303199Y-112709905D02*
X186305066Y-109711772D01*
X187719280Y-114293824D02*
X189303199Y-112709905D01*
X187295016Y-118632060D02*
X188878935Y-117048141D01*
X187125310Y-118462354D02*
X188709229Y-116878435D01*
X187210163Y-118547207D02*
X188794082Y-116963288D01*
X185053487Y-114806612D02*
X185513107Y-115266232D01*
X188970859Y-118723984D02*
X188511240Y-118264365D01*
X184721147Y-116058191D02*
X187719280Y-119056324D01*
X186305066Y-114474272D02*
X184721147Y-116058191D01*
X189303199Y-117472405D02*
X186305066Y-114474272D01*
X187719280Y-119056324D02*
X189303199Y-117472405D01*
X187295016Y-104344560D02*
X188878935Y-102760641D01*
X187125310Y-104174854D02*
X188709229Y-102590935D01*
X187210163Y-104259707D02*
X188794082Y-102675788D01*
X185053487Y-100519112D02*
X185513107Y-100978732D01*
X188970859Y-104436484D02*
X188511240Y-103976865D01*
X184721147Y-101770691D02*
X187719280Y-104768824D01*
X186305066Y-100186772D02*
X184721147Y-101770691D01*
X189303199Y-103184905D02*
X186305066Y-100186772D01*
X187719280Y-104768824D02*
X189303199Y-103184905D01*
X187295016Y-123394560D02*
X188878935Y-121810641D01*
X187125310Y-123224854D02*
X188709229Y-121640935D01*
X187210163Y-123309707D02*
X188794082Y-121725788D01*
X185053487Y-119569112D02*
X185513107Y-120028732D01*
X188970859Y-123486484D02*
X188511240Y-123026865D01*
X184721147Y-120820691D02*
X187719280Y-123818824D01*
X186305066Y-119236772D02*
X184721147Y-120820691D01*
X189303199Y-122234905D02*
X186305066Y-119236772D01*
X187719280Y-123818824D02*
X189303199Y-122234905D01*
X187719280Y-128581324D02*
X189303199Y-126997405D01*
X189303199Y-126997405D02*
X186305066Y-123999272D01*
X186305066Y-123999272D02*
X184721147Y-125583191D01*
X184721147Y-125583191D02*
X187719280Y-128581324D01*
X188970859Y-128248984D02*
X188511240Y-127789365D01*
X185053487Y-124331612D02*
X185513107Y-124791232D01*
X187210163Y-128072207D02*
X188794082Y-126488288D01*
X187125310Y-127987354D02*
X188709229Y-126403435D01*
X187295016Y-128157060D02*
X188878935Y-126573141D01*
X187295016Y-132919560D02*
X188878935Y-131335641D01*
X187125310Y-132749854D02*
X188709229Y-131165935D01*
X187210163Y-132834707D02*
X188794082Y-131250788D01*
X185053487Y-129094112D02*
X185513107Y-129553732D01*
X188970859Y-133011484D02*
X188511240Y-132551865D01*
X184721147Y-130345691D02*
X187719280Y-133343824D01*
X186305066Y-128761772D02*
X184721147Y-130345691D01*
X189303199Y-131759905D02*
X186305066Y-128761772D01*
X187719280Y-133343824D02*
X189303199Y-131759905D01*
X187295016Y-142444560D02*
X188878935Y-140860641D01*
X187125310Y-142274854D02*
X188709229Y-140690935D01*
X187210163Y-142359707D02*
X188794082Y-140775788D01*
X185053487Y-138619112D02*
X185513107Y-139078732D01*
X188970859Y-142536484D02*
X188511240Y-142076865D01*
X184721147Y-139870691D02*
X187719280Y-142868824D01*
X186305066Y-138286772D02*
X184721147Y-139870691D01*
X189303199Y-141284905D02*
X186305066Y-138286772D01*
X187719280Y-142868824D02*
X189303199Y-141284905D01*
X187295016Y-137682060D02*
X188878935Y-136098141D01*
X187125310Y-137512354D02*
X188709229Y-135928435D01*
X187210163Y-137597207D02*
X188794082Y-136013288D01*
X185053487Y-133856612D02*
X185513107Y-134316232D01*
X188970859Y-137773984D02*
X188511240Y-137314365D01*
X184721147Y-135108191D02*
X187719280Y-138106324D01*
X186305066Y-133524272D02*
X184721147Y-135108191D01*
X189303199Y-136522405D02*
X186305066Y-133524272D01*
X187719280Y-138106324D02*
X189303199Y-136522405D01*
X187719280Y-80956324D02*
X189303199Y-79372405D01*
X189303199Y-79372405D02*
X186305066Y-76374272D01*
X186305066Y-76374272D02*
X184721147Y-77958191D01*
X184721147Y-77958191D02*
X187719280Y-80956324D01*
X188970859Y-80623984D02*
X188511240Y-80164365D01*
X185053487Y-76706612D02*
X185513107Y-77166232D01*
X187210163Y-80447207D02*
X188794082Y-78863288D01*
X187125310Y-80362354D02*
X188709229Y-78778435D01*
X187295016Y-80532060D02*
X188878935Y-78948141D01*
X212982500Y-114756875D02*
X218182500Y-114756875D01*
X212982500Y-109616875D02*
X212982500Y-114756875D01*
X218182500Y-107016875D02*
X218182500Y-114756875D01*
X212982500Y-109616875D02*
X215582500Y-109616875D01*
X215582500Y-109616875D02*
X215582500Y-107016875D01*
X215582500Y-107016875D02*
X218182500Y-107016875D01*
X212982500Y-108346875D02*
X212982500Y-107016875D01*
X212982500Y-107016875D02*
X214312500Y-107016875D01*
X216900000Y-71880000D02*
X216900000Y-70930000D01*
X216900000Y-66140000D02*
X216900000Y-67090000D01*
X217820000Y-70930000D02*
X217820000Y-67090000D01*
X215980000Y-70930000D02*
X217820000Y-70930000D01*
X215980000Y-67090000D02*
X215980000Y-70930000D01*
X217820000Y-67090000D02*
X215980000Y-67090000D01*
X194976250Y-57033750D02*
X193136250Y-57033750D01*
X193136250Y-57033750D02*
X193136250Y-60873750D01*
X193136250Y-60873750D02*
X194976250Y-60873750D01*
X194976250Y-60873750D02*
X194976250Y-57033750D01*
X194056250Y-56083750D02*
X194056250Y-57033750D01*
X194056250Y-61823750D02*
X194056250Y-60873750D01*
X201326875Y-128726875D02*
G75*
G02X203326875Y-128726875I1000000J0D01*
G01*
X203326875Y-128726875D02*
X208786875Y-128726875D01*
X208786875Y-128726875D02*
X208786875Y-77806875D01*
X208786875Y-77806875D02*
X195866875Y-77806875D01*
X195866875Y-77806875D02*
X195866875Y-128726875D01*
X195866875Y-128726875D02*
X201326875Y-128726875D01*
D12*
X200606250Y-144312500D02*
X196106250Y-144312500D01*
X195706250Y-143912500D02*
X195706250Y-141912500D01*
X195706250Y-139312500D02*
X195706250Y-136912500D01*
X195706250Y-134312500D02*
X195706250Y-132312500D01*
X196106250Y-131912500D02*
X200606250Y-131912500D01*
X204206250Y-131912500D02*
X208706250Y-131912500D01*
X209106250Y-132312500D02*
X209106250Y-134612500D01*
X209106250Y-141612500D02*
X209106250Y-143912500D01*
X208706250Y-144312500D02*
X204206250Y-144312500D01*
X209106250Y-143912500D02*
G75*
G02X208706250Y-144312500I-400000J0D01*
G01*
X196106250Y-144312500D02*
G75*
G02X195706250Y-143912500I0J400000D01*
G01*
X195706250Y-132312500D02*
G75*
G02X196106250Y-131912500I400000J0D01*
G01*
X208706250Y-131912500D02*
G75*
G02X209106250Y-132312500I0J-400000D01*
G01*
D13*
X215260000Y-103925000D02*
X213240000Y-103925000D01*
X213240000Y-103925000D02*
G75*
G02X211920000Y-102655000I-25000J1295000D01*
G01*
X211920000Y-102655000D02*
X211920000Y-93845000D01*
X211920000Y-93845000D02*
G75*
G02X213240000Y-92575000I1295000J-25000D01*
G01*
X213240000Y-92575000D02*
X215260000Y-92575000D01*
X215260000Y-92575000D02*
G75*
G02X216580000Y-93845000I25000J-1295000D01*
G01*
X216580000Y-93845000D02*
X216580000Y-102655000D01*
X216580000Y-102655000D02*
G75*
G02X215260000Y-103925000I-1295000J25000D01*
G01*
D12*
X179353298Y-70600252D02*
X178881893Y-71071657D01*
X179454313Y-70162519D02*
X178780878Y-70499237D01*
X179218611Y-70936970D01*
X179892046Y-70667596D02*
X180363451Y-71139000D01*
X179353298Y-71543061D01*
X180767512Y-71543061D02*
X180834855Y-71610405D01*
X180868527Y-71711420D01*
X180868527Y-71778764D01*
X180834855Y-71879779D01*
X180733840Y-72048138D01*
X180565481Y-72216496D01*
X180397122Y-72317512D01*
X180296107Y-72351183D01*
X180228764Y-72351183D01*
X180127748Y-72317512D01*
X180060405Y-72250168D01*
X180026733Y-72149153D01*
X180026733Y-72081809D01*
X180060405Y-71980794D01*
X180161420Y-71812435D01*
X180329779Y-71644076D01*
X180498138Y-71543061D01*
X180599153Y-71509389D01*
X180666496Y-71509389D01*
X180767512Y-71543061D01*
X181003214Y-73192977D02*
X181104229Y-72620557D01*
X180599153Y-72788916D02*
X181306260Y-72081809D01*
X181575634Y-72351183D01*
X181609305Y-72452199D01*
X181609305Y-72519542D01*
X181575634Y-72620557D01*
X181474618Y-72721573D01*
X181373603Y-72755244D01*
X181306260Y-72755244D01*
X181205244Y-72721573D01*
X180935870Y-72452199D01*
X102907142Y-69266666D02*
X102954761Y-69314285D01*
X103002380Y-69457142D01*
X103002380Y-69552380D01*
X102954761Y-69695238D01*
X102859523Y-69790476D01*
X102764285Y-69838095D01*
X102573809Y-69885714D01*
X102430952Y-69885714D01*
X102240476Y-69838095D01*
X102145238Y-69790476D01*
X102050000Y-69695238D01*
X102002380Y-69552380D01*
X102002380Y-69457142D01*
X102050000Y-69314285D01*
X102097619Y-69266666D01*
X102002380Y-68933333D02*
X102002380Y-68314285D01*
X102383333Y-68647619D01*
X102383333Y-68504761D01*
X102430952Y-68409523D01*
X102478571Y-68361904D01*
X102573809Y-68314285D01*
X102811904Y-68314285D01*
X102907142Y-68361904D01*
X102954761Y-68409523D01*
X103002380Y-68504761D01*
X103002380Y-68790476D01*
X102954761Y-68885714D01*
X102907142Y-68933333D01*
D14*
X219825714Y-69507142D02*
X219825714Y-69918571D01*
X219825714Y-69712857D02*
X219105714Y-69712857D01*
X219208571Y-69781428D01*
X219277142Y-69850000D01*
X219311428Y-69918571D01*
X219825714Y-69198571D02*
X219105714Y-69198571D01*
X219825714Y-68787142D02*
X219414285Y-69095714D01*
X219105714Y-68787142D02*
X219517142Y-69198571D01*
X219105714Y-68135714D02*
X219105714Y-68478571D01*
X219448571Y-68512857D01*
X219414285Y-68478571D01*
X219380000Y-68410000D01*
X219380000Y-68238571D01*
X219414285Y-68170000D01*
X219448571Y-68135714D01*
X219517142Y-68101428D01*
X219688571Y-68101428D01*
X219757142Y-68135714D01*
X219791428Y-68170000D01*
X219825714Y-68238571D01*
X219825714Y-68410000D01*
X219791428Y-68478571D01*
X219757142Y-68512857D01*
X210330714Y-59485178D02*
X210330714Y-59828035D01*
X210673571Y-59862321D01*
X210639285Y-59828035D01*
X210605000Y-59759464D01*
X210605000Y-59588035D01*
X210639285Y-59519464D01*
X210673571Y-59485178D01*
X210742142Y-59450892D01*
X210913571Y-59450892D01*
X210982142Y-59485178D01*
X211016428Y-59519464D01*
X211050714Y-59588035D01*
X211050714Y-59759464D01*
X211016428Y-59828035D01*
X210982142Y-59862321D01*
X211050714Y-59142321D02*
X210330714Y-59142321D01*
X211050714Y-58730892D02*
X210639285Y-59039464D01*
X210330714Y-58730892D02*
X210742142Y-59142321D01*
X211050714Y-58045178D02*
X211050714Y-58456607D01*
X211050714Y-58250892D02*
X210330714Y-58250892D01*
X210433571Y-58319464D01*
X210502142Y-58388035D01*
X210536428Y-58456607D01*
X213918214Y-69572589D02*
X213918214Y-69709732D01*
X213952500Y-69778303D01*
X213986785Y-69812589D01*
X214089642Y-69881160D01*
X214226785Y-69915446D01*
X214501071Y-69915446D01*
X214569642Y-69881160D01*
X214603928Y-69846875D01*
X214638214Y-69778303D01*
X214638214Y-69641160D01*
X214603928Y-69572589D01*
X214569642Y-69538303D01*
X214501071Y-69504017D01*
X214329642Y-69504017D01*
X214261071Y-69538303D01*
X214226785Y-69572589D01*
X214192500Y-69641160D01*
X214192500Y-69778303D01*
X214226785Y-69846875D01*
X214261071Y-69881160D01*
X214329642Y-69915446D01*
X214226785Y-69092589D02*
X214192500Y-69161160D01*
X214158214Y-69195446D01*
X214089642Y-69229732D01*
X214055357Y-69229732D01*
X213986785Y-69195446D01*
X213952500Y-69161160D01*
X213918214Y-69092589D01*
X213918214Y-68955446D01*
X213952500Y-68886875D01*
X213986785Y-68852589D01*
X214055357Y-68818303D01*
X214089642Y-68818303D01*
X214158214Y-68852589D01*
X214192500Y-68886875D01*
X214226785Y-68955446D01*
X214226785Y-69092589D01*
X214261071Y-69161160D01*
X214295357Y-69195446D01*
X214363928Y-69229732D01*
X214501071Y-69229732D01*
X214569642Y-69195446D01*
X214603928Y-69161160D01*
X214638214Y-69092589D01*
X214638214Y-68955446D01*
X214603928Y-68886875D01*
X214569642Y-68852589D01*
X214501071Y-68818303D01*
X214363928Y-68818303D01*
X214295357Y-68852589D01*
X214261071Y-68886875D01*
X214226785Y-68955446D01*
X214638214Y-68098303D02*
X214295357Y-68338303D01*
X214638214Y-68509732D02*
X213918214Y-68509732D01*
X213918214Y-68235446D01*
X213952500Y-68166875D01*
X213986785Y-68132589D01*
X214055357Y-68098303D01*
X214158214Y-68098303D01*
X214226785Y-68132589D01*
X214261071Y-68166875D01*
X214295357Y-68235446D01*
X214295357Y-68509732D01*
D12*
X220019494Y-83367708D02*
X219305208Y-83367708D01*
X219162351Y-83320089D01*
X219067113Y-83224851D01*
X219019494Y-83081994D01*
X219019494Y-82986755D01*
X220019494Y-83701041D02*
X220019494Y-84272470D01*
X219019494Y-83986755D02*
X220019494Y-83986755D01*
X219305208Y-84558184D02*
X219305208Y-85034375D01*
X219019494Y-84462946D02*
X220019494Y-84796279D01*
X219019494Y-85129613D01*
X219971875Y-85986755D02*
X220019494Y-85891517D01*
X220019494Y-85748660D01*
X219971875Y-85605803D01*
X219876636Y-85510565D01*
X219781398Y-85462946D01*
X219590922Y-85415327D01*
X219448065Y-85415327D01*
X219257589Y-85462946D01*
X219162351Y-85510565D01*
X219067113Y-85605803D01*
X219019494Y-85748660D01*
X219019494Y-85843898D01*
X219067113Y-85986755D01*
X219114732Y-86034375D01*
X219448065Y-86034375D01*
X219448065Y-85843898D01*
X219019494Y-110148809D02*
X220019494Y-110148809D01*
X219067113Y-110577380D02*
X219019494Y-110720238D01*
X219019494Y-110958333D01*
X219067113Y-111053571D01*
X219114732Y-111101190D01*
X219209970Y-111148809D01*
X219305208Y-111148809D01*
X219400446Y-111101190D01*
X219448065Y-111053571D01*
X219495684Y-110958333D01*
X219543303Y-110767857D01*
X219590922Y-110672619D01*
X219638541Y-110625000D01*
X219733779Y-110577380D01*
X219829017Y-110577380D01*
X219924255Y-110625000D01*
X219971875Y-110672619D01*
X220019494Y-110767857D01*
X220019494Y-111005952D01*
X219971875Y-111148809D01*
X219019494Y-111577380D02*
X220019494Y-111577380D01*
X220019494Y-111958333D01*
X219971875Y-112053571D01*
X219924255Y-112101190D01*
X219829017Y-112148809D01*
X219686160Y-112148809D01*
X219590922Y-112101190D01*
X219543303Y-112053571D01*
X219495684Y-111958333D01*
X219495684Y-111577380D01*
D14*
X216505714Y-69575714D02*
X216505714Y-69712857D01*
X216540000Y-69781428D01*
X216574285Y-69815714D01*
X216677142Y-69884285D01*
X216814285Y-69918571D01*
X217088571Y-69918571D01*
X217157142Y-69884285D01*
X217191428Y-69850000D01*
X217225714Y-69781428D01*
X217225714Y-69644285D01*
X217191428Y-69575714D01*
X217157142Y-69541428D01*
X217088571Y-69507142D01*
X216917142Y-69507142D01*
X216848571Y-69541428D01*
X216814285Y-69575714D01*
X216780000Y-69644285D01*
X216780000Y-69781428D01*
X216814285Y-69850000D01*
X216848571Y-69884285D01*
X216917142Y-69918571D01*
X216814285Y-69095714D02*
X216780000Y-69164285D01*
X216745714Y-69198571D01*
X216677142Y-69232857D01*
X216642857Y-69232857D01*
X216574285Y-69198571D01*
X216540000Y-69164285D01*
X216505714Y-69095714D01*
X216505714Y-68958571D01*
X216540000Y-68890000D01*
X216574285Y-68855714D01*
X216642857Y-68821428D01*
X216677142Y-68821428D01*
X216745714Y-68855714D01*
X216780000Y-68890000D01*
X216814285Y-68958571D01*
X216814285Y-69095714D01*
X216848571Y-69164285D01*
X216882857Y-69198571D01*
X216951428Y-69232857D01*
X217088571Y-69232857D01*
X217157142Y-69198571D01*
X217191428Y-69164285D01*
X217225714Y-69095714D01*
X217225714Y-68958571D01*
X217191428Y-68890000D01*
X217157142Y-68855714D01*
X217088571Y-68821428D01*
X216951428Y-68821428D01*
X216882857Y-68855714D01*
X216848571Y-68890000D01*
X216814285Y-68958571D01*
X217225714Y-68101428D02*
X216882857Y-68341428D01*
X217225714Y-68512857D02*
X216505714Y-68512857D01*
X216505714Y-68238571D01*
X216540000Y-68170000D01*
X216574285Y-68135714D01*
X216642857Y-68101428D01*
X216745714Y-68101428D01*
X216814285Y-68135714D01*
X216848571Y-68170000D01*
X216882857Y-68238571D01*
X216882857Y-68512857D01*
X193661964Y-59485178D02*
X193661964Y-59828035D01*
X194004821Y-59862321D01*
X193970535Y-59828035D01*
X193936250Y-59759464D01*
X193936250Y-59588035D01*
X193970535Y-59519464D01*
X194004821Y-59485178D01*
X194073392Y-59450892D01*
X194244821Y-59450892D01*
X194313392Y-59485178D01*
X194347678Y-59519464D01*
X194381964Y-59588035D01*
X194381964Y-59759464D01*
X194347678Y-59828035D01*
X194313392Y-59862321D01*
X194381964Y-59142321D02*
X193661964Y-59142321D01*
X194381964Y-58730892D02*
X193970535Y-59039464D01*
X193661964Y-58730892D02*
X194073392Y-59142321D01*
X194381964Y-58045178D02*
X194381964Y-58456607D01*
X194381964Y-58250892D02*
X193661964Y-58250892D01*
X193764821Y-58319464D01*
X193833392Y-58388035D01*
X193867678Y-58456607D01*
M02*
