M48
; DRILL file {KiCad (6.0.5)} date Wed May 11 10:45:20 2022
; FORMAT={-:-/ absolute / inch / decimal}
; #@! TF.CreationDate,2022-05-11T10:45:20-06:00
; #@! TF.GenerationSoftware,Kicad,Pcbnew,(6.0.5)
; #@! TF.FileFunction,NonPlated,1,2,NPTH
FMAT,2
INCH
; #@! TA.AperFunction,NonPlated,NPTH,ComponentDrill
T1C0.0256
; #@! TA.AperFunction,NonPlated,NPTH,ComponentDrill
T2C0.0689
; #@! TA.AperFunction,NonPlated,NPTH,ComponentDrill
T3C0.0787
; #@! TA.AperFunction,NonPlated,NPTH,ComponentDrill
T4C0.1181
; #@! TA.AperFunction,NonPlated,NPTH,ComponentDrill
T5C0.1200
; #@! TA.AperFunction,NonPlated,NPTH,ComponentDrill
T6C0.1570
%
G90
G05
T1
X7.8547Y-2.1555
X8.0823Y-2.1555
T2
X4.1125Y-2.5312
X4.1125Y-3.2812
X4.1125Y-4.0312
X4.1125Y-4.7812
X4.4875Y-5.5312
X4.5125Y-2.5312
X4.5125Y-3.2812
X4.5125Y-4.0312
X4.5125Y-4.7812
X4.8625Y-2.5312
X4.8625Y-3.2812
X4.8625Y-4.0312
X4.8625Y-4.7812
X4.8875Y-5.5312
X5.2625Y-2.5312
X5.2625Y-3.2812
X5.2625Y-4.0312
X5.2625Y-4.7812
X5.6125Y-2.5312
X5.6125Y-3.2812
X5.6125Y-4.0312
X5.6125Y-4.7812
X5.6125Y-5.5312
X6.0125Y-2.5312
X6.0125Y-3.2812
X6.0125Y-4.0312
X6.0125Y-4.7812
X6.0125Y-5.5312
X6.3625Y-2.5312
X6.5625Y-3.4562
X6.5625Y-3.8562
X6.5625Y-4.9562
X6.5625Y-5.3563
X6.7625Y-2.5312
T4
X4.5375Y-5.4312
X4.7875Y-5.3312
X6.3625Y-3.5562
X6.3625Y-5.0562
X6.4625Y-3.8062
X6.4625Y-5.3062
T5
X4.2175Y-5.2562
X5.1575Y-5.2562
X6.2875Y-3.1862
X6.2875Y-4.1262
X6.2875Y-4.6863
X6.2875Y-5.6262
T6
X4.2175Y-5.8563
X4.3125Y-2.5312
X4.3125Y-3.2812
X4.3125Y-4.0312
X4.3125Y-4.7812
X4.6875Y-5.5312
X5.0625Y-2.5312
X5.0625Y-3.2812
X5.0625Y-4.0312
X5.0625Y-4.7812
X5.1575Y-5.8563
X5.8125Y-2.5312
X5.8125Y-3.2812
X5.8125Y-4.0312
X5.8125Y-4.7812
X5.8125Y-5.5312
X6.5625Y-2.5312
X6.5625Y-3.6562
X6.5625Y-5.1562
X6.8875Y-3.1862
X6.8875Y-4.1262
X6.8875Y-4.6863
X6.8875Y-5.6262
T3
G00X7.9569Y-2.4983
M15
G01X7.9806Y-2.4983
M16
G05
G00X7.9569Y-2.9392
M15
G01X7.9806Y-2.9392
M16
G05
G00X7.9569Y-5.217
M15
G01X7.9806Y-5.217
M16
G05
G00X7.9569Y-5.658
M15
G01X7.9806Y-5.658
M16
G05
T0
M30
